G04 #@! TF.GenerationSoftware,KiCad,Pcbnew,(5.1.5)-3*
G04 #@! TF.CreationDate,2021-01-18T14:34:05-06:00*
G04 #@! TF.ProjectId,USB-PT100,5553422d-5054-4313-9030-2e6b69636164,B*
G04 #@! TF.SameCoordinates,Original*
G04 #@! TF.FileFunction,Legend,Top*
G04 #@! TF.FilePolarity,Positive*
%FSLAX46Y46*%
G04 Gerber Fmt 4.6, Leading zero omitted, Abs format (unit mm)*
G04 Created by KiCad (PCBNEW (5.1.5)-3) date 2021-01-18 14:34:05*
%MOMM*%
%LPD*%
G04 APERTURE LIST*
%ADD10C,0.150000*%
%ADD11C,0.100000*%
%ADD12C,0.300000*%
%ADD13C,0.120000*%
%ADD14C,0.200000*%
%ADD15C,0.010000*%
G04 APERTURE END LIST*
D10*
X177452380Y-98047619D02*
X176976190Y-98380952D01*
X177452380Y-98619047D02*
X176452380Y-98619047D01*
X176452380Y-98238095D01*
X176500000Y-98142857D01*
X176547619Y-98095238D01*
X176642857Y-98047619D01*
X176785714Y-98047619D01*
X176880952Y-98095238D01*
X176928571Y-98142857D01*
X176976190Y-98238095D01*
X176976190Y-98619047D01*
X176452380Y-97761904D02*
X176452380Y-97190476D01*
X177452380Y-97476190D02*
X176452380Y-97476190D01*
X177452380Y-96857142D02*
X176452380Y-96857142D01*
X176452380Y-96619047D01*
X176500000Y-96476190D01*
X176595238Y-96380952D01*
X176690476Y-96333333D01*
X176880952Y-96285714D01*
X177023809Y-96285714D01*
X177214285Y-96333333D01*
X177309523Y-96380952D01*
X177404761Y-96476190D01*
X177452380Y-96619047D01*
X177452380Y-96857142D01*
X177452380Y-95333333D02*
X177452380Y-95904761D01*
X177452380Y-95619047D02*
X176452380Y-95619047D01*
X176595238Y-95714285D01*
X176690476Y-95809523D01*
X176738095Y-95904761D01*
D11*
X102705047Y-87687190D02*
X102871714Y-88187190D01*
X103038380Y-87687190D01*
X103205047Y-88187190D02*
X103205047Y-87853857D01*
X103205047Y-87687190D02*
X103181238Y-87711000D01*
X103205047Y-87734809D01*
X103228857Y-87711000D01*
X103205047Y-87687190D01*
X103205047Y-87734809D01*
X103443142Y-87853857D02*
X103443142Y-88187190D01*
X103443142Y-87901476D02*
X103466952Y-87877666D01*
X103514571Y-87853857D01*
X103586000Y-87853857D01*
X103633619Y-87877666D01*
X103657428Y-87925285D01*
X103657428Y-88187190D01*
X104252666Y-88163380D02*
X104324095Y-88187190D01*
X104443142Y-88187190D01*
X104490761Y-88163380D01*
X104514571Y-88139571D01*
X104538380Y-88091952D01*
X104538380Y-88044333D01*
X104514571Y-87996714D01*
X104490761Y-87972904D01*
X104443142Y-87949095D01*
X104347904Y-87925285D01*
X104300285Y-87901476D01*
X104276476Y-87877666D01*
X104252666Y-87830047D01*
X104252666Y-87782428D01*
X104276476Y-87734809D01*
X104300285Y-87711000D01*
X104347904Y-87687190D01*
X104466952Y-87687190D01*
X104538380Y-87711000D01*
X104681238Y-87853857D02*
X104871714Y-87853857D01*
X104752666Y-87687190D02*
X104752666Y-88115761D01*
X104776476Y-88163380D01*
X104824095Y-88187190D01*
X104871714Y-88187190D01*
X105252666Y-88187190D02*
X105252666Y-87925285D01*
X105228857Y-87877666D01*
X105181238Y-87853857D01*
X105086000Y-87853857D01*
X105038380Y-87877666D01*
X105252666Y-88163380D02*
X105205047Y-88187190D01*
X105086000Y-88187190D01*
X105038380Y-88163380D01*
X105014571Y-88115761D01*
X105014571Y-88068142D01*
X105038380Y-88020523D01*
X105086000Y-87996714D01*
X105205047Y-87996714D01*
X105252666Y-87972904D01*
X105419333Y-87853857D02*
X105609809Y-87853857D01*
X105490761Y-87687190D02*
X105490761Y-88115761D01*
X105514571Y-88163380D01*
X105562190Y-88187190D01*
X105609809Y-88187190D01*
X105990761Y-87853857D02*
X105990761Y-88187190D01*
X105776476Y-87853857D02*
X105776476Y-88115761D01*
X105800285Y-88163380D01*
X105847904Y-88187190D01*
X105919333Y-88187190D01*
X105966952Y-88163380D01*
X105990761Y-88139571D01*
X106205047Y-88163380D02*
X106252666Y-88187190D01*
X106347904Y-88187190D01*
X106395523Y-88163380D01*
X106419333Y-88115761D01*
X106419333Y-88091952D01*
X106395523Y-88044333D01*
X106347904Y-88020523D01*
X106276476Y-88020523D01*
X106228857Y-87996714D01*
X106205047Y-87949095D01*
X106205047Y-87925285D01*
X106228857Y-87877666D01*
X106276476Y-87853857D01*
X106347904Y-87853857D01*
X106395523Y-87877666D01*
X185535714Y-85782190D02*
X185297619Y-85782190D01*
X185273809Y-86020285D01*
X185297619Y-85996476D01*
X185345238Y-85972666D01*
X185464285Y-85972666D01*
X185511904Y-85996476D01*
X185535714Y-86020285D01*
X185559523Y-86067904D01*
X185559523Y-86186952D01*
X185535714Y-86234571D01*
X185511904Y-86258380D01*
X185464285Y-86282190D01*
X185345238Y-86282190D01*
X185297619Y-86258380D01*
X185273809Y-86234571D01*
X185702380Y-85782190D02*
X185869047Y-86282190D01*
X186035714Y-85782190D01*
X186559523Y-86258380D02*
X186630952Y-86282190D01*
X186750000Y-86282190D01*
X186797619Y-86258380D01*
X186821428Y-86234571D01*
X186845238Y-86186952D01*
X186845238Y-86139333D01*
X186821428Y-86091714D01*
X186797619Y-86067904D01*
X186750000Y-86044095D01*
X186654761Y-86020285D01*
X186607142Y-85996476D01*
X186583333Y-85972666D01*
X186559523Y-85925047D01*
X186559523Y-85877428D01*
X186583333Y-85829809D01*
X186607142Y-85806000D01*
X186654761Y-85782190D01*
X186773809Y-85782190D01*
X186845238Y-85806000D01*
X186988095Y-85948857D02*
X187178571Y-85948857D01*
X187059523Y-85782190D02*
X187059523Y-86210761D01*
X187083333Y-86258380D01*
X187130952Y-86282190D01*
X187178571Y-86282190D01*
X187559523Y-86282190D02*
X187559523Y-86020285D01*
X187535714Y-85972666D01*
X187488095Y-85948857D01*
X187392857Y-85948857D01*
X187345238Y-85972666D01*
X187559523Y-86258380D02*
X187511904Y-86282190D01*
X187392857Y-86282190D01*
X187345238Y-86258380D01*
X187321428Y-86210761D01*
X187321428Y-86163142D01*
X187345238Y-86115523D01*
X187392857Y-86091714D01*
X187511904Y-86091714D01*
X187559523Y-86067904D01*
X187726190Y-85948857D02*
X187916666Y-85948857D01*
X187797619Y-85782190D02*
X187797619Y-86210761D01*
X187821428Y-86258380D01*
X187869047Y-86282190D01*
X187916666Y-86282190D01*
X188297619Y-85948857D02*
X188297619Y-86282190D01*
X188083333Y-85948857D02*
X188083333Y-86210761D01*
X188107142Y-86258380D01*
X188154761Y-86282190D01*
X188226190Y-86282190D01*
X188273809Y-86258380D01*
X188297619Y-86234571D01*
X188511904Y-86258380D02*
X188559523Y-86282190D01*
X188654761Y-86282190D01*
X188702380Y-86258380D01*
X188726190Y-86210761D01*
X188726190Y-86186952D01*
X188702380Y-86139333D01*
X188654761Y-86115523D01*
X188583333Y-86115523D01*
X188535714Y-86091714D01*
X188511904Y-86044095D01*
X188511904Y-86020285D01*
X188535714Y-85972666D01*
X188583333Y-85948857D01*
X188654761Y-85948857D01*
X188702380Y-85972666D01*
D12*
X157136285Y-88961857D02*
X158660095Y-88961857D01*
X157898190Y-89723761D02*
X157898190Y-88199952D01*
X164183904Y-88961857D02*
X165707714Y-88961857D01*
D13*
X107250000Y-80000000D02*
G75*
G03X107250000Y-80000000I-3250000J0D01*
G01*
X199250000Y-80000000D02*
G75*
G03X199250000Y-80000000I-3250000J0D01*
G01*
D10*
X181040095Y-98452380D02*
X181611523Y-98452380D01*
X181325809Y-99452380D02*
X181325809Y-98452380D01*
X182468666Y-99452380D02*
X181897238Y-99452380D01*
X182182952Y-99452380D02*
X182182952Y-98452380D01*
X182087714Y-98595238D01*
X181992476Y-98690476D01*
X181897238Y-98738095D01*
X137947380Y-99843380D02*
X137614047Y-99367190D01*
X137375952Y-99843380D02*
X137375952Y-98843380D01*
X137756904Y-98843380D01*
X137852142Y-98891000D01*
X137899761Y-98938619D01*
X137947380Y-99033857D01*
X137947380Y-99176714D01*
X137899761Y-99271952D01*
X137852142Y-99319571D01*
X137756904Y-99367190D01*
X137375952Y-99367190D01*
X138328333Y-99795761D02*
X138471190Y-99843380D01*
X138709285Y-99843380D01*
X138804523Y-99795761D01*
X138852142Y-99748142D01*
X138899761Y-99652904D01*
X138899761Y-99557666D01*
X138852142Y-99462428D01*
X138804523Y-99414809D01*
X138709285Y-99367190D01*
X138518809Y-99319571D01*
X138423571Y-99271952D01*
X138375952Y-99224333D01*
X138328333Y-99129095D01*
X138328333Y-99033857D01*
X138375952Y-98938619D01*
X138423571Y-98891000D01*
X138518809Y-98843380D01*
X138756904Y-98843380D01*
X138899761Y-98891000D01*
X139185476Y-98843380D02*
X139756904Y-98843380D01*
X139471190Y-99843380D02*
X139471190Y-98843380D01*
D14*
X148500000Y-77821428D02*
X148000000Y-76321428D01*
X147500000Y-77821428D01*
X147000000Y-76321428D02*
X147000000Y-77321428D01*
X147000000Y-77821428D02*
X147071428Y-77750000D01*
X147000000Y-77678571D01*
X146928571Y-77750000D01*
X147000000Y-77821428D01*
X147000000Y-77678571D01*
X146285714Y-77321428D02*
X146285714Y-76321428D01*
X146285714Y-77178571D02*
X146214285Y-77250000D01*
X146071428Y-77321428D01*
X145857142Y-77321428D01*
X145714285Y-77250000D01*
X145642857Y-77107142D01*
X145642857Y-76321428D01*
X142642857Y-76321428D02*
X142642857Y-77821428D01*
X142142857Y-76750000D01*
X141642857Y-77821428D01*
X141642857Y-76321428D01*
X140642857Y-77821428D02*
X140500000Y-77821428D01*
X140357142Y-77750000D01*
X140285714Y-77678571D01*
X140214285Y-77535714D01*
X140142857Y-77250000D01*
X140142857Y-76892857D01*
X140214285Y-76607142D01*
X140285714Y-76464285D01*
X140357142Y-76392857D01*
X140500000Y-76321428D01*
X140642857Y-76321428D01*
X140785714Y-76392857D01*
X140857142Y-76464285D01*
X140928571Y-76607142D01*
X141000000Y-76892857D01*
X141000000Y-77250000D01*
X140928571Y-77535714D01*
X140857142Y-77678571D01*
X140785714Y-77750000D01*
X140642857Y-77821428D01*
X128000000Y-77821428D02*
X127500000Y-76321428D01*
X127000000Y-77821428D01*
X126500000Y-76321428D02*
X126500000Y-77321428D01*
X126500000Y-77821428D02*
X126571428Y-77750000D01*
X126500000Y-77678571D01*
X126428571Y-77750000D01*
X126500000Y-77821428D01*
X126500000Y-77678571D01*
X125785714Y-77321428D02*
X125785714Y-76321428D01*
X125785714Y-77178571D02*
X125714285Y-77250000D01*
X125571428Y-77321428D01*
X125357142Y-77321428D01*
X125214285Y-77250000D01*
X125142857Y-77107142D01*
X125142857Y-76321428D01*
X122142857Y-76321428D02*
X122142857Y-77821428D01*
X121642857Y-76750000D01*
X121142857Y-77821428D01*
X121142857Y-76321428D01*
X120500000Y-77678571D02*
X120428571Y-77750000D01*
X120285714Y-77821428D01*
X119928571Y-77821428D01*
X119785714Y-77750000D01*
X119714285Y-77678571D01*
X119642857Y-77535714D01*
X119642857Y-77392857D01*
X119714285Y-77178571D01*
X120571428Y-76321428D01*
X119642857Y-76321428D01*
X138250000Y-77821428D02*
X137750000Y-76321428D01*
X137250000Y-77821428D01*
X136750000Y-76321428D02*
X136750000Y-77321428D01*
X136750000Y-77821428D02*
X136821428Y-77750000D01*
X136750000Y-77678571D01*
X136678571Y-77750000D01*
X136750000Y-77821428D01*
X136750000Y-77678571D01*
X136035714Y-77321428D02*
X136035714Y-76321428D01*
X136035714Y-77178571D02*
X135964285Y-77250000D01*
X135821428Y-77321428D01*
X135607142Y-77321428D01*
X135464285Y-77250000D01*
X135392857Y-77107142D01*
X135392857Y-76321428D01*
X132392857Y-76321428D02*
X132392857Y-77821428D01*
X131892857Y-76750000D01*
X131392857Y-77821428D01*
X131392857Y-76321428D01*
X129892857Y-76321428D02*
X130750000Y-76321428D01*
X130321428Y-76321428D02*
X130321428Y-77821428D01*
X130464285Y-77607142D01*
X130607142Y-77464285D01*
X130750000Y-77392857D01*
X165785714Y-77909000D02*
X165928571Y-77980428D01*
X166142857Y-77980428D01*
X166357142Y-77909000D01*
X166500000Y-77766142D01*
X166571428Y-77623285D01*
X166642857Y-77337571D01*
X166642857Y-77123285D01*
X166571428Y-76837571D01*
X166500000Y-76694714D01*
X166357142Y-76551857D01*
X166142857Y-76480428D01*
X166000000Y-76480428D01*
X165785714Y-76551857D01*
X165714285Y-76623285D01*
X165714285Y-77123285D01*
X166000000Y-77123285D01*
X165071428Y-77480428D02*
X165071428Y-76480428D01*
X165071428Y-77337571D02*
X165000000Y-77409000D01*
X164857142Y-77480428D01*
X164642857Y-77480428D01*
X164500000Y-77409000D01*
X164428571Y-77266142D01*
X164428571Y-76480428D01*
X163071428Y-76480428D02*
X163071428Y-77980428D01*
X163071428Y-76551857D02*
X163214285Y-76480428D01*
X163500000Y-76480428D01*
X163642857Y-76551857D01*
X163714285Y-76623285D01*
X163785714Y-76766142D01*
X163785714Y-77194714D01*
X163714285Y-77337571D01*
X163642857Y-77409000D01*
X163500000Y-77480428D01*
X163214285Y-77480428D01*
X163071428Y-77409000D01*
X160285714Y-77980428D02*
X159785714Y-76480428D01*
X159285714Y-77980428D01*
X158785714Y-76480428D02*
X158785714Y-77480428D01*
X158785714Y-77980428D02*
X158857142Y-77909000D01*
X158785714Y-77837571D01*
X158714285Y-77909000D01*
X158785714Y-77980428D01*
X158785714Y-77837571D01*
X158071428Y-77480428D02*
X158071428Y-76480428D01*
X158071428Y-77337571D02*
X158000000Y-77409000D01*
X157857142Y-77480428D01*
X157642857Y-77480428D01*
X157500000Y-77409000D01*
X157428571Y-77266142D01*
X157428571Y-76480428D01*
D10*
X170130952Y-76840571D02*
X170273809Y-76888190D01*
X170321428Y-76935809D01*
X170369047Y-77031047D01*
X170369047Y-77173904D01*
X170321428Y-77269142D01*
X170273809Y-77316761D01*
X170178571Y-77364380D01*
X169797619Y-77364380D01*
X169797619Y-76364380D01*
X170130952Y-76364380D01*
X170226190Y-76412000D01*
X170273809Y-76459619D01*
X170321428Y-76554857D01*
X170321428Y-76650095D01*
X170273809Y-76745333D01*
X170226190Y-76792952D01*
X170130952Y-76840571D01*
X169797619Y-76840571D01*
X170940476Y-77364380D02*
X170845238Y-77316761D01*
X170797619Y-77269142D01*
X170750000Y-77173904D01*
X170750000Y-76888190D01*
X170797619Y-76792952D01*
X170845238Y-76745333D01*
X170940476Y-76697714D01*
X171083333Y-76697714D01*
X171178571Y-76745333D01*
X171226190Y-76792952D01*
X171273809Y-76888190D01*
X171273809Y-77173904D01*
X171226190Y-77269142D01*
X171178571Y-77316761D01*
X171083333Y-77364380D01*
X170940476Y-77364380D01*
X171845238Y-77364380D02*
X171750000Y-77316761D01*
X171702380Y-77269142D01*
X171654761Y-77173904D01*
X171654761Y-76888190D01*
X171702380Y-76792952D01*
X171750000Y-76745333D01*
X171845238Y-76697714D01*
X171988095Y-76697714D01*
X172083333Y-76745333D01*
X172130952Y-76792952D01*
X172178571Y-76888190D01*
X172178571Y-77173904D01*
X172130952Y-77269142D01*
X172083333Y-77316761D01*
X171988095Y-77364380D01*
X171845238Y-77364380D01*
X172464285Y-76697714D02*
X172845238Y-76697714D01*
X172607142Y-76364380D02*
X172607142Y-77221523D01*
X172654761Y-77316761D01*
X172750000Y-77364380D01*
X172845238Y-77364380D01*
D14*
X118000000Y-77821428D02*
X117500000Y-76321428D01*
X117000000Y-77821428D01*
X116500000Y-76321428D02*
X116500000Y-77321428D01*
X116500000Y-77821428D02*
X116571428Y-77750000D01*
X116500000Y-77678571D01*
X116428571Y-77750000D01*
X116500000Y-77821428D01*
X116500000Y-77678571D01*
X115785714Y-77321428D02*
X115785714Y-76321428D01*
X115785714Y-77178571D02*
X115714285Y-77250000D01*
X115571428Y-77321428D01*
X115357142Y-77321428D01*
X115214285Y-77250000D01*
X115142857Y-77107142D01*
X115142857Y-76321428D01*
X112142857Y-76321428D02*
X112142857Y-77821428D01*
X111642857Y-76750000D01*
X111142857Y-77821428D01*
X111142857Y-76321428D01*
X110571428Y-77821428D02*
X109642857Y-77821428D01*
X110142857Y-77250000D01*
X109928571Y-77250000D01*
X109785714Y-77178571D01*
X109714285Y-77107142D01*
X109642857Y-76964285D01*
X109642857Y-76607142D01*
X109714285Y-76464285D01*
X109785714Y-76392857D01*
X109928571Y-76321428D01*
X110357142Y-76321428D01*
X110500000Y-76392857D01*
X110571428Y-76464285D01*
D10*
X188452380Y-98047619D02*
X187976190Y-98380952D01*
X188452380Y-98619047D02*
X187452380Y-98619047D01*
X187452380Y-98238095D01*
X187500000Y-98142857D01*
X187547619Y-98095238D01*
X187642857Y-98047619D01*
X187785714Y-98047619D01*
X187880952Y-98095238D01*
X187928571Y-98142857D01*
X187976190Y-98238095D01*
X187976190Y-98619047D01*
X187452380Y-97761904D02*
X187452380Y-97190476D01*
X188452380Y-97476190D02*
X187452380Y-97476190D01*
X188452380Y-96857142D02*
X187452380Y-96857142D01*
X187452380Y-96619047D01*
X187500000Y-96476190D01*
X187595238Y-96380952D01*
X187690476Y-96333333D01*
X187880952Y-96285714D01*
X188023809Y-96285714D01*
X188214285Y-96333333D01*
X188309523Y-96380952D01*
X188404761Y-96476190D01*
X188452380Y-96619047D01*
X188452380Y-96857142D01*
X187547619Y-95904761D02*
X187500000Y-95857142D01*
X187452380Y-95761904D01*
X187452380Y-95523809D01*
X187500000Y-95428571D01*
X187547619Y-95380952D01*
X187642857Y-95333333D01*
X187738095Y-95333333D01*
X187880952Y-95380952D01*
X188452380Y-95952380D01*
X188452380Y-95333333D01*
D13*
X160678922Y-94210000D02*
X161196078Y-94210000D01*
X160678922Y-92790000D02*
X161196078Y-92790000D01*
X163330000Y-95170000D02*
X163330000Y-96500000D01*
X162000000Y-95170000D02*
X163330000Y-95170000D01*
X160730000Y-95170000D02*
X160730000Y-97830000D01*
X160730000Y-97830000D02*
X155590000Y-97830000D01*
X160730000Y-95170000D02*
X155590000Y-95170000D01*
X155590000Y-95170000D02*
X155590000Y-97830000D01*
X117100000Y-84750000D02*
X117100000Y-83500000D01*
X115850000Y-84750000D02*
X117100000Y-84750000D01*
X109950000Y-79250000D02*
X113000000Y-79250000D01*
X109950000Y-82200000D02*
X109950000Y-79250000D01*
X109200000Y-82200000D02*
X109950000Y-82200000D01*
X116050000Y-79250000D02*
X113000000Y-79250000D01*
X116050000Y-82200000D02*
X116050000Y-79250000D01*
X116800000Y-82200000D02*
X116050000Y-82200000D01*
X109200000Y-84450000D02*
X111000000Y-84450000D01*
X109200000Y-83700000D02*
X109200000Y-84450000D01*
X111000000Y-83700000D02*
X109200000Y-83700000D01*
X111000000Y-84450000D02*
X111000000Y-83700000D01*
X115000000Y-84450000D02*
X116800000Y-84450000D01*
X115000000Y-83700000D02*
X115000000Y-84450000D01*
X116800000Y-83700000D02*
X115000000Y-83700000D01*
X116800000Y-84450000D02*
X116800000Y-83700000D01*
X112500000Y-84450000D02*
X113500000Y-84450000D01*
X112500000Y-83700000D02*
X112500000Y-84450000D01*
X113500000Y-83700000D02*
X112500000Y-83700000D01*
X113500000Y-84450000D02*
X113500000Y-83700000D01*
X109190000Y-84460000D02*
X116810000Y-84460000D01*
X109190000Y-78490000D02*
X109190000Y-84460000D01*
X116810000Y-78490000D02*
X109190000Y-78490000D01*
X116810000Y-84460000D02*
X116810000Y-78490000D01*
X127350000Y-84750000D02*
X127350000Y-83500000D01*
X126100000Y-84750000D02*
X127350000Y-84750000D01*
X120200000Y-79250000D02*
X123250000Y-79250000D01*
X120200000Y-82200000D02*
X120200000Y-79250000D01*
X119450000Y-82200000D02*
X120200000Y-82200000D01*
X126300000Y-79250000D02*
X123250000Y-79250000D01*
X126300000Y-82200000D02*
X126300000Y-79250000D01*
X127050000Y-82200000D02*
X126300000Y-82200000D01*
X119450000Y-84450000D02*
X121250000Y-84450000D01*
X119450000Y-83700000D02*
X119450000Y-84450000D01*
X121250000Y-83700000D02*
X119450000Y-83700000D01*
X121250000Y-84450000D02*
X121250000Y-83700000D01*
X125250000Y-84450000D02*
X127050000Y-84450000D01*
X125250000Y-83700000D02*
X125250000Y-84450000D01*
X127050000Y-83700000D02*
X125250000Y-83700000D01*
X127050000Y-84450000D02*
X127050000Y-83700000D01*
X122750000Y-84450000D02*
X123750000Y-84450000D01*
X122750000Y-83700000D02*
X122750000Y-84450000D01*
X123750000Y-83700000D02*
X122750000Y-83700000D01*
X123750000Y-84450000D02*
X123750000Y-83700000D01*
X119440000Y-84460000D02*
X127060000Y-84460000D01*
X119440000Y-78490000D02*
X119440000Y-84460000D01*
X127060000Y-78490000D02*
X119440000Y-78490000D01*
X127060000Y-84460000D02*
X127060000Y-78490000D01*
X149590000Y-77600000D02*
X149090000Y-77600000D01*
X149590000Y-78340000D02*
X149590000Y-77600000D01*
X142897000Y-81477000D02*
X142944000Y-81431000D01*
X140600000Y-83775000D02*
X140635000Y-83739000D01*
X142704000Y-81261000D02*
X142739000Y-81226000D01*
X140395000Y-83569000D02*
X140442000Y-83523000D01*
X139070000Y-87761000D02*
X139070000Y-77840000D01*
X149350000Y-87761000D02*
X149350000Y-77840000D01*
X149350000Y-77840000D02*
X139070000Y-77840000D01*
X149350000Y-87761000D02*
X139070000Y-87761000D01*
X149350000Y-84801000D02*
X139070000Y-84801000D01*
X149350000Y-79900000D02*
X139070000Y-79900000D01*
X149350000Y-78400000D02*
X139070000Y-78400000D01*
X143350000Y-82500000D02*
G75*
G03X143350000Y-82500000I-1680000J0D01*
G01*
X146721195Y-80819747D02*
G75*
G02X147434000Y-80965000I28805J-1680253D01*
G01*
X148285426Y-81816958D02*
G75*
G02X148285000Y-83184000I-1535426J-683042D01*
G01*
X147433042Y-84035426D02*
G75*
G02X146066000Y-84035000I-683042J1535426D01*
G01*
X145214574Y-83183042D02*
G75*
G02X145215000Y-81816000I1535426J683042D01*
G01*
X146066682Y-80965244D02*
G75*
G02X146750000Y-80820000I683318J-1534756D01*
G01*
X139430000Y-77600000D02*
X138930000Y-77600000D01*
X139430000Y-78340000D02*
X139430000Y-77600000D01*
X132737000Y-81477000D02*
X132784000Y-81431000D01*
X130440000Y-83775000D02*
X130475000Y-83739000D01*
X132544000Y-81261000D02*
X132579000Y-81226000D01*
X130235000Y-83569000D02*
X130282000Y-83523000D01*
X128910000Y-87761000D02*
X128910000Y-77840000D01*
X139190000Y-87761000D02*
X139190000Y-77840000D01*
X139190000Y-77840000D02*
X128910000Y-77840000D01*
X139190000Y-87761000D02*
X128910000Y-87761000D01*
X139190000Y-84801000D02*
X128910000Y-84801000D01*
X139190000Y-79900000D02*
X128910000Y-79900000D01*
X139190000Y-78400000D02*
X128910000Y-78400000D01*
X133190000Y-82500000D02*
G75*
G03X133190000Y-82500000I-1680000J0D01*
G01*
X136561195Y-80819747D02*
G75*
G02X137274000Y-80965000I28805J-1680253D01*
G01*
X138125426Y-81816958D02*
G75*
G02X138125000Y-83184000I-1535426J-683042D01*
G01*
X137273042Y-84035426D02*
G75*
G02X135906000Y-84035000I-683042J1535426D01*
G01*
X135054574Y-83183042D02*
G75*
G02X135055000Y-81816000I1535426J683042D01*
G01*
X135906682Y-80965244D02*
G75*
G02X136590000Y-80820000I683318J-1534756D01*
G01*
X193321078Y-83290000D02*
X192803922Y-83290000D01*
X193321078Y-84710000D02*
X192803922Y-84710000D01*
X181821078Y-83290000D02*
X181303922Y-83290000D01*
X181821078Y-84710000D02*
X181303922Y-84710000D01*
X189210000Y-88758578D02*
X189210000Y-88241422D01*
X187790000Y-88758578D02*
X187790000Y-88241422D01*
X178210000Y-88758578D02*
X178210000Y-88241422D01*
X176790000Y-88758578D02*
X176790000Y-88241422D01*
X192491422Y-92000000D02*
X193008578Y-92000000D01*
X192491422Y-93420000D02*
X193008578Y-93420000D01*
X181491422Y-93420000D02*
X182008578Y-93420000D01*
X181491422Y-92000000D02*
X182008578Y-92000000D01*
X177650000Y-93750000D02*
X177650000Y-95000000D01*
X178900000Y-93750000D02*
X177650000Y-93750000D01*
X184800000Y-99250000D02*
X181750000Y-99250000D01*
X184800000Y-96300000D02*
X184800000Y-99250000D01*
X185550000Y-96300000D02*
X184800000Y-96300000D01*
X178700000Y-99250000D02*
X181750000Y-99250000D01*
X178700000Y-96300000D02*
X178700000Y-99250000D01*
X177950000Y-96300000D02*
X178700000Y-96300000D01*
X185550000Y-94050000D02*
X183750000Y-94050000D01*
X185550000Y-94800000D02*
X185550000Y-94050000D01*
X183750000Y-94800000D02*
X185550000Y-94800000D01*
X183750000Y-94050000D02*
X183750000Y-94800000D01*
X179750000Y-94050000D02*
X177950000Y-94050000D01*
X179750000Y-94800000D02*
X179750000Y-94050000D01*
X177950000Y-94800000D02*
X179750000Y-94800000D01*
X177950000Y-94050000D02*
X177950000Y-94800000D01*
X182250000Y-94050000D02*
X181250000Y-94050000D01*
X182250000Y-94800000D02*
X182250000Y-94050000D01*
X181250000Y-94800000D02*
X182250000Y-94800000D01*
X181250000Y-94050000D02*
X181250000Y-94800000D01*
X185560000Y-94040000D02*
X177940000Y-94040000D01*
X185560000Y-100010000D02*
X185560000Y-94040000D01*
X177940000Y-100010000D02*
X185560000Y-100010000D01*
X177940000Y-94040000D02*
X177940000Y-100010000D01*
X188650000Y-93750000D02*
X188650000Y-95000000D01*
X189900000Y-93750000D02*
X188650000Y-93750000D01*
X195800000Y-99250000D02*
X192750000Y-99250000D01*
X195800000Y-96300000D02*
X195800000Y-99250000D01*
X196550000Y-96300000D02*
X195800000Y-96300000D01*
X189700000Y-99250000D02*
X192750000Y-99250000D01*
X189700000Y-96300000D02*
X189700000Y-99250000D01*
X188950000Y-96300000D02*
X189700000Y-96300000D01*
X196550000Y-94050000D02*
X194750000Y-94050000D01*
X196550000Y-94800000D02*
X196550000Y-94050000D01*
X194750000Y-94800000D02*
X196550000Y-94800000D01*
X194750000Y-94050000D02*
X194750000Y-94800000D01*
X190750000Y-94050000D02*
X188950000Y-94050000D01*
X190750000Y-94800000D02*
X190750000Y-94050000D01*
X188950000Y-94800000D02*
X190750000Y-94800000D01*
X188950000Y-94050000D02*
X188950000Y-94800000D01*
X193250000Y-94050000D02*
X192250000Y-94050000D01*
X193250000Y-94800000D02*
X193250000Y-94050000D01*
X192250000Y-94800000D02*
X193250000Y-94800000D01*
X192250000Y-94050000D02*
X192250000Y-94800000D01*
X196560000Y-94040000D02*
X188940000Y-94040000D01*
X196560000Y-100010000D02*
X196560000Y-94040000D01*
X188940000Y-100010000D02*
X196560000Y-100010000D01*
X188940000Y-94040000D02*
X188940000Y-100010000D01*
D11*
X179150000Y-91100000D02*
X179150000Y-90600000D01*
X179150000Y-91100000D02*
X179650000Y-91100000D01*
X184350000Y-91100000D02*
X184350000Y-90600000D01*
X184350000Y-91100000D02*
X183850000Y-91100000D01*
X184350000Y-85900000D02*
X183850000Y-85900000D01*
X184350000Y-85900000D02*
X184350000Y-86400000D01*
X179150000Y-86900000D02*
X178950000Y-86900000D01*
X179150000Y-86400000D02*
X179150000Y-86900000D01*
X179650000Y-85900000D02*
X179150000Y-86400000D01*
X180050000Y-85900000D02*
X179650000Y-85900000D01*
X190150000Y-91100000D02*
X190150000Y-90600000D01*
X190150000Y-91100000D02*
X190650000Y-91100000D01*
X195350000Y-91100000D02*
X195350000Y-90600000D01*
X195350000Y-91100000D02*
X194850000Y-91100000D01*
X195350000Y-85900000D02*
X194850000Y-85900000D01*
X195350000Y-85900000D02*
X195350000Y-86400000D01*
X190150000Y-86900000D02*
X189950000Y-86900000D01*
X190150000Y-86400000D02*
X190150000Y-86900000D01*
X190650000Y-85900000D02*
X190150000Y-86400000D01*
X191050000Y-85900000D02*
X190650000Y-85900000D01*
D13*
X191119000Y-81139000D02*
X191119000Y-78689000D01*
X187899000Y-79339000D02*
X187899000Y-81139000D01*
D10*
X168000000Y-81550000D02*
X173975000Y-81550000D01*
X169525000Y-88450000D02*
X173975000Y-88450000D01*
X139940000Y-95863000D02*
X145940000Y-95863000D01*
X145940000Y-99363000D02*
X139940000Y-99363000D01*
X145940000Y-99363000D02*
X145940000Y-95863000D01*
X139940000Y-95863000D02*
X139940000Y-99363000D01*
X139940000Y-98613000D02*
X138690000Y-98613000D01*
X138690000Y-98613000D02*
X138690000Y-96613000D01*
X138690000Y-96613000D02*
X139940000Y-96613000D01*
X147190000Y-98613000D02*
X145940000Y-98613000D01*
X145940000Y-96613000D02*
X147190000Y-96613000D01*
X147190000Y-96613000D02*
X147190000Y-98613000D01*
D13*
X103946422Y-85115000D02*
X104463578Y-85115000D01*
X103946422Y-83695000D02*
X104463578Y-83695000D01*
X186124578Y-81790000D02*
X185607422Y-81790000D01*
X186124578Y-83210000D02*
X185607422Y-83210000D01*
X109487000Y-93807578D02*
X109487000Y-93290422D01*
X108067000Y-93807578D02*
X108067000Y-93290422D01*
X119647000Y-93807578D02*
X119647000Y-93290422D01*
X118227000Y-93807578D02*
X118227000Y-93290422D01*
X129807000Y-93807578D02*
X129807000Y-93290422D01*
X128387000Y-93807578D02*
X128387000Y-93290422D01*
X139967000Y-93807578D02*
X139967000Y-93290422D01*
X138547000Y-93807578D02*
X138547000Y-93290422D01*
X116004578Y-89790000D02*
X115487422Y-89790000D01*
X116004578Y-91210000D02*
X115487422Y-91210000D01*
X126164578Y-89790000D02*
X125647422Y-89790000D01*
X126164578Y-91210000D02*
X125647422Y-91210000D01*
X136324578Y-89790000D02*
X135807422Y-89790000D01*
X136324578Y-91210000D02*
X135807422Y-91210000D01*
X146484578Y-89790000D02*
X145967422Y-89790000D01*
X146484578Y-91210000D02*
X145967422Y-91210000D01*
X116004578Y-91790000D02*
X115487422Y-91790000D01*
X116004578Y-93210000D02*
X115487422Y-93210000D01*
X126164578Y-91790000D02*
X125647422Y-91790000D01*
X126164578Y-93210000D02*
X125647422Y-93210000D01*
X136324578Y-91790000D02*
X135807422Y-91790000D01*
X136324578Y-93210000D02*
X135807422Y-93210000D01*
X146484578Y-91790000D02*
X145967422Y-91790000D01*
X146484578Y-93210000D02*
X145967422Y-93210000D01*
X149238000Y-96982578D02*
X149238000Y-96465422D01*
X147818000Y-96982578D02*
X147818000Y-96465422D01*
X175040000Y-79241422D02*
X175040000Y-79758578D01*
X176460000Y-79241422D02*
X176460000Y-79758578D01*
X111436000Y-89670000D02*
X112896000Y-89670000D01*
X111436000Y-92830000D02*
X113596000Y-92830000D01*
X111436000Y-92830000D02*
X111436000Y-91900000D01*
X111436000Y-89670000D02*
X111436000Y-90600000D01*
X121596000Y-89670000D02*
X123056000Y-89670000D01*
X121596000Y-92830000D02*
X123756000Y-92830000D01*
X121596000Y-92830000D02*
X121596000Y-91900000D01*
X121596000Y-89670000D02*
X121596000Y-90600000D01*
X131756000Y-89670000D02*
X133216000Y-89670000D01*
X131756000Y-92830000D02*
X133916000Y-92830000D01*
X131756000Y-92830000D02*
X131756000Y-91900000D01*
X131756000Y-89670000D02*
X131756000Y-90600000D01*
X141916000Y-89670000D02*
X143376000Y-89670000D01*
X141916000Y-92830000D02*
X144076000Y-92830000D01*
X141916000Y-92830000D02*
X141916000Y-91900000D01*
X141916000Y-89670000D02*
X141916000Y-90600000D01*
X168670000Y-80330000D02*
X168670000Y-79000000D01*
X170000000Y-80330000D02*
X168670000Y-80330000D01*
X171270000Y-80330000D02*
X171270000Y-77670000D01*
X171270000Y-77670000D02*
X173870000Y-77670000D01*
X171270000Y-80330000D02*
X173870000Y-80330000D01*
X173870000Y-80330000D02*
X173870000Y-77670000D01*
X167190000Y-77600000D02*
X166690000Y-77600000D01*
X167190000Y-78340000D02*
X167190000Y-77600000D01*
X160497000Y-81477000D02*
X160544000Y-81431000D01*
X158200000Y-83775000D02*
X158235000Y-83739000D01*
X160304000Y-81261000D02*
X160339000Y-81226000D01*
X157995000Y-83569000D02*
X158042000Y-83523000D01*
X156670000Y-87761000D02*
X156670000Y-77840000D01*
X166950000Y-87761000D02*
X166950000Y-77840000D01*
X166950000Y-77840000D02*
X156670000Y-77840000D01*
X166950000Y-87761000D02*
X156670000Y-87761000D01*
X166950000Y-84801000D02*
X156670000Y-84801000D01*
X166950000Y-79900000D02*
X156670000Y-79900000D01*
X166950000Y-78400000D02*
X156670000Y-78400000D01*
X160950000Y-82500000D02*
G75*
G03X160950000Y-82500000I-1680000J0D01*
G01*
X164321195Y-80819747D02*
G75*
G02X165034000Y-80965000I28805J-1680253D01*
G01*
X165885426Y-81816958D02*
G75*
G02X165885000Y-83184000I-1535426J-683042D01*
G01*
X165033042Y-84035426D02*
G75*
G02X163666000Y-84035000I-683042J1535426D01*
G01*
X162814574Y-83183042D02*
G75*
G02X162815000Y-81816000I1535426J683042D01*
G01*
X163666682Y-80965244D02*
G75*
G02X164350000Y-80820000I683318J-1534756D01*
G01*
X183442000Y-80971500D02*
X183442000Y-80521500D01*
X183442000Y-80971500D02*
X182992000Y-80971500D01*
X177842000Y-80421500D02*
X178292000Y-80421500D01*
X177842000Y-78571500D02*
X177842000Y-80421500D01*
X185642000Y-76021500D02*
X185642000Y-76271500D01*
X177842000Y-76021500D02*
X177842000Y-76271500D01*
X185642000Y-78571500D02*
X185642000Y-80421500D01*
X185642000Y-80421500D02*
X185192000Y-80421500D01*
D10*
X155500000Y-92240000D02*
X155500000Y-77240000D01*
X150500000Y-92240000D02*
X155500000Y-92240000D01*
X150500000Y-77240000D02*
X150500000Y-92240000D01*
X155500000Y-77240000D02*
X150500000Y-77240000D01*
D13*
X105890000Y-85477000D02*
X103205000Y-85477000D01*
X105890000Y-87397000D02*
X105890000Y-85477000D01*
X103205000Y-87397000D02*
X105890000Y-87397000D01*
X184181000Y-85619000D02*
X186866000Y-85619000D01*
X184181000Y-83699000D02*
X184181000Y-85619000D01*
X186866000Y-83699000D02*
X184181000Y-83699000D01*
X107817000Y-88308000D02*
X107817000Y-90993000D01*
X109737000Y-88308000D02*
X107817000Y-88308000D01*
X109737000Y-90993000D02*
X109737000Y-88308000D01*
X117977000Y-88308000D02*
X117977000Y-90993000D01*
X119897000Y-88308000D02*
X117977000Y-88308000D01*
X119897000Y-90993000D02*
X119897000Y-88308000D01*
X128137000Y-88308000D02*
X128137000Y-90993000D01*
X130057000Y-88308000D02*
X128137000Y-88308000D01*
X130057000Y-90993000D02*
X130057000Y-88308000D01*
X138297000Y-88308000D02*
X138297000Y-90993000D01*
X140217000Y-88308000D02*
X138297000Y-88308000D01*
X140217000Y-90993000D02*
X140217000Y-88308000D01*
X189250422Y-84710000D02*
X189767578Y-84710000D01*
X189250422Y-83290000D02*
X189767578Y-83290000D01*
X169741422Y-90460000D02*
X170258578Y-90460000D01*
X169741422Y-89040000D02*
X170258578Y-89040000D01*
X189759578Y-76530000D02*
X189242422Y-76530000D01*
X189759578Y-77950000D02*
X189242422Y-77950000D01*
X178258578Y-83290000D02*
X177741422Y-83290000D01*
X178258578Y-84710000D02*
X177741422Y-84710000D01*
D15*
G36*
X107481600Y-89994150D02*
G01*
X107481600Y-93293849D01*
X106092308Y-94094524D01*
X105752339Y-94290185D01*
X105442012Y-94468267D01*
X105171882Y-94622754D01*
X104952505Y-94747630D01*
X104794439Y-94836877D01*
X104708239Y-94884478D01*
X104695308Y-94890770D01*
X104651181Y-94865166D01*
X104529791Y-94794713D01*
X104341745Y-94685566D01*
X104097649Y-94543881D01*
X103808109Y-94375815D01*
X103483731Y-94187525D01*
X103316000Y-94090162D01*
X102090648Y-93378876D01*
X103146666Y-93378876D01*
X103185441Y-93398402D01*
X103303479Y-93413187D01*
X103478467Y-93420891D01*
X103553066Y-93421479D01*
X103976400Y-93420959D01*
X103990821Y-93399076D01*
X104713000Y-93399076D01*
X104759850Y-93409563D01*
X104884616Y-93417500D01*
X105063623Y-93421596D01*
X105132100Y-93421886D01*
X105551200Y-93421772D01*
X106033800Y-92678043D01*
X106198838Y-92423678D01*
X106350963Y-92189166D01*
X106478863Y-91991951D01*
X106571223Y-91849476D01*
X106610288Y-91789156D01*
X106704177Y-91644000D01*
X105842093Y-91644000D01*
X105277546Y-92510076D01*
X105107034Y-92772735D01*
X104957186Y-93005619D01*
X104836286Y-93195683D01*
X104752618Y-93329882D01*
X104714465Y-93395172D01*
X104713000Y-93399076D01*
X103990821Y-93399076D01*
X105119400Y-91686603D01*
X105367036Y-91310432D01*
X105597037Y-90960255D01*
X105803420Y-90645238D01*
X105980202Y-90374551D01*
X106121399Y-90157361D01*
X106221029Y-90002837D01*
X106273108Y-89920148D01*
X106279333Y-89909123D01*
X106240558Y-89889597D01*
X106122520Y-89874812D01*
X105947532Y-89867108D01*
X105872933Y-89866520D01*
X105449600Y-89867040D01*
X104306600Y-91601396D01*
X104058963Y-91977567D01*
X103828962Y-92327744D01*
X103622579Y-92642761D01*
X103445797Y-92913448D01*
X103304600Y-93130638D01*
X103204970Y-93285162D01*
X103152891Y-93367851D01*
X103146666Y-93378876D01*
X102090648Y-93378876D01*
X101944400Y-93293983D01*
X101944400Y-91644000D01*
X102721822Y-91644000D01*
X103583906Y-91644000D01*
X104148453Y-90777923D01*
X104318965Y-90515264D01*
X104468813Y-90282380D01*
X104589713Y-90092316D01*
X104673381Y-89958117D01*
X104711534Y-89892827D01*
X104713000Y-89888923D01*
X104666149Y-89878436D01*
X104541383Y-89870499D01*
X104362376Y-89866403D01*
X104293900Y-89866113D01*
X103874800Y-89866227D01*
X103392200Y-90609956D01*
X103227161Y-90864321D01*
X103075036Y-91098833D01*
X102947136Y-91296048D01*
X102854776Y-91438523D01*
X102815711Y-91498843D01*
X102721822Y-91644000D01*
X101944400Y-91644000D01*
X101944400Y-89994150D01*
X104713000Y-88398552D01*
X107481600Y-89994150D01*
G37*
X107481600Y-89994150D02*
X107481600Y-93293849D01*
X106092308Y-94094524D01*
X105752339Y-94290185D01*
X105442012Y-94468267D01*
X105171882Y-94622754D01*
X104952505Y-94747630D01*
X104794439Y-94836877D01*
X104708239Y-94884478D01*
X104695308Y-94890770D01*
X104651181Y-94865166D01*
X104529791Y-94794713D01*
X104341745Y-94685566D01*
X104097649Y-94543881D01*
X103808109Y-94375815D01*
X103483731Y-94187525D01*
X103316000Y-94090162D01*
X102090648Y-93378876D01*
X103146666Y-93378876D01*
X103185441Y-93398402D01*
X103303479Y-93413187D01*
X103478467Y-93420891D01*
X103553066Y-93421479D01*
X103976400Y-93420959D01*
X103990821Y-93399076D01*
X104713000Y-93399076D01*
X104759850Y-93409563D01*
X104884616Y-93417500D01*
X105063623Y-93421596D01*
X105132100Y-93421886D01*
X105551200Y-93421772D01*
X106033800Y-92678043D01*
X106198838Y-92423678D01*
X106350963Y-92189166D01*
X106478863Y-91991951D01*
X106571223Y-91849476D01*
X106610288Y-91789156D01*
X106704177Y-91644000D01*
X105842093Y-91644000D01*
X105277546Y-92510076D01*
X105107034Y-92772735D01*
X104957186Y-93005619D01*
X104836286Y-93195683D01*
X104752618Y-93329882D01*
X104714465Y-93395172D01*
X104713000Y-93399076D01*
X103990821Y-93399076D01*
X105119400Y-91686603D01*
X105367036Y-91310432D01*
X105597037Y-90960255D01*
X105803420Y-90645238D01*
X105980202Y-90374551D01*
X106121399Y-90157361D01*
X106221029Y-90002837D01*
X106273108Y-89920148D01*
X106279333Y-89909123D01*
X106240558Y-89889597D01*
X106122520Y-89874812D01*
X105947532Y-89867108D01*
X105872933Y-89866520D01*
X105449600Y-89867040D01*
X104306600Y-91601396D01*
X104058963Y-91977567D01*
X103828962Y-92327744D01*
X103622579Y-92642761D01*
X103445797Y-92913448D01*
X103304600Y-93130638D01*
X103204970Y-93285162D01*
X103152891Y-93367851D01*
X103146666Y-93378876D01*
X102090648Y-93378876D01*
X101944400Y-93293983D01*
X101944400Y-91644000D01*
X102721822Y-91644000D01*
X103583906Y-91644000D01*
X104148453Y-90777923D01*
X104318965Y-90515264D01*
X104468813Y-90282380D01*
X104589713Y-90092316D01*
X104673381Y-89958117D01*
X104711534Y-89892827D01*
X104713000Y-89888923D01*
X104666149Y-89878436D01*
X104541383Y-89870499D01*
X104362376Y-89866403D01*
X104293900Y-89866113D01*
X103874800Y-89866227D01*
X103392200Y-90609956D01*
X103227161Y-90864321D01*
X103075036Y-91098833D01*
X102947136Y-91296048D01*
X102854776Y-91438523D01*
X102815711Y-91498843D01*
X102721822Y-91644000D01*
X101944400Y-91644000D01*
X101944400Y-89994150D01*
X104713000Y-88398552D01*
X107481600Y-89994150D01*
G36*
X130342536Y-95328511D02*
G01*
X129708291Y-95328511D01*
X129708291Y-94784872D01*
X130342536Y-94784872D01*
X130342536Y-95328511D01*
G37*
X130342536Y-95328511D02*
X129708291Y-95328511D01*
X129708291Y-94784872D01*
X130342536Y-94784872D01*
X130342536Y-95328511D01*
G36*
X136176309Y-95715948D02*
G01*
X136186650Y-95717824D01*
X136386208Y-95768782D01*
X136537322Y-95841205D01*
X136649995Y-95941315D01*
X136721859Y-96050600D01*
X136805794Y-96211270D01*
X136805794Y-98469533D01*
X136171549Y-98469533D01*
X136171104Y-97420009D01*
X136170328Y-97112706D01*
X136168189Y-96861456D01*
X136164540Y-96661922D01*
X136159236Y-96509766D01*
X136152131Y-96400648D01*
X136143078Y-96330231D01*
X136133284Y-96296632D01*
X136068124Y-96208773D01*
X135971441Y-96148981D01*
X135835268Y-96114371D01*
X135651638Y-96102055D01*
X135596557Y-96102131D01*
X135408393Y-96111355D01*
X135268489Y-96136349D01*
X135165903Y-96180890D01*
X135089695Y-96248754D01*
X135061905Y-96286665D01*
X135047570Y-96313390D01*
X135035906Y-96349631D01*
X135026566Y-96401701D01*
X135019204Y-96475914D01*
X135013472Y-96578585D01*
X135009024Y-96716028D01*
X135005514Y-96894557D01*
X135002594Y-97120485D01*
X134999918Y-97400127D01*
X134999759Y-97418616D01*
X134990752Y-98469533D01*
X134359421Y-98469533D01*
X134359421Y-95751341D01*
X134676543Y-95751341D01*
X134820008Y-95752543D01*
X134913254Y-95757188D01*
X134966439Y-95766828D01*
X134989719Y-95783020D01*
X134993666Y-95799875D01*
X135009258Y-95833191D01*
X135046519Y-95826447D01*
X135240895Y-95764572D01*
X135472312Y-95720560D01*
X135719520Y-95696436D01*
X135961269Y-95694224D01*
X136176309Y-95715948D01*
G37*
X136176309Y-95715948D02*
X136186650Y-95717824D01*
X136386208Y-95768782D01*
X136537322Y-95841205D01*
X136649995Y-95941315D01*
X136721859Y-96050600D01*
X136805794Y-96211270D01*
X136805794Y-98469533D01*
X136171549Y-98469533D01*
X136171104Y-97420009D01*
X136170328Y-97112706D01*
X136168189Y-96861456D01*
X136164540Y-96661922D01*
X136159236Y-96509766D01*
X136152131Y-96400648D01*
X136143078Y-96330231D01*
X136133284Y-96296632D01*
X136068124Y-96208773D01*
X135971441Y-96148981D01*
X135835268Y-96114371D01*
X135651638Y-96102055D01*
X135596557Y-96102131D01*
X135408393Y-96111355D01*
X135268489Y-96136349D01*
X135165903Y-96180890D01*
X135089695Y-96248754D01*
X135061905Y-96286665D01*
X135047570Y-96313390D01*
X135035906Y-96349631D01*
X135026566Y-96401701D01*
X135019204Y-96475914D01*
X135013472Y-96578585D01*
X135009024Y-96716028D01*
X135005514Y-96894557D01*
X135002594Y-97120485D01*
X134999918Y-97400127D01*
X134999759Y-97418616D01*
X134990752Y-98469533D01*
X134359421Y-98469533D01*
X134359421Y-95751341D01*
X134676543Y-95751341D01*
X134820008Y-95752543D01*
X134913254Y-95757188D01*
X134966439Y-95766828D01*
X134989719Y-95783020D01*
X134993666Y-95799875D01*
X135009258Y-95833191D01*
X135046519Y-95826447D01*
X135240895Y-95764572D01*
X135472312Y-95720560D01*
X135719520Y-95696436D01*
X135961269Y-95694224D01*
X136176309Y-95715948D01*
G36*
X130342536Y-98469533D02*
G01*
X129708291Y-98469533D01*
X129708291Y-95751341D01*
X130342536Y-95751341D01*
X130342536Y-98469533D01*
G37*
X130342536Y-98469533D02*
X129708291Y-98469533D01*
X129708291Y-95751341D01*
X130342536Y-95751341D01*
X130342536Y-98469533D01*
G36*
X121361332Y-94846299D02*
G01*
X121628125Y-94849881D01*
X121849318Y-94856793D01*
X122032297Y-94867807D01*
X122184453Y-94883695D01*
X122313174Y-94905227D01*
X122425848Y-94933176D01*
X122529864Y-94968312D01*
X122632544Y-95011376D01*
X122802183Y-95114065D01*
X122952125Y-95253536D01*
X123066990Y-95413628D01*
X123114385Y-95517691D01*
X123129790Y-95567314D01*
X123142067Y-95622961D01*
X123151563Y-95691780D01*
X123158623Y-95780919D01*
X123163593Y-95897527D01*
X123166819Y-96048752D01*
X123168647Y-96241742D01*
X123169423Y-96483647D01*
X123169528Y-96657405D01*
X123169201Y-96958322D01*
X123167423Y-97205609D01*
X123162996Y-97406042D01*
X123154723Y-97566394D01*
X123141407Y-97693440D01*
X123121850Y-97793954D01*
X123094857Y-97874710D01*
X123059229Y-97942483D01*
X123013769Y-98004048D01*
X122957280Y-98066178D01*
X122912540Y-98111622D01*
X122816146Y-98202480D01*
X122729310Y-98265992D01*
X122629547Y-98315698D01*
X122494369Y-98365136D01*
X122487882Y-98367307D01*
X122233261Y-98452368D01*
X121153535Y-98462999D01*
X120073808Y-98473630D01*
X120073808Y-98084065D01*
X120768458Y-98084065D01*
X121349849Y-98070088D01*
X121560445Y-98064250D01*
X121721242Y-98057484D01*
X121842845Y-98048672D01*
X121935859Y-98036694D01*
X122010889Y-98020432D01*
X122078539Y-97998767D01*
X122098907Y-97991076D01*
X122271016Y-97899555D01*
X122400316Y-97778035D01*
X122479471Y-97633740D01*
X122487060Y-97608772D01*
X122497286Y-97539104D01*
X122505609Y-97419273D01*
X122512026Y-97259491D01*
X122516534Y-97069969D01*
X122519130Y-96860919D01*
X122519812Y-96642552D01*
X122518575Y-96425079D01*
X122515418Y-96218713D01*
X122510337Y-96033665D01*
X122503328Y-95880147D01*
X122494389Y-95768369D01*
X122487620Y-95723293D01*
X122435148Y-95575528D01*
X122343928Y-95460578D01*
X122205781Y-95369858D01*
X122112453Y-95329319D01*
X122041578Y-95304396D01*
X121969741Y-95285609D01*
X121886080Y-95271757D01*
X121779735Y-95261637D01*
X121639844Y-95254048D01*
X121455547Y-95247789D01*
X121349849Y-95244948D01*
X120768458Y-95230089D01*
X120768458Y-98084065D01*
X120073808Y-98084065D01*
X120073808Y-94845276D01*
X121041550Y-94845276D01*
X121361332Y-94846299D01*
G37*
X121361332Y-94846299D02*
X121628125Y-94849881D01*
X121849318Y-94856793D01*
X122032297Y-94867807D01*
X122184453Y-94883695D01*
X122313174Y-94905227D01*
X122425848Y-94933176D01*
X122529864Y-94968312D01*
X122632544Y-95011376D01*
X122802183Y-95114065D01*
X122952125Y-95253536D01*
X123066990Y-95413628D01*
X123114385Y-95517691D01*
X123129790Y-95567314D01*
X123142067Y-95622961D01*
X123151563Y-95691780D01*
X123158623Y-95780919D01*
X123163593Y-95897527D01*
X123166819Y-96048752D01*
X123168647Y-96241742D01*
X123169423Y-96483647D01*
X123169528Y-96657405D01*
X123169201Y-96958322D01*
X123167423Y-97205609D01*
X123162996Y-97406042D01*
X123154723Y-97566394D01*
X123141407Y-97693440D01*
X123121850Y-97793954D01*
X123094857Y-97874710D01*
X123059229Y-97942483D01*
X123013769Y-98004048D01*
X122957280Y-98066178D01*
X122912540Y-98111622D01*
X122816146Y-98202480D01*
X122729310Y-98265992D01*
X122629547Y-98315698D01*
X122494369Y-98365136D01*
X122487882Y-98367307D01*
X122233261Y-98452368D01*
X121153535Y-98462999D01*
X120073808Y-98473630D01*
X120073808Y-98084065D01*
X120768458Y-98084065D01*
X121349849Y-98070088D01*
X121560445Y-98064250D01*
X121721242Y-98057484D01*
X121842845Y-98048672D01*
X121935859Y-98036694D01*
X122010889Y-98020432D01*
X122078539Y-97998767D01*
X122098907Y-97991076D01*
X122271016Y-97899555D01*
X122400316Y-97778035D01*
X122479471Y-97633740D01*
X122487060Y-97608772D01*
X122497286Y-97539104D01*
X122505609Y-97419273D01*
X122512026Y-97259491D01*
X122516534Y-97069969D01*
X122519130Y-96860919D01*
X122519812Y-96642552D01*
X122518575Y-96425079D01*
X122515418Y-96218713D01*
X122510337Y-96033665D01*
X122503328Y-95880147D01*
X122494389Y-95768369D01*
X122487620Y-95723293D01*
X122435148Y-95575528D01*
X122343928Y-95460578D01*
X122205781Y-95369858D01*
X122112453Y-95329319D01*
X122041578Y-95304396D01*
X121969741Y-95285609D01*
X121886080Y-95271757D01*
X121779735Y-95261637D01*
X121639844Y-95254048D01*
X121455547Y-95247789D01*
X121349849Y-95244948D01*
X120768458Y-95230089D01*
X120768458Y-98084065D01*
X120073808Y-98084065D01*
X120073808Y-94845276D01*
X121041550Y-94845276D01*
X121361332Y-94846299D01*
G36*
X117269769Y-95715948D02*
G01*
X117280110Y-95717824D01*
X117479668Y-95768782D01*
X117630782Y-95841205D01*
X117743455Y-95941315D01*
X117815319Y-96050600D01*
X117899254Y-96211270D01*
X117899254Y-98469533D01*
X117265009Y-98469533D01*
X117264564Y-97420009D01*
X117263788Y-97112706D01*
X117261649Y-96861456D01*
X117258000Y-96661922D01*
X117252696Y-96509766D01*
X117245591Y-96400648D01*
X117236538Y-96330231D01*
X117226744Y-96296632D01*
X117161584Y-96208773D01*
X117064901Y-96148981D01*
X116928728Y-96114371D01*
X116745098Y-96102055D01*
X116690017Y-96102131D01*
X116501853Y-96111355D01*
X116361949Y-96136349D01*
X116259363Y-96180890D01*
X116183156Y-96248754D01*
X116155365Y-96286665D01*
X116141030Y-96313390D01*
X116129366Y-96349631D01*
X116120027Y-96401701D01*
X116112664Y-96475914D01*
X116106932Y-96578585D01*
X116102484Y-96716028D01*
X116098974Y-96894557D01*
X116096054Y-97120485D01*
X116093379Y-97400127D01*
X116093219Y-97418616D01*
X116084212Y-98469533D01*
X115452881Y-98469533D01*
X115452881Y-95751341D01*
X115770003Y-95751341D01*
X115913468Y-95752543D01*
X116006714Y-95757188D01*
X116059899Y-95766828D01*
X116083179Y-95783020D01*
X116087126Y-95799875D01*
X116102718Y-95833191D01*
X116139980Y-95826447D01*
X116334356Y-95764572D01*
X116565773Y-95720560D01*
X116812980Y-95696436D01*
X117054729Y-95694224D01*
X117269769Y-95715948D01*
G37*
X117269769Y-95715948D02*
X117280110Y-95717824D01*
X117479668Y-95768782D01*
X117630782Y-95841205D01*
X117743455Y-95941315D01*
X117815319Y-96050600D01*
X117899254Y-96211270D01*
X117899254Y-98469533D01*
X117265009Y-98469533D01*
X117264564Y-97420009D01*
X117263788Y-97112706D01*
X117261649Y-96861456D01*
X117258000Y-96661922D01*
X117252696Y-96509766D01*
X117245591Y-96400648D01*
X117236538Y-96330231D01*
X117226744Y-96296632D01*
X117161584Y-96208773D01*
X117064901Y-96148981D01*
X116928728Y-96114371D01*
X116745098Y-96102055D01*
X116690017Y-96102131D01*
X116501853Y-96111355D01*
X116361949Y-96136349D01*
X116259363Y-96180890D01*
X116183156Y-96248754D01*
X116155365Y-96286665D01*
X116141030Y-96313390D01*
X116129366Y-96349631D01*
X116120027Y-96401701D01*
X116112664Y-96475914D01*
X116106932Y-96578585D01*
X116102484Y-96716028D01*
X116098974Y-96894557D01*
X116096054Y-97120485D01*
X116093379Y-97400127D01*
X116093219Y-97418616D01*
X116084212Y-98469533D01*
X115452881Y-98469533D01*
X115452881Y-95751341D01*
X115770003Y-95751341D01*
X115913468Y-95752543D01*
X116006714Y-95757188D01*
X116059899Y-95766828D01*
X116083179Y-95783020D01*
X116087126Y-95799875D01*
X116102718Y-95833191D01*
X116139980Y-95826447D01*
X116334356Y-95764572D01*
X116565773Y-95720560D01*
X116812980Y-95696436D01*
X117054729Y-95694224D01*
X117269769Y-95715948D01*
G36*
X111783321Y-96159069D02*
G01*
X111451097Y-96174927D01*
X111268445Y-96187523D01*
X111136176Y-96206220D01*
X111044437Y-96232610D01*
X111018338Y-96244887D01*
X110970469Y-96273018D01*
X110931572Y-96304853D01*
X110900718Y-96346581D01*
X110876980Y-96404389D01*
X110859427Y-96484467D01*
X110847133Y-96593002D01*
X110839168Y-96736183D01*
X110834603Y-96920199D01*
X110832510Y-97151238D01*
X110831960Y-97435487D01*
X110831953Y-97486994D01*
X110831953Y-98469533D01*
X110197708Y-98469533D01*
X110197708Y-95751341D01*
X110801751Y-95751341D01*
X110801751Y-95829363D01*
X110809068Y-95882940D01*
X110824403Y-95895869D01*
X110975703Y-95820019D01*
X111089352Y-95767840D01*
X111181158Y-95734883D01*
X111266931Y-95716702D01*
X111362481Y-95708850D01*
X111483616Y-95706880D01*
X111496400Y-95706839D01*
X111783321Y-95706037D01*
X111783321Y-96159069D01*
G37*
X111783321Y-96159069D02*
X111451097Y-96174927D01*
X111268445Y-96187523D01*
X111136176Y-96206220D01*
X111044437Y-96232610D01*
X111018338Y-96244887D01*
X110970469Y-96273018D01*
X110931572Y-96304853D01*
X110900718Y-96346581D01*
X110876980Y-96404389D01*
X110859427Y-96484467D01*
X110847133Y-96593002D01*
X110839168Y-96736183D01*
X110834603Y-96920199D01*
X110832510Y-97151238D01*
X110831960Y-97435487D01*
X110831953Y-97486994D01*
X110831953Y-98469533D01*
X110197708Y-98469533D01*
X110197708Y-95751341D01*
X110801751Y-95751341D01*
X110801751Y-95829363D01*
X110809068Y-95882940D01*
X110824403Y-95895869D01*
X110975703Y-95820019D01*
X111089352Y-95767840D01*
X111181158Y-95734883D01*
X111266931Y-95716702D01*
X111362481Y-95708850D01*
X111483616Y-95706880D01*
X111496400Y-95706839D01*
X111783321Y-95706037D01*
X111783321Y-96159069D01*
G36*
X104160074Y-96327730D02*
G01*
X104297351Y-96694121D01*
X104415111Y-97004519D01*
X104513769Y-97259953D01*
X104593737Y-97461454D01*
X104655431Y-97610049D01*
X104699264Y-97706769D01*
X104725650Y-97752642D01*
X104734070Y-97754781D01*
X104748579Y-97716250D01*
X104782114Y-97626775D01*
X104832566Y-97492000D01*
X104897824Y-97317566D01*
X104975777Y-97109115D01*
X105064316Y-96872291D01*
X105161330Y-96612735D01*
X105264709Y-96336090D01*
X105283521Y-96285743D01*
X105387368Y-96008276D01*
X105485018Y-95748272D01*
X105574406Y-95511169D01*
X105653467Y-95302402D01*
X105720135Y-95127405D01*
X105772345Y-94991615D01*
X105808033Y-94900467D01*
X105825131Y-94859397D01*
X105826144Y-94857665D01*
X105860398Y-94852562D01*
X105942089Y-94849851D01*
X106058290Y-94849751D01*
X106171328Y-94851800D01*
X106502070Y-94860377D01*
X105788304Y-96657405D01*
X105074538Y-98454432D01*
X104690254Y-98462894D01*
X104305970Y-98471355D01*
X104261465Y-98364839D01*
X104242320Y-98317046D01*
X104203513Y-98218494D01*
X104147213Y-98074745D01*
X104075589Y-97891361D01*
X103990811Y-97673905D01*
X103895047Y-97427937D01*
X103790467Y-97159022D01*
X103679240Y-96872720D01*
X103616213Y-96710361D01*
X103501510Y-96414865D01*
X103391691Y-96132074D01*
X103289014Y-95867790D01*
X103195734Y-95627817D01*
X103114108Y-95417955D01*
X103046393Y-95244008D01*
X102994844Y-95111778D01*
X102961719Y-95027066D01*
X102952569Y-95003838D01*
X102889672Y-94845276D01*
X103607346Y-94845276D01*
X104160074Y-96327730D01*
G37*
X104160074Y-96327730D02*
X104297351Y-96694121D01*
X104415111Y-97004519D01*
X104513769Y-97259953D01*
X104593737Y-97461454D01*
X104655431Y-97610049D01*
X104699264Y-97706769D01*
X104725650Y-97752642D01*
X104734070Y-97754781D01*
X104748579Y-97716250D01*
X104782114Y-97626775D01*
X104832566Y-97492000D01*
X104897824Y-97317566D01*
X104975777Y-97109115D01*
X105064316Y-96872291D01*
X105161330Y-96612735D01*
X105264709Y-96336090D01*
X105283521Y-96285743D01*
X105387368Y-96008276D01*
X105485018Y-95748272D01*
X105574406Y-95511169D01*
X105653467Y-95302402D01*
X105720135Y-95127405D01*
X105772345Y-94991615D01*
X105808033Y-94900467D01*
X105825131Y-94859397D01*
X105826144Y-94857665D01*
X105860398Y-94852562D01*
X105942089Y-94849851D01*
X106058290Y-94849751D01*
X106171328Y-94851800D01*
X106502070Y-94860377D01*
X105788304Y-96657405D01*
X105074538Y-98454432D01*
X104690254Y-98462894D01*
X104305970Y-98471355D01*
X104261465Y-98364839D01*
X104242320Y-98317046D01*
X104203513Y-98218494D01*
X104147213Y-98074745D01*
X104075589Y-97891361D01*
X103990811Y-97673905D01*
X103895047Y-97427937D01*
X103790467Y-97159022D01*
X103679240Y-96872720D01*
X103616213Y-96710361D01*
X103501510Y-96414865D01*
X103391691Y-96132074D01*
X103289014Y-95867790D01*
X103195734Y-95627817D01*
X103114108Y-95417955D01*
X103046393Y-95244008D01*
X102994844Y-95111778D01*
X102961719Y-95027066D01*
X102952569Y-95003838D01*
X102889672Y-94845276D01*
X103607346Y-94845276D01*
X104160074Y-96327730D01*
G36*
X128361107Y-95705117D02*
G01*
X128532753Y-95713067D01*
X128684764Y-95721610D01*
X128806235Y-95730012D01*
X128886256Y-95737542D01*
X128912296Y-95742092D01*
X128937389Y-95776440D01*
X128950516Y-95859509D01*
X128953238Y-95954777D01*
X128953238Y-96151750D01*
X128809777Y-96133019D01*
X128466189Y-96093607D01*
X128177656Y-96072650D01*
X127941650Y-96070372D01*
X127755640Y-96086992D01*
X127617097Y-96122734D01*
X127523489Y-96177819D01*
X127473141Y-96250181D01*
X127455273Y-96331106D01*
X127445398Y-96443230D01*
X127444142Y-96561453D01*
X127452129Y-96660671D01*
X127461892Y-96701355D01*
X127494942Y-96752688D01*
X127554554Y-96792495D01*
X127647824Y-96822540D01*
X127781847Y-96844585D01*
X127963718Y-96860393D01*
X128137780Y-96869300D01*
X128368143Y-96882270D01*
X128547896Y-96901675D01*
X128686726Y-96930313D01*
X128794318Y-96970985D01*
X128880357Y-97026489D01*
X128954528Y-97099624D01*
X128960991Y-97107213D01*
X129033404Y-97218102D01*
X129078568Y-97351896D01*
X129098947Y-97519963D01*
X129097004Y-97733668D01*
X129096955Y-97734623D01*
X129086417Y-97881394D01*
X129069750Y-97987011D01*
X129042584Y-98070701D01*
X129003148Y-98147274D01*
X128910431Y-98268073D01*
X128785890Y-98363741D01*
X128624574Y-98435806D01*
X128421529Y-98485798D01*
X128171805Y-98515244D01*
X127870449Y-98525673D01*
X127778073Y-98525412D01*
X127608099Y-98523151D01*
X127453043Y-98519932D01*
X127325944Y-98516111D01*
X127239840Y-98512044D01*
X127216615Y-98510076D01*
X127126105Y-98498934D01*
X127018372Y-98485236D01*
X126997649Y-98482549D01*
X126869290Y-98465832D01*
X126869290Y-98256268D01*
X126868776Y-98167633D01*
X126873244Y-98106211D01*
X126891705Y-98068629D01*
X126933170Y-98051514D01*
X127006652Y-98051495D01*
X127121163Y-98065197D01*
X127285714Y-98089249D01*
X127307221Y-98092377D01*
X127480290Y-98112739D01*
X127673457Y-98128200D01*
X127852007Y-98136148D01*
X127896163Y-98136675D01*
X128101222Y-98127980D01*
X128254238Y-98098066D01*
X128361192Y-98042507D01*
X128428065Y-97956874D01*
X128460837Y-97836742D01*
X128466548Y-97714480D01*
X128460405Y-97580551D01*
X128441801Y-97477996D01*
X128403463Y-97402119D01*
X128338121Y-97348224D01*
X128238504Y-97311618D01*
X128097341Y-97287603D01*
X127907361Y-97271485D01*
X127768559Y-97263734D01*
X127522895Y-97246734D01*
X127329086Y-97221038D01*
X127178805Y-97183142D01*
X127063727Y-97129542D01*
X126975525Y-97056735D01*
X126905873Y-96961217D01*
X126865969Y-96883921D01*
X126838843Y-96792372D01*
X126819817Y-96664173D01*
X126809456Y-96517587D01*
X126808327Y-96370875D01*
X126816996Y-96242296D01*
X126836032Y-96150113D01*
X126842712Y-96134432D01*
X126935204Y-96000387D01*
X127063916Y-95892241D01*
X127232327Y-95809013D01*
X127443914Y-95749718D01*
X127702155Y-95713373D01*
X128010530Y-95698995D01*
X128361107Y-95705117D01*
G37*
X128361107Y-95705117D02*
X128532753Y-95713067D01*
X128684764Y-95721610D01*
X128806235Y-95730012D01*
X128886256Y-95737542D01*
X128912296Y-95742092D01*
X128937389Y-95776440D01*
X128950516Y-95859509D01*
X128953238Y-95954777D01*
X128953238Y-96151750D01*
X128809777Y-96133019D01*
X128466189Y-96093607D01*
X128177656Y-96072650D01*
X127941650Y-96070372D01*
X127755640Y-96086992D01*
X127617097Y-96122734D01*
X127523489Y-96177819D01*
X127473141Y-96250181D01*
X127455273Y-96331106D01*
X127445398Y-96443230D01*
X127444142Y-96561453D01*
X127452129Y-96660671D01*
X127461892Y-96701355D01*
X127494942Y-96752688D01*
X127554554Y-96792495D01*
X127647824Y-96822540D01*
X127781847Y-96844585D01*
X127963718Y-96860393D01*
X128137780Y-96869300D01*
X128368143Y-96882270D01*
X128547896Y-96901675D01*
X128686726Y-96930313D01*
X128794318Y-96970985D01*
X128880357Y-97026489D01*
X128954528Y-97099624D01*
X128960991Y-97107213D01*
X129033404Y-97218102D01*
X129078568Y-97351896D01*
X129098947Y-97519963D01*
X129097004Y-97733668D01*
X129096955Y-97734623D01*
X129086417Y-97881394D01*
X129069750Y-97987011D01*
X129042584Y-98070701D01*
X129003148Y-98147274D01*
X128910431Y-98268073D01*
X128785890Y-98363741D01*
X128624574Y-98435806D01*
X128421529Y-98485798D01*
X128171805Y-98515244D01*
X127870449Y-98525673D01*
X127778073Y-98525412D01*
X127608099Y-98523151D01*
X127453043Y-98519932D01*
X127325944Y-98516111D01*
X127239840Y-98512044D01*
X127216615Y-98510076D01*
X127126105Y-98498934D01*
X127018372Y-98485236D01*
X126997649Y-98482549D01*
X126869290Y-98465832D01*
X126869290Y-98256268D01*
X126868776Y-98167633D01*
X126873244Y-98106211D01*
X126891705Y-98068629D01*
X126933170Y-98051514D01*
X127006652Y-98051495D01*
X127121163Y-98065197D01*
X127285714Y-98089249D01*
X127307221Y-98092377D01*
X127480290Y-98112739D01*
X127673457Y-98128200D01*
X127852007Y-98136148D01*
X127896163Y-98136675D01*
X128101222Y-98127980D01*
X128254238Y-98098066D01*
X128361192Y-98042507D01*
X128428065Y-97956874D01*
X128460837Y-97836742D01*
X128466548Y-97714480D01*
X128460405Y-97580551D01*
X128441801Y-97477996D01*
X128403463Y-97402119D01*
X128338121Y-97348224D01*
X128238504Y-97311618D01*
X128097341Y-97287603D01*
X127907361Y-97271485D01*
X127768559Y-97263734D01*
X127522895Y-97246734D01*
X127329086Y-97221038D01*
X127178805Y-97183142D01*
X127063727Y-97129542D01*
X126975525Y-97056735D01*
X126905873Y-96961217D01*
X126865969Y-96883921D01*
X126838843Y-96792372D01*
X126819817Y-96664173D01*
X126809456Y-96517587D01*
X126808327Y-96370875D01*
X126816996Y-96242296D01*
X126836032Y-96150113D01*
X126842712Y-96134432D01*
X126935204Y-96000387D01*
X127063916Y-95892241D01*
X127232327Y-95809013D01*
X127443914Y-95749718D01*
X127702155Y-95713373D01*
X128010530Y-95698995D01*
X128361107Y-95705117D01*
G36*
X125358250Y-95714708D02*
G01*
X125592491Y-95742098D01*
X125781411Y-95790799D01*
X125931438Y-95863334D01*
X126048997Y-95962228D01*
X126140515Y-96090004D01*
X126164115Y-96134878D01*
X126196878Y-96204122D01*
X126220055Y-96264902D01*
X126235304Y-96329601D01*
X126244280Y-96410604D01*
X126248639Y-96520297D01*
X126250038Y-96671063D01*
X126250146Y-96778213D01*
X126250146Y-97246346D01*
X125351632Y-97254346D01*
X124453119Y-97262346D01*
X124453782Y-97495964D01*
X124465873Y-97691585D01*
X124503484Y-97839482D01*
X124570518Y-97948336D01*
X124670875Y-98026826D01*
X124698985Y-98041450D01*
X124884592Y-98101939D01*
X125115151Y-98126549D01*
X125386865Y-98115067D01*
X125570598Y-98090348D01*
X125720436Y-98066583D01*
X125864944Y-98045367D01*
X125983240Y-98029691D01*
X126032629Y-98024217D01*
X126177538Y-98010476D01*
X126159540Y-98424230D01*
X125872619Y-98474194D01*
X125696761Y-98497530D01*
X125488552Y-98513661D01*
X125263690Y-98522463D01*
X125037870Y-98523809D01*
X124826788Y-98517573D01*
X124646140Y-98503630D01*
X124525264Y-98484985D01*
X124310942Y-98421814D01*
X124139885Y-98332025D01*
X123998078Y-98208171D01*
X123992251Y-98201779D01*
X123941557Y-98142327D01*
X123901532Y-98083709D01*
X123871035Y-98018222D01*
X123848930Y-97938165D01*
X123834077Y-97835835D01*
X123825337Y-97703530D01*
X123821573Y-97533549D01*
X123821644Y-97318189D01*
X123824222Y-97065134D01*
X123826979Y-96868820D01*
X124445914Y-96868820D01*
X125638391Y-96868820D01*
X125625578Y-96600830D01*
X125610342Y-96426684D01*
X125580534Y-96301231D01*
X125531011Y-96213499D01*
X125456628Y-96152519D01*
X125403107Y-96126345D01*
X125307290Y-96102195D01*
X125173250Y-96088106D01*
X125021712Y-96084123D01*
X124873401Y-96090296D01*
X124749041Y-96106670D01*
X124686215Y-96124699D01*
X124594052Y-96171767D01*
X124531408Y-96229079D01*
X124492043Y-96309203D01*
X124469717Y-96424710D01*
X124458388Y-96583611D01*
X124445914Y-96868820D01*
X123826979Y-96868820D01*
X123827631Y-96822437D01*
X123831494Y-96632384D01*
X123836387Y-96487214D01*
X123842885Y-96379166D01*
X123851564Y-96300479D01*
X123862999Y-96243393D01*
X123877765Y-96200147D01*
X123890276Y-96174171D01*
X123985206Y-96028066D01*
X124101410Y-95912877D01*
X124245576Y-95825955D01*
X124424389Y-95764653D01*
X124644536Y-95726322D01*
X124912703Y-95708316D01*
X125072263Y-95706105D01*
X125358250Y-95714708D01*
G37*
X125358250Y-95714708D02*
X125592491Y-95742098D01*
X125781411Y-95790799D01*
X125931438Y-95863334D01*
X126048997Y-95962228D01*
X126140515Y-96090004D01*
X126164115Y-96134878D01*
X126196878Y-96204122D01*
X126220055Y-96264902D01*
X126235304Y-96329601D01*
X126244280Y-96410604D01*
X126248639Y-96520297D01*
X126250038Y-96671063D01*
X126250146Y-96778213D01*
X126250146Y-97246346D01*
X125351632Y-97254346D01*
X124453119Y-97262346D01*
X124453782Y-97495964D01*
X124465873Y-97691585D01*
X124503484Y-97839482D01*
X124570518Y-97948336D01*
X124670875Y-98026826D01*
X124698985Y-98041450D01*
X124884592Y-98101939D01*
X125115151Y-98126549D01*
X125386865Y-98115067D01*
X125570598Y-98090348D01*
X125720436Y-98066583D01*
X125864944Y-98045367D01*
X125983240Y-98029691D01*
X126032629Y-98024217D01*
X126177538Y-98010476D01*
X126159540Y-98424230D01*
X125872619Y-98474194D01*
X125696761Y-98497530D01*
X125488552Y-98513661D01*
X125263690Y-98522463D01*
X125037870Y-98523809D01*
X124826788Y-98517573D01*
X124646140Y-98503630D01*
X124525264Y-98484985D01*
X124310942Y-98421814D01*
X124139885Y-98332025D01*
X123998078Y-98208171D01*
X123992251Y-98201779D01*
X123941557Y-98142327D01*
X123901532Y-98083709D01*
X123871035Y-98018222D01*
X123848930Y-97938165D01*
X123834077Y-97835835D01*
X123825337Y-97703530D01*
X123821573Y-97533549D01*
X123821644Y-97318189D01*
X123824222Y-97065134D01*
X123826979Y-96868820D01*
X124445914Y-96868820D01*
X125638391Y-96868820D01*
X125625578Y-96600830D01*
X125610342Y-96426684D01*
X125580534Y-96301231D01*
X125531011Y-96213499D01*
X125456628Y-96152519D01*
X125403107Y-96126345D01*
X125307290Y-96102195D01*
X125173250Y-96088106D01*
X125021712Y-96084123D01*
X124873401Y-96090296D01*
X124749041Y-96106670D01*
X124686215Y-96124699D01*
X124594052Y-96171767D01*
X124531408Y-96229079D01*
X124492043Y-96309203D01*
X124469717Y-96424710D01*
X124458388Y-96583611D01*
X124445914Y-96868820D01*
X123826979Y-96868820D01*
X123827631Y-96822437D01*
X123831494Y-96632384D01*
X123836387Y-96487214D01*
X123842885Y-96379166D01*
X123851564Y-96300479D01*
X123862999Y-96243393D01*
X123877765Y-96200147D01*
X123890276Y-96174171D01*
X123985206Y-96028066D01*
X124101410Y-95912877D01*
X124245576Y-95825955D01*
X124424389Y-95764653D01*
X124644536Y-95726322D01*
X124912703Y-95708316D01*
X125072263Y-95706105D01*
X125358250Y-95714708D01*
G36*
X113535045Y-95699736D02*
G01*
X113814533Y-95712122D01*
X114041129Y-95734462D01*
X114221960Y-95769870D01*
X114364149Y-95821459D01*
X114474822Y-95892342D01*
X114561103Y-95985633D01*
X114630116Y-96104445D01*
X114668379Y-96194963D01*
X114692726Y-96265712D01*
X114711123Y-96339729D01*
X114724766Y-96427890D01*
X114734849Y-96541072D01*
X114742569Y-96690150D01*
X114749120Y-96886001D01*
X114750736Y-96944325D01*
X114755379Y-97257735D01*
X114750366Y-97518255D01*
X114734951Y-97732740D01*
X114708390Y-97908043D01*
X114669938Y-98051020D01*
X114618849Y-98168523D01*
X114617349Y-98171294D01*
X114549387Y-98274713D01*
X114465658Y-98357252D01*
X114359394Y-98420914D01*
X114223827Y-98467704D01*
X114052189Y-98499624D01*
X113837715Y-98518679D01*
X113573635Y-98526871D01*
X113414236Y-98527503D01*
X113152450Y-98523931D01*
X112947629Y-98514731D01*
X112796582Y-98499703D01*
X112711437Y-98483112D01*
X112512784Y-98415081D01*
X112364912Y-98328319D01*
X112259299Y-98215575D01*
X112187424Y-98069598D01*
X112173154Y-98025108D01*
X112158568Y-97964150D01*
X112147631Y-97888647D01*
X112140038Y-97790714D01*
X112135485Y-97662465D01*
X112133667Y-97496017D01*
X112134281Y-97283484D01*
X112135880Y-97120327D01*
X112766148Y-97120327D01*
X112766206Y-97152312D01*
X112767863Y-97407664D01*
X112772808Y-97609782D01*
X112782948Y-97765820D01*
X112800187Y-97882931D01*
X112826431Y-97968270D01*
X112863585Y-98028991D01*
X112913554Y-98072246D01*
X112978245Y-98105192D01*
X113024720Y-98122916D01*
X113123828Y-98144621D01*
X113263324Y-98158040D01*
X113423746Y-98163068D01*
X113585633Y-98159596D01*
X113729526Y-98147518D01*
X113833857Y-98127371D01*
X113928063Y-98082194D01*
X114006332Y-98017461D01*
X114015070Y-98006689D01*
X114034498Y-97978059D01*
X114049513Y-97945503D01*
X114060680Y-97901347D01*
X114068568Y-97837918D01*
X114073743Y-97747543D01*
X114076773Y-97622548D01*
X114078224Y-97455262D01*
X114078663Y-97238010D01*
X114078683Y-97145995D01*
X114077982Y-96882716D01*
X114075080Y-96672994D01*
X114068788Y-96509992D01*
X114057911Y-96386871D01*
X114041256Y-96296792D01*
X114017632Y-96232918D01*
X113985845Y-96188411D01*
X113944703Y-96156431D01*
X113902235Y-96134336D01*
X113779258Y-96096480D01*
X113615536Y-96073046D01*
X113429303Y-96065415D01*
X113238795Y-96074968D01*
X113190655Y-96080457D01*
X113074701Y-96099618D01*
X112981746Y-96128224D01*
X112909302Y-96172554D01*
X112854883Y-96238886D01*
X112816003Y-96333499D01*
X112790176Y-96462671D01*
X112774915Y-96632681D01*
X112767735Y-96849807D01*
X112766148Y-97120327D01*
X112135880Y-97120327D01*
X112136360Y-97071478D01*
X112145746Y-96275353D01*
X112237294Y-96096473D01*
X112314630Y-95975107D01*
X112413234Y-95878249D01*
X112539093Y-95804068D01*
X112698193Y-95750734D01*
X112896517Y-95716418D01*
X113140053Y-95699290D01*
X113434785Y-95697520D01*
X113535045Y-95699736D01*
G37*
X113535045Y-95699736D02*
X113814533Y-95712122D01*
X114041129Y-95734462D01*
X114221960Y-95769870D01*
X114364149Y-95821459D01*
X114474822Y-95892342D01*
X114561103Y-95985633D01*
X114630116Y-96104445D01*
X114668379Y-96194963D01*
X114692726Y-96265712D01*
X114711123Y-96339729D01*
X114724766Y-96427890D01*
X114734849Y-96541072D01*
X114742569Y-96690150D01*
X114749120Y-96886001D01*
X114750736Y-96944325D01*
X114755379Y-97257735D01*
X114750366Y-97518255D01*
X114734951Y-97732740D01*
X114708390Y-97908043D01*
X114669938Y-98051020D01*
X114618849Y-98168523D01*
X114617349Y-98171294D01*
X114549387Y-98274713D01*
X114465658Y-98357252D01*
X114359394Y-98420914D01*
X114223827Y-98467704D01*
X114052189Y-98499624D01*
X113837715Y-98518679D01*
X113573635Y-98526871D01*
X113414236Y-98527503D01*
X113152450Y-98523931D01*
X112947629Y-98514731D01*
X112796582Y-98499703D01*
X112711437Y-98483112D01*
X112512784Y-98415081D01*
X112364912Y-98328319D01*
X112259299Y-98215575D01*
X112187424Y-98069598D01*
X112173154Y-98025108D01*
X112158568Y-97964150D01*
X112147631Y-97888647D01*
X112140038Y-97790714D01*
X112135485Y-97662465D01*
X112133667Y-97496017D01*
X112134281Y-97283484D01*
X112135880Y-97120327D01*
X112766148Y-97120327D01*
X112766206Y-97152312D01*
X112767863Y-97407664D01*
X112772808Y-97609782D01*
X112782948Y-97765820D01*
X112800187Y-97882931D01*
X112826431Y-97968270D01*
X112863585Y-98028991D01*
X112913554Y-98072246D01*
X112978245Y-98105192D01*
X113024720Y-98122916D01*
X113123828Y-98144621D01*
X113263324Y-98158040D01*
X113423746Y-98163068D01*
X113585633Y-98159596D01*
X113729526Y-98147518D01*
X113833857Y-98127371D01*
X113928063Y-98082194D01*
X114006332Y-98017461D01*
X114015070Y-98006689D01*
X114034498Y-97978059D01*
X114049513Y-97945503D01*
X114060680Y-97901347D01*
X114068568Y-97837918D01*
X114073743Y-97747543D01*
X114076773Y-97622548D01*
X114078224Y-97455262D01*
X114078663Y-97238010D01*
X114078683Y-97145995D01*
X114077982Y-96882716D01*
X114075080Y-96672994D01*
X114068788Y-96509992D01*
X114057911Y-96386871D01*
X114041256Y-96296792D01*
X114017632Y-96232918D01*
X113985845Y-96188411D01*
X113944703Y-96156431D01*
X113902235Y-96134336D01*
X113779258Y-96096480D01*
X113615536Y-96073046D01*
X113429303Y-96065415D01*
X113238795Y-96074968D01*
X113190655Y-96080457D01*
X113074701Y-96099618D01*
X112981746Y-96128224D01*
X112909302Y-96172554D01*
X112854883Y-96238886D01*
X112816003Y-96333499D01*
X112790176Y-96462671D01*
X112774915Y-96632681D01*
X112767735Y-96849807D01*
X112766148Y-97120327D01*
X112135880Y-97120327D01*
X112136360Y-97071478D01*
X112145746Y-96275353D01*
X112237294Y-96096473D01*
X112314630Y-95975107D01*
X112413234Y-95878249D01*
X112539093Y-95804068D01*
X112698193Y-95750734D01*
X112896517Y-95716418D01*
X113140053Y-95699290D01*
X113434785Y-95697520D01*
X113535045Y-95699736D01*
G36*
X108279873Y-95699736D02*
G01*
X108559360Y-95712122D01*
X108785957Y-95734462D01*
X108966788Y-95769870D01*
X109108977Y-95821459D01*
X109219649Y-95892342D01*
X109305930Y-95985633D01*
X109374944Y-96104445D01*
X109413207Y-96194963D01*
X109437554Y-96265712D01*
X109455951Y-96339729D01*
X109469593Y-96427890D01*
X109479677Y-96541072D01*
X109487396Y-96690150D01*
X109493947Y-96886001D01*
X109495564Y-96944325D01*
X109500206Y-97257735D01*
X109495193Y-97518255D01*
X109479779Y-97732740D01*
X109453218Y-97908043D01*
X109414765Y-98051020D01*
X109363676Y-98168523D01*
X109362176Y-98171294D01*
X109294215Y-98274713D01*
X109210485Y-98357252D01*
X109104221Y-98420914D01*
X108968654Y-98467704D01*
X108797017Y-98499624D01*
X108582542Y-98518679D01*
X108318462Y-98526871D01*
X108159064Y-98527503D01*
X107897277Y-98523931D01*
X107692457Y-98514731D01*
X107541409Y-98499703D01*
X107456265Y-98483112D01*
X107257611Y-98415081D01*
X107109739Y-98328319D01*
X107004127Y-98215575D01*
X106932252Y-98069598D01*
X106917981Y-98025108D01*
X106903396Y-97964150D01*
X106892458Y-97888647D01*
X106884865Y-97790714D01*
X106880312Y-97662465D01*
X106878495Y-97496017D01*
X106879109Y-97283484D01*
X106880708Y-97120327D01*
X107510976Y-97120327D01*
X107511033Y-97152312D01*
X107512690Y-97407664D01*
X107517636Y-97609782D01*
X107527775Y-97765820D01*
X107545014Y-97882931D01*
X107571258Y-97968270D01*
X107608412Y-98028991D01*
X107658382Y-98072246D01*
X107723073Y-98105192D01*
X107769548Y-98122916D01*
X107868656Y-98144621D01*
X108008151Y-98158040D01*
X108168573Y-98163068D01*
X108330461Y-98159596D01*
X108474354Y-98147518D01*
X108578685Y-98127371D01*
X108672891Y-98082194D01*
X108751160Y-98017461D01*
X108759898Y-98006689D01*
X108779326Y-97978059D01*
X108794340Y-97945503D01*
X108805508Y-97901347D01*
X108813396Y-97837918D01*
X108818571Y-97747543D01*
X108821600Y-97622548D01*
X108823051Y-97455262D01*
X108823491Y-97238010D01*
X108823511Y-97145995D01*
X108822809Y-96882716D01*
X108819908Y-96672994D01*
X108813615Y-96509992D01*
X108802738Y-96386871D01*
X108786084Y-96296792D01*
X108762460Y-96232918D01*
X108730673Y-96188411D01*
X108689531Y-96156431D01*
X108647062Y-96134336D01*
X108524085Y-96096480D01*
X108360363Y-96073046D01*
X108174131Y-96065415D01*
X107983622Y-96074968D01*
X107935483Y-96080457D01*
X107819529Y-96099618D01*
X107726573Y-96128224D01*
X107654129Y-96172554D01*
X107599710Y-96238886D01*
X107560831Y-96333499D01*
X107535004Y-96462671D01*
X107519743Y-96632681D01*
X107512563Y-96849807D01*
X107510976Y-97120327D01*
X106880708Y-97120327D01*
X106881188Y-97071478D01*
X106890574Y-96275353D01*
X106982122Y-96096473D01*
X107059457Y-95975107D01*
X107158062Y-95878249D01*
X107283921Y-95804068D01*
X107443020Y-95750734D01*
X107641345Y-95716418D01*
X107884881Y-95699290D01*
X108179613Y-95697520D01*
X108279873Y-95699736D01*
G37*
X108279873Y-95699736D02*
X108559360Y-95712122D01*
X108785957Y-95734462D01*
X108966788Y-95769870D01*
X109108977Y-95821459D01*
X109219649Y-95892342D01*
X109305930Y-95985633D01*
X109374944Y-96104445D01*
X109413207Y-96194963D01*
X109437554Y-96265712D01*
X109455951Y-96339729D01*
X109469593Y-96427890D01*
X109479677Y-96541072D01*
X109487396Y-96690150D01*
X109493947Y-96886001D01*
X109495564Y-96944325D01*
X109500206Y-97257735D01*
X109495193Y-97518255D01*
X109479779Y-97732740D01*
X109453218Y-97908043D01*
X109414765Y-98051020D01*
X109363676Y-98168523D01*
X109362176Y-98171294D01*
X109294215Y-98274713D01*
X109210485Y-98357252D01*
X109104221Y-98420914D01*
X108968654Y-98467704D01*
X108797017Y-98499624D01*
X108582542Y-98518679D01*
X108318462Y-98526871D01*
X108159064Y-98527503D01*
X107897277Y-98523931D01*
X107692457Y-98514731D01*
X107541409Y-98499703D01*
X107456265Y-98483112D01*
X107257611Y-98415081D01*
X107109739Y-98328319D01*
X107004127Y-98215575D01*
X106932252Y-98069598D01*
X106917981Y-98025108D01*
X106903396Y-97964150D01*
X106892458Y-97888647D01*
X106884865Y-97790714D01*
X106880312Y-97662465D01*
X106878495Y-97496017D01*
X106879109Y-97283484D01*
X106880708Y-97120327D01*
X107510976Y-97120327D01*
X107511033Y-97152312D01*
X107512690Y-97407664D01*
X107517636Y-97609782D01*
X107527775Y-97765820D01*
X107545014Y-97882931D01*
X107571258Y-97968270D01*
X107608412Y-98028991D01*
X107658382Y-98072246D01*
X107723073Y-98105192D01*
X107769548Y-98122916D01*
X107868656Y-98144621D01*
X108008151Y-98158040D01*
X108168573Y-98163068D01*
X108330461Y-98159596D01*
X108474354Y-98147518D01*
X108578685Y-98127371D01*
X108672891Y-98082194D01*
X108751160Y-98017461D01*
X108759898Y-98006689D01*
X108779326Y-97978059D01*
X108794340Y-97945503D01*
X108805508Y-97901347D01*
X108813396Y-97837918D01*
X108818571Y-97747543D01*
X108821600Y-97622548D01*
X108823051Y-97455262D01*
X108823491Y-97238010D01*
X108823511Y-97145995D01*
X108822809Y-96882716D01*
X108819908Y-96672994D01*
X108813615Y-96509992D01*
X108802738Y-96386871D01*
X108786084Y-96296792D01*
X108762460Y-96232918D01*
X108730673Y-96188411D01*
X108689531Y-96156431D01*
X108647062Y-96134336D01*
X108524085Y-96096480D01*
X108360363Y-96073046D01*
X108174131Y-96065415D01*
X107983622Y-96074968D01*
X107935483Y-96080457D01*
X107819529Y-96099618D01*
X107726573Y-96128224D01*
X107654129Y-96172554D01*
X107599710Y-96238886D01*
X107560831Y-96333499D01*
X107535004Y-96462671D01*
X107519743Y-96632681D01*
X107512563Y-96849807D01*
X107510976Y-97120327D01*
X106880708Y-97120327D01*
X106881188Y-97071478D01*
X106890574Y-96275353D01*
X106982122Y-96096473D01*
X107059457Y-95975107D01*
X107158062Y-95878249D01*
X107283921Y-95804068D01*
X107443020Y-95750734D01*
X107641345Y-95716418D01*
X107884881Y-95699290D01*
X108179613Y-95697520D01*
X108279873Y-95699736D01*
G36*
X132487699Y-95715819D02*
G01*
X132652995Y-95733758D01*
X132773808Y-95760506D01*
X132867047Y-95785575D01*
X132923830Y-95788641D01*
X132934886Y-95780926D01*
X132967779Y-95768264D01*
X133049239Y-95758451D01*
X133167455Y-95752560D01*
X133261008Y-95751341D01*
X133577062Y-95751341D01*
X133567232Y-97389807D01*
X133564925Y-97750126D01*
X133562560Y-98055147D01*
X133559954Y-98309976D01*
X133556929Y-98519719D01*
X133553301Y-98689481D01*
X133548892Y-98824369D01*
X133543518Y-98929488D01*
X133537000Y-99009945D01*
X133529157Y-99070846D01*
X133519807Y-99117296D01*
X133508770Y-99154401D01*
X133504254Y-99166702D01*
X133411424Y-99333382D01*
X133272203Y-99467970D01*
X133084551Y-99571724D01*
X132846425Y-99645902D01*
X132676330Y-99677047D01*
X132564417Y-99687908D01*
X132409736Y-99695882D01*
X132229864Y-99700783D01*
X132042375Y-99702427D01*
X131864846Y-99700630D01*
X131714852Y-99695205D01*
X131626127Y-99688087D01*
X131541783Y-99678440D01*
X131431085Y-99666141D01*
X131376959Y-99660237D01*
X131218398Y-99643070D01*
X131218398Y-99247007D01*
X131527970Y-99273550D01*
X131690965Y-99284580D01*
X131886216Y-99293368D01*
X132085582Y-99298829D01*
X132215069Y-99300090D01*
X132412575Y-99296323D01*
X132560603Y-99282746D01*
X132669740Y-99255936D01*
X132750575Y-99212473D01*
X132813695Y-99148936D01*
X132850536Y-99094761D01*
X132879708Y-99034733D01*
X132897727Y-98960942D01*
X132906917Y-98858058D01*
X132909601Y-98710749D01*
X132909605Y-98704939D01*
X132909718Y-98411808D01*
X132781359Y-98460165D01*
X132667413Y-98488925D01*
X132508994Y-98509779D01*
X132321553Y-98522413D01*
X132120543Y-98526513D01*
X131921416Y-98521767D01*
X131739622Y-98507861D01*
X131590615Y-98484480D01*
X131589957Y-98484334D01*
X131460746Y-98452008D01*
X131370316Y-98417287D01*
X131297573Y-98369794D01*
X131229006Y-98306769D01*
X131175535Y-98250249D01*
X131132801Y-98194180D01*
X131099702Y-98131327D01*
X131075136Y-98054456D01*
X131058001Y-97956335D01*
X131047195Y-97829730D01*
X131041617Y-97667407D01*
X131040165Y-97462133D01*
X131041736Y-97206674D01*
X131042640Y-97120061D01*
X131671430Y-97120061D01*
X131672387Y-97380510D01*
X131675875Y-97587360D01*
X131682821Y-97747396D01*
X131694151Y-97867402D01*
X131710791Y-97954163D01*
X131733668Y-98014462D01*
X131763707Y-98055086D01*
X131801836Y-98082817D01*
X131802966Y-98083439D01*
X131913914Y-98122445D01*
X132065028Y-98146671D01*
X132237895Y-98156069D01*
X132414102Y-98150594D01*
X132575235Y-98130199D01*
X132702882Y-98094838D01*
X132723214Y-98085750D01*
X132776784Y-98057303D01*
X132818922Y-98025727D01*
X132851003Y-97983861D01*
X132874400Y-97924542D01*
X132890491Y-97840607D01*
X132900648Y-97724893D01*
X132906248Y-97570239D01*
X132908664Y-97369480D01*
X132909273Y-97116488D01*
X132908820Y-96859280D01*
X132906237Y-96655489D01*
X132900186Y-96498132D01*
X132889329Y-96380226D01*
X132872330Y-96294788D01*
X132847851Y-96234836D01*
X132814554Y-96193386D01*
X132771103Y-96163458D01*
X132722379Y-96140672D01*
X132634594Y-96118870D01*
X132504635Y-96104731D01*
X132350240Y-96098237D01*
X132189148Y-96099369D01*
X132039099Y-96108106D01*
X131917830Y-96124429D01*
X131856479Y-96141621D01*
X131803380Y-96167847D01*
X131761480Y-96201282D01*
X131729465Y-96248864D01*
X131706024Y-96317533D01*
X131689844Y-96414229D01*
X131679612Y-96545889D01*
X131674017Y-96719454D01*
X131671746Y-96941863D01*
X131671430Y-97120061D01*
X131042640Y-97120061D01*
X131043000Y-97085661D01*
X131045964Y-96837944D01*
X131049116Y-96642947D01*
X131053067Y-96492987D01*
X131058428Y-96380381D01*
X131065807Y-96297445D01*
X131075817Y-96236499D01*
X131089066Y-96189857D01*
X131106165Y-96149838D01*
X131119365Y-96124238D01*
X131239246Y-95962924D01*
X131405129Y-95839695D01*
X131591487Y-95762879D01*
X131724778Y-95735344D01*
X131897619Y-95716837D01*
X132093436Y-95707392D01*
X132295654Y-95707041D01*
X132487699Y-95715819D01*
G37*
X132487699Y-95715819D02*
X132652995Y-95733758D01*
X132773808Y-95760506D01*
X132867047Y-95785575D01*
X132923830Y-95788641D01*
X132934886Y-95780926D01*
X132967779Y-95768264D01*
X133049239Y-95758451D01*
X133167455Y-95752560D01*
X133261008Y-95751341D01*
X133577062Y-95751341D01*
X133567232Y-97389807D01*
X133564925Y-97750126D01*
X133562560Y-98055147D01*
X133559954Y-98309976D01*
X133556929Y-98519719D01*
X133553301Y-98689481D01*
X133548892Y-98824369D01*
X133543518Y-98929488D01*
X133537000Y-99009945D01*
X133529157Y-99070846D01*
X133519807Y-99117296D01*
X133508770Y-99154401D01*
X133504254Y-99166702D01*
X133411424Y-99333382D01*
X133272203Y-99467970D01*
X133084551Y-99571724D01*
X132846425Y-99645902D01*
X132676330Y-99677047D01*
X132564417Y-99687908D01*
X132409736Y-99695882D01*
X132229864Y-99700783D01*
X132042375Y-99702427D01*
X131864846Y-99700630D01*
X131714852Y-99695205D01*
X131626127Y-99688087D01*
X131541783Y-99678440D01*
X131431085Y-99666141D01*
X131376959Y-99660237D01*
X131218398Y-99643070D01*
X131218398Y-99247007D01*
X131527970Y-99273550D01*
X131690965Y-99284580D01*
X131886216Y-99293368D01*
X132085582Y-99298829D01*
X132215069Y-99300090D01*
X132412575Y-99296323D01*
X132560603Y-99282746D01*
X132669740Y-99255936D01*
X132750575Y-99212473D01*
X132813695Y-99148936D01*
X132850536Y-99094761D01*
X132879708Y-99034733D01*
X132897727Y-98960942D01*
X132906917Y-98858058D01*
X132909601Y-98710749D01*
X132909605Y-98704939D01*
X132909718Y-98411808D01*
X132781359Y-98460165D01*
X132667413Y-98488925D01*
X132508994Y-98509779D01*
X132321553Y-98522413D01*
X132120543Y-98526513D01*
X131921416Y-98521767D01*
X131739622Y-98507861D01*
X131590615Y-98484480D01*
X131589957Y-98484334D01*
X131460746Y-98452008D01*
X131370316Y-98417287D01*
X131297573Y-98369794D01*
X131229006Y-98306769D01*
X131175535Y-98250249D01*
X131132801Y-98194180D01*
X131099702Y-98131327D01*
X131075136Y-98054456D01*
X131058001Y-97956335D01*
X131047195Y-97829730D01*
X131041617Y-97667407D01*
X131040165Y-97462133D01*
X131041736Y-97206674D01*
X131042640Y-97120061D01*
X131671430Y-97120061D01*
X131672387Y-97380510D01*
X131675875Y-97587360D01*
X131682821Y-97747396D01*
X131694151Y-97867402D01*
X131710791Y-97954163D01*
X131733668Y-98014462D01*
X131763707Y-98055086D01*
X131801836Y-98082817D01*
X131802966Y-98083439D01*
X131913914Y-98122445D01*
X132065028Y-98146671D01*
X132237895Y-98156069D01*
X132414102Y-98150594D01*
X132575235Y-98130199D01*
X132702882Y-98094838D01*
X132723214Y-98085750D01*
X132776784Y-98057303D01*
X132818922Y-98025727D01*
X132851003Y-97983861D01*
X132874400Y-97924542D01*
X132890491Y-97840607D01*
X132900648Y-97724893D01*
X132906248Y-97570239D01*
X132908664Y-97369480D01*
X132909273Y-97116488D01*
X132908820Y-96859280D01*
X132906237Y-96655489D01*
X132900186Y-96498132D01*
X132889329Y-96380226D01*
X132872330Y-96294788D01*
X132847851Y-96234836D01*
X132814554Y-96193386D01*
X132771103Y-96163458D01*
X132722379Y-96140672D01*
X132634594Y-96118870D01*
X132504635Y-96104731D01*
X132350240Y-96098237D01*
X132189148Y-96099369D01*
X132039099Y-96108106D01*
X131917830Y-96124429D01*
X131856479Y-96141621D01*
X131803380Y-96167847D01*
X131761480Y-96201282D01*
X131729465Y-96248864D01*
X131706024Y-96317533D01*
X131689844Y-96414229D01*
X131679612Y-96545889D01*
X131674017Y-96719454D01*
X131671746Y-96941863D01*
X131671430Y-97120061D01*
X131042640Y-97120061D01*
X131043000Y-97085661D01*
X131045964Y-96837944D01*
X131049116Y-96642947D01*
X131053067Y-96492987D01*
X131058428Y-96380381D01*
X131065807Y-96297445D01*
X131075817Y-96236499D01*
X131089066Y-96189857D01*
X131106165Y-96149838D01*
X131119365Y-96124238D01*
X131239246Y-95962924D01*
X131405129Y-95839695D01*
X131591487Y-95762879D01*
X131724778Y-95735344D01*
X131897619Y-95716837D01*
X132093436Y-95707392D01*
X132295654Y-95707041D01*
X132487699Y-95715819D01*
D10*
X160770833Y-92302380D02*
X160437500Y-91826190D01*
X160199404Y-92302380D02*
X160199404Y-91302380D01*
X160580357Y-91302380D01*
X160675595Y-91350000D01*
X160723214Y-91397619D01*
X160770833Y-91492857D01*
X160770833Y-91635714D01*
X160723214Y-91730952D01*
X160675595Y-91778571D01*
X160580357Y-91826190D01*
X160199404Y-91826190D01*
X161627976Y-91302380D02*
X161437500Y-91302380D01*
X161342261Y-91350000D01*
X161294642Y-91397619D01*
X161199404Y-91540476D01*
X161151785Y-91730952D01*
X161151785Y-92111904D01*
X161199404Y-92207142D01*
X161247023Y-92254761D01*
X161342261Y-92302380D01*
X161532738Y-92302380D01*
X161627976Y-92254761D01*
X161675595Y-92207142D01*
X161723214Y-92111904D01*
X161723214Y-91873809D01*
X161675595Y-91778571D01*
X161627976Y-91730952D01*
X161532738Y-91683333D01*
X161342261Y-91683333D01*
X161247023Y-91730952D01*
X161199404Y-91778571D01*
X161151785Y-91873809D01*
X163782380Y-96833333D02*
X164496666Y-96833333D01*
X164639523Y-96880952D01*
X164734761Y-96976190D01*
X164782380Y-97119047D01*
X164782380Y-97214285D01*
X164115714Y-95928571D02*
X164782380Y-95928571D01*
X163734761Y-96166666D02*
X164449047Y-96404761D01*
X164449047Y-95785714D01*
X112666666Y-85002380D02*
X112666666Y-85716666D01*
X112619047Y-85859523D01*
X112523809Y-85954761D01*
X112380952Y-86002380D01*
X112285714Y-86002380D01*
X113571428Y-85002380D02*
X113380952Y-85002380D01*
X113285714Y-85050000D01*
X113238095Y-85097619D01*
X113142857Y-85240476D01*
X113095238Y-85430952D01*
X113095238Y-85811904D01*
X113142857Y-85907142D01*
X113190476Y-85954761D01*
X113285714Y-86002380D01*
X113476190Y-86002380D01*
X113571428Y-85954761D01*
X113619047Y-85907142D01*
X113666666Y-85811904D01*
X113666666Y-85573809D01*
X113619047Y-85478571D01*
X113571428Y-85430952D01*
X113476190Y-85383333D01*
X113285714Y-85383333D01*
X113190476Y-85430952D01*
X113142857Y-85478571D01*
X113095238Y-85573809D01*
X122916666Y-85002380D02*
X122916666Y-85716666D01*
X122869047Y-85859523D01*
X122773809Y-85954761D01*
X122630952Y-86002380D01*
X122535714Y-86002380D01*
X123345238Y-85097619D02*
X123392857Y-85050000D01*
X123488095Y-85002380D01*
X123726190Y-85002380D01*
X123821428Y-85050000D01*
X123869047Y-85097619D01*
X123916666Y-85192857D01*
X123916666Y-85288095D01*
X123869047Y-85430952D01*
X123297619Y-86002380D01*
X123916666Y-86002380D01*
X143400476Y-88212380D02*
X143400476Y-88926666D01*
X143352857Y-89069523D01*
X143257619Y-89164761D01*
X143114761Y-89212380D01*
X143019523Y-89212380D01*
X144400476Y-89212380D02*
X143829047Y-89212380D01*
X144114761Y-89212380D02*
X144114761Y-88212380D01*
X144019523Y-88355238D01*
X143924285Y-88450476D01*
X143829047Y-88498095D01*
X145019523Y-88212380D02*
X145114761Y-88212380D01*
X145210000Y-88260000D01*
X145257619Y-88307619D01*
X145305238Y-88402857D01*
X145352857Y-88593333D01*
X145352857Y-88831428D01*
X145305238Y-89021904D01*
X145257619Y-89117142D01*
X145210000Y-89164761D01*
X145114761Y-89212380D01*
X145019523Y-89212380D01*
X144924285Y-89164761D01*
X144876666Y-89117142D01*
X144829047Y-89021904D01*
X144781428Y-88831428D01*
X144781428Y-88593333D01*
X144829047Y-88402857D01*
X144876666Y-88307619D01*
X144924285Y-88260000D01*
X145019523Y-88212380D01*
X133716666Y-88212380D02*
X133716666Y-88926666D01*
X133669047Y-89069523D01*
X133573809Y-89164761D01*
X133430952Y-89212380D01*
X133335714Y-89212380D01*
X134097619Y-88212380D02*
X134716666Y-88212380D01*
X134383333Y-88593333D01*
X134526190Y-88593333D01*
X134621428Y-88640952D01*
X134669047Y-88688571D01*
X134716666Y-88783809D01*
X134716666Y-89021904D01*
X134669047Y-89117142D01*
X134621428Y-89164761D01*
X134526190Y-89212380D01*
X134240476Y-89212380D01*
X134145238Y-89164761D01*
X134097619Y-89117142D01*
X195833333Y-84357142D02*
X195785714Y-84404761D01*
X195642857Y-84452380D01*
X195547619Y-84452380D01*
X195404761Y-84404761D01*
X195309523Y-84309523D01*
X195261904Y-84214285D01*
X195214285Y-84023809D01*
X195214285Y-83880952D01*
X195261904Y-83690476D01*
X195309523Y-83595238D01*
X195404761Y-83500000D01*
X195547619Y-83452380D01*
X195642857Y-83452380D01*
X195785714Y-83500000D01*
X195833333Y-83547619D01*
X196309523Y-84452380D02*
X196500000Y-84452380D01*
X196595238Y-84404761D01*
X196642857Y-84357142D01*
X196738095Y-84214285D01*
X196785714Y-84023809D01*
X196785714Y-83642857D01*
X196738095Y-83547619D01*
X196690476Y-83500000D01*
X196595238Y-83452380D01*
X196404761Y-83452380D01*
X196309523Y-83500000D01*
X196261904Y-83547619D01*
X196214285Y-83642857D01*
X196214285Y-83880952D01*
X196261904Y-83976190D01*
X196309523Y-84023809D01*
X196404761Y-84071428D01*
X196595238Y-84071428D01*
X196690476Y-84023809D01*
X196738095Y-83976190D01*
X196785714Y-83880952D01*
X181395833Y-86007142D02*
X181348214Y-86054761D01*
X181205357Y-86102380D01*
X181110119Y-86102380D01*
X180967261Y-86054761D01*
X180872023Y-85959523D01*
X180824404Y-85864285D01*
X180776785Y-85673809D01*
X180776785Y-85530952D01*
X180824404Y-85340476D01*
X180872023Y-85245238D01*
X180967261Y-85150000D01*
X181110119Y-85102380D01*
X181205357Y-85102380D01*
X181348214Y-85150000D01*
X181395833Y-85197619D01*
X181729166Y-85102380D02*
X182395833Y-85102380D01*
X181967261Y-86102380D01*
X187302380Y-88666666D02*
X186826190Y-89000000D01*
X187302380Y-89238095D02*
X186302380Y-89238095D01*
X186302380Y-88857142D01*
X186350000Y-88761904D01*
X186397619Y-88714285D01*
X186492857Y-88666666D01*
X186635714Y-88666666D01*
X186730952Y-88714285D01*
X186778571Y-88761904D01*
X186826190Y-88857142D01*
X186826190Y-89238095D01*
X186635714Y-87809523D02*
X187302380Y-87809523D01*
X186254761Y-88047619D02*
X186969047Y-88285714D01*
X186969047Y-87666666D01*
X177333333Y-91452380D02*
X177000000Y-90976190D01*
X176761904Y-91452380D02*
X176761904Y-90452380D01*
X177142857Y-90452380D01*
X177238095Y-90500000D01*
X177285714Y-90547619D01*
X177333333Y-90642857D01*
X177333333Y-90785714D01*
X177285714Y-90880952D01*
X177238095Y-90928571D01*
X177142857Y-90976190D01*
X176761904Y-90976190D01*
X177666666Y-90452380D02*
X178285714Y-90452380D01*
X177952380Y-90833333D01*
X178095238Y-90833333D01*
X178190476Y-90880952D01*
X178238095Y-90928571D01*
X178285714Y-91023809D01*
X178285714Y-91261904D01*
X178238095Y-91357142D01*
X178190476Y-91404761D01*
X178095238Y-91452380D01*
X177809523Y-91452380D01*
X177714285Y-91404761D01*
X177666666Y-91357142D01*
X195333333Y-93357142D02*
X195285714Y-93404761D01*
X195142857Y-93452380D01*
X195047619Y-93452380D01*
X194904761Y-93404761D01*
X194809523Y-93309523D01*
X194761904Y-93214285D01*
X194714285Y-93023809D01*
X194714285Y-92880952D01*
X194761904Y-92690476D01*
X194809523Y-92595238D01*
X194904761Y-92500000D01*
X195047619Y-92452380D01*
X195142857Y-92452380D01*
X195285714Y-92500000D01*
X195333333Y-92547619D01*
X196190476Y-92452380D02*
X196000000Y-92452380D01*
X195904761Y-92500000D01*
X195857142Y-92547619D01*
X195761904Y-92690476D01*
X195714285Y-92880952D01*
X195714285Y-93261904D01*
X195761904Y-93357142D01*
X195809523Y-93404761D01*
X195904761Y-93452380D01*
X196095238Y-93452380D01*
X196190476Y-93404761D01*
X196238095Y-93357142D01*
X196285714Y-93261904D01*
X196285714Y-93023809D01*
X196238095Y-92928571D01*
X196190476Y-92880952D01*
X196095238Y-92833333D01*
X195904761Y-92833333D01*
X195809523Y-92880952D01*
X195761904Y-92928571D01*
X195714285Y-93023809D01*
X184333333Y-93357142D02*
X184285714Y-93404761D01*
X184142857Y-93452380D01*
X184047619Y-93452380D01*
X183904761Y-93404761D01*
X183809523Y-93309523D01*
X183761904Y-93214285D01*
X183714285Y-93023809D01*
X183714285Y-92880952D01*
X183761904Y-92690476D01*
X183809523Y-92595238D01*
X183904761Y-92500000D01*
X184047619Y-92452380D01*
X184142857Y-92452380D01*
X184285714Y-92500000D01*
X184333333Y-92547619D01*
X185238095Y-92452380D02*
X184761904Y-92452380D01*
X184714285Y-92928571D01*
X184761904Y-92880952D01*
X184857142Y-92833333D01*
X185095238Y-92833333D01*
X185190476Y-92880952D01*
X185238095Y-92928571D01*
X185285714Y-93023809D01*
X185285714Y-93261904D01*
X185238095Y-93357142D01*
X185190476Y-93404761D01*
X185095238Y-93452380D01*
X184857142Y-93452380D01*
X184761904Y-93404761D01*
X184714285Y-93357142D01*
X181416666Y-92402380D02*
X181416666Y-93116666D01*
X181369047Y-93259523D01*
X181273809Y-93354761D01*
X181130952Y-93402380D01*
X181035714Y-93402380D01*
X181940476Y-93402380D02*
X182130952Y-93402380D01*
X182226190Y-93354761D01*
X182273809Y-93307142D01*
X182369047Y-93164285D01*
X182416666Y-92973809D01*
X182416666Y-92592857D01*
X182369047Y-92497619D01*
X182321428Y-92450000D01*
X182226190Y-92402380D01*
X182035714Y-92402380D01*
X181940476Y-92450000D01*
X181892857Y-92497619D01*
X181845238Y-92592857D01*
X181845238Y-92830952D01*
X181892857Y-92926190D01*
X181940476Y-92973809D01*
X182035714Y-93021428D01*
X182226190Y-93021428D01*
X182321428Y-92973809D01*
X182369047Y-92926190D01*
X182416666Y-92830952D01*
X192416666Y-92402380D02*
X192416666Y-93116666D01*
X192369047Y-93259523D01*
X192273809Y-93354761D01*
X192130952Y-93402380D01*
X192035714Y-93402380D01*
X193035714Y-92830952D02*
X192940476Y-92783333D01*
X192892857Y-92735714D01*
X192845238Y-92640476D01*
X192845238Y-92592857D01*
X192892857Y-92497619D01*
X192940476Y-92450000D01*
X193035714Y-92402380D01*
X193226190Y-92402380D01*
X193321428Y-92450000D01*
X193369047Y-92497619D01*
X193416666Y-92592857D01*
X193416666Y-92640476D01*
X193369047Y-92735714D01*
X193321428Y-92783333D01*
X193226190Y-92830952D01*
X193035714Y-92830952D01*
X192940476Y-92878571D01*
X192892857Y-92926190D01*
X192845238Y-93021428D01*
X192845238Y-93211904D01*
X192892857Y-93307142D01*
X192940476Y-93354761D01*
X193035714Y-93402380D01*
X193226190Y-93402380D01*
X193321428Y-93354761D01*
X193369047Y-93307142D01*
X193416666Y-93211904D01*
X193416666Y-93021428D01*
X193369047Y-92926190D01*
X193321428Y-92878571D01*
X193226190Y-92830952D01*
X180988095Y-83652380D02*
X180988095Y-84461904D01*
X181035714Y-84557142D01*
X181083333Y-84604761D01*
X181178571Y-84652380D01*
X181369047Y-84652380D01*
X181464285Y-84604761D01*
X181511904Y-84557142D01*
X181559523Y-84461904D01*
X181559523Y-83652380D01*
X182464285Y-83985714D02*
X182464285Y-84652380D01*
X182226190Y-83604761D02*
X181988095Y-84319047D01*
X182607142Y-84319047D01*
X195738095Y-85452380D02*
X195738095Y-86261904D01*
X195785714Y-86357142D01*
X195833333Y-86404761D01*
X195928571Y-86452380D01*
X196119047Y-86452380D01*
X196214285Y-86404761D01*
X196261904Y-86357142D01*
X196309523Y-86261904D01*
X196309523Y-85452380D01*
X196690476Y-85452380D02*
X197309523Y-85452380D01*
X196976190Y-85833333D01*
X197119047Y-85833333D01*
X197214285Y-85880952D01*
X197261904Y-85928571D01*
X197309523Y-86023809D01*
X197309523Y-86261904D01*
X197261904Y-86357142D01*
X197214285Y-86404761D01*
X197119047Y-86452380D01*
X196833333Y-86452380D01*
X196738095Y-86404761D01*
X196690476Y-86357142D01*
X191861380Y-81000904D02*
X192670904Y-81000904D01*
X192766142Y-80953285D01*
X192813761Y-80905666D01*
X192861380Y-80810428D01*
X192861380Y-80619952D01*
X192813761Y-80524714D01*
X192766142Y-80477095D01*
X192670904Y-80429476D01*
X191861380Y-80429476D01*
X191956619Y-80000904D02*
X191909000Y-79953285D01*
X191861380Y-79858047D01*
X191861380Y-79619952D01*
X191909000Y-79524714D01*
X191956619Y-79477095D01*
X192051857Y-79429476D01*
X192147095Y-79429476D01*
X192289952Y-79477095D01*
X192861380Y-80048523D01*
X192861380Y-79429476D01*
X170988095Y-80152380D02*
X170988095Y-80961904D01*
X171035714Y-81057142D01*
X171083333Y-81104761D01*
X171178571Y-81152380D01*
X171369047Y-81152380D01*
X171464285Y-81104761D01*
X171511904Y-81057142D01*
X171559523Y-80961904D01*
X171559523Y-80152380D01*
X172559523Y-81152380D02*
X171988095Y-81152380D01*
X172273809Y-81152380D02*
X172273809Y-80152380D01*
X172178571Y-80295238D01*
X172083333Y-80390476D01*
X171988095Y-80438095D01*
X141860666Y-95477761D02*
X142003523Y-95525380D01*
X142241619Y-95525380D01*
X142336857Y-95477761D01*
X142384476Y-95430142D01*
X142432095Y-95334904D01*
X142432095Y-95239666D01*
X142384476Y-95144428D01*
X142336857Y-95096809D01*
X142241619Y-95049190D01*
X142051142Y-95001571D01*
X141955904Y-94953952D01*
X141908285Y-94906333D01*
X141860666Y-94811095D01*
X141860666Y-94715857D01*
X141908285Y-94620619D01*
X141955904Y-94573000D01*
X142051142Y-94525380D01*
X142289238Y-94525380D01*
X142432095Y-94573000D01*
X142765428Y-94525380D02*
X143003523Y-95525380D01*
X143194000Y-94811095D01*
X143384476Y-95525380D01*
X143622571Y-94525380D01*
X143955904Y-94620619D02*
X144003523Y-94573000D01*
X144098761Y-94525380D01*
X144336857Y-94525380D01*
X144432095Y-94573000D01*
X144479714Y-94620619D01*
X144527333Y-94715857D01*
X144527333Y-94811095D01*
X144479714Y-94953952D01*
X143908285Y-95525380D01*
X144527333Y-95525380D01*
X103562142Y-83207380D02*
X103228809Y-82731190D01*
X102990714Y-83207380D02*
X102990714Y-82207380D01*
X103371666Y-82207380D01*
X103466904Y-82255000D01*
X103514523Y-82302619D01*
X103562142Y-82397857D01*
X103562142Y-82540714D01*
X103514523Y-82635952D01*
X103466904Y-82683571D01*
X103371666Y-82731190D01*
X102990714Y-82731190D01*
X103943095Y-82302619D02*
X103990714Y-82255000D01*
X104085952Y-82207380D01*
X104324047Y-82207380D01*
X104419285Y-82255000D01*
X104466904Y-82302619D01*
X104514523Y-82397857D01*
X104514523Y-82493095D01*
X104466904Y-82635952D01*
X103895476Y-83207380D01*
X104514523Y-83207380D01*
X104895476Y-82302619D02*
X104943095Y-82255000D01*
X105038333Y-82207380D01*
X105276428Y-82207380D01*
X105371666Y-82255000D01*
X105419285Y-82302619D01*
X105466904Y-82397857D01*
X105466904Y-82493095D01*
X105419285Y-82635952D01*
X104847857Y-83207380D01*
X105466904Y-83207380D01*
X185223142Y-84602380D02*
X184889809Y-84126190D01*
X184651714Y-84602380D02*
X184651714Y-83602380D01*
X185032666Y-83602380D01*
X185127904Y-83650000D01*
X185175523Y-83697619D01*
X185223142Y-83792857D01*
X185223142Y-83935714D01*
X185175523Y-84030952D01*
X185127904Y-84078571D01*
X185032666Y-84126190D01*
X184651714Y-84126190D01*
X185604095Y-83697619D02*
X185651714Y-83650000D01*
X185746952Y-83602380D01*
X185985047Y-83602380D01*
X186080285Y-83650000D01*
X186127904Y-83697619D01*
X186175523Y-83792857D01*
X186175523Y-83888095D01*
X186127904Y-84030952D01*
X185556476Y-84602380D01*
X186175523Y-84602380D01*
X187127904Y-84602380D02*
X186556476Y-84602380D01*
X186842190Y-84602380D02*
X186842190Y-83602380D01*
X186746952Y-83745238D01*
X186651714Y-83840476D01*
X186556476Y-83888095D01*
X107579380Y-94191857D02*
X107103190Y-94525190D01*
X107579380Y-94763285D02*
X106579380Y-94763285D01*
X106579380Y-94382333D01*
X106627000Y-94287095D01*
X106674619Y-94239476D01*
X106769857Y-94191857D01*
X106912714Y-94191857D01*
X107007952Y-94239476D01*
X107055571Y-94287095D01*
X107103190Y-94382333D01*
X107103190Y-94763285D01*
X106674619Y-93810904D02*
X106627000Y-93763285D01*
X106579380Y-93668047D01*
X106579380Y-93429952D01*
X106627000Y-93334714D01*
X106674619Y-93287095D01*
X106769857Y-93239476D01*
X106865095Y-93239476D01*
X107007952Y-93287095D01*
X107579380Y-93858523D01*
X107579380Y-93239476D01*
X106579380Y-92620428D02*
X106579380Y-92525190D01*
X106627000Y-92429952D01*
X106674619Y-92382333D01*
X106769857Y-92334714D01*
X106960333Y-92287095D01*
X107198428Y-92287095D01*
X107388904Y-92334714D01*
X107484142Y-92382333D01*
X107531761Y-92429952D01*
X107579380Y-92525190D01*
X107579380Y-92620428D01*
X107531761Y-92715666D01*
X107484142Y-92763285D01*
X107388904Y-92810904D01*
X107198428Y-92858523D01*
X106960333Y-92858523D01*
X106769857Y-92810904D01*
X106674619Y-92763285D01*
X106627000Y-92715666D01*
X106579380Y-92620428D01*
X117739380Y-94191857D02*
X117263190Y-94525190D01*
X117739380Y-94763285D02*
X116739380Y-94763285D01*
X116739380Y-94382333D01*
X116787000Y-94287095D01*
X116834619Y-94239476D01*
X116929857Y-94191857D01*
X117072714Y-94191857D01*
X117167952Y-94239476D01*
X117215571Y-94287095D01*
X117263190Y-94382333D01*
X117263190Y-94763285D01*
X117739380Y-93239476D02*
X117739380Y-93810904D01*
X117739380Y-93525190D02*
X116739380Y-93525190D01*
X116882238Y-93620428D01*
X116977476Y-93715666D01*
X117025095Y-93810904D01*
X117739380Y-92763285D02*
X117739380Y-92572809D01*
X117691761Y-92477571D01*
X117644142Y-92429952D01*
X117501285Y-92334714D01*
X117310809Y-92287095D01*
X116929857Y-92287095D01*
X116834619Y-92334714D01*
X116787000Y-92382333D01*
X116739380Y-92477571D01*
X116739380Y-92668047D01*
X116787000Y-92763285D01*
X116834619Y-92810904D01*
X116929857Y-92858523D01*
X117167952Y-92858523D01*
X117263190Y-92810904D01*
X117310809Y-92763285D01*
X117358428Y-92668047D01*
X117358428Y-92477571D01*
X117310809Y-92382333D01*
X117263190Y-92334714D01*
X117167952Y-92287095D01*
X127899380Y-94191857D02*
X127423190Y-94525190D01*
X127899380Y-94763285D02*
X126899380Y-94763285D01*
X126899380Y-94382333D01*
X126947000Y-94287095D01*
X126994619Y-94239476D01*
X127089857Y-94191857D01*
X127232714Y-94191857D01*
X127327952Y-94239476D01*
X127375571Y-94287095D01*
X127423190Y-94382333D01*
X127423190Y-94763285D01*
X127899380Y-93239476D02*
X127899380Y-93810904D01*
X127899380Y-93525190D02*
X126899380Y-93525190D01*
X127042238Y-93620428D01*
X127137476Y-93715666D01*
X127185095Y-93810904D01*
X127327952Y-92668047D02*
X127280333Y-92763285D01*
X127232714Y-92810904D01*
X127137476Y-92858523D01*
X127089857Y-92858523D01*
X126994619Y-92810904D01*
X126947000Y-92763285D01*
X126899380Y-92668047D01*
X126899380Y-92477571D01*
X126947000Y-92382333D01*
X126994619Y-92334714D01*
X127089857Y-92287095D01*
X127137476Y-92287095D01*
X127232714Y-92334714D01*
X127280333Y-92382333D01*
X127327952Y-92477571D01*
X127327952Y-92668047D01*
X127375571Y-92763285D01*
X127423190Y-92810904D01*
X127518428Y-92858523D01*
X127708904Y-92858523D01*
X127804142Y-92810904D01*
X127851761Y-92763285D01*
X127899380Y-92668047D01*
X127899380Y-92477571D01*
X127851761Y-92382333D01*
X127804142Y-92334714D01*
X127708904Y-92287095D01*
X127518428Y-92287095D01*
X127423190Y-92334714D01*
X127375571Y-92382333D01*
X127327952Y-92477571D01*
X138059380Y-94191857D02*
X137583190Y-94525190D01*
X138059380Y-94763285D02*
X137059380Y-94763285D01*
X137059380Y-94382333D01*
X137107000Y-94287095D01*
X137154619Y-94239476D01*
X137249857Y-94191857D01*
X137392714Y-94191857D01*
X137487952Y-94239476D01*
X137535571Y-94287095D01*
X137583190Y-94382333D01*
X137583190Y-94763285D01*
X138059380Y-93239476D02*
X138059380Y-93810904D01*
X138059380Y-93525190D02*
X137059380Y-93525190D01*
X137202238Y-93620428D01*
X137297476Y-93715666D01*
X137345095Y-93810904D01*
X137059380Y-92334714D02*
X137059380Y-92810904D01*
X137535571Y-92858523D01*
X137487952Y-92810904D01*
X137440333Y-92715666D01*
X137440333Y-92477571D01*
X137487952Y-92382333D01*
X137535571Y-92334714D01*
X137630809Y-92287095D01*
X137868904Y-92287095D01*
X137964142Y-92334714D01*
X138011761Y-92382333D01*
X138059380Y-92477571D01*
X138059380Y-92715666D01*
X138011761Y-92810904D01*
X137964142Y-92858523D01*
X115103142Y-92602380D02*
X114769809Y-92126190D01*
X114531714Y-92602380D02*
X114531714Y-91602380D01*
X114912666Y-91602380D01*
X115007904Y-91650000D01*
X115055523Y-91697619D01*
X115103142Y-91792857D01*
X115103142Y-91935714D01*
X115055523Y-92030952D01*
X115007904Y-92078571D01*
X114912666Y-92126190D01*
X114531714Y-92126190D01*
X116055523Y-92602380D02*
X115484095Y-92602380D01*
X115769809Y-92602380D02*
X115769809Y-91602380D01*
X115674571Y-91745238D01*
X115579333Y-91840476D01*
X115484095Y-91888095D01*
X116912666Y-91935714D02*
X116912666Y-92602380D01*
X116674571Y-91554761D02*
X116436476Y-92269047D01*
X117055523Y-92269047D01*
X125263142Y-92602380D02*
X124929809Y-92126190D01*
X124691714Y-92602380D02*
X124691714Y-91602380D01*
X125072666Y-91602380D01*
X125167904Y-91650000D01*
X125215523Y-91697619D01*
X125263142Y-91792857D01*
X125263142Y-91935714D01*
X125215523Y-92030952D01*
X125167904Y-92078571D01*
X125072666Y-92126190D01*
X124691714Y-92126190D01*
X126215523Y-92602380D02*
X125644095Y-92602380D01*
X125929809Y-92602380D02*
X125929809Y-91602380D01*
X125834571Y-91745238D01*
X125739333Y-91840476D01*
X125644095Y-91888095D01*
X126548857Y-91602380D02*
X127167904Y-91602380D01*
X126834571Y-91983333D01*
X126977428Y-91983333D01*
X127072666Y-92030952D01*
X127120285Y-92078571D01*
X127167904Y-92173809D01*
X127167904Y-92411904D01*
X127120285Y-92507142D01*
X127072666Y-92554761D01*
X126977428Y-92602380D01*
X126691714Y-92602380D01*
X126596476Y-92554761D01*
X126548857Y-92507142D01*
X135423142Y-92602380D02*
X135089809Y-92126190D01*
X134851714Y-92602380D02*
X134851714Y-91602380D01*
X135232666Y-91602380D01*
X135327904Y-91650000D01*
X135375523Y-91697619D01*
X135423142Y-91792857D01*
X135423142Y-91935714D01*
X135375523Y-92030952D01*
X135327904Y-92078571D01*
X135232666Y-92126190D01*
X134851714Y-92126190D01*
X136375523Y-92602380D02*
X135804095Y-92602380D01*
X136089809Y-92602380D02*
X136089809Y-91602380D01*
X135994571Y-91745238D01*
X135899333Y-91840476D01*
X135804095Y-91888095D01*
X136756476Y-91697619D02*
X136804095Y-91650000D01*
X136899333Y-91602380D01*
X137137428Y-91602380D01*
X137232666Y-91650000D01*
X137280285Y-91697619D01*
X137327904Y-91792857D01*
X137327904Y-91888095D01*
X137280285Y-92030952D01*
X136708857Y-92602380D01*
X137327904Y-92602380D01*
X145583142Y-92602380D02*
X145249809Y-92126190D01*
X145011714Y-92602380D02*
X145011714Y-91602380D01*
X145392666Y-91602380D01*
X145487904Y-91650000D01*
X145535523Y-91697619D01*
X145583142Y-91792857D01*
X145583142Y-91935714D01*
X145535523Y-92030952D01*
X145487904Y-92078571D01*
X145392666Y-92126190D01*
X145011714Y-92126190D01*
X146535523Y-92602380D02*
X145964095Y-92602380D01*
X146249809Y-92602380D02*
X146249809Y-91602380D01*
X146154571Y-91745238D01*
X146059333Y-91840476D01*
X145964095Y-91888095D01*
X147487904Y-92602380D02*
X146916476Y-92602380D01*
X147202190Y-92602380D02*
X147202190Y-91602380D01*
X147106952Y-91745238D01*
X147011714Y-91840476D01*
X146916476Y-91888095D01*
X115103142Y-94602380D02*
X114769809Y-94126190D01*
X114531714Y-94602380D02*
X114531714Y-93602380D01*
X114912666Y-93602380D01*
X115007904Y-93650000D01*
X115055523Y-93697619D01*
X115103142Y-93792857D01*
X115103142Y-93935714D01*
X115055523Y-94030952D01*
X115007904Y-94078571D01*
X114912666Y-94126190D01*
X114531714Y-94126190D01*
X116055523Y-94602380D02*
X115484095Y-94602380D01*
X115769809Y-94602380D02*
X115769809Y-93602380D01*
X115674571Y-93745238D01*
X115579333Y-93840476D01*
X115484095Y-93888095D01*
X116674571Y-93602380D02*
X116769809Y-93602380D01*
X116865047Y-93650000D01*
X116912666Y-93697619D01*
X116960285Y-93792857D01*
X117007904Y-93983333D01*
X117007904Y-94221428D01*
X116960285Y-94411904D01*
X116912666Y-94507142D01*
X116865047Y-94554761D01*
X116769809Y-94602380D01*
X116674571Y-94602380D01*
X116579333Y-94554761D01*
X116531714Y-94507142D01*
X116484095Y-94411904D01*
X116436476Y-94221428D01*
X116436476Y-93983333D01*
X116484095Y-93792857D01*
X116531714Y-93697619D01*
X116579333Y-93650000D01*
X116674571Y-93602380D01*
X125739333Y-94602380D02*
X125406000Y-94126190D01*
X125167904Y-94602380D02*
X125167904Y-93602380D01*
X125548857Y-93602380D01*
X125644095Y-93650000D01*
X125691714Y-93697619D01*
X125739333Y-93792857D01*
X125739333Y-93935714D01*
X125691714Y-94030952D01*
X125644095Y-94078571D01*
X125548857Y-94126190D01*
X125167904Y-94126190D01*
X126215523Y-94602380D02*
X126406000Y-94602380D01*
X126501238Y-94554761D01*
X126548857Y-94507142D01*
X126644095Y-94364285D01*
X126691714Y-94173809D01*
X126691714Y-93792857D01*
X126644095Y-93697619D01*
X126596476Y-93650000D01*
X126501238Y-93602380D01*
X126310761Y-93602380D01*
X126215523Y-93650000D01*
X126167904Y-93697619D01*
X126120285Y-93792857D01*
X126120285Y-94030952D01*
X126167904Y-94126190D01*
X126215523Y-94173809D01*
X126310761Y-94221428D01*
X126501238Y-94221428D01*
X126596476Y-94173809D01*
X126644095Y-94126190D01*
X126691714Y-94030952D01*
X135899333Y-94602380D02*
X135566000Y-94126190D01*
X135327904Y-94602380D02*
X135327904Y-93602380D01*
X135708857Y-93602380D01*
X135804095Y-93650000D01*
X135851714Y-93697619D01*
X135899333Y-93792857D01*
X135899333Y-93935714D01*
X135851714Y-94030952D01*
X135804095Y-94078571D01*
X135708857Y-94126190D01*
X135327904Y-94126190D01*
X136470761Y-94030952D02*
X136375523Y-93983333D01*
X136327904Y-93935714D01*
X136280285Y-93840476D01*
X136280285Y-93792857D01*
X136327904Y-93697619D01*
X136375523Y-93650000D01*
X136470761Y-93602380D01*
X136661238Y-93602380D01*
X136756476Y-93650000D01*
X136804095Y-93697619D01*
X136851714Y-93792857D01*
X136851714Y-93840476D01*
X136804095Y-93935714D01*
X136756476Y-93983333D01*
X136661238Y-94030952D01*
X136470761Y-94030952D01*
X136375523Y-94078571D01*
X136327904Y-94126190D01*
X136280285Y-94221428D01*
X136280285Y-94411904D01*
X136327904Y-94507142D01*
X136375523Y-94554761D01*
X136470761Y-94602380D01*
X136661238Y-94602380D01*
X136756476Y-94554761D01*
X136804095Y-94507142D01*
X136851714Y-94411904D01*
X136851714Y-94221428D01*
X136804095Y-94126190D01*
X136756476Y-94078571D01*
X136661238Y-94030952D01*
X146059333Y-94602380D02*
X145726000Y-94126190D01*
X145487904Y-94602380D02*
X145487904Y-93602380D01*
X145868857Y-93602380D01*
X145964095Y-93650000D01*
X146011714Y-93697619D01*
X146059333Y-93792857D01*
X146059333Y-93935714D01*
X146011714Y-94030952D01*
X145964095Y-94078571D01*
X145868857Y-94126190D01*
X145487904Y-94126190D01*
X146392666Y-93602380D02*
X147059333Y-93602380D01*
X146630761Y-94602380D01*
X147330380Y-96890666D02*
X146854190Y-97224000D01*
X147330380Y-97462095D02*
X146330380Y-97462095D01*
X146330380Y-97081142D01*
X146378000Y-96985904D01*
X146425619Y-96938285D01*
X146520857Y-96890666D01*
X146663714Y-96890666D01*
X146758952Y-96938285D01*
X146806571Y-96985904D01*
X146854190Y-97081142D01*
X146854190Y-97462095D01*
X146425619Y-96509714D02*
X146378000Y-96462095D01*
X146330380Y-96366857D01*
X146330380Y-96128761D01*
X146378000Y-96033523D01*
X146425619Y-95985904D01*
X146520857Y-95938285D01*
X146616095Y-95938285D01*
X146758952Y-95985904D01*
X147330380Y-96557333D01*
X147330380Y-95938285D01*
X177852380Y-79666666D02*
X177376190Y-80000000D01*
X177852380Y-80238095D02*
X176852380Y-80238095D01*
X176852380Y-79857142D01*
X176900000Y-79761904D01*
X176947619Y-79714285D01*
X177042857Y-79666666D01*
X177185714Y-79666666D01*
X177280952Y-79714285D01*
X177328571Y-79761904D01*
X177376190Y-79857142D01*
X177376190Y-80238095D01*
X177852380Y-78714285D02*
X177852380Y-79285714D01*
X177852380Y-79000000D02*
X176852380Y-79000000D01*
X176995238Y-79095238D01*
X177090476Y-79190476D01*
X177138095Y-79285714D01*
X112100761Y-94297619D02*
X112005523Y-94250000D01*
X111910285Y-94154761D01*
X111767428Y-94011904D01*
X111672190Y-93964285D01*
X111576952Y-93964285D01*
X111624571Y-94202380D02*
X111529333Y-94154761D01*
X111434095Y-94059523D01*
X111386476Y-93869047D01*
X111386476Y-93535714D01*
X111434095Y-93345238D01*
X111529333Y-93250000D01*
X111624571Y-93202380D01*
X111815047Y-93202380D01*
X111910285Y-93250000D01*
X112005523Y-93345238D01*
X112053142Y-93535714D01*
X112053142Y-93869047D01*
X112005523Y-94059523D01*
X111910285Y-94154761D01*
X111815047Y-94202380D01*
X111624571Y-94202380D01*
X112910285Y-93535714D02*
X112910285Y-94202380D01*
X112672190Y-93154761D02*
X112434095Y-93869047D01*
X113053142Y-93869047D01*
X122260761Y-94297619D02*
X122165523Y-94250000D01*
X122070285Y-94154761D01*
X121927428Y-94011904D01*
X121832190Y-93964285D01*
X121736952Y-93964285D01*
X121784571Y-94202380D02*
X121689333Y-94154761D01*
X121594095Y-94059523D01*
X121546476Y-93869047D01*
X121546476Y-93535714D01*
X121594095Y-93345238D01*
X121689333Y-93250000D01*
X121784571Y-93202380D01*
X121975047Y-93202380D01*
X122070285Y-93250000D01*
X122165523Y-93345238D01*
X122213142Y-93535714D01*
X122213142Y-93869047D01*
X122165523Y-94059523D01*
X122070285Y-94154761D01*
X121975047Y-94202380D01*
X121784571Y-94202380D01*
X122546476Y-93202380D02*
X123165523Y-93202380D01*
X122832190Y-93583333D01*
X122975047Y-93583333D01*
X123070285Y-93630952D01*
X123117904Y-93678571D01*
X123165523Y-93773809D01*
X123165523Y-94011904D01*
X123117904Y-94107142D01*
X123070285Y-94154761D01*
X122975047Y-94202380D01*
X122689333Y-94202380D01*
X122594095Y-94154761D01*
X122546476Y-94107142D01*
X132420761Y-94297619D02*
X132325523Y-94250000D01*
X132230285Y-94154761D01*
X132087428Y-94011904D01*
X131992190Y-93964285D01*
X131896952Y-93964285D01*
X131944571Y-94202380D02*
X131849333Y-94154761D01*
X131754095Y-94059523D01*
X131706476Y-93869047D01*
X131706476Y-93535714D01*
X131754095Y-93345238D01*
X131849333Y-93250000D01*
X131944571Y-93202380D01*
X132135047Y-93202380D01*
X132230285Y-93250000D01*
X132325523Y-93345238D01*
X132373142Y-93535714D01*
X132373142Y-93869047D01*
X132325523Y-94059523D01*
X132230285Y-94154761D01*
X132135047Y-94202380D01*
X131944571Y-94202380D01*
X132754095Y-93297619D02*
X132801714Y-93250000D01*
X132896952Y-93202380D01*
X133135047Y-93202380D01*
X133230285Y-93250000D01*
X133277904Y-93297619D01*
X133325523Y-93392857D01*
X133325523Y-93488095D01*
X133277904Y-93630952D01*
X132706476Y-94202380D01*
X133325523Y-94202380D01*
X142580761Y-94297619D02*
X142485523Y-94250000D01*
X142390285Y-94154761D01*
X142247428Y-94011904D01*
X142152190Y-93964285D01*
X142056952Y-93964285D01*
X142104571Y-94202380D02*
X142009333Y-94154761D01*
X141914095Y-94059523D01*
X141866476Y-93869047D01*
X141866476Y-93535714D01*
X141914095Y-93345238D01*
X142009333Y-93250000D01*
X142104571Y-93202380D01*
X142295047Y-93202380D01*
X142390285Y-93250000D01*
X142485523Y-93345238D01*
X142533142Y-93535714D01*
X142533142Y-93869047D01*
X142485523Y-94059523D01*
X142390285Y-94154761D01*
X142295047Y-94202380D01*
X142104571Y-94202380D01*
X143485523Y-94202380D02*
X142914095Y-94202380D01*
X143199809Y-94202380D02*
X143199809Y-93202380D01*
X143104571Y-93345238D01*
X143009333Y-93440476D01*
X142914095Y-93488095D01*
X167122380Y-79333333D02*
X167836666Y-79333333D01*
X167979523Y-79380952D01*
X168074761Y-79476190D01*
X168122380Y-79619047D01*
X168122380Y-79714285D01*
X167122380Y-78952380D02*
X167122380Y-78285714D01*
X168122380Y-78714285D01*
X161476666Y-88212380D02*
X161476666Y-88926666D01*
X161429047Y-89069523D01*
X161333809Y-89164761D01*
X161190952Y-89212380D01*
X161095714Y-89212380D01*
X162429047Y-88212380D02*
X161952857Y-88212380D01*
X161905238Y-88688571D01*
X161952857Y-88640952D01*
X162048095Y-88593333D01*
X162286190Y-88593333D01*
X162381428Y-88640952D01*
X162429047Y-88688571D01*
X162476666Y-88783809D01*
X162476666Y-89021904D01*
X162429047Y-89117142D01*
X162381428Y-89164761D01*
X162286190Y-89212380D01*
X162048095Y-89212380D01*
X161952857Y-89164761D01*
X161905238Y-89117142D01*
X181408666Y-81223880D02*
X181408666Y-81938166D01*
X181361047Y-82081023D01*
X181265809Y-82176261D01*
X181122952Y-82223880D01*
X181027714Y-82223880D01*
X182408666Y-82223880D02*
X181837238Y-82223880D01*
X182122952Y-82223880D02*
X182122952Y-81223880D01*
X182027714Y-81366738D01*
X181932476Y-81461976D01*
X181837238Y-81509595D01*
X103238095Y-76252380D02*
X103238095Y-75252380D01*
X103238095Y-75728571D02*
X103809523Y-75728571D01*
X103809523Y-76252380D02*
X103809523Y-75252380D01*
X104238095Y-75347619D02*
X104285714Y-75300000D01*
X104380952Y-75252380D01*
X104619047Y-75252380D01*
X104714285Y-75300000D01*
X104761904Y-75347619D01*
X104809523Y-75442857D01*
X104809523Y-75538095D01*
X104761904Y-75680952D01*
X104190476Y-76252380D01*
X104809523Y-76252380D01*
X195238095Y-76252380D02*
X195238095Y-75252380D01*
X195238095Y-75728571D02*
X195809523Y-75728571D01*
X195809523Y-76252380D02*
X195809523Y-75252380D01*
X196809523Y-76252380D02*
X196238095Y-76252380D01*
X196523809Y-76252380D02*
X196523809Y-75252380D01*
X196428571Y-75395238D01*
X196333333Y-75490476D01*
X196238095Y-75538095D01*
X157428571Y-84823333D02*
X157428571Y-85156666D01*
X157952380Y-85156666D02*
X156952380Y-85156666D01*
X156952380Y-84680476D01*
X157952380Y-83775714D02*
X157952380Y-84347142D01*
X157952380Y-84061428D02*
X156952380Y-84061428D01*
X157095238Y-84156666D01*
X157190476Y-84251904D01*
X157238095Y-84347142D01*
X103466904Y-88539380D02*
X103466904Y-87539380D01*
X103705000Y-87539380D01*
X103847857Y-87587000D01*
X103943095Y-87682238D01*
X103990714Y-87777476D01*
X104038333Y-87967952D01*
X104038333Y-88110809D01*
X103990714Y-88301285D01*
X103943095Y-88396523D01*
X103847857Y-88491761D01*
X103705000Y-88539380D01*
X103466904Y-88539380D01*
X104371666Y-87539380D02*
X105038333Y-87539380D01*
X104609761Y-88539380D01*
X185127904Y-83461380D02*
X185127904Y-82461380D01*
X185366000Y-82461380D01*
X185508857Y-82509000D01*
X185604095Y-82604238D01*
X185651714Y-82699476D01*
X185699333Y-82889952D01*
X185699333Y-83032809D01*
X185651714Y-83223285D01*
X185604095Y-83318523D01*
X185508857Y-83413761D01*
X185366000Y-83461380D01*
X185127904Y-83461380D01*
X186556476Y-82461380D02*
X186366000Y-82461380D01*
X186270761Y-82509000D01*
X186223142Y-82556619D01*
X186127904Y-82699476D01*
X186080285Y-82889952D01*
X186080285Y-83270904D01*
X186127904Y-83366142D01*
X186175523Y-83413761D01*
X186270761Y-83461380D01*
X186461238Y-83461380D01*
X186556476Y-83413761D01*
X186604095Y-83366142D01*
X186651714Y-83270904D01*
X186651714Y-83032809D01*
X186604095Y-82937571D01*
X186556476Y-82889952D01*
X186461238Y-82842333D01*
X186270761Y-82842333D01*
X186175523Y-82889952D01*
X186127904Y-82937571D01*
X186080285Y-83032809D01*
X110879380Y-90731095D02*
X109879380Y-90731095D01*
X109879380Y-90493000D01*
X109927000Y-90350142D01*
X110022238Y-90254904D01*
X110117476Y-90207285D01*
X110307952Y-90159666D01*
X110450809Y-90159666D01*
X110641285Y-90207285D01*
X110736523Y-90254904D01*
X110831761Y-90350142D01*
X110879380Y-90493000D01*
X110879380Y-90731095D01*
X109879380Y-89254904D02*
X109879380Y-89731095D01*
X110355571Y-89778714D01*
X110307952Y-89731095D01*
X110260333Y-89635857D01*
X110260333Y-89397761D01*
X110307952Y-89302523D01*
X110355571Y-89254904D01*
X110450809Y-89207285D01*
X110688904Y-89207285D01*
X110784142Y-89254904D01*
X110831761Y-89302523D01*
X110879380Y-89397761D01*
X110879380Y-89635857D01*
X110831761Y-89731095D01*
X110784142Y-89778714D01*
X121039380Y-90731095D02*
X120039380Y-90731095D01*
X120039380Y-90493000D01*
X120087000Y-90350142D01*
X120182238Y-90254904D01*
X120277476Y-90207285D01*
X120467952Y-90159666D01*
X120610809Y-90159666D01*
X120801285Y-90207285D01*
X120896523Y-90254904D01*
X120991761Y-90350142D01*
X121039380Y-90493000D01*
X121039380Y-90731095D01*
X120372714Y-89302523D02*
X121039380Y-89302523D01*
X119991761Y-89540619D02*
X120706047Y-89778714D01*
X120706047Y-89159666D01*
X131199380Y-90731095D02*
X130199380Y-90731095D01*
X130199380Y-90493000D01*
X130247000Y-90350142D01*
X130342238Y-90254904D01*
X130437476Y-90207285D01*
X130627952Y-90159666D01*
X130770809Y-90159666D01*
X130961285Y-90207285D01*
X131056523Y-90254904D01*
X131151761Y-90350142D01*
X131199380Y-90493000D01*
X131199380Y-90731095D01*
X130199380Y-89826333D02*
X130199380Y-89207285D01*
X130580333Y-89540619D01*
X130580333Y-89397761D01*
X130627952Y-89302523D01*
X130675571Y-89254904D01*
X130770809Y-89207285D01*
X131008904Y-89207285D01*
X131104142Y-89254904D01*
X131151761Y-89302523D01*
X131199380Y-89397761D01*
X131199380Y-89683476D01*
X131151761Y-89778714D01*
X131104142Y-89826333D01*
X141359380Y-90731095D02*
X140359380Y-90731095D01*
X140359380Y-90493000D01*
X140407000Y-90350142D01*
X140502238Y-90254904D01*
X140597476Y-90207285D01*
X140787952Y-90159666D01*
X140930809Y-90159666D01*
X141121285Y-90207285D01*
X141216523Y-90254904D01*
X141311761Y-90350142D01*
X141359380Y-90493000D01*
X141359380Y-90731095D01*
X140454619Y-89778714D02*
X140407000Y-89731095D01*
X140359380Y-89635857D01*
X140359380Y-89397761D01*
X140407000Y-89302523D01*
X140454619Y-89254904D01*
X140549857Y-89207285D01*
X140645095Y-89207285D01*
X140787952Y-89254904D01*
X141359380Y-89826333D01*
X141359380Y-89207285D01*
X189342333Y-82707142D02*
X189294714Y-82754761D01*
X189151857Y-82802380D01*
X189056619Y-82802380D01*
X188913761Y-82754761D01*
X188818523Y-82659523D01*
X188770904Y-82564285D01*
X188723285Y-82373809D01*
X188723285Y-82230952D01*
X188770904Y-82040476D01*
X188818523Y-81945238D01*
X188913761Y-81850000D01*
X189056619Y-81802380D01*
X189151857Y-81802380D01*
X189294714Y-81850000D01*
X189342333Y-81897619D01*
X190199476Y-82135714D02*
X190199476Y-82802380D01*
X189961380Y-81754761D02*
X189723285Y-82469047D01*
X190342333Y-82469047D01*
X169833333Y-88457142D02*
X169785714Y-88504761D01*
X169642857Y-88552380D01*
X169547619Y-88552380D01*
X169404761Y-88504761D01*
X169309523Y-88409523D01*
X169261904Y-88314285D01*
X169214285Y-88123809D01*
X169214285Y-87980952D01*
X169261904Y-87790476D01*
X169309523Y-87695238D01*
X169404761Y-87600000D01*
X169547619Y-87552380D01*
X169642857Y-87552380D01*
X169785714Y-87600000D01*
X169833333Y-87647619D01*
X170166666Y-87552380D02*
X170785714Y-87552380D01*
X170452380Y-87933333D01*
X170595238Y-87933333D01*
X170690476Y-87980952D01*
X170738095Y-88028571D01*
X170785714Y-88123809D01*
X170785714Y-88361904D01*
X170738095Y-88457142D01*
X170690476Y-88504761D01*
X170595238Y-88552380D01*
X170309523Y-88552380D01*
X170214285Y-88504761D01*
X170166666Y-88457142D01*
X189334333Y-79247142D02*
X189286714Y-79294761D01*
X189143857Y-79342380D01*
X189048619Y-79342380D01*
X188905761Y-79294761D01*
X188810523Y-79199523D01*
X188762904Y-79104285D01*
X188715285Y-78913809D01*
X188715285Y-78770952D01*
X188762904Y-78580476D01*
X188810523Y-78485238D01*
X188905761Y-78390000D01*
X189048619Y-78342380D01*
X189143857Y-78342380D01*
X189286714Y-78390000D01*
X189334333Y-78437619D01*
X189715285Y-78437619D02*
X189762904Y-78390000D01*
X189858142Y-78342380D01*
X190096238Y-78342380D01*
X190191476Y-78390000D01*
X190239095Y-78437619D01*
X190286714Y-78532857D01*
X190286714Y-78628095D01*
X190239095Y-78770952D01*
X189667666Y-79342380D01*
X190286714Y-79342380D01*
X177833333Y-86007142D02*
X177785714Y-86054761D01*
X177642857Y-86102380D01*
X177547619Y-86102380D01*
X177404761Y-86054761D01*
X177309523Y-85959523D01*
X177261904Y-85864285D01*
X177214285Y-85673809D01*
X177214285Y-85530952D01*
X177261904Y-85340476D01*
X177309523Y-85245238D01*
X177404761Y-85150000D01*
X177547619Y-85102380D01*
X177642857Y-85102380D01*
X177785714Y-85150000D01*
X177833333Y-85197619D01*
X178785714Y-86102380D02*
X178214285Y-86102380D01*
X178500000Y-86102380D02*
X178500000Y-85102380D01*
X178404761Y-85245238D01*
X178309523Y-85340476D01*
X178214285Y-85388095D01*
M02*
