G04 #@! TF.GenerationSoftware,KiCad,Pcbnew,(5.1.5)-3*
G04 #@! TF.CreationDate,2021-01-18T14:34:05-06:00*
G04 #@! TF.ProjectId,USB-PT100,5553422d-5054-4313-9030-2e6b69636164,B*
G04 #@! TF.SameCoordinates,Original*
G04 #@! TF.FileFunction,Soldermask,Top*
G04 #@! TF.FilePolarity,Negative*
%FSLAX46Y46*%
G04 Gerber Fmt 4.6, Leading zero omitted, Abs format (unit mm)*
G04 Created by KiCad (PCBNEW (5.1.5)-3) date 2021-01-18 14:34:05*
%MOMM*%
%LPD*%
G04 APERTURE LIST*
%ADD10C,0.100000*%
G04 APERTURE END LIST*
D10*
G36*
X146460104Y-96722585D02*
G01*
X146628626Y-96792389D01*
X146780291Y-96893728D01*
X146909272Y-97022709D01*
X147010611Y-97174374D01*
X147080415Y-97342896D01*
X147116000Y-97521797D01*
X147116000Y-97704203D01*
X147080415Y-97883104D01*
X147010611Y-98051626D01*
X146909272Y-98203291D01*
X146780291Y-98332272D01*
X146628626Y-98433611D01*
X146460104Y-98503415D01*
X146281203Y-98539000D01*
X146098797Y-98539000D01*
X145919896Y-98503415D01*
X145751374Y-98433611D01*
X145599709Y-98332272D01*
X145470728Y-98203291D01*
X145369389Y-98051626D01*
X145299585Y-97883104D01*
X145264000Y-97704203D01*
X145264000Y-97521797D01*
X145299585Y-97342896D01*
X145369389Y-97174374D01*
X145470728Y-97022709D01*
X145599709Y-96893728D01*
X145751374Y-96792389D01*
X145919896Y-96722585D01*
X146098797Y-96687000D01*
X146281203Y-96687000D01*
X146460104Y-96722585D01*
G37*
G36*
X139960104Y-96722585D02*
G01*
X140128626Y-96792389D01*
X140280291Y-96893728D01*
X140409272Y-97022709D01*
X140510611Y-97174374D01*
X140580415Y-97342896D01*
X140616000Y-97521797D01*
X140616000Y-97704203D01*
X140580415Y-97883104D01*
X140510611Y-98051626D01*
X140409272Y-98203291D01*
X140280291Y-98332272D01*
X140128626Y-98433611D01*
X139960104Y-98503415D01*
X139781203Y-98539000D01*
X139598797Y-98539000D01*
X139419896Y-98503415D01*
X139251374Y-98433611D01*
X139099709Y-98332272D01*
X138970728Y-98203291D01*
X138869389Y-98051626D01*
X138799585Y-97883104D01*
X138764000Y-97704203D01*
X138764000Y-97521797D01*
X138799585Y-97342896D01*
X138869389Y-97174374D01*
X138970728Y-97022709D01*
X139099709Y-96893728D01*
X139251374Y-96792389D01*
X139419896Y-96722585D01*
X139598797Y-96687000D01*
X139781203Y-96687000D01*
X139960104Y-96722585D01*
G37*
G36*
X149112468Y-97127565D02*
G01*
X149151138Y-97139296D01*
X149186777Y-97158346D01*
X149218017Y-97183983D01*
X149243654Y-97215223D01*
X149262704Y-97250862D01*
X149274435Y-97289532D01*
X149279000Y-97335888D01*
X149279000Y-97987112D01*
X149274435Y-98033468D01*
X149262704Y-98072138D01*
X149243654Y-98107777D01*
X149218017Y-98139017D01*
X149186777Y-98164654D01*
X149151138Y-98183704D01*
X149112468Y-98195435D01*
X149066112Y-98200000D01*
X147989888Y-98200000D01*
X147943532Y-98195435D01*
X147904862Y-98183704D01*
X147869223Y-98164654D01*
X147837983Y-98139017D01*
X147812346Y-98107777D01*
X147793296Y-98072138D01*
X147781565Y-98033468D01*
X147777000Y-97987112D01*
X147777000Y-97335888D01*
X147781565Y-97289532D01*
X147793296Y-97250862D01*
X147812346Y-97215223D01*
X147837983Y-97183983D01*
X147869223Y-97158346D01*
X147904862Y-97139296D01*
X147943532Y-97127565D01*
X147989888Y-97123000D01*
X149066112Y-97123000D01*
X149112468Y-97127565D01*
G37*
G36*
X194176626Y-95462037D02*
G01*
X194346465Y-95513557D01*
X194346467Y-95513558D01*
X194502989Y-95597221D01*
X194640186Y-95709814D01*
X194714319Y-95800147D01*
X194752778Y-95847009D01*
X194836443Y-96003534D01*
X194887963Y-96173373D01*
X194891111Y-96205337D01*
X194899416Y-96289654D01*
X194901000Y-96305742D01*
X194901000Y-96694257D01*
X194887963Y-96826626D01*
X194836443Y-96996466D01*
X194752778Y-97152991D01*
X194748383Y-97158346D01*
X194640186Y-97290186D01*
X194547348Y-97366375D01*
X194502991Y-97402778D01*
X194346466Y-97486443D01*
X194176627Y-97537963D01*
X194000000Y-97555359D01*
X193823374Y-97537963D01*
X193653535Y-97486443D01*
X193497010Y-97402778D01*
X193359815Y-97290185D01*
X193247222Y-97152991D01*
X193163557Y-96996466D01*
X193112037Y-96826627D01*
X193099000Y-96694258D01*
X193099000Y-96305743D01*
X193100585Y-96289654D01*
X193108889Y-96205337D01*
X193112037Y-96173374D01*
X193163557Y-96003535D01*
X193247222Y-95847010D01*
X193247223Y-95847009D01*
X193359814Y-95709814D01*
X193461271Y-95626552D01*
X193497009Y-95597222D01*
X193653534Y-95513557D01*
X193823373Y-95462037D01*
X194000000Y-95444641D01*
X194176626Y-95462037D01*
G37*
G36*
X183176626Y-95462037D02*
G01*
X183346465Y-95513557D01*
X183346467Y-95513558D01*
X183502989Y-95597221D01*
X183640186Y-95709814D01*
X183714319Y-95800147D01*
X183752778Y-95847009D01*
X183836443Y-96003534D01*
X183887963Y-96173373D01*
X183891111Y-96205337D01*
X183899416Y-96289654D01*
X183901000Y-96305742D01*
X183901000Y-96694257D01*
X183887963Y-96826626D01*
X183836443Y-96996466D01*
X183752778Y-97152991D01*
X183748383Y-97158346D01*
X183640186Y-97290186D01*
X183547348Y-97366375D01*
X183502991Y-97402778D01*
X183346466Y-97486443D01*
X183176627Y-97537963D01*
X183000000Y-97555359D01*
X182823374Y-97537963D01*
X182653535Y-97486443D01*
X182497010Y-97402778D01*
X182359815Y-97290185D01*
X182247222Y-97152991D01*
X182163557Y-96996466D01*
X182112037Y-96826627D01*
X182099000Y-96694258D01*
X182099000Y-96305743D01*
X182100585Y-96289654D01*
X182108889Y-96205337D01*
X182112037Y-96173374D01*
X182163557Y-96003535D01*
X182247222Y-95847010D01*
X182247223Y-95847009D01*
X182359814Y-95709814D01*
X182461271Y-95626552D01*
X182497009Y-95597222D01*
X182653534Y-95513557D01*
X182823373Y-95462037D01*
X183000000Y-95444641D01*
X183176626Y-95462037D01*
G37*
G36*
X181258600Y-95452989D02*
G01*
X181291652Y-95463015D01*
X181322103Y-95479292D01*
X181348799Y-95501201D01*
X181370708Y-95527897D01*
X181386985Y-95558348D01*
X181397011Y-95591400D01*
X181401000Y-95631903D01*
X181401000Y-97368097D01*
X181397011Y-97408600D01*
X181386985Y-97441652D01*
X181370708Y-97472103D01*
X181348799Y-97498799D01*
X181322103Y-97520708D01*
X181291652Y-97536985D01*
X181258600Y-97547011D01*
X181218097Y-97551000D01*
X179781903Y-97551000D01*
X179741400Y-97547011D01*
X179708348Y-97536985D01*
X179677897Y-97520708D01*
X179651201Y-97498799D01*
X179629292Y-97472103D01*
X179613015Y-97441652D01*
X179602989Y-97408600D01*
X179599000Y-97368097D01*
X179599000Y-95631903D01*
X179602989Y-95591400D01*
X179613015Y-95558348D01*
X179629292Y-95527897D01*
X179651201Y-95501201D01*
X179677897Y-95479292D01*
X179708348Y-95463015D01*
X179741400Y-95452989D01*
X179781903Y-95449000D01*
X181218097Y-95449000D01*
X181258600Y-95452989D01*
G37*
G36*
X192258600Y-95452989D02*
G01*
X192291652Y-95463015D01*
X192322103Y-95479292D01*
X192348799Y-95501201D01*
X192370708Y-95527897D01*
X192386985Y-95558348D01*
X192397011Y-95591400D01*
X192401000Y-95631903D01*
X192401000Y-97368097D01*
X192397011Y-97408600D01*
X192386985Y-97441652D01*
X192370708Y-97472103D01*
X192348799Y-97498799D01*
X192322103Y-97520708D01*
X192291652Y-97536985D01*
X192258600Y-97547011D01*
X192218097Y-97551000D01*
X190781903Y-97551000D01*
X190741400Y-97547011D01*
X190708348Y-97536985D01*
X190677897Y-97520708D01*
X190651201Y-97498799D01*
X190629292Y-97472103D01*
X190613015Y-97441652D01*
X190602989Y-97408600D01*
X190599000Y-97368097D01*
X190599000Y-95631903D01*
X190602989Y-95591400D01*
X190613015Y-95558348D01*
X190629292Y-95527897D01*
X190651201Y-95501201D01*
X190677897Y-95479292D01*
X190708348Y-95463015D01*
X190741400Y-95452989D01*
X190781903Y-95449000D01*
X192218097Y-95449000D01*
X192258600Y-95452989D01*
G37*
G36*
X159573512Y-95603927D02*
G01*
X159722812Y-95633624D01*
X159886784Y-95701544D01*
X160034354Y-95800147D01*
X160159853Y-95925646D01*
X160258456Y-96073216D01*
X160326376Y-96237188D01*
X160361000Y-96411259D01*
X160361000Y-96588741D01*
X160326376Y-96762812D01*
X160258456Y-96926784D01*
X160159853Y-97074354D01*
X160034354Y-97199853D01*
X159886784Y-97298456D01*
X159722812Y-97366376D01*
X159592731Y-97392250D01*
X159548742Y-97401000D01*
X159371258Y-97401000D01*
X159327269Y-97392250D01*
X159197188Y-97366376D01*
X159033216Y-97298456D01*
X158885646Y-97199853D01*
X158760147Y-97074354D01*
X158661544Y-96926784D01*
X158593624Y-96762812D01*
X158559000Y-96588741D01*
X158559000Y-96411259D01*
X158593624Y-96237188D01*
X158661544Y-96073216D01*
X158760147Y-95925646D01*
X158885646Y-95800147D01*
X159033216Y-95701544D01*
X159197188Y-95633624D01*
X159346488Y-95603927D01*
X159371258Y-95599000D01*
X159548742Y-95599000D01*
X159573512Y-95603927D01*
G37*
G36*
X162901000Y-97401000D02*
G01*
X161099000Y-97401000D01*
X161099000Y-95599000D01*
X162901000Y-95599000D01*
X162901000Y-97401000D01*
G37*
G36*
X157033512Y-95603927D02*
G01*
X157182812Y-95633624D01*
X157346784Y-95701544D01*
X157494354Y-95800147D01*
X157619853Y-95925646D01*
X157718456Y-96073216D01*
X157786376Y-96237188D01*
X157821000Y-96411259D01*
X157821000Y-96588741D01*
X157786376Y-96762812D01*
X157718456Y-96926784D01*
X157619853Y-97074354D01*
X157494354Y-97199853D01*
X157346784Y-97298456D01*
X157182812Y-97366376D01*
X157052731Y-97392250D01*
X157008742Y-97401000D01*
X156831258Y-97401000D01*
X156787269Y-97392250D01*
X156657188Y-97366376D01*
X156493216Y-97298456D01*
X156345646Y-97199853D01*
X156220147Y-97074354D01*
X156121544Y-96926784D01*
X156053624Y-96762812D01*
X156019000Y-96588741D01*
X156019000Y-96411259D01*
X156053624Y-96237188D01*
X156121544Y-96073216D01*
X156220147Y-95925646D01*
X156345646Y-95800147D01*
X156493216Y-95701544D01*
X156657188Y-95633624D01*
X156806488Y-95603927D01*
X156831258Y-95599000D01*
X157008742Y-95599000D01*
X157033512Y-95603927D01*
G37*
G36*
X149112468Y-95252565D02*
G01*
X149151138Y-95264296D01*
X149186777Y-95283346D01*
X149218017Y-95308983D01*
X149243654Y-95340223D01*
X149262704Y-95375862D01*
X149274435Y-95414532D01*
X149279000Y-95460888D01*
X149279000Y-96112112D01*
X149274435Y-96158468D01*
X149262704Y-96197138D01*
X149243654Y-96232777D01*
X149218017Y-96264017D01*
X149186777Y-96289654D01*
X149151138Y-96308704D01*
X149112468Y-96320435D01*
X149066112Y-96325000D01*
X147989888Y-96325000D01*
X147943532Y-96320435D01*
X147904862Y-96308704D01*
X147869223Y-96289654D01*
X147837983Y-96264017D01*
X147812346Y-96232777D01*
X147793296Y-96197138D01*
X147781565Y-96158468D01*
X147777000Y-96112112D01*
X147777000Y-95460888D01*
X147781565Y-95414532D01*
X147793296Y-95375862D01*
X147812346Y-95340223D01*
X147837983Y-95308983D01*
X147869223Y-95283346D01*
X147904862Y-95264296D01*
X147943532Y-95252565D01*
X147989888Y-95248000D01*
X149066112Y-95248000D01*
X149112468Y-95252565D01*
G37*
G36*
X139841468Y-93952565D02*
G01*
X139880138Y-93964296D01*
X139915777Y-93983346D01*
X139947017Y-94008983D01*
X139972654Y-94040223D01*
X139991704Y-94075862D01*
X140003435Y-94114532D01*
X140008000Y-94160888D01*
X140008000Y-94812112D01*
X140003435Y-94858468D01*
X139991704Y-94897138D01*
X139972654Y-94932777D01*
X139947017Y-94964017D01*
X139915777Y-94989654D01*
X139880138Y-95008704D01*
X139841468Y-95020435D01*
X139795112Y-95025000D01*
X138718888Y-95025000D01*
X138672532Y-95020435D01*
X138633862Y-95008704D01*
X138598223Y-94989654D01*
X138566983Y-94964017D01*
X138541346Y-94932777D01*
X138522296Y-94897138D01*
X138510565Y-94858468D01*
X138506000Y-94812112D01*
X138506000Y-94160888D01*
X138510565Y-94114532D01*
X138522296Y-94075862D01*
X138541346Y-94040223D01*
X138566983Y-94008983D01*
X138598223Y-93983346D01*
X138633862Y-93964296D01*
X138672532Y-93952565D01*
X138718888Y-93948000D01*
X139795112Y-93948000D01*
X139841468Y-93952565D01*
G37*
G36*
X129681468Y-93952565D02*
G01*
X129720138Y-93964296D01*
X129755777Y-93983346D01*
X129787017Y-94008983D01*
X129812654Y-94040223D01*
X129831704Y-94075862D01*
X129843435Y-94114532D01*
X129848000Y-94160888D01*
X129848000Y-94812112D01*
X129843435Y-94858468D01*
X129831704Y-94897138D01*
X129812654Y-94932777D01*
X129787017Y-94964017D01*
X129755777Y-94989654D01*
X129720138Y-95008704D01*
X129681468Y-95020435D01*
X129635112Y-95025000D01*
X128558888Y-95025000D01*
X128512532Y-95020435D01*
X128473862Y-95008704D01*
X128438223Y-94989654D01*
X128406983Y-94964017D01*
X128381346Y-94932777D01*
X128362296Y-94897138D01*
X128350565Y-94858468D01*
X128346000Y-94812112D01*
X128346000Y-94160888D01*
X128350565Y-94114532D01*
X128362296Y-94075862D01*
X128381346Y-94040223D01*
X128406983Y-94008983D01*
X128438223Y-93983346D01*
X128473862Y-93964296D01*
X128512532Y-93952565D01*
X128558888Y-93948000D01*
X129635112Y-93948000D01*
X129681468Y-93952565D01*
G37*
G36*
X119521468Y-93952565D02*
G01*
X119560138Y-93964296D01*
X119595777Y-93983346D01*
X119627017Y-94008983D01*
X119652654Y-94040223D01*
X119671704Y-94075862D01*
X119683435Y-94114532D01*
X119688000Y-94160888D01*
X119688000Y-94812112D01*
X119683435Y-94858468D01*
X119671704Y-94897138D01*
X119652654Y-94932777D01*
X119627017Y-94964017D01*
X119595777Y-94989654D01*
X119560138Y-95008704D01*
X119521468Y-95020435D01*
X119475112Y-95025000D01*
X118398888Y-95025000D01*
X118352532Y-95020435D01*
X118313862Y-95008704D01*
X118278223Y-94989654D01*
X118246983Y-94964017D01*
X118221346Y-94932777D01*
X118202296Y-94897138D01*
X118190565Y-94858468D01*
X118186000Y-94812112D01*
X118186000Y-94160888D01*
X118190565Y-94114532D01*
X118202296Y-94075862D01*
X118221346Y-94040223D01*
X118246983Y-94008983D01*
X118278223Y-93983346D01*
X118313862Y-93964296D01*
X118352532Y-93952565D01*
X118398888Y-93948000D01*
X119475112Y-93948000D01*
X119521468Y-93952565D01*
G37*
G36*
X109361468Y-93952565D02*
G01*
X109400138Y-93964296D01*
X109435777Y-93983346D01*
X109467017Y-94008983D01*
X109492654Y-94040223D01*
X109511704Y-94075862D01*
X109523435Y-94114532D01*
X109528000Y-94160888D01*
X109528000Y-94812112D01*
X109523435Y-94858468D01*
X109511704Y-94897138D01*
X109492654Y-94932777D01*
X109467017Y-94964017D01*
X109435777Y-94989654D01*
X109400138Y-95008704D01*
X109361468Y-95020435D01*
X109315112Y-95025000D01*
X108238888Y-95025000D01*
X108192532Y-95020435D01*
X108153862Y-95008704D01*
X108118223Y-94989654D01*
X108086983Y-94964017D01*
X108061346Y-94932777D01*
X108042296Y-94897138D01*
X108030565Y-94858468D01*
X108026000Y-94812112D01*
X108026000Y-94160888D01*
X108030565Y-94114532D01*
X108042296Y-94075862D01*
X108061346Y-94040223D01*
X108086983Y-94008983D01*
X108118223Y-93983346D01*
X108153862Y-93964296D01*
X108192532Y-93952565D01*
X108238888Y-93948000D01*
X109315112Y-93948000D01*
X109361468Y-93952565D01*
G37*
G36*
X162246968Y-92753565D02*
G01*
X162285638Y-92765296D01*
X162321277Y-92784346D01*
X162352517Y-92809983D01*
X162378154Y-92841223D01*
X162397204Y-92876862D01*
X162408935Y-92915532D01*
X162413500Y-92961888D01*
X162413500Y-94038112D01*
X162408935Y-94084468D01*
X162397204Y-94123138D01*
X162378154Y-94158777D01*
X162352517Y-94190017D01*
X162321277Y-94215654D01*
X162285638Y-94234704D01*
X162246968Y-94246435D01*
X162200612Y-94251000D01*
X161549388Y-94251000D01*
X161503032Y-94246435D01*
X161464362Y-94234704D01*
X161428723Y-94215654D01*
X161397483Y-94190017D01*
X161371846Y-94158777D01*
X161352796Y-94123138D01*
X161341065Y-94084468D01*
X161336500Y-94038112D01*
X161336500Y-92961888D01*
X161341065Y-92915532D01*
X161352796Y-92876862D01*
X161371846Y-92841223D01*
X161397483Y-92809983D01*
X161428723Y-92784346D01*
X161464362Y-92765296D01*
X161503032Y-92753565D01*
X161549388Y-92749000D01*
X162200612Y-92749000D01*
X162246968Y-92753565D01*
G37*
G36*
X160371968Y-92753565D02*
G01*
X160410638Y-92765296D01*
X160446277Y-92784346D01*
X160477517Y-92809983D01*
X160503154Y-92841223D01*
X160522204Y-92876862D01*
X160533935Y-92915532D01*
X160538500Y-92961888D01*
X160538500Y-94038112D01*
X160533935Y-94084468D01*
X160522204Y-94123138D01*
X160503154Y-94158777D01*
X160477517Y-94190017D01*
X160446277Y-94215654D01*
X160410638Y-94234704D01*
X160371968Y-94246435D01*
X160325612Y-94251000D01*
X159674388Y-94251000D01*
X159628032Y-94246435D01*
X159589362Y-94234704D01*
X159553723Y-94215654D01*
X159522483Y-94190017D01*
X159496846Y-94158777D01*
X159477796Y-94123138D01*
X159466065Y-94084468D01*
X159461500Y-94038112D01*
X159461500Y-92961888D01*
X159466065Y-92915532D01*
X159477796Y-92876862D01*
X159496846Y-92841223D01*
X159522483Y-92809983D01*
X159553723Y-92784346D01*
X159589362Y-92765296D01*
X159628032Y-92753565D01*
X159674388Y-92749000D01*
X160325612Y-92749000D01*
X160371968Y-92753565D01*
G37*
G36*
X194059468Y-91963565D02*
G01*
X194098138Y-91975296D01*
X194133777Y-91994346D01*
X194165017Y-92019983D01*
X194190654Y-92051223D01*
X194209704Y-92086862D01*
X194221435Y-92125532D01*
X194226000Y-92171888D01*
X194226000Y-93248112D01*
X194221435Y-93294468D01*
X194209704Y-93333138D01*
X194190654Y-93368777D01*
X194165017Y-93400017D01*
X194133777Y-93425654D01*
X194098138Y-93444704D01*
X194059468Y-93456435D01*
X194013112Y-93461000D01*
X193361888Y-93461000D01*
X193315532Y-93456435D01*
X193276862Y-93444704D01*
X193241223Y-93425654D01*
X193209983Y-93400017D01*
X193184346Y-93368777D01*
X193165296Y-93333138D01*
X193153565Y-93294468D01*
X193149000Y-93248112D01*
X193149000Y-92171888D01*
X193153565Y-92125532D01*
X193165296Y-92086862D01*
X193184346Y-92051223D01*
X193209983Y-92019983D01*
X193241223Y-91994346D01*
X193276862Y-91975296D01*
X193315532Y-91963565D01*
X193361888Y-91959000D01*
X194013112Y-91959000D01*
X194059468Y-91963565D01*
G37*
G36*
X181184468Y-91963565D02*
G01*
X181223138Y-91975296D01*
X181258777Y-91994346D01*
X181290017Y-92019983D01*
X181315654Y-92051223D01*
X181334704Y-92086862D01*
X181346435Y-92125532D01*
X181351000Y-92171888D01*
X181351000Y-93248112D01*
X181346435Y-93294468D01*
X181334704Y-93333138D01*
X181315654Y-93368777D01*
X181290017Y-93400017D01*
X181258777Y-93425654D01*
X181223138Y-93444704D01*
X181184468Y-93456435D01*
X181138112Y-93461000D01*
X180486888Y-93461000D01*
X180440532Y-93456435D01*
X180401862Y-93444704D01*
X180366223Y-93425654D01*
X180334983Y-93400017D01*
X180309346Y-93368777D01*
X180290296Y-93333138D01*
X180278565Y-93294468D01*
X180274000Y-93248112D01*
X180274000Y-92171888D01*
X180278565Y-92125532D01*
X180290296Y-92086862D01*
X180309346Y-92051223D01*
X180334983Y-92019983D01*
X180366223Y-91994346D01*
X180401862Y-91975296D01*
X180440532Y-91963565D01*
X180486888Y-91959000D01*
X181138112Y-91959000D01*
X181184468Y-91963565D01*
G37*
G36*
X183059468Y-91963565D02*
G01*
X183098138Y-91975296D01*
X183133777Y-91994346D01*
X183165017Y-92019983D01*
X183190654Y-92051223D01*
X183209704Y-92086862D01*
X183221435Y-92125532D01*
X183226000Y-92171888D01*
X183226000Y-93248112D01*
X183221435Y-93294468D01*
X183209704Y-93333138D01*
X183190654Y-93368777D01*
X183165017Y-93400017D01*
X183133777Y-93425654D01*
X183098138Y-93444704D01*
X183059468Y-93456435D01*
X183013112Y-93461000D01*
X182361888Y-93461000D01*
X182315532Y-93456435D01*
X182276862Y-93444704D01*
X182241223Y-93425654D01*
X182209983Y-93400017D01*
X182184346Y-93368777D01*
X182165296Y-93333138D01*
X182153565Y-93294468D01*
X182149000Y-93248112D01*
X182149000Y-92171888D01*
X182153565Y-92125532D01*
X182165296Y-92086862D01*
X182184346Y-92051223D01*
X182209983Y-92019983D01*
X182241223Y-91994346D01*
X182276862Y-91975296D01*
X182315532Y-91963565D01*
X182361888Y-91959000D01*
X183013112Y-91959000D01*
X183059468Y-91963565D01*
G37*
G36*
X192184468Y-91963565D02*
G01*
X192223138Y-91975296D01*
X192258777Y-91994346D01*
X192290017Y-92019983D01*
X192315654Y-92051223D01*
X192334704Y-92086862D01*
X192346435Y-92125532D01*
X192351000Y-92171888D01*
X192351000Y-93248112D01*
X192346435Y-93294468D01*
X192334704Y-93333138D01*
X192315654Y-93368777D01*
X192290017Y-93400017D01*
X192258777Y-93425654D01*
X192223138Y-93444704D01*
X192184468Y-93456435D01*
X192138112Y-93461000D01*
X191486888Y-93461000D01*
X191440532Y-93456435D01*
X191401862Y-93444704D01*
X191366223Y-93425654D01*
X191334983Y-93400017D01*
X191309346Y-93368777D01*
X191290296Y-93333138D01*
X191278565Y-93294468D01*
X191274000Y-93248112D01*
X191274000Y-92171888D01*
X191278565Y-92125532D01*
X191290296Y-92086862D01*
X191309346Y-92051223D01*
X191334983Y-92019983D01*
X191366223Y-91994346D01*
X191401862Y-91975296D01*
X191440532Y-91963565D01*
X191486888Y-91959000D01*
X192138112Y-91959000D01*
X192184468Y-91963565D01*
G37*
G36*
X117055468Y-91753565D02*
G01*
X117094138Y-91765296D01*
X117129777Y-91784346D01*
X117161017Y-91809983D01*
X117186654Y-91841223D01*
X117205704Y-91876862D01*
X117217435Y-91915532D01*
X117222000Y-91961888D01*
X117222000Y-93038112D01*
X117217435Y-93084468D01*
X117205704Y-93123138D01*
X117186654Y-93158777D01*
X117161017Y-93190017D01*
X117129777Y-93215654D01*
X117094138Y-93234704D01*
X117055468Y-93246435D01*
X117009112Y-93251000D01*
X116357888Y-93251000D01*
X116311532Y-93246435D01*
X116272862Y-93234704D01*
X116237223Y-93215654D01*
X116205983Y-93190017D01*
X116180346Y-93158777D01*
X116161296Y-93123138D01*
X116149565Y-93084468D01*
X116145000Y-93038112D01*
X116145000Y-91961888D01*
X116149565Y-91915532D01*
X116161296Y-91876862D01*
X116180346Y-91841223D01*
X116205983Y-91809983D01*
X116237223Y-91784346D01*
X116272862Y-91765296D01*
X116311532Y-91753565D01*
X116357888Y-91749000D01*
X117009112Y-91749000D01*
X117055468Y-91753565D01*
G37*
G36*
X115180468Y-91753565D02*
G01*
X115219138Y-91765296D01*
X115254777Y-91784346D01*
X115286017Y-91809983D01*
X115311654Y-91841223D01*
X115330704Y-91876862D01*
X115342435Y-91915532D01*
X115347000Y-91961888D01*
X115347000Y-93038112D01*
X115342435Y-93084468D01*
X115330704Y-93123138D01*
X115311654Y-93158777D01*
X115286017Y-93190017D01*
X115254777Y-93215654D01*
X115219138Y-93234704D01*
X115180468Y-93246435D01*
X115134112Y-93251000D01*
X114482888Y-93251000D01*
X114436532Y-93246435D01*
X114397862Y-93234704D01*
X114362223Y-93215654D01*
X114330983Y-93190017D01*
X114305346Y-93158777D01*
X114286296Y-93123138D01*
X114274565Y-93084468D01*
X114270000Y-93038112D01*
X114270000Y-91961888D01*
X114274565Y-91915532D01*
X114286296Y-91876862D01*
X114305346Y-91841223D01*
X114330983Y-91809983D01*
X114362223Y-91784346D01*
X114397862Y-91765296D01*
X114436532Y-91753565D01*
X114482888Y-91749000D01*
X115134112Y-91749000D01*
X115180468Y-91753565D01*
G37*
G36*
X125340468Y-91753565D02*
G01*
X125379138Y-91765296D01*
X125414777Y-91784346D01*
X125446017Y-91809983D01*
X125471654Y-91841223D01*
X125490704Y-91876862D01*
X125502435Y-91915532D01*
X125507000Y-91961888D01*
X125507000Y-93038112D01*
X125502435Y-93084468D01*
X125490704Y-93123138D01*
X125471654Y-93158777D01*
X125446017Y-93190017D01*
X125414777Y-93215654D01*
X125379138Y-93234704D01*
X125340468Y-93246435D01*
X125294112Y-93251000D01*
X124642888Y-93251000D01*
X124596532Y-93246435D01*
X124557862Y-93234704D01*
X124522223Y-93215654D01*
X124490983Y-93190017D01*
X124465346Y-93158777D01*
X124446296Y-93123138D01*
X124434565Y-93084468D01*
X124430000Y-93038112D01*
X124430000Y-91961888D01*
X124434565Y-91915532D01*
X124446296Y-91876862D01*
X124465346Y-91841223D01*
X124490983Y-91809983D01*
X124522223Y-91784346D01*
X124557862Y-91765296D01*
X124596532Y-91753565D01*
X124642888Y-91749000D01*
X125294112Y-91749000D01*
X125340468Y-91753565D01*
G37*
G36*
X147535468Y-91753565D02*
G01*
X147574138Y-91765296D01*
X147609777Y-91784346D01*
X147641017Y-91809983D01*
X147666654Y-91841223D01*
X147685704Y-91876862D01*
X147697435Y-91915532D01*
X147702000Y-91961888D01*
X147702000Y-93038112D01*
X147697435Y-93084468D01*
X147685704Y-93123138D01*
X147666654Y-93158777D01*
X147641017Y-93190017D01*
X147609777Y-93215654D01*
X147574138Y-93234704D01*
X147535468Y-93246435D01*
X147489112Y-93251000D01*
X146837888Y-93251000D01*
X146791532Y-93246435D01*
X146752862Y-93234704D01*
X146717223Y-93215654D01*
X146685983Y-93190017D01*
X146660346Y-93158777D01*
X146641296Y-93123138D01*
X146629565Y-93084468D01*
X146625000Y-93038112D01*
X146625000Y-91961888D01*
X146629565Y-91915532D01*
X146641296Y-91876862D01*
X146660346Y-91841223D01*
X146685983Y-91809983D01*
X146717223Y-91784346D01*
X146752862Y-91765296D01*
X146791532Y-91753565D01*
X146837888Y-91749000D01*
X147489112Y-91749000D01*
X147535468Y-91753565D01*
G37*
G36*
X145660468Y-91753565D02*
G01*
X145699138Y-91765296D01*
X145734777Y-91784346D01*
X145766017Y-91809983D01*
X145791654Y-91841223D01*
X145810704Y-91876862D01*
X145822435Y-91915532D01*
X145827000Y-91961888D01*
X145827000Y-93038112D01*
X145822435Y-93084468D01*
X145810704Y-93123138D01*
X145791654Y-93158777D01*
X145766017Y-93190017D01*
X145734777Y-93215654D01*
X145699138Y-93234704D01*
X145660468Y-93246435D01*
X145614112Y-93251000D01*
X144962888Y-93251000D01*
X144916532Y-93246435D01*
X144877862Y-93234704D01*
X144842223Y-93215654D01*
X144810983Y-93190017D01*
X144785346Y-93158777D01*
X144766296Y-93123138D01*
X144754565Y-93084468D01*
X144750000Y-93038112D01*
X144750000Y-91961888D01*
X144754565Y-91915532D01*
X144766296Y-91876862D01*
X144785346Y-91841223D01*
X144810983Y-91809983D01*
X144842223Y-91784346D01*
X144877862Y-91765296D01*
X144916532Y-91753565D01*
X144962888Y-91749000D01*
X145614112Y-91749000D01*
X145660468Y-91753565D01*
G37*
G36*
X137375468Y-91753565D02*
G01*
X137414138Y-91765296D01*
X137449777Y-91784346D01*
X137481017Y-91809983D01*
X137506654Y-91841223D01*
X137525704Y-91876862D01*
X137537435Y-91915532D01*
X137542000Y-91961888D01*
X137542000Y-93038112D01*
X137537435Y-93084468D01*
X137525704Y-93123138D01*
X137506654Y-93158777D01*
X137481017Y-93190017D01*
X137449777Y-93215654D01*
X137414138Y-93234704D01*
X137375468Y-93246435D01*
X137329112Y-93251000D01*
X136677888Y-93251000D01*
X136631532Y-93246435D01*
X136592862Y-93234704D01*
X136557223Y-93215654D01*
X136525983Y-93190017D01*
X136500346Y-93158777D01*
X136481296Y-93123138D01*
X136469565Y-93084468D01*
X136465000Y-93038112D01*
X136465000Y-91961888D01*
X136469565Y-91915532D01*
X136481296Y-91876862D01*
X136500346Y-91841223D01*
X136525983Y-91809983D01*
X136557223Y-91784346D01*
X136592862Y-91765296D01*
X136631532Y-91753565D01*
X136677888Y-91749000D01*
X137329112Y-91749000D01*
X137375468Y-91753565D01*
G37*
G36*
X135500468Y-91753565D02*
G01*
X135539138Y-91765296D01*
X135574777Y-91784346D01*
X135606017Y-91809983D01*
X135631654Y-91841223D01*
X135650704Y-91876862D01*
X135662435Y-91915532D01*
X135667000Y-91961888D01*
X135667000Y-93038112D01*
X135662435Y-93084468D01*
X135650704Y-93123138D01*
X135631654Y-93158777D01*
X135606017Y-93190017D01*
X135574777Y-93215654D01*
X135539138Y-93234704D01*
X135500468Y-93246435D01*
X135454112Y-93251000D01*
X134802888Y-93251000D01*
X134756532Y-93246435D01*
X134717862Y-93234704D01*
X134682223Y-93215654D01*
X134650983Y-93190017D01*
X134625346Y-93158777D01*
X134606296Y-93123138D01*
X134594565Y-93084468D01*
X134590000Y-93038112D01*
X134590000Y-91961888D01*
X134594565Y-91915532D01*
X134606296Y-91876862D01*
X134625346Y-91841223D01*
X134650983Y-91809983D01*
X134682223Y-91784346D01*
X134717862Y-91765296D01*
X134756532Y-91753565D01*
X134802888Y-91749000D01*
X135454112Y-91749000D01*
X135500468Y-91753565D01*
G37*
G36*
X127215468Y-91753565D02*
G01*
X127254138Y-91765296D01*
X127289777Y-91784346D01*
X127321017Y-91809983D01*
X127346654Y-91841223D01*
X127365704Y-91876862D01*
X127377435Y-91915532D01*
X127382000Y-91961888D01*
X127382000Y-93038112D01*
X127377435Y-93084468D01*
X127365704Y-93123138D01*
X127346654Y-93158777D01*
X127321017Y-93190017D01*
X127289777Y-93215654D01*
X127254138Y-93234704D01*
X127215468Y-93246435D01*
X127169112Y-93251000D01*
X126517888Y-93251000D01*
X126471532Y-93246435D01*
X126432862Y-93234704D01*
X126397223Y-93215654D01*
X126365983Y-93190017D01*
X126340346Y-93158777D01*
X126321296Y-93123138D01*
X126309565Y-93084468D01*
X126305000Y-93038112D01*
X126305000Y-91961888D01*
X126309565Y-91915532D01*
X126321296Y-91876862D01*
X126340346Y-91841223D01*
X126365983Y-91809983D01*
X126397223Y-91784346D01*
X126432862Y-91765296D01*
X126471532Y-91753565D01*
X126517888Y-91749000D01*
X127169112Y-91749000D01*
X127215468Y-91753565D01*
G37*
G36*
X119521468Y-92077565D02*
G01*
X119560138Y-92089296D01*
X119595777Y-92108346D01*
X119627017Y-92133983D01*
X119652654Y-92165223D01*
X119671704Y-92200862D01*
X119683435Y-92239532D01*
X119688000Y-92285888D01*
X119688000Y-92937112D01*
X119683435Y-92983468D01*
X119671704Y-93022138D01*
X119652654Y-93057777D01*
X119627017Y-93089017D01*
X119595777Y-93114654D01*
X119560138Y-93133704D01*
X119521468Y-93145435D01*
X119475112Y-93150000D01*
X118398888Y-93150000D01*
X118352532Y-93145435D01*
X118313862Y-93133704D01*
X118278223Y-93114654D01*
X118246983Y-93089017D01*
X118221346Y-93057777D01*
X118202296Y-93022138D01*
X118190565Y-92983468D01*
X118186000Y-92937112D01*
X118186000Y-92285888D01*
X118190565Y-92239532D01*
X118202296Y-92200862D01*
X118221346Y-92165223D01*
X118246983Y-92133983D01*
X118278223Y-92108346D01*
X118313862Y-92089296D01*
X118352532Y-92077565D01*
X118398888Y-92073000D01*
X119475112Y-92073000D01*
X119521468Y-92077565D01*
G37*
G36*
X129681468Y-92077565D02*
G01*
X129720138Y-92089296D01*
X129755777Y-92108346D01*
X129787017Y-92133983D01*
X129812654Y-92165223D01*
X129831704Y-92200862D01*
X129843435Y-92239532D01*
X129848000Y-92285888D01*
X129848000Y-92937112D01*
X129843435Y-92983468D01*
X129831704Y-93022138D01*
X129812654Y-93057777D01*
X129787017Y-93089017D01*
X129755777Y-93114654D01*
X129720138Y-93133704D01*
X129681468Y-93145435D01*
X129635112Y-93150000D01*
X128558888Y-93150000D01*
X128512532Y-93145435D01*
X128473862Y-93133704D01*
X128438223Y-93114654D01*
X128406983Y-93089017D01*
X128381346Y-93057777D01*
X128362296Y-93022138D01*
X128350565Y-92983468D01*
X128346000Y-92937112D01*
X128346000Y-92285888D01*
X128350565Y-92239532D01*
X128362296Y-92200862D01*
X128381346Y-92165223D01*
X128406983Y-92133983D01*
X128438223Y-92108346D01*
X128473862Y-92089296D01*
X128512532Y-92077565D01*
X128558888Y-92073000D01*
X129635112Y-92073000D01*
X129681468Y-92077565D01*
G37*
G36*
X109361468Y-92077565D02*
G01*
X109400138Y-92089296D01*
X109435777Y-92108346D01*
X109467017Y-92133983D01*
X109492654Y-92165223D01*
X109511704Y-92200862D01*
X109523435Y-92239532D01*
X109528000Y-92285888D01*
X109528000Y-92937112D01*
X109523435Y-92983468D01*
X109511704Y-93022138D01*
X109492654Y-93057777D01*
X109467017Y-93089017D01*
X109435777Y-93114654D01*
X109400138Y-93133704D01*
X109361468Y-93145435D01*
X109315112Y-93150000D01*
X108238888Y-93150000D01*
X108192532Y-93145435D01*
X108153862Y-93133704D01*
X108118223Y-93114654D01*
X108086983Y-93089017D01*
X108061346Y-93057777D01*
X108042296Y-93022138D01*
X108030565Y-92983468D01*
X108026000Y-92937112D01*
X108026000Y-92285888D01*
X108030565Y-92239532D01*
X108042296Y-92200862D01*
X108061346Y-92165223D01*
X108086983Y-92133983D01*
X108118223Y-92108346D01*
X108153862Y-92089296D01*
X108192532Y-92077565D01*
X108238888Y-92073000D01*
X109315112Y-92073000D01*
X109361468Y-92077565D01*
G37*
G36*
X139841468Y-92077565D02*
G01*
X139880138Y-92089296D01*
X139915777Y-92108346D01*
X139947017Y-92133983D01*
X139972654Y-92165223D01*
X139991704Y-92200862D01*
X140003435Y-92239532D01*
X140008000Y-92285888D01*
X140008000Y-92937112D01*
X140003435Y-92983468D01*
X139991704Y-93022138D01*
X139972654Y-93057777D01*
X139947017Y-93089017D01*
X139915777Y-93114654D01*
X139880138Y-93133704D01*
X139841468Y-93145435D01*
X139795112Y-93150000D01*
X138718888Y-93150000D01*
X138672532Y-93145435D01*
X138633862Y-93133704D01*
X138598223Y-93114654D01*
X138566983Y-93089017D01*
X138541346Y-93057777D01*
X138522296Y-93022138D01*
X138510565Y-92983468D01*
X138506000Y-92937112D01*
X138506000Y-92285888D01*
X138510565Y-92239532D01*
X138522296Y-92200862D01*
X138541346Y-92165223D01*
X138566983Y-92133983D01*
X138598223Y-92108346D01*
X138633862Y-92089296D01*
X138672532Y-92077565D01*
X138718888Y-92073000D01*
X139795112Y-92073000D01*
X139841468Y-92077565D01*
G37*
G36*
X134017000Y-92651000D02*
G01*
X133015000Y-92651000D01*
X133015000Y-91749000D01*
X134017000Y-91749000D01*
X134017000Y-92651000D01*
G37*
G36*
X113697000Y-92651000D02*
G01*
X112695000Y-92651000D01*
X112695000Y-91749000D01*
X113697000Y-91749000D01*
X113697000Y-92651000D01*
G37*
G36*
X123857000Y-92651000D02*
G01*
X122855000Y-92651000D01*
X122855000Y-91749000D01*
X123857000Y-91749000D01*
X123857000Y-92651000D01*
G37*
G36*
X144177000Y-92651000D02*
G01*
X143175000Y-92651000D01*
X143175000Y-91749000D01*
X144177000Y-91749000D01*
X144177000Y-92651000D01*
G37*
G36*
X153379487Y-89383996D02*
G01*
X153616253Y-89482068D01*
X153616255Y-89482069D01*
X153829339Y-89624447D01*
X154010553Y-89805661D01*
X154124370Y-89976000D01*
X154152932Y-90018747D01*
X154251004Y-90255513D01*
X154301000Y-90506861D01*
X154301000Y-90763139D01*
X154251004Y-91014487D01*
X154161526Y-91230505D01*
X154152931Y-91251255D01*
X154010553Y-91464339D01*
X153829339Y-91645553D01*
X153616255Y-91787931D01*
X153616254Y-91787932D01*
X153616253Y-91787932D01*
X153379487Y-91886004D01*
X153128139Y-91936000D01*
X152871861Y-91936000D01*
X152620513Y-91886004D01*
X152383747Y-91787932D01*
X152383746Y-91787932D01*
X152383745Y-91787931D01*
X152170661Y-91645553D01*
X151989447Y-91464339D01*
X151847069Y-91251255D01*
X151838474Y-91230505D01*
X151748996Y-91014487D01*
X151699000Y-90763139D01*
X151699000Y-90506861D01*
X151748996Y-90255513D01*
X151847068Y-90018747D01*
X151875631Y-89976000D01*
X151989447Y-89805661D01*
X152170661Y-89624447D01*
X152383745Y-89482069D01*
X152383747Y-89482068D01*
X152620513Y-89383996D01*
X152871861Y-89334000D01*
X153128139Y-89334000D01*
X153379487Y-89383996D01*
G37*
G36*
X132017000Y-91701000D02*
G01*
X131015000Y-91701000D01*
X131015000Y-90799000D01*
X132017000Y-90799000D01*
X132017000Y-91701000D01*
G37*
G36*
X142177000Y-91701000D02*
G01*
X141175000Y-91701000D01*
X141175000Y-90799000D01*
X142177000Y-90799000D01*
X142177000Y-91701000D01*
G37*
G36*
X111697000Y-91701000D02*
G01*
X110695000Y-91701000D01*
X110695000Y-90799000D01*
X111697000Y-90799000D01*
X111697000Y-91701000D01*
G37*
G36*
X121857000Y-91701000D02*
G01*
X120855000Y-91701000D01*
X120855000Y-90799000D01*
X121857000Y-90799000D01*
X121857000Y-91701000D01*
G37*
G36*
X119521468Y-90396565D02*
G01*
X119560138Y-90408296D01*
X119595777Y-90427346D01*
X119627017Y-90452983D01*
X119652654Y-90484223D01*
X119671704Y-90519862D01*
X119683435Y-90558532D01*
X119688000Y-90604888D01*
X119688000Y-91256112D01*
X119683435Y-91302468D01*
X119671704Y-91341138D01*
X119652654Y-91376777D01*
X119627017Y-91408017D01*
X119595777Y-91433654D01*
X119560138Y-91452704D01*
X119521468Y-91464435D01*
X119475112Y-91469000D01*
X118398888Y-91469000D01*
X118352532Y-91464435D01*
X118313862Y-91452704D01*
X118278223Y-91433654D01*
X118246983Y-91408017D01*
X118221346Y-91376777D01*
X118202296Y-91341138D01*
X118190565Y-91302468D01*
X118186000Y-91256112D01*
X118186000Y-90604888D01*
X118190565Y-90558532D01*
X118202296Y-90519862D01*
X118221346Y-90484223D01*
X118246983Y-90452983D01*
X118278223Y-90427346D01*
X118313862Y-90408296D01*
X118352532Y-90396565D01*
X118398888Y-90392000D01*
X119475112Y-90392000D01*
X119521468Y-90396565D01*
G37*
G36*
X109361468Y-90396565D02*
G01*
X109400138Y-90408296D01*
X109435777Y-90427346D01*
X109467017Y-90452983D01*
X109492654Y-90484223D01*
X109511704Y-90519862D01*
X109523435Y-90558532D01*
X109528000Y-90604888D01*
X109528000Y-91256112D01*
X109523435Y-91302468D01*
X109511704Y-91341138D01*
X109492654Y-91376777D01*
X109467017Y-91408017D01*
X109435777Y-91433654D01*
X109400138Y-91452704D01*
X109361468Y-91464435D01*
X109315112Y-91469000D01*
X108238888Y-91469000D01*
X108192532Y-91464435D01*
X108153862Y-91452704D01*
X108118223Y-91433654D01*
X108086983Y-91408017D01*
X108061346Y-91376777D01*
X108042296Y-91341138D01*
X108030565Y-91302468D01*
X108026000Y-91256112D01*
X108026000Y-90604888D01*
X108030565Y-90558532D01*
X108042296Y-90519862D01*
X108061346Y-90484223D01*
X108086983Y-90452983D01*
X108118223Y-90427346D01*
X108153862Y-90408296D01*
X108192532Y-90396565D01*
X108238888Y-90392000D01*
X109315112Y-90392000D01*
X109361468Y-90396565D01*
G37*
G36*
X129681468Y-90396565D02*
G01*
X129720138Y-90408296D01*
X129755777Y-90427346D01*
X129787017Y-90452983D01*
X129812654Y-90484223D01*
X129831704Y-90519862D01*
X129843435Y-90558532D01*
X129848000Y-90604888D01*
X129848000Y-91256112D01*
X129843435Y-91302468D01*
X129831704Y-91341138D01*
X129812654Y-91376777D01*
X129787017Y-91408017D01*
X129755777Y-91433654D01*
X129720138Y-91452704D01*
X129681468Y-91464435D01*
X129635112Y-91469000D01*
X128558888Y-91469000D01*
X128512532Y-91464435D01*
X128473862Y-91452704D01*
X128438223Y-91433654D01*
X128406983Y-91408017D01*
X128381346Y-91376777D01*
X128362296Y-91341138D01*
X128350565Y-91302468D01*
X128346000Y-91256112D01*
X128346000Y-90604888D01*
X128350565Y-90558532D01*
X128362296Y-90519862D01*
X128381346Y-90484223D01*
X128406983Y-90452983D01*
X128438223Y-90427346D01*
X128473862Y-90408296D01*
X128512532Y-90396565D01*
X128558888Y-90392000D01*
X129635112Y-90392000D01*
X129681468Y-90396565D01*
G37*
G36*
X139841468Y-90396565D02*
G01*
X139880138Y-90408296D01*
X139915777Y-90427346D01*
X139947017Y-90452983D01*
X139972654Y-90484223D01*
X139991704Y-90519862D01*
X140003435Y-90558532D01*
X140008000Y-90604888D01*
X140008000Y-91256112D01*
X140003435Y-91302468D01*
X139991704Y-91341138D01*
X139972654Y-91376777D01*
X139947017Y-91408017D01*
X139915777Y-91433654D01*
X139880138Y-91452704D01*
X139841468Y-91464435D01*
X139795112Y-91469000D01*
X138718888Y-91469000D01*
X138672532Y-91464435D01*
X138633862Y-91452704D01*
X138598223Y-91433654D01*
X138566983Y-91408017D01*
X138541346Y-91376777D01*
X138522296Y-91341138D01*
X138510565Y-91302468D01*
X138506000Y-91256112D01*
X138506000Y-90604888D01*
X138510565Y-90558532D01*
X138522296Y-90519862D01*
X138541346Y-90484223D01*
X138566983Y-90452983D01*
X138598223Y-90427346D01*
X138633862Y-90408296D01*
X138672532Y-90396565D01*
X138718888Y-90392000D01*
X139795112Y-90392000D01*
X139841468Y-90396565D01*
G37*
G36*
X194276000Y-86699001D02*
G01*
X194278402Y-86723387D01*
X194285515Y-86746836D01*
X194297066Y-86768447D01*
X194312611Y-86787389D01*
X194331553Y-86802934D01*
X194353164Y-86814485D01*
X194376613Y-86821598D01*
X194400999Y-86824000D01*
X194426000Y-86824000D01*
X194426000Y-86849001D01*
X194428402Y-86873387D01*
X194435515Y-86896836D01*
X194447066Y-86918447D01*
X194462611Y-86937389D01*
X194481553Y-86952934D01*
X194503164Y-86964485D01*
X194526613Y-86971598D01*
X194550999Y-86974000D01*
X195616000Y-86974000D01*
X195616000Y-90026000D01*
X194550999Y-90026000D01*
X194526613Y-90028402D01*
X194503164Y-90035515D01*
X194481553Y-90047066D01*
X194462611Y-90062611D01*
X194447066Y-90081553D01*
X194435515Y-90103164D01*
X194428402Y-90126613D01*
X194426000Y-90150999D01*
X194426000Y-90176000D01*
X194400999Y-90176000D01*
X194376613Y-90178402D01*
X194353164Y-90185515D01*
X194331553Y-90197066D01*
X194312611Y-90212611D01*
X194297066Y-90231553D01*
X194285515Y-90253164D01*
X194278402Y-90276613D01*
X194276000Y-90300999D01*
X194276000Y-91366000D01*
X191224000Y-91366000D01*
X191224000Y-90300999D01*
X191221598Y-90276613D01*
X191214485Y-90253164D01*
X191202934Y-90231553D01*
X191187389Y-90212611D01*
X191168447Y-90197066D01*
X191146836Y-90185515D01*
X191123387Y-90178402D01*
X191099001Y-90176000D01*
X191074000Y-90176000D01*
X191074000Y-90150999D01*
X191071598Y-90126613D01*
X191064485Y-90103164D01*
X191052934Y-90081553D01*
X191037389Y-90062611D01*
X191018447Y-90047066D01*
X190996836Y-90035515D01*
X190973387Y-90028402D01*
X190949001Y-90026000D01*
X189884000Y-90026000D01*
X189884000Y-86974000D01*
X190949001Y-86974000D01*
X190973387Y-86971598D01*
X190996836Y-86964485D01*
X191018447Y-86952934D01*
X191037389Y-86937389D01*
X191052934Y-86918447D01*
X191064485Y-86896836D01*
X191071598Y-86873387D01*
X191074000Y-86849001D01*
X191074000Y-86824000D01*
X191099001Y-86824000D01*
X191123387Y-86821598D01*
X191146836Y-86814485D01*
X191168447Y-86802934D01*
X191187389Y-86787389D01*
X191202934Y-86768447D01*
X191214485Y-86746836D01*
X191221598Y-86723387D01*
X191224000Y-86699001D01*
X191224000Y-85634000D01*
X194276000Y-85634000D01*
X194276000Y-86699001D01*
G37*
G36*
X183276000Y-86699001D02*
G01*
X183278402Y-86723387D01*
X183285515Y-86746836D01*
X183297066Y-86768447D01*
X183312611Y-86787389D01*
X183331553Y-86802934D01*
X183353164Y-86814485D01*
X183376613Y-86821598D01*
X183400999Y-86824000D01*
X183426000Y-86824000D01*
X183426000Y-86849001D01*
X183428402Y-86873387D01*
X183435515Y-86896836D01*
X183447066Y-86918447D01*
X183462611Y-86937389D01*
X183481553Y-86952934D01*
X183503164Y-86964485D01*
X183526613Y-86971598D01*
X183550999Y-86974000D01*
X184616000Y-86974000D01*
X184616000Y-90026000D01*
X183550999Y-90026000D01*
X183526613Y-90028402D01*
X183503164Y-90035515D01*
X183481553Y-90047066D01*
X183462611Y-90062611D01*
X183447066Y-90081553D01*
X183435515Y-90103164D01*
X183428402Y-90126613D01*
X183426000Y-90150999D01*
X183426000Y-90176000D01*
X183400999Y-90176000D01*
X183376613Y-90178402D01*
X183353164Y-90185515D01*
X183331553Y-90197066D01*
X183312611Y-90212611D01*
X183297066Y-90231553D01*
X183285515Y-90253164D01*
X183278402Y-90276613D01*
X183276000Y-90300999D01*
X183276000Y-91366000D01*
X180224000Y-91366000D01*
X180224000Y-90300999D01*
X180221598Y-90276613D01*
X180214485Y-90253164D01*
X180202934Y-90231553D01*
X180187389Y-90212611D01*
X180168447Y-90197066D01*
X180146836Y-90185515D01*
X180123387Y-90178402D01*
X180099001Y-90176000D01*
X180074000Y-90176000D01*
X180074000Y-90150999D01*
X180071598Y-90126613D01*
X180064485Y-90103164D01*
X180052934Y-90081553D01*
X180037389Y-90062611D01*
X180018447Y-90047066D01*
X179996836Y-90035515D01*
X179973387Y-90028402D01*
X179949001Y-90026000D01*
X178884000Y-90026000D01*
X178884000Y-86974000D01*
X179949001Y-86974000D01*
X179973387Y-86971598D01*
X179996836Y-86964485D01*
X180018447Y-86952934D01*
X180037389Y-86937389D01*
X180052934Y-86918447D01*
X180064485Y-86896836D01*
X180071598Y-86873387D01*
X180074000Y-86849001D01*
X180074000Y-86824000D01*
X180099001Y-86824000D01*
X180123387Y-86821598D01*
X180146836Y-86814485D01*
X180168447Y-86802934D01*
X180187389Y-86787389D01*
X180202934Y-86768447D01*
X180214485Y-86746836D01*
X180221598Y-86723387D01*
X180224000Y-86699001D01*
X180224000Y-85634000D01*
X183276000Y-85634000D01*
X183276000Y-86699001D01*
G37*
G36*
X125340468Y-89753565D02*
G01*
X125379138Y-89765296D01*
X125414777Y-89784346D01*
X125446017Y-89809983D01*
X125471654Y-89841223D01*
X125490704Y-89876862D01*
X125502435Y-89915532D01*
X125507000Y-89961888D01*
X125507000Y-91038112D01*
X125502435Y-91084468D01*
X125490704Y-91123138D01*
X125471654Y-91158777D01*
X125446017Y-91190017D01*
X125414777Y-91215654D01*
X125379138Y-91234704D01*
X125340468Y-91246435D01*
X125294112Y-91251000D01*
X124642888Y-91251000D01*
X124596532Y-91246435D01*
X124557862Y-91234704D01*
X124522223Y-91215654D01*
X124490983Y-91190017D01*
X124465346Y-91158777D01*
X124446296Y-91123138D01*
X124434565Y-91084468D01*
X124430000Y-91038112D01*
X124430000Y-89961888D01*
X124434565Y-89915532D01*
X124446296Y-89876862D01*
X124465346Y-89841223D01*
X124490983Y-89809983D01*
X124522223Y-89784346D01*
X124557862Y-89765296D01*
X124596532Y-89753565D01*
X124642888Y-89749000D01*
X125294112Y-89749000D01*
X125340468Y-89753565D01*
G37*
G36*
X117055468Y-89753565D02*
G01*
X117094138Y-89765296D01*
X117129777Y-89784346D01*
X117161017Y-89809983D01*
X117186654Y-89841223D01*
X117205704Y-89876862D01*
X117217435Y-89915532D01*
X117222000Y-89961888D01*
X117222000Y-91038112D01*
X117217435Y-91084468D01*
X117205704Y-91123138D01*
X117186654Y-91158777D01*
X117161017Y-91190017D01*
X117129777Y-91215654D01*
X117094138Y-91234704D01*
X117055468Y-91246435D01*
X117009112Y-91251000D01*
X116357888Y-91251000D01*
X116311532Y-91246435D01*
X116272862Y-91234704D01*
X116237223Y-91215654D01*
X116205983Y-91190017D01*
X116180346Y-91158777D01*
X116161296Y-91123138D01*
X116149565Y-91084468D01*
X116145000Y-91038112D01*
X116145000Y-89961888D01*
X116149565Y-89915532D01*
X116161296Y-89876862D01*
X116180346Y-89841223D01*
X116205983Y-89809983D01*
X116237223Y-89784346D01*
X116272862Y-89765296D01*
X116311532Y-89753565D01*
X116357888Y-89749000D01*
X117009112Y-89749000D01*
X117055468Y-89753565D01*
G37*
G36*
X115180468Y-89753565D02*
G01*
X115219138Y-89765296D01*
X115254777Y-89784346D01*
X115286017Y-89809983D01*
X115311654Y-89841223D01*
X115330704Y-89876862D01*
X115342435Y-89915532D01*
X115347000Y-89961888D01*
X115347000Y-91038112D01*
X115342435Y-91084468D01*
X115330704Y-91123138D01*
X115311654Y-91158777D01*
X115286017Y-91190017D01*
X115254777Y-91215654D01*
X115219138Y-91234704D01*
X115180468Y-91246435D01*
X115134112Y-91251000D01*
X114482888Y-91251000D01*
X114436532Y-91246435D01*
X114397862Y-91234704D01*
X114362223Y-91215654D01*
X114330983Y-91190017D01*
X114305346Y-91158777D01*
X114286296Y-91123138D01*
X114274565Y-91084468D01*
X114270000Y-91038112D01*
X114270000Y-89961888D01*
X114274565Y-89915532D01*
X114286296Y-89876862D01*
X114305346Y-89841223D01*
X114330983Y-89809983D01*
X114362223Y-89784346D01*
X114397862Y-89765296D01*
X114436532Y-89753565D01*
X114482888Y-89749000D01*
X115134112Y-89749000D01*
X115180468Y-89753565D01*
G37*
G36*
X127215468Y-89753565D02*
G01*
X127254138Y-89765296D01*
X127289777Y-89784346D01*
X127321017Y-89809983D01*
X127346654Y-89841223D01*
X127365704Y-89876862D01*
X127377435Y-89915532D01*
X127382000Y-89961888D01*
X127382000Y-91038112D01*
X127377435Y-91084468D01*
X127365704Y-91123138D01*
X127346654Y-91158777D01*
X127321017Y-91190017D01*
X127289777Y-91215654D01*
X127254138Y-91234704D01*
X127215468Y-91246435D01*
X127169112Y-91251000D01*
X126517888Y-91251000D01*
X126471532Y-91246435D01*
X126432862Y-91234704D01*
X126397223Y-91215654D01*
X126365983Y-91190017D01*
X126340346Y-91158777D01*
X126321296Y-91123138D01*
X126309565Y-91084468D01*
X126305000Y-91038112D01*
X126305000Y-89961888D01*
X126309565Y-89915532D01*
X126321296Y-89876862D01*
X126340346Y-89841223D01*
X126365983Y-89809983D01*
X126397223Y-89784346D01*
X126432862Y-89765296D01*
X126471532Y-89753565D01*
X126517888Y-89749000D01*
X127169112Y-89749000D01*
X127215468Y-89753565D01*
G37*
G36*
X135500468Y-89753565D02*
G01*
X135539138Y-89765296D01*
X135574777Y-89784346D01*
X135606017Y-89809983D01*
X135631654Y-89841223D01*
X135650704Y-89876862D01*
X135662435Y-89915532D01*
X135667000Y-89961888D01*
X135667000Y-91038112D01*
X135662435Y-91084468D01*
X135650704Y-91123138D01*
X135631654Y-91158777D01*
X135606017Y-91190017D01*
X135574777Y-91215654D01*
X135539138Y-91234704D01*
X135500468Y-91246435D01*
X135454112Y-91251000D01*
X134802888Y-91251000D01*
X134756532Y-91246435D01*
X134717862Y-91234704D01*
X134682223Y-91215654D01*
X134650983Y-91190017D01*
X134625346Y-91158777D01*
X134606296Y-91123138D01*
X134594565Y-91084468D01*
X134590000Y-91038112D01*
X134590000Y-89961888D01*
X134594565Y-89915532D01*
X134606296Y-89876862D01*
X134625346Y-89841223D01*
X134650983Y-89809983D01*
X134682223Y-89784346D01*
X134717862Y-89765296D01*
X134756532Y-89753565D01*
X134802888Y-89749000D01*
X135454112Y-89749000D01*
X135500468Y-89753565D01*
G37*
G36*
X137375468Y-89753565D02*
G01*
X137414138Y-89765296D01*
X137449777Y-89784346D01*
X137481017Y-89809983D01*
X137506654Y-89841223D01*
X137525704Y-89876862D01*
X137537435Y-89915532D01*
X137542000Y-89961888D01*
X137542000Y-91038112D01*
X137537435Y-91084468D01*
X137525704Y-91123138D01*
X137506654Y-91158777D01*
X137481017Y-91190017D01*
X137449777Y-91215654D01*
X137414138Y-91234704D01*
X137375468Y-91246435D01*
X137329112Y-91251000D01*
X136677888Y-91251000D01*
X136631532Y-91246435D01*
X136592862Y-91234704D01*
X136557223Y-91215654D01*
X136525983Y-91190017D01*
X136500346Y-91158777D01*
X136481296Y-91123138D01*
X136469565Y-91084468D01*
X136465000Y-91038112D01*
X136465000Y-89961888D01*
X136469565Y-89915532D01*
X136481296Y-89876862D01*
X136500346Y-89841223D01*
X136525983Y-89809983D01*
X136557223Y-89784346D01*
X136592862Y-89765296D01*
X136631532Y-89753565D01*
X136677888Y-89749000D01*
X137329112Y-89749000D01*
X137375468Y-89753565D01*
G37*
G36*
X145660468Y-89753565D02*
G01*
X145699138Y-89765296D01*
X145734777Y-89784346D01*
X145766017Y-89809983D01*
X145791654Y-89841223D01*
X145810704Y-89876862D01*
X145822435Y-89915532D01*
X145827000Y-89961888D01*
X145827000Y-91038112D01*
X145822435Y-91084468D01*
X145810704Y-91123138D01*
X145791654Y-91158777D01*
X145766017Y-91190017D01*
X145734777Y-91215654D01*
X145699138Y-91234704D01*
X145660468Y-91246435D01*
X145614112Y-91251000D01*
X144962888Y-91251000D01*
X144916532Y-91246435D01*
X144877862Y-91234704D01*
X144842223Y-91215654D01*
X144810983Y-91190017D01*
X144785346Y-91158777D01*
X144766296Y-91123138D01*
X144754565Y-91084468D01*
X144750000Y-91038112D01*
X144750000Y-89961888D01*
X144754565Y-89915532D01*
X144766296Y-89876862D01*
X144785346Y-89841223D01*
X144810983Y-89809983D01*
X144842223Y-89784346D01*
X144877862Y-89765296D01*
X144916532Y-89753565D01*
X144962888Y-89749000D01*
X145614112Y-89749000D01*
X145660468Y-89753565D01*
G37*
G36*
X147535468Y-89753565D02*
G01*
X147574138Y-89765296D01*
X147609777Y-89784346D01*
X147641017Y-89809983D01*
X147666654Y-89841223D01*
X147685704Y-89876862D01*
X147697435Y-89915532D01*
X147702000Y-89961888D01*
X147702000Y-91038112D01*
X147697435Y-91084468D01*
X147685704Y-91123138D01*
X147666654Y-91158777D01*
X147641017Y-91190017D01*
X147609777Y-91215654D01*
X147574138Y-91234704D01*
X147535468Y-91246435D01*
X147489112Y-91251000D01*
X146837888Y-91251000D01*
X146791532Y-91246435D01*
X146752862Y-91234704D01*
X146717223Y-91215654D01*
X146685983Y-91190017D01*
X146660346Y-91158777D01*
X146641296Y-91123138D01*
X146629565Y-91084468D01*
X146625000Y-91038112D01*
X146625000Y-89961888D01*
X146629565Y-89915532D01*
X146641296Y-89876862D01*
X146660346Y-89841223D01*
X146685983Y-89809983D01*
X146717223Y-89784346D01*
X146752862Y-89765296D01*
X146791532Y-89753565D01*
X146837888Y-89749000D01*
X147489112Y-89749000D01*
X147535468Y-89753565D01*
G37*
G36*
X123857000Y-90751000D02*
G01*
X122855000Y-90751000D01*
X122855000Y-89849000D01*
X123857000Y-89849000D01*
X123857000Y-90751000D01*
G37*
G36*
X113697000Y-90751000D02*
G01*
X112695000Y-90751000D01*
X112695000Y-89849000D01*
X113697000Y-89849000D01*
X113697000Y-90751000D01*
G37*
G36*
X134017000Y-90751000D02*
G01*
X133015000Y-90751000D01*
X133015000Y-89849000D01*
X134017000Y-89849000D01*
X134017000Y-90751000D01*
G37*
G36*
X144177000Y-90751000D02*
G01*
X143175000Y-90751000D01*
X143175000Y-89849000D01*
X144177000Y-89849000D01*
X144177000Y-90751000D01*
G37*
G36*
X171309468Y-89003565D02*
G01*
X171348138Y-89015296D01*
X171383777Y-89034346D01*
X171415017Y-89059983D01*
X171440654Y-89091223D01*
X171459704Y-89126862D01*
X171471435Y-89165532D01*
X171476000Y-89211888D01*
X171476000Y-90288112D01*
X171471435Y-90334468D01*
X171459704Y-90373138D01*
X171440654Y-90408777D01*
X171415017Y-90440017D01*
X171383777Y-90465654D01*
X171348138Y-90484704D01*
X171309468Y-90496435D01*
X171263112Y-90501000D01*
X170611888Y-90501000D01*
X170565532Y-90496435D01*
X170526862Y-90484704D01*
X170491223Y-90465654D01*
X170459983Y-90440017D01*
X170434346Y-90408777D01*
X170415296Y-90373138D01*
X170403565Y-90334468D01*
X170399000Y-90288112D01*
X170399000Y-89211888D01*
X170403565Y-89165532D01*
X170415296Y-89126862D01*
X170434346Y-89091223D01*
X170459983Y-89059983D01*
X170491223Y-89034346D01*
X170526862Y-89015296D01*
X170565532Y-89003565D01*
X170611888Y-88999000D01*
X171263112Y-88999000D01*
X171309468Y-89003565D01*
G37*
G36*
X169434468Y-89003565D02*
G01*
X169473138Y-89015296D01*
X169508777Y-89034346D01*
X169540017Y-89059983D01*
X169565654Y-89091223D01*
X169584704Y-89126862D01*
X169596435Y-89165532D01*
X169601000Y-89211888D01*
X169601000Y-90288112D01*
X169596435Y-90334468D01*
X169584704Y-90373138D01*
X169565654Y-90408777D01*
X169540017Y-90440017D01*
X169508777Y-90465654D01*
X169473138Y-90484704D01*
X169434468Y-90496435D01*
X169388112Y-90501000D01*
X168736888Y-90501000D01*
X168690532Y-90496435D01*
X168651862Y-90484704D01*
X168616223Y-90465654D01*
X168584983Y-90440017D01*
X168559346Y-90408777D01*
X168540296Y-90373138D01*
X168528565Y-90334468D01*
X168524000Y-90288112D01*
X168524000Y-89211888D01*
X168528565Y-89165532D01*
X168540296Y-89126862D01*
X168559346Y-89091223D01*
X168584983Y-89059983D01*
X168616223Y-89034346D01*
X168651862Y-89015296D01*
X168690532Y-89003565D01*
X168736888Y-88999000D01*
X169388112Y-88999000D01*
X169434468Y-89003565D01*
G37*
G36*
X178084468Y-88903565D02*
G01*
X178123138Y-88915296D01*
X178158777Y-88934346D01*
X178190017Y-88959983D01*
X178215654Y-88991223D01*
X178234704Y-89026862D01*
X178246435Y-89065532D01*
X178251000Y-89111888D01*
X178251000Y-89763112D01*
X178246435Y-89809468D01*
X178234704Y-89848138D01*
X178215654Y-89883777D01*
X178190017Y-89915017D01*
X178158777Y-89940654D01*
X178123138Y-89959704D01*
X178084468Y-89971435D01*
X178038112Y-89976000D01*
X176961888Y-89976000D01*
X176915532Y-89971435D01*
X176876862Y-89959704D01*
X176841223Y-89940654D01*
X176809983Y-89915017D01*
X176784346Y-89883777D01*
X176765296Y-89848138D01*
X176753565Y-89809468D01*
X176749000Y-89763112D01*
X176749000Y-89111888D01*
X176753565Y-89065532D01*
X176765296Y-89026862D01*
X176784346Y-88991223D01*
X176809983Y-88959983D01*
X176841223Y-88934346D01*
X176876862Y-88915296D01*
X176915532Y-88903565D01*
X176961888Y-88899000D01*
X178038112Y-88899000D01*
X178084468Y-88903565D01*
G37*
G36*
X189084468Y-88903565D02*
G01*
X189123138Y-88915296D01*
X189158777Y-88934346D01*
X189190017Y-88959983D01*
X189215654Y-88991223D01*
X189234704Y-89026862D01*
X189246435Y-89065532D01*
X189251000Y-89111888D01*
X189251000Y-89763112D01*
X189246435Y-89809468D01*
X189234704Y-89848138D01*
X189215654Y-89883777D01*
X189190017Y-89915017D01*
X189158777Y-89940654D01*
X189123138Y-89959704D01*
X189084468Y-89971435D01*
X189038112Y-89976000D01*
X187961888Y-89976000D01*
X187915532Y-89971435D01*
X187876862Y-89959704D01*
X187841223Y-89940654D01*
X187809983Y-89915017D01*
X187784346Y-89883777D01*
X187765296Y-89848138D01*
X187753565Y-89809468D01*
X187749000Y-89763112D01*
X187749000Y-89111888D01*
X187753565Y-89065532D01*
X187765296Y-89026862D01*
X187784346Y-88991223D01*
X187809983Y-88959983D01*
X187841223Y-88934346D01*
X187876862Y-88915296D01*
X187915532Y-88903565D01*
X187961888Y-88899000D01*
X189038112Y-88899000D01*
X189084468Y-88903565D01*
G37*
G36*
X139841468Y-88521565D02*
G01*
X139880138Y-88533296D01*
X139915777Y-88552346D01*
X139947017Y-88577983D01*
X139972654Y-88609223D01*
X139991704Y-88644862D01*
X140003435Y-88683532D01*
X140008000Y-88729888D01*
X140008000Y-89381112D01*
X140003435Y-89427468D01*
X139991704Y-89466138D01*
X139972654Y-89501777D01*
X139947017Y-89533017D01*
X139915777Y-89558654D01*
X139880138Y-89577704D01*
X139841468Y-89589435D01*
X139795112Y-89594000D01*
X138718888Y-89594000D01*
X138672532Y-89589435D01*
X138633862Y-89577704D01*
X138598223Y-89558654D01*
X138566983Y-89533017D01*
X138541346Y-89501777D01*
X138522296Y-89466138D01*
X138510565Y-89427468D01*
X138506000Y-89381112D01*
X138506000Y-88729888D01*
X138510565Y-88683532D01*
X138522296Y-88644862D01*
X138541346Y-88609223D01*
X138566983Y-88577983D01*
X138598223Y-88552346D01*
X138633862Y-88533296D01*
X138672532Y-88521565D01*
X138718888Y-88517000D01*
X139795112Y-88517000D01*
X139841468Y-88521565D01*
G37*
G36*
X129681468Y-88521565D02*
G01*
X129720138Y-88533296D01*
X129755777Y-88552346D01*
X129787017Y-88577983D01*
X129812654Y-88609223D01*
X129831704Y-88644862D01*
X129843435Y-88683532D01*
X129848000Y-88729888D01*
X129848000Y-89381112D01*
X129843435Y-89427468D01*
X129831704Y-89466138D01*
X129812654Y-89501777D01*
X129787017Y-89533017D01*
X129755777Y-89558654D01*
X129720138Y-89577704D01*
X129681468Y-89589435D01*
X129635112Y-89594000D01*
X128558888Y-89594000D01*
X128512532Y-89589435D01*
X128473862Y-89577704D01*
X128438223Y-89558654D01*
X128406983Y-89533017D01*
X128381346Y-89501777D01*
X128362296Y-89466138D01*
X128350565Y-89427468D01*
X128346000Y-89381112D01*
X128346000Y-88729888D01*
X128350565Y-88683532D01*
X128362296Y-88644862D01*
X128381346Y-88609223D01*
X128406983Y-88577983D01*
X128438223Y-88552346D01*
X128473862Y-88533296D01*
X128512532Y-88521565D01*
X128558888Y-88517000D01*
X129635112Y-88517000D01*
X129681468Y-88521565D01*
G37*
G36*
X119521468Y-88521565D02*
G01*
X119560138Y-88533296D01*
X119595777Y-88552346D01*
X119627017Y-88577983D01*
X119652654Y-88609223D01*
X119671704Y-88644862D01*
X119683435Y-88683532D01*
X119688000Y-88729888D01*
X119688000Y-89381112D01*
X119683435Y-89427468D01*
X119671704Y-89466138D01*
X119652654Y-89501777D01*
X119627017Y-89533017D01*
X119595777Y-89558654D01*
X119560138Y-89577704D01*
X119521468Y-89589435D01*
X119475112Y-89594000D01*
X118398888Y-89594000D01*
X118352532Y-89589435D01*
X118313862Y-89577704D01*
X118278223Y-89558654D01*
X118246983Y-89533017D01*
X118221346Y-89501777D01*
X118202296Y-89466138D01*
X118190565Y-89427468D01*
X118186000Y-89381112D01*
X118186000Y-88729888D01*
X118190565Y-88683532D01*
X118202296Y-88644862D01*
X118221346Y-88609223D01*
X118246983Y-88577983D01*
X118278223Y-88552346D01*
X118313862Y-88533296D01*
X118352532Y-88521565D01*
X118398888Y-88517000D01*
X119475112Y-88517000D01*
X119521468Y-88521565D01*
G37*
G36*
X109361468Y-88521565D02*
G01*
X109400138Y-88533296D01*
X109435777Y-88552346D01*
X109467017Y-88577983D01*
X109492654Y-88609223D01*
X109511704Y-88644862D01*
X109523435Y-88683532D01*
X109528000Y-88729888D01*
X109528000Y-89381112D01*
X109523435Y-89427468D01*
X109511704Y-89466138D01*
X109492654Y-89501777D01*
X109467017Y-89533017D01*
X109435777Y-89558654D01*
X109400138Y-89577704D01*
X109361468Y-89589435D01*
X109315112Y-89594000D01*
X108238888Y-89594000D01*
X108192532Y-89589435D01*
X108153862Y-89577704D01*
X108118223Y-89558654D01*
X108086983Y-89533017D01*
X108061346Y-89501777D01*
X108042296Y-89466138D01*
X108030565Y-89427468D01*
X108026000Y-89381112D01*
X108026000Y-88729888D01*
X108030565Y-88683532D01*
X108042296Y-88644862D01*
X108061346Y-88609223D01*
X108086983Y-88577983D01*
X108118223Y-88552346D01*
X108153862Y-88533296D01*
X108192532Y-88521565D01*
X108238888Y-88517000D01*
X109315112Y-88517000D01*
X109361468Y-88521565D01*
G37*
G36*
X153379487Y-85723996D02*
G01*
X153596442Y-85813862D01*
X153616255Y-85822069D01*
X153829339Y-85964447D01*
X154010553Y-86145661D01*
X154146420Y-86349000D01*
X154152932Y-86358747D01*
X154251004Y-86595513D01*
X154301000Y-86846861D01*
X154301000Y-87103139D01*
X154251004Y-87354487D01*
X154221382Y-87426000D01*
X154152931Y-87591255D01*
X154010553Y-87804339D01*
X153829339Y-87985553D01*
X153616255Y-88127931D01*
X153616254Y-88127932D01*
X153616253Y-88127932D01*
X153379487Y-88226004D01*
X153128139Y-88276000D01*
X152871861Y-88276000D01*
X152620513Y-88226004D01*
X152383747Y-88127932D01*
X152383746Y-88127932D01*
X152383745Y-88127931D01*
X152170661Y-87985553D01*
X151989447Y-87804339D01*
X151847069Y-87591255D01*
X151778618Y-87426000D01*
X151748996Y-87354487D01*
X151699000Y-87103139D01*
X151699000Y-86846861D01*
X151748996Y-86595513D01*
X151847068Y-86358747D01*
X151853581Y-86349000D01*
X151989447Y-86145661D01*
X152170661Y-85964447D01*
X152383745Y-85822069D01*
X152403558Y-85813862D01*
X152620513Y-85723996D01*
X152871861Y-85674000D01*
X153128139Y-85674000D01*
X153379487Y-85723996D01*
G37*
G36*
X169576000Y-88201000D02*
G01*
X168024000Y-88201000D01*
X168024000Y-81799000D01*
X169576000Y-81799000D01*
X169576000Y-88201000D01*
G37*
G36*
X175476000Y-88201000D02*
G01*
X173924000Y-88201000D01*
X173924000Y-81799000D01*
X175476000Y-81799000D01*
X175476000Y-88201000D01*
G37*
G36*
X189084468Y-87028565D02*
G01*
X189123138Y-87040296D01*
X189158777Y-87059346D01*
X189190017Y-87084983D01*
X189215654Y-87116223D01*
X189234704Y-87151862D01*
X189246435Y-87190532D01*
X189251000Y-87236888D01*
X189251000Y-87888112D01*
X189246435Y-87934468D01*
X189234704Y-87973138D01*
X189215654Y-88008777D01*
X189190017Y-88040017D01*
X189158777Y-88065654D01*
X189123138Y-88084704D01*
X189084468Y-88096435D01*
X189038112Y-88101000D01*
X187961888Y-88101000D01*
X187915532Y-88096435D01*
X187876862Y-88084704D01*
X187841223Y-88065654D01*
X187809983Y-88040017D01*
X187784346Y-88008777D01*
X187765296Y-87973138D01*
X187753565Y-87934468D01*
X187749000Y-87888112D01*
X187749000Y-87236888D01*
X187753565Y-87190532D01*
X187765296Y-87151862D01*
X187784346Y-87116223D01*
X187809983Y-87084983D01*
X187841223Y-87059346D01*
X187876862Y-87040296D01*
X187915532Y-87028565D01*
X187961888Y-87024000D01*
X189038112Y-87024000D01*
X189084468Y-87028565D01*
G37*
G36*
X178084468Y-87028565D02*
G01*
X178123138Y-87040296D01*
X178158777Y-87059346D01*
X178190017Y-87084983D01*
X178215654Y-87116223D01*
X178234704Y-87151862D01*
X178246435Y-87190532D01*
X178251000Y-87236888D01*
X178251000Y-87888112D01*
X178246435Y-87934468D01*
X178234704Y-87973138D01*
X178215654Y-88008777D01*
X178190017Y-88040017D01*
X178158777Y-88065654D01*
X178123138Y-88084704D01*
X178084468Y-88096435D01*
X178038112Y-88101000D01*
X176961888Y-88101000D01*
X176915532Y-88096435D01*
X176876862Y-88084704D01*
X176841223Y-88065654D01*
X176809983Y-88040017D01*
X176784346Y-88008777D01*
X176765296Y-87973138D01*
X176753565Y-87934468D01*
X176749000Y-87888112D01*
X176749000Y-87236888D01*
X176753565Y-87190532D01*
X176765296Y-87151862D01*
X176784346Y-87116223D01*
X176809983Y-87084983D01*
X176841223Y-87059346D01*
X176876862Y-87040296D01*
X176915532Y-87028565D01*
X176961888Y-87024000D01*
X178038112Y-87024000D01*
X178084468Y-87028565D01*
G37*
G36*
X103639468Y-85690565D02*
G01*
X103678138Y-85702296D01*
X103713777Y-85721346D01*
X103745017Y-85746983D01*
X103770654Y-85778223D01*
X103789704Y-85813862D01*
X103801435Y-85852532D01*
X103806000Y-85898888D01*
X103806000Y-86975112D01*
X103801435Y-87021468D01*
X103789704Y-87060138D01*
X103770654Y-87095777D01*
X103745017Y-87127017D01*
X103713777Y-87152654D01*
X103678138Y-87171704D01*
X103639468Y-87183435D01*
X103593112Y-87188000D01*
X102941888Y-87188000D01*
X102895532Y-87183435D01*
X102856862Y-87171704D01*
X102821223Y-87152654D01*
X102789983Y-87127017D01*
X102764346Y-87095777D01*
X102745296Y-87060138D01*
X102733565Y-87021468D01*
X102729000Y-86975112D01*
X102729000Y-85898888D01*
X102733565Y-85852532D01*
X102745296Y-85813862D01*
X102764346Y-85778223D01*
X102789983Y-85746983D01*
X102821223Y-85721346D01*
X102856862Y-85702296D01*
X102895532Y-85690565D01*
X102941888Y-85686000D01*
X103593112Y-85686000D01*
X103639468Y-85690565D01*
G37*
G36*
X105514468Y-85690565D02*
G01*
X105553138Y-85702296D01*
X105588777Y-85721346D01*
X105620017Y-85746983D01*
X105645654Y-85778223D01*
X105664704Y-85813862D01*
X105676435Y-85852532D01*
X105681000Y-85898888D01*
X105681000Y-86975112D01*
X105676435Y-87021468D01*
X105664704Y-87060138D01*
X105645654Y-87095777D01*
X105620017Y-87127017D01*
X105588777Y-87152654D01*
X105553138Y-87171704D01*
X105514468Y-87183435D01*
X105468112Y-87188000D01*
X104816888Y-87188000D01*
X104770532Y-87183435D01*
X104731862Y-87171704D01*
X104696223Y-87152654D01*
X104664983Y-87127017D01*
X104639346Y-87095777D01*
X104620296Y-87060138D01*
X104608565Y-87021468D01*
X104604000Y-86975112D01*
X104604000Y-85898888D01*
X104608565Y-85852532D01*
X104620296Y-85813862D01*
X104639346Y-85778223D01*
X104664983Y-85746983D01*
X104696223Y-85721346D01*
X104731862Y-85702296D01*
X104770532Y-85690565D01*
X104816888Y-85686000D01*
X105468112Y-85686000D01*
X105514468Y-85690565D01*
G37*
G36*
X187175468Y-83912565D02*
G01*
X187214138Y-83924296D01*
X187249777Y-83943346D01*
X187281017Y-83968983D01*
X187306654Y-84000223D01*
X187325704Y-84035862D01*
X187337435Y-84074532D01*
X187342000Y-84120888D01*
X187342000Y-85197112D01*
X187337435Y-85243468D01*
X187325704Y-85282138D01*
X187306654Y-85317777D01*
X187281017Y-85349017D01*
X187249777Y-85374654D01*
X187214138Y-85393704D01*
X187175468Y-85405435D01*
X187129112Y-85410000D01*
X186477888Y-85410000D01*
X186431532Y-85405435D01*
X186392862Y-85393704D01*
X186357223Y-85374654D01*
X186325983Y-85349017D01*
X186300346Y-85317777D01*
X186281296Y-85282138D01*
X186269565Y-85243468D01*
X186265000Y-85197112D01*
X186265000Y-84120888D01*
X186269565Y-84074532D01*
X186281296Y-84035862D01*
X186300346Y-84000223D01*
X186325983Y-83968983D01*
X186357223Y-83943346D01*
X186392862Y-83924296D01*
X186431532Y-83912565D01*
X186477888Y-83908000D01*
X187129112Y-83908000D01*
X187175468Y-83912565D01*
G37*
G36*
X185300468Y-83912565D02*
G01*
X185339138Y-83924296D01*
X185374777Y-83943346D01*
X185406017Y-83968983D01*
X185431654Y-84000223D01*
X185450704Y-84035862D01*
X185462435Y-84074532D01*
X185467000Y-84120888D01*
X185467000Y-85197112D01*
X185462435Y-85243468D01*
X185450704Y-85282138D01*
X185431654Y-85317777D01*
X185406017Y-85349017D01*
X185374777Y-85374654D01*
X185339138Y-85393704D01*
X185300468Y-85405435D01*
X185254112Y-85410000D01*
X184602888Y-85410000D01*
X184556532Y-85405435D01*
X184517862Y-85393704D01*
X184482223Y-85374654D01*
X184450983Y-85349017D01*
X184425346Y-85317777D01*
X184406296Y-85282138D01*
X184394565Y-85243468D01*
X184390000Y-85197112D01*
X184390000Y-84120888D01*
X184394565Y-84074532D01*
X184406296Y-84035862D01*
X184425346Y-84000223D01*
X184450983Y-83968983D01*
X184482223Y-83943346D01*
X184517862Y-83924296D01*
X184556532Y-83912565D01*
X184602888Y-83908000D01*
X185254112Y-83908000D01*
X185300468Y-83912565D01*
G37*
G36*
X103639468Y-83658565D02*
G01*
X103678138Y-83670296D01*
X103713777Y-83689346D01*
X103745017Y-83714983D01*
X103770654Y-83746223D01*
X103789704Y-83781862D01*
X103801435Y-83820532D01*
X103806000Y-83866888D01*
X103806000Y-84943112D01*
X103801435Y-84989468D01*
X103789704Y-85028138D01*
X103770654Y-85063777D01*
X103745017Y-85095017D01*
X103713777Y-85120654D01*
X103678138Y-85139704D01*
X103639468Y-85151435D01*
X103593112Y-85156000D01*
X102941888Y-85156000D01*
X102895532Y-85151435D01*
X102856862Y-85139704D01*
X102821223Y-85120654D01*
X102789983Y-85095017D01*
X102764346Y-85063777D01*
X102745296Y-85028138D01*
X102733565Y-84989468D01*
X102729000Y-84943112D01*
X102729000Y-83866888D01*
X102733565Y-83820532D01*
X102745296Y-83781862D01*
X102764346Y-83746223D01*
X102789983Y-83714983D01*
X102821223Y-83689346D01*
X102856862Y-83670296D01*
X102895532Y-83658565D01*
X102941888Y-83654000D01*
X103593112Y-83654000D01*
X103639468Y-83658565D01*
G37*
G36*
X105514468Y-83658565D02*
G01*
X105553138Y-83670296D01*
X105588777Y-83689346D01*
X105620017Y-83714983D01*
X105645654Y-83746223D01*
X105664704Y-83781862D01*
X105676435Y-83820532D01*
X105681000Y-83866888D01*
X105681000Y-84943112D01*
X105676435Y-84989468D01*
X105664704Y-85028138D01*
X105645654Y-85063777D01*
X105620017Y-85095017D01*
X105588777Y-85120654D01*
X105553138Y-85139704D01*
X105514468Y-85151435D01*
X105468112Y-85156000D01*
X104816888Y-85156000D01*
X104770532Y-85151435D01*
X104731862Y-85139704D01*
X104696223Y-85120654D01*
X104664983Y-85095017D01*
X104639346Y-85063777D01*
X104620296Y-85028138D01*
X104608565Y-84989468D01*
X104604000Y-84943112D01*
X104604000Y-83866888D01*
X104608565Y-83820532D01*
X104620296Y-83781862D01*
X104639346Y-83746223D01*
X104664983Y-83714983D01*
X104696223Y-83689346D01*
X104731862Y-83670296D01*
X104770532Y-83658565D01*
X104816888Y-83654000D01*
X105468112Y-83654000D01*
X105514468Y-83658565D01*
G37*
G36*
X188943468Y-83253565D02*
G01*
X188982138Y-83265296D01*
X189017777Y-83284346D01*
X189049017Y-83309983D01*
X189074654Y-83341223D01*
X189093704Y-83376862D01*
X189105435Y-83415532D01*
X189110000Y-83461888D01*
X189110000Y-84538112D01*
X189105435Y-84584468D01*
X189093704Y-84623138D01*
X189074654Y-84658777D01*
X189049017Y-84690017D01*
X189017777Y-84715654D01*
X188982138Y-84734704D01*
X188943468Y-84746435D01*
X188897112Y-84751000D01*
X188245888Y-84751000D01*
X188199532Y-84746435D01*
X188160862Y-84734704D01*
X188125223Y-84715654D01*
X188093983Y-84690017D01*
X188068346Y-84658777D01*
X188049296Y-84623138D01*
X188037565Y-84584468D01*
X188033000Y-84538112D01*
X188033000Y-83461888D01*
X188037565Y-83415532D01*
X188049296Y-83376862D01*
X188068346Y-83341223D01*
X188093983Y-83309983D01*
X188125223Y-83284346D01*
X188160862Y-83265296D01*
X188199532Y-83253565D01*
X188245888Y-83249000D01*
X188897112Y-83249000D01*
X188943468Y-83253565D01*
G37*
G36*
X192496968Y-83253565D02*
G01*
X192535638Y-83265296D01*
X192571277Y-83284346D01*
X192602517Y-83309983D01*
X192628154Y-83341223D01*
X192647204Y-83376862D01*
X192658935Y-83415532D01*
X192663500Y-83461888D01*
X192663500Y-84538112D01*
X192658935Y-84584468D01*
X192647204Y-84623138D01*
X192628154Y-84658777D01*
X192602517Y-84690017D01*
X192571277Y-84715654D01*
X192535638Y-84734704D01*
X192496968Y-84746435D01*
X192450612Y-84751000D01*
X191799388Y-84751000D01*
X191753032Y-84746435D01*
X191714362Y-84734704D01*
X191678723Y-84715654D01*
X191647483Y-84690017D01*
X191621846Y-84658777D01*
X191602796Y-84623138D01*
X191591065Y-84584468D01*
X191586500Y-84538112D01*
X191586500Y-83461888D01*
X191591065Y-83415532D01*
X191602796Y-83376862D01*
X191621846Y-83341223D01*
X191647483Y-83309983D01*
X191678723Y-83284346D01*
X191714362Y-83265296D01*
X191753032Y-83253565D01*
X191799388Y-83249000D01*
X192450612Y-83249000D01*
X192496968Y-83253565D01*
G37*
G36*
X190818468Y-83253565D02*
G01*
X190857138Y-83265296D01*
X190892777Y-83284346D01*
X190924017Y-83309983D01*
X190949654Y-83341223D01*
X190968704Y-83376862D01*
X190980435Y-83415532D01*
X190985000Y-83461888D01*
X190985000Y-84538112D01*
X190980435Y-84584468D01*
X190968704Y-84623138D01*
X190949654Y-84658777D01*
X190924017Y-84690017D01*
X190892777Y-84715654D01*
X190857138Y-84734704D01*
X190818468Y-84746435D01*
X190772112Y-84751000D01*
X190120888Y-84751000D01*
X190074532Y-84746435D01*
X190035862Y-84734704D01*
X190000223Y-84715654D01*
X189968983Y-84690017D01*
X189943346Y-84658777D01*
X189924296Y-84623138D01*
X189912565Y-84584468D01*
X189908000Y-84538112D01*
X189908000Y-83461888D01*
X189912565Y-83415532D01*
X189924296Y-83376862D01*
X189943346Y-83341223D01*
X189968983Y-83309983D01*
X190000223Y-83284346D01*
X190035862Y-83265296D01*
X190074532Y-83253565D01*
X190120888Y-83249000D01*
X190772112Y-83249000D01*
X190818468Y-83253565D01*
G37*
G36*
X182871968Y-83253565D02*
G01*
X182910638Y-83265296D01*
X182946277Y-83284346D01*
X182977517Y-83309983D01*
X183003154Y-83341223D01*
X183022204Y-83376862D01*
X183033935Y-83415532D01*
X183038500Y-83461888D01*
X183038500Y-84538112D01*
X183033935Y-84584468D01*
X183022204Y-84623138D01*
X183003154Y-84658777D01*
X182977517Y-84690017D01*
X182946277Y-84715654D01*
X182910638Y-84734704D01*
X182871968Y-84746435D01*
X182825612Y-84751000D01*
X182174388Y-84751000D01*
X182128032Y-84746435D01*
X182089362Y-84734704D01*
X182053723Y-84715654D01*
X182022483Y-84690017D01*
X181996846Y-84658777D01*
X181977796Y-84623138D01*
X181966065Y-84584468D01*
X181961500Y-84538112D01*
X181961500Y-83461888D01*
X181966065Y-83415532D01*
X181977796Y-83376862D01*
X181996846Y-83341223D01*
X182022483Y-83309983D01*
X182053723Y-83284346D01*
X182089362Y-83265296D01*
X182128032Y-83253565D01*
X182174388Y-83249000D01*
X182825612Y-83249000D01*
X182871968Y-83253565D01*
G37*
G36*
X177434468Y-83253565D02*
G01*
X177473138Y-83265296D01*
X177508777Y-83284346D01*
X177540017Y-83309983D01*
X177565654Y-83341223D01*
X177584704Y-83376862D01*
X177596435Y-83415532D01*
X177601000Y-83461888D01*
X177601000Y-84538112D01*
X177596435Y-84584468D01*
X177584704Y-84623138D01*
X177565654Y-84658777D01*
X177540017Y-84690017D01*
X177508777Y-84715654D01*
X177473138Y-84734704D01*
X177434468Y-84746435D01*
X177388112Y-84751000D01*
X176736888Y-84751000D01*
X176690532Y-84746435D01*
X176651862Y-84734704D01*
X176616223Y-84715654D01*
X176584983Y-84690017D01*
X176559346Y-84658777D01*
X176540296Y-84623138D01*
X176528565Y-84584468D01*
X176524000Y-84538112D01*
X176524000Y-83461888D01*
X176528565Y-83415532D01*
X176540296Y-83376862D01*
X176559346Y-83341223D01*
X176584983Y-83309983D01*
X176616223Y-83284346D01*
X176651862Y-83265296D01*
X176690532Y-83253565D01*
X176736888Y-83249000D01*
X177388112Y-83249000D01*
X177434468Y-83253565D01*
G37*
G36*
X180996968Y-83253565D02*
G01*
X181035638Y-83265296D01*
X181071277Y-83284346D01*
X181102517Y-83309983D01*
X181128154Y-83341223D01*
X181147204Y-83376862D01*
X181158935Y-83415532D01*
X181163500Y-83461888D01*
X181163500Y-84538112D01*
X181158935Y-84584468D01*
X181147204Y-84623138D01*
X181128154Y-84658777D01*
X181102517Y-84690017D01*
X181071277Y-84715654D01*
X181035638Y-84734704D01*
X180996968Y-84746435D01*
X180950612Y-84751000D01*
X180299388Y-84751000D01*
X180253032Y-84746435D01*
X180214362Y-84734704D01*
X180178723Y-84715654D01*
X180147483Y-84690017D01*
X180121846Y-84658777D01*
X180102796Y-84623138D01*
X180091065Y-84584468D01*
X180086500Y-84538112D01*
X180086500Y-83461888D01*
X180091065Y-83415532D01*
X180102796Y-83376862D01*
X180121846Y-83341223D01*
X180147483Y-83309983D01*
X180178723Y-83284346D01*
X180214362Y-83265296D01*
X180253032Y-83253565D01*
X180299388Y-83249000D01*
X180950612Y-83249000D01*
X180996968Y-83253565D01*
G37*
G36*
X179309468Y-83253565D02*
G01*
X179348138Y-83265296D01*
X179383777Y-83284346D01*
X179415017Y-83309983D01*
X179440654Y-83341223D01*
X179459704Y-83376862D01*
X179471435Y-83415532D01*
X179476000Y-83461888D01*
X179476000Y-84538112D01*
X179471435Y-84584468D01*
X179459704Y-84623138D01*
X179440654Y-84658777D01*
X179415017Y-84690017D01*
X179383777Y-84715654D01*
X179348138Y-84734704D01*
X179309468Y-84746435D01*
X179263112Y-84751000D01*
X178611888Y-84751000D01*
X178565532Y-84746435D01*
X178526862Y-84734704D01*
X178491223Y-84715654D01*
X178459983Y-84690017D01*
X178434346Y-84658777D01*
X178415296Y-84623138D01*
X178403565Y-84584468D01*
X178399000Y-84538112D01*
X178399000Y-83461888D01*
X178403565Y-83415532D01*
X178415296Y-83376862D01*
X178434346Y-83341223D01*
X178459983Y-83309983D01*
X178491223Y-83284346D01*
X178526862Y-83265296D01*
X178565532Y-83253565D01*
X178611888Y-83249000D01*
X179263112Y-83249000D01*
X179309468Y-83253565D01*
G37*
G36*
X194371968Y-83253565D02*
G01*
X194410638Y-83265296D01*
X194446277Y-83284346D01*
X194477517Y-83309983D01*
X194503154Y-83341223D01*
X194522204Y-83376862D01*
X194533935Y-83415532D01*
X194538500Y-83461888D01*
X194538500Y-84538112D01*
X194533935Y-84584468D01*
X194522204Y-84623138D01*
X194503154Y-84658777D01*
X194477517Y-84690017D01*
X194446277Y-84715654D01*
X194410638Y-84734704D01*
X194371968Y-84746435D01*
X194325612Y-84751000D01*
X193674388Y-84751000D01*
X193628032Y-84746435D01*
X193589362Y-84734704D01*
X193553723Y-84715654D01*
X193522483Y-84690017D01*
X193496846Y-84658777D01*
X193477796Y-84623138D01*
X193466065Y-84584468D01*
X193461500Y-84538112D01*
X193461500Y-83461888D01*
X193466065Y-83415532D01*
X193477796Y-83376862D01*
X193496846Y-83341223D01*
X193522483Y-83309983D01*
X193553723Y-83284346D01*
X193589362Y-83265296D01*
X193628032Y-83253565D01*
X193674388Y-83249000D01*
X194325612Y-83249000D01*
X194371968Y-83253565D01*
G37*
G36*
X142064072Y-81200918D02*
G01*
X142260827Y-81282416D01*
X142309939Y-81302759D01*
X142383736Y-81352069D01*
X142531211Y-81450609D01*
X142719391Y-81638789D01*
X142742501Y-81673376D01*
X142854654Y-81841223D01*
X142867242Y-81860063D01*
X142969082Y-82105928D01*
X143021000Y-82366937D01*
X143021000Y-82633063D01*
X142969082Y-82894072D01*
X142884199Y-83099000D01*
X142867241Y-83139939D01*
X142845725Y-83172139D01*
X142732747Y-83341223D01*
X142719390Y-83361212D01*
X142531212Y-83549390D01*
X142309939Y-83697241D01*
X142309938Y-83697242D01*
X142309937Y-83697242D01*
X142064072Y-83799082D01*
X141803063Y-83851000D01*
X141536937Y-83851000D01*
X141275928Y-83799082D01*
X141030063Y-83697242D01*
X141030062Y-83697242D01*
X141030061Y-83697241D01*
X140808788Y-83549390D01*
X140620610Y-83361212D01*
X140607254Y-83341223D01*
X140494275Y-83172139D01*
X140472759Y-83139939D01*
X140455802Y-83099000D01*
X140370918Y-82894072D01*
X140319000Y-82633063D01*
X140319000Y-82366937D01*
X140370918Y-82105928D01*
X140472758Y-81860063D01*
X140485347Y-81841223D01*
X140597499Y-81673376D01*
X140620609Y-81638789D01*
X140808789Y-81450609D01*
X140956264Y-81352069D01*
X141030061Y-81302759D01*
X141079174Y-81282416D01*
X141275928Y-81200918D01*
X141536937Y-81149000D01*
X141803063Y-81149000D01*
X142064072Y-81200918D01*
G37*
G36*
X148101000Y-83851000D02*
G01*
X145399000Y-83851000D01*
X145399000Y-81149000D01*
X148101000Y-81149000D01*
X148101000Y-83851000D01*
G37*
G36*
X131904072Y-81200918D02*
G01*
X132100827Y-81282416D01*
X132149939Y-81302759D01*
X132223736Y-81352069D01*
X132371211Y-81450609D01*
X132559391Y-81638789D01*
X132582501Y-81673376D01*
X132694654Y-81841223D01*
X132707242Y-81860063D01*
X132809082Y-82105928D01*
X132861000Y-82366937D01*
X132861000Y-82633063D01*
X132809082Y-82894072D01*
X132724199Y-83099000D01*
X132707241Y-83139939D01*
X132685725Y-83172139D01*
X132572747Y-83341223D01*
X132559390Y-83361212D01*
X132371212Y-83549390D01*
X132149939Y-83697241D01*
X132149938Y-83697242D01*
X132149937Y-83697242D01*
X131904072Y-83799082D01*
X131643063Y-83851000D01*
X131376937Y-83851000D01*
X131115928Y-83799082D01*
X130870063Y-83697242D01*
X130870062Y-83697242D01*
X130870061Y-83697241D01*
X130648788Y-83549390D01*
X130460610Y-83361212D01*
X130447254Y-83341223D01*
X130334275Y-83172139D01*
X130312759Y-83139939D01*
X130295802Y-83099000D01*
X130210918Y-82894072D01*
X130159000Y-82633063D01*
X130159000Y-82366937D01*
X130210918Y-82105928D01*
X130312758Y-81860063D01*
X130325347Y-81841223D01*
X130437499Y-81673376D01*
X130460609Y-81638789D01*
X130648789Y-81450609D01*
X130796264Y-81352069D01*
X130870061Y-81302759D01*
X130919174Y-81282416D01*
X131115928Y-81200918D01*
X131376937Y-81149000D01*
X131643063Y-81149000D01*
X131904072Y-81200918D01*
G37*
G36*
X137941000Y-83851000D02*
G01*
X135239000Y-83851000D01*
X135239000Y-81149000D01*
X137941000Y-81149000D01*
X137941000Y-83851000D01*
G37*
G36*
X165701000Y-83851000D02*
G01*
X162999000Y-83851000D01*
X162999000Y-81149000D01*
X165701000Y-81149000D01*
X165701000Y-83851000D01*
G37*
G36*
X159664072Y-81200918D02*
G01*
X159860827Y-81282416D01*
X159909939Y-81302759D01*
X159983736Y-81352069D01*
X160131211Y-81450609D01*
X160319391Y-81638789D01*
X160342501Y-81673376D01*
X160454654Y-81841223D01*
X160467242Y-81860063D01*
X160569082Y-82105928D01*
X160621000Y-82366937D01*
X160621000Y-82633063D01*
X160569082Y-82894072D01*
X160484199Y-83099000D01*
X160467241Y-83139939D01*
X160445725Y-83172139D01*
X160332747Y-83341223D01*
X160319390Y-83361212D01*
X160131212Y-83549390D01*
X159909939Y-83697241D01*
X159909938Y-83697242D01*
X159909937Y-83697242D01*
X159664072Y-83799082D01*
X159403063Y-83851000D01*
X159136937Y-83851000D01*
X158875928Y-83799082D01*
X158630063Y-83697242D01*
X158630062Y-83697242D01*
X158630061Y-83697241D01*
X158408788Y-83549390D01*
X158220610Y-83361212D01*
X158207254Y-83341223D01*
X158094275Y-83172139D01*
X158072759Y-83139939D01*
X158055802Y-83099000D01*
X157970918Y-82894072D01*
X157919000Y-82633063D01*
X157919000Y-82366937D01*
X157970918Y-82105928D01*
X158072758Y-81860063D01*
X158085347Y-81841223D01*
X158197499Y-81673376D01*
X158220609Y-81638789D01*
X158408789Y-81450609D01*
X158556264Y-81352069D01*
X158630061Y-81302759D01*
X158679174Y-81282416D01*
X158875928Y-81200918D01*
X159136937Y-81149000D01*
X159403063Y-81149000D01*
X159664072Y-81200918D01*
G37*
G36*
X153379487Y-81253996D02*
G01*
X153604044Y-81347011D01*
X153616255Y-81352069D01*
X153829339Y-81494447D01*
X154010553Y-81675661D01*
X154139513Y-81868663D01*
X154152932Y-81888747D01*
X154251004Y-82125513D01*
X154301000Y-82376861D01*
X154301000Y-82633139D01*
X154251004Y-82884487D01*
X154152932Y-83121253D01*
X154152931Y-83121255D01*
X154010553Y-83334339D01*
X153829339Y-83515553D01*
X153616255Y-83657931D01*
X153616254Y-83657932D01*
X153616253Y-83657932D01*
X153379487Y-83756004D01*
X153128139Y-83806000D01*
X152871861Y-83806000D01*
X152620513Y-83756004D01*
X152383747Y-83657932D01*
X152383746Y-83657932D01*
X152383745Y-83657931D01*
X152170661Y-83515553D01*
X151989447Y-83334339D01*
X151847069Y-83121255D01*
X151847068Y-83121253D01*
X151748996Y-82884487D01*
X151699000Y-82633139D01*
X151699000Y-82376861D01*
X151748996Y-82125513D01*
X151847068Y-81888747D01*
X151860488Y-81868663D01*
X151989447Y-81675661D01*
X152170661Y-81494447D01*
X152383745Y-81352069D01*
X152395956Y-81347011D01*
X152620513Y-81253996D01*
X152871861Y-81204000D01*
X153128139Y-81204000D01*
X153379487Y-81253996D01*
G37*
G36*
X185300468Y-81753565D02*
G01*
X185339138Y-81765296D01*
X185374777Y-81784346D01*
X185406017Y-81809983D01*
X185431654Y-81841223D01*
X185450704Y-81876862D01*
X185462435Y-81915532D01*
X185467000Y-81961888D01*
X185467000Y-83038112D01*
X185462435Y-83084468D01*
X185450704Y-83123138D01*
X185431654Y-83158777D01*
X185406017Y-83190017D01*
X185374777Y-83215654D01*
X185339138Y-83234704D01*
X185300468Y-83246435D01*
X185254112Y-83251000D01*
X184602888Y-83251000D01*
X184556532Y-83246435D01*
X184517862Y-83234704D01*
X184482223Y-83215654D01*
X184450983Y-83190017D01*
X184425346Y-83158777D01*
X184406296Y-83123138D01*
X184394565Y-83084468D01*
X184390000Y-83038112D01*
X184390000Y-81961888D01*
X184394565Y-81915532D01*
X184406296Y-81876862D01*
X184425346Y-81841223D01*
X184450983Y-81809983D01*
X184482223Y-81784346D01*
X184517862Y-81765296D01*
X184556532Y-81753565D01*
X184602888Y-81749000D01*
X185254112Y-81749000D01*
X185300468Y-81753565D01*
G37*
G36*
X187175468Y-81753565D02*
G01*
X187214138Y-81765296D01*
X187249777Y-81784346D01*
X187281017Y-81809983D01*
X187306654Y-81841223D01*
X187325704Y-81876862D01*
X187337435Y-81915532D01*
X187342000Y-81961888D01*
X187342000Y-83038112D01*
X187337435Y-83084468D01*
X187325704Y-83123138D01*
X187306654Y-83158777D01*
X187281017Y-83190017D01*
X187249777Y-83215654D01*
X187214138Y-83234704D01*
X187175468Y-83246435D01*
X187129112Y-83251000D01*
X186477888Y-83251000D01*
X186431532Y-83246435D01*
X186392862Y-83234704D01*
X186357223Y-83215654D01*
X186325983Y-83190017D01*
X186300346Y-83158777D01*
X186281296Y-83123138D01*
X186269565Y-83084468D01*
X186265000Y-83038112D01*
X186265000Y-81961888D01*
X186269565Y-81915532D01*
X186281296Y-81876862D01*
X186300346Y-81841223D01*
X186325983Y-81809983D01*
X186357223Y-81784346D01*
X186392862Y-81765296D01*
X186431532Y-81753565D01*
X186477888Y-81749000D01*
X187129112Y-81749000D01*
X187175468Y-81753565D01*
G37*
G36*
X122176627Y-80962037D02*
G01*
X122346466Y-81013557D01*
X122502991Y-81097222D01*
X122538729Y-81126552D01*
X122640186Y-81209814D01*
X122699767Y-81282415D01*
X122752778Y-81347009D01*
X122836443Y-81503534D01*
X122887963Y-81673374D01*
X122901000Y-81805743D01*
X122901000Y-82194258D01*
X122887963Y-82326627D01*
X122836443Y-82496466D01*
X122752778Y-82652991D01*
X122723448Y-82688729D01*
X122640186Y-82790186D01*
X122502989Y-82902779D01*
X122355245Y-82981750D01*
X122346465Y-82986443D01*
X122176626Y-83037963D01*
X122000000Y-83055359D01*
X121823373Y-83037963D01*
X121653534Y-82986443D01*
X121497009Y-82902778D01*
X121454750Y-82868097D01*
X121359814Y-82790186D01*
X121247221Y-82652989D01*
X121163558Y-82496467D01*
X121149159Y-82449000D01*
X121112037Y-82326626D01*
X121099000Y-82194257D01*
X121099000Y-81805742D01*
X121102984Y-81765296D01*
X121112037Y-81673375D01*
X121112037Y-81673373D01*
X121163557Y-81503534D01*
X121247222Y-81347009D01*
X121359815Y-81209815D01*
X121497010Y-81097222D01*
X121653535Y-81013557D01*
X121823374Y-80962037D01*
X122000000Y-80944641D01*
X122176627Y-80962037D01*
G37*
G36*
X111926627Y-80962037D02*
G01*
X112096466Y-81013557D01*
X112252991Y-81097222D01*
X112288729Y-81126552D01*
X112390186Y-81209814D01*
X112449767Y-81282415D01*
X112502778Y-81347009D01*
X112586443Y-81503534D01*
X112637963Y-81673374D01*
X112651000Y-81805743D01*
X112651000Y-82194258D01*
X112637963Y-82326627D01*
X112586443Y-82496466D01*
X112502778Y-82652991D01*
X112473448Y-82688729D01*
X112390186Y-82790186D01*
X112252989Y-82902779D01*
X112105245Y-82981750D01*
X112096465Y-82986443D01*
X111926626Y-83037963D01*
X111750000Y-83055359D01*
X111573373Y-83037963D01*
X111403534Y-82986443D01*
X111247009Y-82902778D01*
X111204750Y-82868097D01*
X111109814Y-82790186D01*
X110997221Y-82652989D01*
X110913558Y-82496467D01*
X110899159Y-82449000D01*
X110862037Y-82326626D01*
X110849000Y-82194257D01*
X110849000Y-81805742D01*
X110852984Y-81765296D01*
X110862037Y-81673375D01*
X110862037Y-81673373D01*
X110913557Y-81503534D01*
X110997222Y-81347009D01*
X111109815Y-81209815D01*
X111247010Y-81097222D01*
X111403535Y-81013557D01*
X111573374Y-80962037D01*
X111750000Y-80944641D01*
X111926627Y-80962037D01*
G37*
G36*
X125258600Y-80952989D02*
G01*
X125291652Y-80963015D01*
X125322103Y-80979292D01*
X125348799Y-81001201D01*
X125370708Y-81027897D01*
X125386985Y-81058348D01*
X125397011Y-81091400D01*
X125401000Y-81131903D01*
X125401000Y-82868097D01*
X125397011Y-82908600D01*
X125386985Y-82941652D01*
X125370708Y-82972103D01*
X125348799Y-82998799D01*
X125322103Y-83020708D01*
X125291652Y-83036985D01*
X125258600Y-83047011D01*
X125218097Y-83051000D01*
X123781903Y-83051000D01*
X123741400Y-83047011D01*
X123708348Y-83036985D01*
X123677897Y-83020708D01*
X123651201Y-82998799D01*
X123629292Y-82972103D01*
X123613015Y-82941652D01*
X123602989Y-82908600D01*
X123599000Y-82868097D01*
X123599000Y-81131903D01*
X123602989Y-81091400D01*
X123613015Y-81058348D01*
X123629292Y-81027897D01*
X123651201Y-81001201D01*
X123677897Y-80979292D01*
X123708348Y-80963015D01*
X123741400Y-80952989D01*
X123781903Y-80949000D01*
X125218097Y-80949000D01*
X125258600Y-80952989D01*
G37*
G36*
X115008600Y-80952989D02*
G01*
X115041652Y-80963015D01*
X115072103Y-80979292D01*
X115098799Y-81001201D01*
X115120708Y-81027897D01*
X115136985Y-81058348D01*
X115147011Y-81091400D01*
X115151000Y-81131903D01*
X115151000Y-82868097D01*
X115147011Y-82908600D01*
X115136985Y-82941652D01*
X115120708Y-82972103D01*
X115098799Y-82998799D01*
X115072103Y-83020708D01*
X115041652Y-83036985D01*
X115008600Y-83047011D01*
X114968097Y-83051000D01*
X113531903Y-83051000D01*
X113491400Y-83047011D01*
X113458348Y-83036985D01*
X113427897Y-83020708D01*
X113401201Y-82998799D01*
X113379292Y-82972103D01*
X113363015Y-82941652D01*
X113352989Y-82908600D01*
X113349000Y-82868097D01*
X113349000Y-81131903D01*
X113352989Y-81091400D01*
X113363015Y-81058348D01*
X113379292Y-81027897D01*
X113401201Y-81001201D01*
X113427897Y-80979292D01*
X113458348Y-80963015D01*
X113491400Y-80952989D01*
X113531903Y-80949000D01*
X114968097Y-80949000D01*
X115008600Y-80952989D01*
G37*
G36*
X188935000Y-81920000D02*
G01*
X188183000Y-81920000D01*
X188183000Y-80758000D01*
X188935000Y-80758000D01*
X188935000Y-81920000D01*
G37*
G36*
X190835000Y-81920000D02*
G01*
X190083000Y-81920000D01*
X190083000Y-80758000D01*
X190835000Y-80758000D01*
X190835000Y-81920000D01*
G37*
G36*
X196375256Y-78391298D02*
G01*
X196481579Y-78412447D01*
X196782042Y-78536903D01*
X197052451Y-78717585D01*
X197282415Y-78947549D01*
X197384948Y-79101000D01*
X197463098Y-79217960D01*
X197465802Y-79224488D01*
X197587553Y-79518421D01*
X197598679Y-79574354D01*
X197651000Y-79837389D01*
X197651000Y-80162611D01*
X197643974Y-80197931D01*
X197587553Y-80481579D01*
X197463097Y-80782042D01*
X197282415Y-81052451D01*
X197052451Y-81282415D01*
X196782042Y-81463097D01*
X196782041Y-81463098D01*
X196782040Y-81463098D01*
X196694037Y-81499550D01*
X196481579Y-81587553D01*
X196375256Y-81608702D01*
X196162611Y-81651000D01*
X195837389Y-81651000D01*
X195624744Y-81608702D01*
X195518421Y-81587553D01*
X195305963Y-81499550D01*
X195217960Y-81463098D01*
X195217959Y-81463098D01*
X195217958Y-81463097D01*
X194947549Y-81282415D01*
X194717585Y-81052451D01*
X194536903Y-80782042D01*
X194412447Y-80481579D01*
X194356026Y-80197931D01*
X194349000Y-80162611D01*
X194349000Y-79837389D01*
X194401321Y-79574354D01*
X194412447Y-79518421D01*
X194534198Y-79224488D01*
X194536902Y-79217960D01*
X194615052Y-79101000D01*
X194717585Y-78947549D01*
X194947549Y-78717585D01*
X195217958Y-78536903D01*
X195518421Y-78412447D01*
X195624744Y-78391298D01*
X195837389Y-78349000D01*
X196162611Y-78349000D01*
X196375256Y-78391298D01*
G37*
G36*
X104375256Y-78391298D02*
G01*
X104481579Y-78412447D01*
X104782042Y-78536903D01*
X105052451Y-78717585D01*
X105282415Y-78947549D01*
X105384948Y-79101000D01*
X105463098Y-79217960D01*
X105465802Y-79224488D01*
X105587553Y-79518421D01*
X105598679Y-79574354D01*
X105651000Y-79837389D01*
X105651000Y-80162611D01*
X105643974Y-80197931D01*
X105587553Y-80481579D01*
X105463097Y-80782042D01*
X105282415Y-81052451D01*
X105052451Y-81282415D01*
X104782042Y-81463097D01*
X104782041Y-81463098D01*
X104782040Y-81463098D01*
X104694037Y-81499550D01*
X104481579Y-81587553D01*
X104375256Y-81608702D01*
X104162611Y-81651000D01*
X103837389Y-81651000D01*
X103624744Y-81608702D01*
X103518421Y-81587553D01*
X103305963Y-81499550D01*
X103217960Y-81463098D01*
X103217959Y-81463098D01*
X103217958Y-81463097D01*
X102947549Y-81282415D01*
X102717585Y-81052451D01*
X102536903Y-80782042D01*
X102412447Y-80481579D01*
X102356026Y-80197931D01*
X102349000Y-80162611D01*
X102349000Y-79837389D01*
X102401321Y-79574354D01*
X102412447Y-79518421D01*
X102534198Y-79224488D01*
X102536902Y-79217960D01*
X102615052Y-79101000D01*
X102717585Y-78947549D01*
X102947549Y-78717585D01*
X103217958Y-78536903D01*
X103518421Y-78412447D01*
X103624744Y-78391298D01*
X103837389Y-78349000D01*
X104162611Y-78349000D01*
X104375256Y-78391298D01*
G37*
G36*
X176334468Y-79903565D02*
G01*
X176373138Y-79915296D01*
X176408777Y-79934346D01*
X176440017Y-79959983D01*
X176465654Y-79991223D01*
X176484704Y-80026862D01*
X176496435Y-80065532D01*
X176501000Y-80111888D01*
X176501000Y-80763112D01*
X176496435Y-80809468D01*
X176484704Y-80848138D01*
X176465654Y-80883777D01*
X176440017Y-80915017D01*
X176408777Y-80940654D01*
X176373138Y-80959704D01*
X176334468Y-80971435D01*
X176288112Y-80976000D01*
X175211888Y-80976000D01*
X175165532Y-80971435D01*
X175126862Y-80959704D01*
X175091223Y-80940654D01*
X175059983Y-80915017D01*
X175034346Y-80883777D01*
X175015296Y-80848138D01*
X175003565Y-80809468D01*
X174999000Y-80763112D01*
X174999000Y-80111888D01*
X175003565Y-80065532D01*
X175015296Y-80026862D01*
X175034346Y-79991223D01*
X175059983Y-79959983D01*
X175091223Y-79934346D01*
X175126862Y-79915296D01*
X175165532Y-79903565D01*
X175211888Y-79899000D01*
X176288112Y-79899000D01*
X176334468Y-79903565D01*
G37*
G36*
X179468348Y-79375320D02*
G01*
X179468350Y-79375321D01*
X179468351Y-79375321D01*
X179609574Y-79433817D01*
X179609577Y-79433819D01*
X179736669Y-79518739D01*
X179844761Y-79626831D01*
X179893552Y-79699852D01*
X179929683Y-79753926D01*
X179950517Y-79804225D01*
X179962068Y-79825836D01*
X179977614Y-79844778D01*
X179996556Y-79860323D01*
X180018166Y-79871874D01*
X180041615Y-79878987D01*
X180066001Y-79881389D01*
X180090387Y-79878987D01*
X180113836Y-79871874D01*
X180135447Y-79860323D01*
X180154389Y-79844777D01*
X180169934Y-79825835D01*
X180181485Y-79804225D01*
X180188598Y-79780776D01*
X180191000Y-79756390D01*
X180191000Y-79395500D01*
X183293000Y-79395500D01*
X183293000Y-79756390D01*
X183295402Y-79780776D01*
X183302515Y-79804225D01*
X183314066Y-79825836D01*
X183329611Y-79844778D01*
X183348553Y-79860323D01*
X183370164Y-79871874D01*
X183393613Y-79878987D01*
X183417999Y-79881389D01*
X183442385Y-79878987D01*
X183465834Y-79871874D01*
X183487445Y-79860323D01*
X183506387Y-79844778D01*
X183521932Y-79825836D01*
X183533483Y-79804225D01*
X183554317Y-79753926D01*
X183590448Y-79699852D01*
X183639239Y-79626831D01*
X183747331Y-79518739D01*
X183874423Y-79433819D01*
X183874426Y-79433817D01*
X184015649Y-79375321D01*
X184015650Y-79375321D01*
X184015652Y-79375320D01*
X184165569Y-79345500D01*
X184318431Y-79345500D01*
X184468348Y-79375320D01*
X184468350Y-79375321D01*
X184468351Y-79375321D01*
X184609574Y-79433817D01*
X184609577Y-79433819D01*
X184736669Y-79518739D01*
X184844761Y-79626831D01*
X184907014Y-79720000D01*
X184929683Y-79753926D01*
X184982479Y-79881389D01*
X184988180Y-79895152D01*
X185014378Y-80026862D01*
X185018000Y-80045071D01*
X185018000Y-80197929D01*
X184988179Y-80347851D01*
X184929683Y-80489074D01*
X184929682Y-80489075D01*
X184929681Y-80489077D01*
X184844761Y-80616169D01*
X184736669Y-80724261D01*
X184684262Y-80759278D01*
X184609574Y-80809183D01*
X184468351Y-80867679D01*
X184468350Y-80867679D01*
X184468348Y-80867680D01*
X184318431Y-80897500D01*
X184165569Y-80897500D01*
X184015652Y-80867680D01*
X184015650Y-80867679D01*
X184015649Y-80867679D01*
X183874426Y-80809183D01*
X183799738Y-80759278D01*
X183747331Y-80724261D01*
X183639239Y-80616169D01*
X183554318Y-80489075D01*
X183554317Y-80489074D01*
X183533481Y-80438772D01*
X183521932Y-80417164D01*
X183506386Y-80398222D01*
X183487444Y-80382677D01*
X183465834Y-80371126D01*
X183442385Y-80364013D01*
X183417999Y-80361611D01*
X183393613Y-80364013D01*
X183370164Y-80371126D01*
X183348553Y-80382677D01*
X183329611Y-80398223D01*
X183314066Y-80417165D01*
X183302515Y-80438775D01*
X183295402Y-80462224D01*
X183293000Y-80486610D01*
X183293000Y-80847500D01*
X180191000Y-80847500D01*
X180191000Y-80486610D01*
X180188598Y-80462224D01*
X180181485Y-80438775D01*
X180169934Y-80417164D01*
X180154389Y-80398222D01*
X180135447Y-80382677D01*
X180113836Y-80371126D01*
X180090387Y-80364013D01*
X180066001Y-80361611D01*
X180041615Y-80364013D01*
X180018166Y-80371126D01*
X179996555Y-80382677D01*
X179977613Y-80398222D01*
X179962068Y-80417164D01*
X179950519Y-80438772D01*
X179929683Y-80489074D01*
X179929682Y-80489075D01*
X179844761Y-80616169D01*
X179736669Y-80724261D01*
X179684262Y-80759278D01*
X179609574Y-80809183D01*
X179468351Y-80867679D01*
X179468350Y-80867679D01*
X179468348Y-80867680D01*
X179318431Y-80897500D01*
X179165569Y-80897500D01*
X179015652Y-80867680D01*
X179015650Y-80867679D01*
X179015649Y-80867679D01*
X178874426Y-80809183D01*
X178799738Y-80759278D01*
X178747331Y-80724261D01*
X178639239Y-80616169D01*
X178554319Y-80489077D01*
X178554318Y-80489075D01*
X178554317Y-80489074D01*
X178495821Y-80347851D01*
X178466000Y-80197929D01*
X178466000Y-80045071D01*
X178469622Y-80026862D01*
X178495820Y-79895152D01*
X178501521Y-79881389D01*
X178554317Y-79753926D01*
X178576986Y-79720000D01*
X178639239Y-79626831D01*
X178747331Y-79518739D01*
X178874423Y-79433819D01*
X178874426Y-79433817D01*
X179015649Y-79375321D01*
X179015650Y-79375321D01*
X179015652Y-79375320D01*
X179165569Y-79345500D01*
X179318431Y-79345500D01*
X179468348Y-79375320D01*
G37*
G36*
X153379487Y-77593996D02*
G01*
X153616253Y-77692068D01*
X153616255Y-77692069D01*
X153829339Y-77834447D01*
X154010553Y-78015661D01*
X154090243Y-78134925D01*
X154152932Y-78228747D01*
X154251004Y-78465513D01*
X154301000Y-78716861D01*
X154301000Y-78973139D01*
X154251004Y-79224487D01*
X154152932Y-79461253D01*
X154152931Y-79461255D01*
X154010553Y-79674339D01*
X153829339Y-79855553D01*
X153616255Y-79997931D01*
X153616254Y-79997932D01*
X153616253Y-79997932D01*
X153379487Y-80096004D01*
X153128139Y-80146000D01*
X152871861Y-80146000D01*
X152620513Y-80096004D01*
X152383747Y-79997932D01*
X152383746Y-79997932D01*
X152383745Y-79997931D01*
X152170661Y-79855553D01*
X151989447Y-79674339D01*
X151847069Y-79461255D01*
X151847068Y-79461253D01*
X151748996Y-79224487D01*
X151699000Y-78973139D01*
X151699000Y-78716861D01*
X151748996Y-78465513D01*
X151847068Y-78228747D01*
X151909758Y-78134925D01*
X151989447Y-78015661D01*
X152170661Y-77834447D01*
X152383745Y-77692069D01*
X152383747Y-77692068D01*
X152620513Y-77593996D01*
X152871861Y-77544000D01*
X153128139Y-77544000D01*
X153379487Y-77593996D01*
G37*
G36*
X172648152Y-78102861D02*
G01*
X172802812Y-78133624D01*
X172966784Y-78201544D01*
X173114354Y-78300147D01*
X173239853Y-78425646D01*
X173338456Y-78573216D01*
X173406376Y-78737188D01*
X173441000Y-78911259D01*
X173441000Y-79088741D01*
X173406376Y-79262812D01*
X173338456Y-79426784D01*
X173239853Y-79574354D01*
X173114354Y-79699853D01*
X172966784Y-79798456D01*
X172802812Y-79866376D01*
X172653512Y-79896073D01*
X172628742Y-79901000D01*
X172451258Y-79901000D01*
X172426488Y-79896073D01*
X172277188Y-79866376D01*
X172113216Y-79798456D01*
X171965646Y-79699853D01*
X171840147Y-79574354D01*
X171741544Y-79426784D01*
X171673624Y-79262812D01*
X171639000Y-79088741D01*
X171639000Y-78911259D01*
X171673624Y-78737188D01*
X171741544Y-78573216D01*
X171840147Y-78425646D01*
X171965646Y-78300147D01*
X172113216Y-78201544D01*
X172277188Y-78133624D01*
X172431848Y-78102861D01*
X172451258Y-78099000D01*
X172628742Y-78099000D01*
X172648152Y-78102861D01*
G37*
G36*
X170901000Y-79901000D02*
G01*
X169099000Y-79901000D01*
X169099000Y-78099000D01*
X170901000Y-78099000D01*
X170901000Y-79901000D01*
G37*
G36*
X190835000Y-79720000D02*
G01*
X188183000Y-79720000D01*
X188183000Y-78558000D01*
X190835000Y-78558000D01*
X190835000Y-79720000D01*
G37*
G36*
X176334468Y-78028565D02*
G01*
X176373138Y-78040296D01*
X176408777Y-78059346D01*
X176440017Y-78084983D01*
X176465654Y-78116223D01*
X176484704Y-78151862D01*
X176496435Y-78190532D01*
X176501000Y-78236888D01*
X176501000Y-78888112D01*
X176496435Y-78934468D01*
X176484704Y-78973138D01*
X176465654Y-79008777D01*
X176440017Y-79040017D01*
X176408777Y-79065654D01*
X176373138Y-79084704D01*
X176334468Y-79096435D01*
X176288112Y-79101000D01*
X175211888Y-79101000D01*
X175165532Y-79096435D01*
X175126862Y-79084704D01*
X175091223Y-79065654D01*
X175059983Y-79040017D01*
X175034346Y-79008777D01*
X175015296Y-78973138D01*
X175003565Y-78934468D01*
X174999000Y-78888112D01*
X174999000Y-78236888D01*
X175003565Y-78190532D01*
X175015296Y-78151862D01*
X175034346Y-78116223D01*
X175059983Y-78084983D01*
X175091223Y-78059346D01*
X175126862Y-78040296D01*
X175165532Y-78028565D01*
X175211888Y-78024000D01*
X176288112Y-78024000D01*
X176334468Y-78028565D01*
G37*
G36*
X185267862Y-76419898D02*
G01*
X185280114Y-76420500D01*
X185353406Y-76420500D01*
X185370164Y-76429457D01*
X185381707Y-76433587D01*
X185492331Y-76467145D01*
X185492334Y-76467146D01*
X185605424Y-76527594D01*
X185704554Y-76608947D01*
X185785906Y-76708075D01*
X185846354Y-76821164D01*
X185856040Y-76853096D01*
X185883580Y-76943882D01*
X185893000Y-77039527D01*
X185893000Y-77803473D01*
X185883580Y-77899118D01*
X185869473Y-77945623D01*
X185846354Y-78021836D01*
X185785906Y-78134925D01*
X185704554Y-78234054D01*
X185605425Y-78315406D01*
X185492336Y-78375854D01*
X185466693Y-78383632D01*
X185381708Y-78409413D01*
X185359075Y-78418787D01*
X185353518Y-78422500D01*
X185280114Y-78422500D01*
X185267862Y-78423102D01*
X185242000Y-78425649D01*
X185216138Y-78423102D01*
X185203886Y-78422500D01*
X183991000Y-78422500D01*
X183991000Y-76420500D01*
X185203886Y-76420500D01*
X185216138Y-76419898D01*
X185242000Y-76417351D01*
X185267862Y-76419898D01*
G37*
G36*
X178267862Y-76419898D02*
G01*
X178280114Y-76420500D01*
X179493000Y-76420500D01*
X179493000Y-78422500D01*
X178280114Y-78422500D01*
X178267862Y-78423102D01*
X178242000Y-78425649D01*
X178216138Y-78423102D01*
X178203886Y-78422500D01*
X178130594Y-78422500D01*
X178113836Y-78413543D01*
X178102299Y-78409415D01*
X178017307Y-78383632D01*
X177991664Y-78375854D01*
X177878575Y-78315406D01*
X177779447Y-78234054D01*
X177698094Y-78134924D01*
X177637646Y-78021835D01*
X177623349Y-77974704D01*
X177600420Y-77899117D01*
X177591000Y-77803472D01*
X177591000Y-77039527D01*
X177600420Y-76943882D01*
X177637645Y-76821168D01*
X177698096Y-76708074D01*
X177700026Y-76705722D01*
X177779447Y-76608946D01*
X177878576Y-76527594D01*
X177991666Y-76467146D01*
X177991669Y-76467145D01*
X178102290Y-76433588D01*
X178124925Y-76424212D01*
X178130481Y-76420500D01*
X178203886Y-76420500D01*
X178216138Y-76419898D01*
X178242000Y-76417351D01*
X178267862Y-76419898D01*
G37*
G36*
X181543000Y-78422500D02*
G01*
X179941000Y-78422500D01*
X179941000Y-76420500D01*
X181543000Y-76420500D01*
X181543000Y-78422500D01*
G37*
G36*
X183543000Y-78422500D02*
G01*
X181941000Y-78422500D01*
X181941000Y-76420500D01*
X183543000Y-76420500D01*
X183543000Y-78422500D01*
G37*
G36*
X188935468Y-76493565D02*
G01*
X188974138Y-76505296D01*
X189009777Y-76524346D01*
X189041017Y-76549983D01*
X189066654Y-76581223D01*
X189085704Y-76616862D01*
X189097435Y-76655532D01*
X189102000Y-76701888D01*
X189102000Y-77778112D01*
X189097435Y-77824468D01*
X189085704Y-77863138D01*
X189066654Y-77898777D01*
X189041017Y-77930017D01*
X189009777Y-77955654D01*
X188974138Y-77974704D01*
X188935468Y-77986435D01*
X188889112Y-77991000D01*
X188237888Y-77991000D01*
X188191532Y-77986435D01*
X188152862Y-77974704D01*
X188117223Y-77955654D01*
X188085983Y-77930017D01*
X188060346Y-77898777D01*
X188041296Y-77863138D01*
X188029565Y-77824468D01*
X188025000Y-77778112D01*
X188025000Y-76701888D01*
X188029565Y-76655532D01*
X188041296Y-76616862D01*
X188060346Y-76581223D01*
X188085983Y-76549983D01*
X188117223Y-76524346D01*
X188152862Y-76505296D01*
X188191532Y-76493565D01*
X188237888Y-76489000D01*
X188889112Y-76489000D01*
X188935468Y-76493565D01*
G37*
G36*
X190810468Y-76493565D02*
G01*
X190849138Y-76505296D01*
X190884777Y-76524346D01*
X190916017Y-76549983D01*
X190941654Y-76581223D01*
X190960704Y-76616862D01*
X190972435Y-76655532D01*
X190977000Y-76701888D01*
X190977000Y-77778112D01*
X190972435Y-77824468D01*
X190960704Y-77863138D01*
X190941654Y-77898777D01*
X190916017Y-77930017D01*
X190884777Y-77955654D01*
X190849138Y-77974704D01*
X190810468Y-77986435D01*
X190764112Y-77991000D01*
X190112888Y-77991000D01*
X190066532Y-77986435D01*
X190027862Y-77974704D01*
X189992223Y-77955654D01*
X189960983Y-77930017D01*
X189935346Y-77898777D01*
X189916296Y-77863138D01*
X189904565Y-77824468D01*
X189900000Y-77778112D01*
X189900000Y-76701888D01*
X189904565Y-76655532D01*
X189916296Y-76616862D01*
X189935346Y-76581223D01*
X189960983Y-76549983D01*
X189992223Y-76524346D01*
X190027862Y-76505296D01*
X190066532Y-76493565D01*
X190112888Y-76489000D01*
X190764112Y-76489000D01*
X190810468Y-76493565D01*
G37*
M02*
