M48
; DRILL file {KiCad (5.1.5)-3} date 1/18/2021 2:34:06 PM
; FORMAT={-:-/ absolute / inch / decimal}
; #@! TF.CreationDate,2021-01-18T14:34:06-06:00
; #@! TF.GenerationSoftware,Kicad,Pcbnew,(5.1.5)-3
; #@! TF.FileFunction,Plated,1,2,PTH
FMAT,2
INCH
T1C0.0157
T2C0.0236
T3C0.0335
T4C0.0394
T5C0.0492
T6C0.0512
T7C0.0669
%
G90
G05
T1
X4.184Y-3.403
X4.2126Y-3.303
X4.4508Y-3.3925
X4.4508Y-3.4425
X4.4508Y-3.4925
X4.5008Y-3.3925
X4.5008Y-3.4425
X4.5008Y-3.4925
X4.5508Y-3.3925
X4.5508Y-3.4425
X4.5508Y-3.4925
X4.5926Y-3.6914
X4.6008Y-3.3925
X4.6008Y-3.4425
X4.6008Y-3.4925
X4.8508Y-3.3925
X4.8508Y-3.4425
X4.8508Y-3.4925
X4.9008Y-3.3925
X4.9008Y-3.4425
X4.9008Y-3.4925
X4.9508Y-3.3925
X4.9508Y-3.4425
X4.9508Y-3.4925
X4.9926Y-3.6914
X5.0008Y-3.3925
X5.0008Y-3.4425
X5.0008Y-3.4925
X5.2508Y-3.3925
X5.2508Y-3.4425
X5.2508Y-3.4925
X5.3008Y-3.3925
X5.3008Y-3.4425
X5.3008Y-3.4925
X5.3508Y-3.3925
X5.3508Y-3.4425
X5.3508Y-3.4925
X5.4008Y-3.3925
X5.4008Y-3.4425
X5.4008Y-3.4925
X5.5476Y-3.723
X5.5876Y-3.738
X5.6508Y-3.3925
X5.6508Y-3.4425
X5.6508Y-3.4925
X5.7008Y-3.3925
X5.7008Y-3.4425
X5.7008Y-3.4925
X5.7508Y-3.3925
X5.7508Y-3.4425
X5.7508Y-3.4925
X5.8008Y-3.3925
X5.8008Y-3.4425
X5.8008Y-3.4925
X6.2219Y-3.5438
X6.2795Y-3.3465
X6.437Y-3.3957
X6.437Y-3.435
X6.437Y-3.4744
X6.437Y-3.5138
X6.4567Y-3.622
X6.565Y-3.3563
X6.565Y-3.3957
X6.565Y-3.435
X6.565Y-3.4744
X6.6043Y-3.5433
X6.65Y-3.65
X6.811Y-3.2677
X6.8209Y-3.376
X6.8307Y-3.2283
X6.8504Y-3.7402
X6.8898Y-3.7008
X6.9094Y-3.6372
X6.9493Y-3.7407
X6.9554Y-3.0249
X6.9685Y-3.2087
X7.0669Y-3.248
X7.1161Y-3.4449
X7.1161Y-3.5236
X7.1398Y-3.0496
X7.1949Y-3.4449
X7.1949Y-3.5236
X7.2244Y-3.3268
X7.2441Y-3.6112
X7.2654Y-3.6443
X7.2973Y-3.6674
X7.344Y-3.1418
X7.3552Y-3.0248
X7.3622Y-3.7205
X7.4606Y-3.2382
X7.5492Y-3.0413
X7.5492Y-3.4449
X7.5492Y-3.5236
X7.628Y-3.4449
X7.628Y-3.5236
X7.6807Y-3.6112
X7.7165Y-3.6417
X7.7559Y-3.622
X7.7756Y-3.7205
T3
X7.0568Y-3.1544
X7.2536Y-3.1544
T4
X4.8031Y-3.2283
X4.9016Y-3.2283
X4.3996Y-3.2283
X4.498Y-3.2283
X7.1063Y-3.7992
X7.2047Y-3.7992
X7.5394Y-3.7992
X7.6378Y-3.7992
X6.178Y-3.7992
X6.278Y-3.7992
X6.378Y-3.7992
X6.6929Y-3.1102
X6.7929Y-3.1102
T5
X5.4996Y-3.843
X5.7555Y-3.843
T6
X5.1776Y-3.248
X5.3776Y-3.248
X6.2705Y-3.248
X6.4705Y-3.248
X5.5776Y-3.248
X5.7776Y-3.248
T7
X6.0236Y-3.1041
X6.0236Y-3.2482
X6.0236Y-3.4242
X6.0236Y-3.5683
T2
G00X7.0174Y-3.0619
M15
G01X7.0174Y-3.0343
M16
G05
G00X7.293Y-3.0343
M15
G01X7.293Y-3.0619
M16
G05
T0
M30
