G04 #@! TF.GenerationSoftware,KiCad,Pcbnew,(5.1.5)-3*
G04 #@! TF.CreationDate,2021-01-18T14:34:05-06:00*
G04 #@! TF.ProjectId,USB-PT100,5553422d-5054-4313-9030-2e6b69636164,B*
G04 #@! TF.SameCoordinates,Original*
G04 #@! TF.FileFunction,Legend,Bot*
G04 #@! TF.FilePolarity,Positive*
%FSLAX46Y46*%
G04 Gerber Fmt 4.6, Leading zero omitted, Abs format (unit mm)*
G04 Created by KiCad (PCBNEW (5.1.5)-3) date 2021-01-18 14:34:05*
%MOMM*%
%LPD*%
G04 APERTURE LIST*
%ADD10C,0.300000*%
%ADD11C,0.200000*%
%ADD12C,0.150000*%
%ADD13C,0.100000*%
G04 APERTURE END LIST*
D10*
X135976190Y-89880952D02*
X135976190Y-91904761D01*
X135857142Y-92142857D01*
X135738095Y-92261904D01*
X135500000Y-92380952D01*
X135023809Y-92380952D01*
X134785714Y-92261904D01*
X134666666Y-92142857D01*
X134547619Y-91904761D01*
X134547619Y-89880952D01*
X133476190Y-92261904D02*
X133119047Y-92380952D01*
X132523809Y-92380952D01*
X132285714Y-92261904D01*
X132166666Y-92142857D01*
X132047619Y-91904761D01*
X132047619Y-91666666D01*
X132166666Y-91428571D01*
X132285714Y-91309523D01*
X132523809Y-91190476D01*
X133000000Y-91071428D01*
X133238095Y-90952380D01*
X133357142Y-90833333D01*
X133476190Y-90595238D01*
X133476190Y-90357142D01*
X133357142Y-90119047D01*
X133238095Y-90000000D01*
X133000000Y-89880952D01*
X132404761Y-89880952D01*
X132047619Y-90000000D01*
X130142857Y-91071428D02*
X129785714Y-91190476D01*
X129666666Y-91309523D01*
X129547619Y-91547619D01*
X129547619Y-91904761D01*
X129666666Y-92142857D01*
X129785714Y-92261904D01*
X130023809Y-92380952D01*
X130976190Y-92380952D01*
X130976190Y-89880952D01*
X130142857Y-89880952D01*
X129904761Y-90000000D01*
X129785714Y-90119047D01*
X129666666Y-90357142D01*
X129666666Y-90595238D01*
X129785714Y-90833333D01*
X129904761Y-90952380D01*
X130142857Y-91071428D01*
X130976190Y-91071428D01*
X128476190Y-91428571D02*
X126571428Y-91428571D01*
X125380952Y-92380952D02*
X125380952Y-89880952D01*
X124428571Y-89880952D01*
X124190476Y-90000000D01*
X124071428Y-90119047D01*
X123952380Y-90357142D01*
X123952380Y-90714285D01*
X124071428Y-90952380D01*
X124190476Y-91071428D01*
X124428571Y-91190476D01*
X125380952Y-91190476D01*
X123238095Y-89880952D02*
X121809523Y-89880952D01*
X122523809Y-92380952D02*
X122523809Y-89880952D01*
X119666666Y-92380952D02*
X121095238Y-92380952D01*
X120380952Y-92380952D02*
X120380952Y-89880952D01*
X120619047Y-90238095D01*
X120857142Y-90476190D01*
X121095238Y-90595238D01*
X118119047Y-89880952D02*
X117880952Y-89880952D01*
X117642857Y-90000000D01*
X117523809Y-90119047D01*
X117404761Y-90357142D01*
X117285714Y-90833333D01*
X117285714Y-91428571D01*
X117404761Y-91904761D01*
X117523809Y-92142857D01*
X117642857Y-92261904D01*
X117880952Y-92380952D01*
X118119047Y-92380952D01*
X118357142Y-92261904D01*
X118476190Y-92142857D01*
X118595238Y-91904761D01*
X118714285Y-91428571D01*
X118714285Y-90833333D01*
X118595238Y-90357142D01*
X118476190Y-90119047D01*
X118357142Y-90000000D01*
X118119047Y-89880952D01*
X115738095Y-89880952D02*
X115500000Y-89880952D01*
X115261904Y-90000000D01*
X115142857Y-90119047D01*
X115023809Y-90357142D01*
X114904761Y-90833333D01*
X114904761Y-91428571D01*
X115023809Y-91904761D01*
X115142857Y-92142857D01*
X115261904Y-92261904D01*
X115500000Y-92380952D01*
X115738095Y-92380952D01*
X115976190Y-92261904D01*
X116095238Y-92142857D01*
X116214285Y-91904761D01*
X116333333Y-91428571D01*
X116333333Y-90833333D01*
X116214285Y-90357142D01*
X116095238Y-90119047D01*
X115976190Y-90000000D01*
X115738095Y-89880952D01*
D11*
X141824666Y-78746523D02*
X141824666Y-79996523D01*
X142300857Y-79996523D01*
X142419904Y-79937000D01*
X142479428Y-79877476D01*
X142538952Y-79758428D01*
X142538952Y-79579857D01*
X142479428Y-79460809D01*
X142419904Y-79401285D01*
X142300857Y-79341761D01*
X141824666Y-79341761D01*
X143015142Y-79103666D02*
X143610380Y-79103666D01*
X142896095Y-78746523D02*
X143312761Y-79996523D01*
X143729428Y-78746523D01*
X144800857Y-78746523D02*
X144086571Y-78746523D01*
X144443714Y-78746523D02*
X144443714Y-79996523D01*
X144324666Y-79817952D01*
X144205619Y-79698904D01*
X144086571Y-79639380D01*
X146110380Y-79996523D02*
X146527047Y-78746523D01*
X146943714Y-79996523D01*
X147360380Y-78746523D02*
X147360380Y-79579857D01*
X147360380Y-79996523D02*
X147300857Y-79937000D01*
X147360380Y-79877476D01*
X147419904Y-79937000D01*
X147360380Y-79996523D01*
X147360380Y-79877476D01*
X147955619Y-79579857D02*
X147955619Y-78746523D01*
X147955619Y-79460809D02*
X148015142Y-79520333D01*
X148134190Y-79579857D01*
X148312761Y-79579857D01*
X148431809Y-79520333D01*
X148491333Y-79401285D01*
X148491333Y-78746523D01*
D12*
X177361904Y-89888095D02*
X176561904Y-89888095D01*
X176561904Y-90192857D01*
X176600000Y-90269047D01*
X176638095Y-90307142D01*
X176714285Y-90345238D01*
X176828571Y-90345238D01*
X176904761Y-90307142D01*
X176942857Y-90269047D01*
X176980952Y-90192857D01*
X176980952Y-89888095D01*
X177133333Y-90650000D02*
X177133333Y-91030952D01*
X177361904Y-90573809D02*
X176561904Y-90840476D01*
X177361904Y-91107142D01*
X176561904Y-91297619D02*
X176561904Y-91830952D01*
X177361904Y-91488095D01*
X176600000Y-93164285D02*
X176561904Y-93088095D01*
X176561904Y-92973809D01*
X176600000Y-92859523D01*
X176676190Y-92783333D01*
X176752380Y-92745238D01*
X176904761Y-92707142D01*
X177019047Y-92707142D01*
X177171428Y-92745238D01*
X177247619Y-92783333D01*
X177323809Y-92859523D01*
X177361904Y-92973809D01*
X177361904Y-93050000D01*
X177323809Y-93164285D01*
X177285714Y-93202380D01*
X177019047Y-93202380D01*
X177019047Y-93050000D01*
X176828571Y-93545238D02*
X177361904Y-93545238D01*
X176904761Y-93545238D02*
X176866666Y-93583333D01*
X176828571Y-93659523D01*
X176828571Y-93773809D01*
X176866666Y-93850000D01*
X176942857Y-93888095D01*
X177361904Y-93888095D01*
X177361904Y-94611904D02*
X176561904Y-94611904D01*
X177323809Y-94611904D02*
X177361904Y-94535714D01*
X177361904Y-94383333D01*
X177323809Y-94307142D01*
X177285714Y-94269047D01*
X177209523Y-94230952D01*
X176980952Y-94230952D01*
X176904761Y-94269047D01*
X176866666Y-94307142D01*
X176828571Y-94383333D01*
X176828571Y-94535714D01*
X176866666Y-94611904D01*
D11*
X121377666Y-78746523D02*
X121377666Y-79996523D01*
X121853857Y-79996523D01*
X121972904Y-79937000D01*
X122032428Y-79877476D01*
X122091952Y-79758428D01*
X122091952Y-79579857D01*
X122032428Y-79460809D01*
X121972904Y-79401285D01*
X121853857Y-79341761D01*
X121377666Y-79341761D01*
X122568142Y-79103666D02*
X123163380Y-79103666D01*
X122449095Y-78746523D02*
X122865761Y-79996523D01*
X123282428Y-78746523D01*
X123580047Y-79996523D02*
X124353857Y-79996523D01*
X123937190Y-79520333D01*
X124115761Y-79520333D01*
X124234809Y-79460809D01*
X124294333Y-79401285D01*
X124353857Y-79282238D01*
X124353857Y-78984619D01*
X124294333Y-78865571D01*
X124234809Y-78806047D01*
X124115761Y-78746523D01*
X123758619Y-78746523D01*
X123639571Y-78806047D01*
X123580047Y-78865571D01*
X125663380Y-79996523D02*
X126080047Y-78746523D01*
X126496714Y-79996523D01*
X126913380Y-78746523D02*
X126913380Y-79579857D01*
X126913380Y-79996523D02*
X126853857Y-79937000D01*
X126913380Y-79877476D01*
X126972904Y-79937000D01*
X126913380Y-79996523D01*
X126913380Y-79877476D01*
X127508619Y-79579857D02*
X127508619Y-78746523D01*
X127508619Y-79460809D02*
X127568142Y-79520333D01*
X127687190Y-79579857D01*
X127865761Y-79579857D01*
X127984809Y-79520333D01*
X128044333Y-79401285D01*
X128044333Y-78746523D01*
X157535714Y-80321428D02*
X158035714Y-78821428D01*
X158535714Y-80321428D01*
X159035714Y-78821428D02*
X159035714Y-79821428D01*
X159035714Y-80321428D02*
X158964285Y-80250000D01*
X159035714Y-80178571D01*
X159107142Y-80250000D01*
X159035714Y-80321428D01*
X159035714Y-80178571D01*
X159750000Y-79821428D02*
X159750000Y-78821428D01*
X159750000Y-79678571D02*
X159821428Y-79750000D01*
X159964285Y-79821428D01*
X160178571Y-79821428D01*
X160321428Y-79750000D01*
X160392857Y-79607142D01*
X160392857Y-78821428D01*
X163035714Y-80250000D02*
X162892857Y-80321428D01*
X162678571Y-80321428D01*
X162464285Y-80250000D01*
X162321428Y-80107142D01*
X162250000Y-79964285D01*
X162178571Y-79678571D01*
X162178571Y-79464285D01*
X162250000Y-79178571D01*
X162321428Y-79035714D01*
X162464285Y-78892857D01*
X162678571Y-78821428D01*
X162821428Y-78821428D01*
X163035714Y-78892857D01*
X163107142Y-78964285D01*
X163107142Y-79464285D01*
X162821428Y-79464285D01*
X163750000Y-79821428D02*
X163750000Y-78821428D01*
X163750000Y-79678571D02*
X163821428Y-79750000D01*
X163964285Y-79821428D01*
X164178571Y-79821428D01*
X164321428Y-79750000D01*
X164392857Y-79607142D01*
X164392857Y-78821428D01*
X165750000Y-78821428D02*
X165750000Y-80321428D01*
X165750000Y-78892857D02*
X165607142Y-78821428D01*
X165321428Y-78821428D01*
X165178571Y-78892857D01*
X165107142Y-78964285D01*
X165035714Y-79107142D01*
X165035714Y-79535714D01*
X165107142Y-79678571D01*
X165178571Y-79750000D01*
X165321428Y-79821428D01*
X165607142Y-79821428D01*
X165750000Y-79750000D01*
D12*
X174226190Y-80811904D02*
X173730952Y-80811904D01*
X173997619Y-81116666D01*
X173883333Y-81116666D01*
X173807142Y-81154761D01*
X173769047Y-81192857D01*
X173730952Y-81269047D01*
X173730952Y-81459523D01*
X173769047Y-81535714D01*
X173807142Y-81573809D01*
X173883333Y-81611904D01*
X174111904Y-81611904D01*
X174188095Y-81573809D01*
X174226190Y-81535714D01*
X173502380Y-80811904D02*
X173235714Y-81611904D01*
X172969047Y-80811904D01*
X172778571Y-80811904D02*
X172283333Y-80811904D01*
X172550000Y-81116666D01*
X172435714Y-81116666D01*
X172359523Y-81154761D01*
X172321428Y-81192857D01*
X172283333Y-81269047D01*
X172283333Y-81459523D01*
X172321428Y-81535714D01*
X172359523Y-81573809D01*
X172435714Y-81611904D01*
X172664285Y-81611904D01*
X172740476Y-81573809D01*
X172778571Y-81535714D01*
X171330952Y-81611904D02*
X171330952Y-80811904D01*
X171026190Y-80811904D01*
X170950000Y-80850000D01*
X170911904Y-80888095D01*
X170873809Y-80964285D01*
X170873809Y-81078571D01*
X170911904Y-81154761D01*
X170950000Y-81192857D01*
X171026190Y-81230952D01*
X171330952Y-81230952D01*
X170264285Y-81192857D02*
X170150000Y-81230952D01*
X170111904Y-81269047D01*
X170073809Y-81345238D01*
X170073809Y-81459523D01*
X170111904Y-81535714D01*
X170150000Y-81573809D01*
X170226190Y-81611904D01*
X170530952Y-81611904D01*
X170530952Y-80811904D01*
X170264285Y-80811904D01*
X170188095Y-80850000D01*
X170150000Y-80888095D01*
X170111904Y-80964285D01*
X170111904Y-81040476D01*
X170150000Y-81116666D01*
X170188095Y-81154761D01*
X170264285Y-81192857D01*
X170530952Y-81192857D01*
X169616666Y-81154761D02*
X169692857Y-81116666D01*
X169730952Y-81078571D01*
X169769047Y-81002380D01*
X169769047Y-80964285D01*
X169730952Y-80888095D01*
X169692857Y-80850000D01*
X169616666Y-80811904D01*
X169464285Y-80811904D01*
X169388095Y-80850000D01*
X169350000Y-80888095D01*
X169311904Y-80964285D01*
X169311904Y-81002380D01*
X169350000Y-81078571D01*
X169388095Y-81116666D01*
X169464285Y-81154761D01*
X169616666Y-81154761D01*
X169692857Y-81192857D01*
X169730952Y-81230952D01*
X169769047Y-81307142D01*
X169769047Y-81459523D01*
X169730952Y-81535714D01*
X169692857Y-81573809D01*
X169616666Y-81611904D01*
X169464285Y-81611904D01*
X169388095Y-81573809D01*
X169350000Y-81535714D01*
X169311904Y-81459523D01*
X169311904Y-81307142D01*
X169350000Y-81230952D01*
X169388095Y-81192857D01*
X169464285Y-81154761D01*
D11*
X131537666Y-78746523D02*
X131537666Y-79996523D01*
X132013857Y-79996523D01*
X132132904Y-79937000D01*
X132192428Y-79877476D01*
X132251952Y-79758428D01*
X132251952Y-79579857D01*
X132192428Y-79460809D01*
X132132904Y-79401285D01*
X132013857Y-79341761D01*
X131537666Y-79341761D01*
X132728142Y-79103666D02*
X133323380Y-79103666D01*
X132609095Y-78746523D02*
X133025761Y-79996523D01*
X133442428Y-78746523D01*
X133799571Y-79877476D02*
X133859095Y-79937000D01*
X133978142Y-79996523D01*
X134275761Y-79996523D01*
X134394809Y-79937000D01*
X134454333Y-79877476D01*
X134513857Y-79758428D01*
X134513857Y-79639380D01*
X134454333Y-79460809D01*
X133740047Y-78746523D01*
X134513857Y-78746523D01*
X135823380Y-79996523D02*
X136240047Y-78746523D01*
X136656714Y-79996523D01*
X137073380Y-78746523D02*
X137073380Y-79579857D01*
X137073380Y-79996523D02*
X137013857Y-79937000D01*
X137073380Y-79877476D01*
X137132904Y-79937000D01*
X137073380Y-79996523D01*
X137073380Y-79877476D01*
X137668619Y-79579857D02*
X137668619Y-78746523D01*
X137668619Y-79460809D02*
X137728142Y-79520333D01*
X137847190Y-79579857D01*
X138025761Y-79579857D01*
X138144809Y-79520333D01*
X138204333Y-79401285D01*
X138204333Y-78746523D01*
D13*
X163517857Y-98839285D02*
X163517857Y-98089285D01*
X163232142Y-98089285D01*
X163160714Y-98125000D01*
X163125000Y-98160714D01*
X163089285Y-98232142D01*
X163089285Y-98339285D01*
X163125000Y-98410714D01*
X163160714Y-98446428D01*
X163232142Y-98482142D01*
X163517857Y-98482142D01*
X162803571Y-98625000D02*
X162446428Y-98625000D01*
X162875000Y-98839285D02*
X162625000Y-98089285D01*
X162375000Y-98839285D01*
X161732142Y-98839285D02*
X162160714Y-98839285D01*
X161946428Y-98839285D02*
X161946428Y-98089285D01*
X162017857Y-98196428D01*
X162089285Y-98267857D01*
X162160714Y-98303571D01*
X161482142Y-98089285D02*
X161017857Y-98089285D01*
X161267857Y-98375000D01*
X161160714Y-98375000D01*
X161089285Y-98410714D01*
X161053571Y-98446428D01*
X161017857Y-98517857D01*
X161017857Y-98696428D01*
X161053571Y-98767857D01*
X161089285Y-98803571D01*
X161160714Y-98839285D01*
X161375000Y-98839285D01*
X161446428Y-98803571D01*
X161482142Y-98767857D01*
X160125000Y-98839285D02*
X160125000Y-98089285D01*
X159839285Y-98089285D01*
X159767857Y-98125000D01*
X159732142Y-98160714D01*
X159696428Y-98232142D01*
X159696428Y-98339285D01*
X159732142Y-98410714D01*
X159767857Y-98446428D01*
X159839285Y-98482142D01*
X160125000Y-98482142D01*
X159410714Y-98625000D02*
X159053571Y-98625000D01*
X159482142Y-98839285D02*
X159232142Y-98089285D01*
X158982142Y-98839285D01*
X158339285Y-98839285D02*
X158767857Y-98839285D01*
X158553571Y-98839285D02*
X158553571Y-98089285D01*
X158625000Y-98196428D01*
X158696428Y-98267857D01*
X158767857Y-98303571D01*
X157696428Y-98339285D02*
X157696428Y-98839285D01*
X157875000Y-98053571D02*
X158053571Y-98589285D01*
X157589285Y-98589285D01*
X156303571Y-98839285D02*
X156553571Y-98482142D01*
X156732142Y-98839285D02*
X156732142Y-98089285D01*
X156446428Y-98089285D01*
X156375000Y-98125000D01*
X156339285Y-98160714D01*
X156303571Y-98232142D01*
X156303571Y-98339285D01*
X156339285Y-98410714D01*
X156375000Y-98446428D01*
X156446428Y-98482142D01*
X156732142Y-98482142D01*
X156017857Y-98803571D02*
X155910714Y-98839285D01*
X155732142Y-98839285D01*
X155660714Y-98803571D01*
X155625000Y-98767857D01*
X155589285Y-98696428D01*
X155589285Y-98625000D01*
X155625000Y-98553571D01*
X155660714Y-98517857D01*
X155732142Y-98482142D01*
X155875000Y-98446428D01*
X155946428Y-98410714D01*
X155982142Y-98375000D01*
X156017857Y-98303571D01*
X156017857Y-98232142D01*
X155982142Y-98160714D01*
X155946428Y-98125000D01*
X155875000Y-98089285D01*
X155696428Y-98089285D01*
X155589285Y-98125000D01*
X155375000Y-98089285D02*
X154946428Y-98089285D01*
X155160714Y-98839285D02*
X155160714Y-98089285D01*
D11*
X111217666Y-78746523D02*
X111217666Y-79996523D01*
X111693857Y-79996523D01*
X111812904Y-79937000D01*
X111872428Y-79877476D01*
X111931952Y-79758428D01*
X111931952Y-79579857D01*
X111872428Y-79460809D01*
X111812904Y-79401285D01*
X111693857Y-79341761D01*
X111217666Y-79341761D01*
X112408142Y-79103666D02*
X113003380Y-79103666D01*
X112289095Y-78746523D02*
X112705761Y-79996523D01*
X113122428Y-78746523D01*
X114074809Y-79579857D02*
X114074809Y-78746523D01*
X113777190Y-80056047D02*
X113479571Y-79163190D01*
X114253380Y-79163190D01*
X115503380Y-79996523D02*
X115920047Y-78746523D01*
X116336714Y-79996523D01*
X116753380Y-78746523D02*
X116753380Y-79579857D01*
X116753380Y-79996523D02*
X116693857Y-79937000D01*
X116753380Y-79877476D01*
X116812904Y-79937000D01*
X116753380Y-79996523D01*
X116753380Y-79877476D01*
X117348619Y-79579857D02*
X117348619Y-78746523D01*
X117348619Y-79460809D02*
X117408142Y-79520333D01*
X117527190Y-79579857D01*
X117705761Y-79579857D01*
X117824809Y-79520333D01*
X117884333Y-79401285D01*
X117884333Y-78746523D01*
D13*
X198875000Y-86053571D02*
X198839285Y-85982142D01*
X198839285Y-85875000D01*
X198875000Y-85767857D01*
X198946428Y-85696428D01*
X199017857Y-85660714D01*
X199160714Y-85625000D01*
X199267857Y-85625000D01*
X199410714Y-85660714D01*
X199482142Y-85696428D01*
X199553571Y-85767857D01*
X199589285Y-85875000D01*
X199589285Y-85946428D01*
X199553571Y-86053571D01*
X199517857Y-86089285D01*
X199267857Y-86089285D01*
X199267857Y-85946428D01*
X199089285Y-86410714D02*
X199589285Y-86410714D01*
X199160714Y-86410714D02*
X199125000Y-86446428D01*
X199089285Y-86517857D01*
X199089285Y-86625000D01*
X199125000Y-86696428D01*
X199196428Y-86732142D01*
X199589285Y-86732142D01*
X199589285Y-87410714D02*
X198839285Y-87410714D01*
X199553571Y-87410714D02*
X199589285Y-87339285D01*
X199589285Y-87196428D01*
X199553571Y-87125000D01*
X199517857Y-87089285D01*
X199446428Y-87053571D01*
X199232142Y-87053571D01*
X199160714Y-87089285D01*
X199125000Y-87125000D01*
X199089285Y-87196428D01*
X199089285Y-87339285D01*
X199125000Y-87410714D01*
X199589285Y-88339285D02*
X198839285Y-88339285D01*
X198839285Y-88625000D01*
X198875000Y-88696428D01*
X198910714Y-88732142D01*
X198982142Y-88767857D01*
X199089285Y-88767857D01*
X199160714Y-88732142D01*
X199196428Y-88696428D01*
X199232142Y-88625000D01*
X199232142Y-88339285D01*
X199196428Y-89339285D02*
X199232142Y-89446428D01*
X199267857Y-89482142D01*
X199339285Y-89517857D01*
X199446428Y-89517857D01*
X199517857Y-89482142D01*
X199553571Y-89446428D01*
X199589285Y-89375000D01*
X199589285Y-89089285D01*
X198839285Y-89089285D01*
X198839285Y-89339285D01*
X198875000Y-89410714D01*
X198910714Y-89446428D01*
X198982142Y-89482142D01*
X199053571Y-89482142D01*
X199125000Y-89446428D01*
X199160714Y-89410714D01*
X199196428Y-89339285D01*
X199196428Y-89089285D01*
X199589285Y-90232142D02*
X199589285Y-89803571D01*
X199589285Y-90017857D02*
X198839285Y-90017857D01*
X198946428Y-89946428D01*
X199017857Y-89875000D01*
X199053571Y-89803571D01*
X198839285Y-91017857D02*
X199589285Y-91267857D01*
X198839285Y-91517857D01*
X199303571Y-91767857D02*
X199303571Y-92339285D01*
X199589285Y-92053571D02*
X199017857Y-92053571D01*
M02*
