G04 #@! TF.GenerationSoftware,KiCad,Pcbnew,(5.1.5)-3*
G04 #@! TF.CreationDate,2021-01-18T14:34:05-06:00*
G04 #@! TF.ProjectId,USB-PT100,5553422d-5054-4313-9030-2e6b69636164,B*
G04 #@! TF.SameCoordinates,Original*
G04 #@! TF.FileFunction,Paste,Top*
G04 #@! TF.FilePolarity,Positive*
%FSLAX46Y46*%
G04 Gerber Fmt 4.6, Leading zero omitted, Abs format (unit mm)*
G04 Created by KiCad (PCBNEW (5.1.5)-3) date 2021-01-18 14:34:05*
%MOMM*%
%LPD*%
G04 APERTURE LIST*
%ADD10C,0.100000*%
%ADD11R,3.250000X3.250000*%
%ADD12R,0.350000X0.950000*%
%ADD13R,0.950000X0.350000*%
%ADD14R,0.650000X1.060000*%
%ADD15R,1.450000X0.450000*%
%ADD16R,0.900000X0.800000*%
%ADD17R,1.500000X1.900000*%
%ADD18R,0.400000X1.350000*%
G04 APERTURE END LIST*
D10*
G36*
X162142642Y-92801174D02*
G01*
X162166303Y-92804684D01*
X162189507Y-92810496D01*
X162212029Y-92818554D01*
X162233653Y-92828782D01*
X162254170Y-92841079D01*
X162273383Y-92855329D01*
X162291107Y-92871393D01*
X162307171Y-92889117D01*
X162321421Y-92908330D01*
X162333718Y-92928847D01*
X162343946Y-92950471D01*
X162352004Y-92972993D01*
X162357816Y-92996197D01*
X162361326Y-93019858D01*
X162362500Y-93043750D01*
X162362500Y-93956250D01*
X162361326Y-93980142D01*
X162357816Y-94003803D01*
X162352004Y-94027007D01*
X162343946Y-94049529D01*
X162333718Y-94071153D01*
X162321421Y-94091670D01*
X162307171Y-94110883D01*
X162291107Y-94128607D01*
X162273383Y-94144671D01*
X162254170Y-94158921D01*
X162233653Y-94171218D01*
X162212029Y-94181446D01*
X162189507Y-94189504D01*
X162166303Y-94195316D01*
X162142642Y-94198826D01*
X162118750Y-94200000D01*
X161631250Y-94200000D01*
X161607358Y-94198826D01*
X161583697Y-94195316D01*
X161560493Y-94189504D01*
X161537971Y-94181446D01*
X161516347Y-94171218D01*
X161495830Y-94158921D01*
X161476617Y-94144671D01*
X161458893Y-94128607D01*
X161442829Y-94110883D01*
X161428579Y-94091670D01*
X161416282Y-94071153D01*
X161406054Y-94049529D01*
X161397996Y-94027007D01*
X161392184Y-94003803D01*
X161388674Y-93980142D01*
X161387500Y-93956250D01*
X161387500Y-93043750D01*
X161388674Y-93019858D01*
X161392184Y-92996197D01*
X161397996Y-92972993D01*
X161406054Y-92950471D01*
X161416282Y-92928847D01*
X161428579Y-92908330D01*
X161442829Y-92889117D01*
X161458893Y-92871393D01*
X161476617Y-92855329D01*
X161495830Y-92841079D01*
X161516347Y-92828782D01*
X161537971Y-92818554D01*
X161560493Y-92810496D01*
X161583697Y-92804684D01*
X161607358Y-92801174D01*
X161631250Y-92800000D01*
X162118750Y-92800000D01*
X162142642Y-92801174D01*
G37*
G36*
X160267642Y-92801174D02*
G01*
X160291303Y-92804684D01*
X160314507Y-92810496D01*
X160337029Y-92818554D01*
X160358653Y-92828782D01*
X160379170Y-92841079D01*
X160398383Y-92855329D01*
X160416107Y-92871393D01*
X160432171Y-92889117D01*
X160446421Y-92908330D01*
X160458718Y-92928847D01*
X160468946Y-92950471D01*
X160477004Y-92972993D01*
X160482816Y-92996197D01*
X160486326Y-93019858D01*
X160487500Y-93043750D01*
X160487500Y-93956250D01*
X160486326Y-93980142D01*
X160482816Y-94003803D01*
X160477004Y-94027007D01*
X160468946Y-94049529D01*
X160458718Y-94071153D01*
X160446421Y-94091670D01*
X160432171Y-94110883D01*
X160416107Y-94128607D01*
X160398383Y-94144671D01*
X160379170Y-94158921D01*
X160358653Y-94171218D01*
X160337029Y-94181446D01*
X160314507Y-94189504D01*
X160291303Y-94195316D01*
X160267642Y-94198826D01*
X160243750Y-94200000D01*
X159756250Y-94200000D01*
X159732358Y-94198826D01*
X159708697Y-94195316D01*
X159685493Y-94189504D01*
X159662971Y-94181446D01*
X159641347Y-94171218D01*
X159620830Y-94158921D01*
X159601617Y-94144671D01*
X159583893Y-94128607D01*
X159567829Y-94110883D01*
X159553579Y-94091670D01*
X159541282Y-94071153D01*
X159531054Y-94049529D01*
X159522996Y-94027007D01*
X159517184Y-94003803D01*
X159513674Y-93980142D01*
X159512500Y-93956250D01*
X159512500Y-93043750D01*
X159513674Y-93019858D01*
X159517184Y-92996197D01*
X159522996Y-92972993D01*
X159531054Y-92950471D01*
X159541282Y-92928847D01*
X159553579Y-92908330D01*
X159567829Y-92889117D01*
X159583893Y-92871393D01*
X159601617Y-92855329D01*
X159620830Y-92841079D01*
X159641347Y-92828782D01*
X159662971Y-92818554D01*
X159685493Y-92810496D01*
X159708697Y-92804684D01*
X159732358Y-92801174D01*
X159756250Y-92800000D01*
X160243750Y-92800000D01*
X160267642Y-92801174D01*
G37*
G36*
X192392642Y-83301174D02*
G01*
X192416303Y-83304684D01*
X192439507Y-83310496D01*
X192462029Y-83318554D01*
X192483653Y-83328782D01*
X192504170Y-83341079D01*
X192523383Y-83355329D01*
X192541107Y-83371393D01*
X192557171Y-83389117D01*
X192571421Y-83408330D01*
X192583718Y-83428847D01*
X192593946Y-83450471D01*
X192602004Y-83472993D01*
X192607816Y-83496197D01*
X192611326Y-83519858D01*
X192612500Y-83543750D01*
X192612500Y-84456250D01*
X192611326Y-84480142D01*
X192607816Y-84503803D01*
X192602004Y-84527007D01*
X192593946Y-84549529D01*
X192583718Y-84571153D01*
X192571421Y-84591670D01*
X192557171Y-84610883D01*
X192541107Y-84628607D01*
X192523383Y-84644671D01*
X192504170Y-84658921D01*
X192483653Y-84671218D01*
X192462029Y-84681446D01*
X192439507Y-84689504D01*
X192416303Y-84695316D01*
X192392642Y-84698826D01*
X192368750Y-84700000D01*
X191881250Y-84700000D01*
X191857358Y-84698826D01*
X191833697Y-84695316D01*
X191810493Y-84689504D01*
X191787971Y-84681446D01*
X191766347Y-84671218D01*
X191745830Y-84658921D01*
X191726617Y-84644671D01*
X191708893Y-84628607D01*
X191692829Y-84610883D01*
X191678579Y-84591670D01*
X191666282Y-84571153D01*
X191656054Y-84549529D01*
X191647996Y-84527007D01*
X191642184Y-84503803D01*
X191638674Y-84480142D01*
X191637500Y-84456250D01*
X191637500Y-83543750D01*
X191638674Y-83519858D01*
X191642184Y-83496197D01*
X191647996Y-83472993D01*
X191656054Y-83450471D01*
X191666282Y-83428847D01*
X191678579Y-83408330D01*
X191692829Y-83389117D01*
X191708893Y-83371393D01*
X191726617Y-83355329D01*
X191745830Y-83341079D01*
X191766347Y-83328782D01*
X191787971Y-83318554D01*
X191810493Y-83310496D01*
X191833697Y-83304684D01*
X191857358Y-83301174D01*
X191881250Y-83300000D01*
X192368750Y-83300000D01*
X192392642Y-83301174D01*
G37*
G36*
X194267642Y-83301174D02*
G01*
X194291303Y-83304684D01*
X194314507Y-83310496D01*
X194337029Y-83318554D01*
X194358653Y-83328782D01*
X194379170Y-83341079D01*
X194398383Y-83355329D01*
X194416107Y-83371393D01*
X194432171Y-83389117D01*
X194446421Y-83408330D01*
X194458718Y-83428847D01*
X194468946Y-83450471D01*
X194477004Y-83472993D01*
X194482816Y-83496197D01*
X194486326Y-83519858D01*
X194487500Y-83543750D01*
X194487500Y-84456250D01*
X194486326Y-84480142D01*
X194482816Y-84503803D01*
X194477004Y-84527007D01*
X194468946Y-84549529D01*
X194458718Y-84571153D01*
X194446421Y-84591670D01*
X194432171Y-84610883D01*
X194416107Y-84628607D01*
X194398383Y-84644671D01*
X194379170Y-84658921D01*
X194358653Y-84671218D01*
X194337029Y-84681446D01*
X194314507Y-84689504D01*
X194291303Y-84695316D01*
X194267642Y-84698826D01*
X194243750Y-84700000D01*
X193756250Y-84700000D01*
X193732358Y-84698826D01*
X193708697Y-84695316D01*
X193685493Y-84689504D01*
X193662971Y-84681446D01*
X193641347Y-84671218D01*
X193620830Y-84658921D01*
X193601617Y-84644671D01*
X193583893Y-84628607D01*
X193567829Y-84610883D01*
X193553579Y-84591670D01*
X193541282Y-84571153D01*
X193531054Y-84549529D01*
X193522996Y-84527007D01*
X193517184Y-84503803D01*
X193513674Y-84480142D01*
X193512500Y-84456250D01*
X193512500Y-83543750D01*
X193513674Y-83519858D01*
X193517184Y-83496197D01*
X193522996Y-83472993D01*
X193531054Y-83450471D01*
X193541282Y-83428847D01*
X193553579Y-83408330D01*
X193567829Y-83389117D01*
X193583893Y-83371393D01*
X193601617Y-83355329D01*
X193620830Y-83341079D01*
X193641347Y-83328782D01*
X193662971Y-83318554D01*
X193685493Y-83310496D01*
X193708697Y-83304684D01*
X193732358Y-83301174D01*
X193756250Y-83300000D01*
X194243750Y-83300000D01*
X194267642Y-83301174D01*
G37*
G36*
X180892642Y-83301174D02*
G01*
X180916303Y-83304684D01*
X180939507Y-83310496D01*
X180962029Y-83318554D01*
X180983653Y-83328782D01*
X181004170Y-83341079D01*
X181023383Y-83355329D01*
X181041107Y-83371393D01*
X181057171Y-83389117D01*
X181071421Y-83408330D01*
X181083718Y-83428847D01*
X181093946Y-83450471D01*
X181102004Y-83472993D01*
X181107816Y-83496197D01*
X181111326Y-83519858D01*
X181112500Y-83543750D01*
X181112500Y-84456250D01*
X181111326Y-84480142D01*
X181107816Y-84503803D01*
X181102004Y-84527007D01*
X181093946Y-84549529D01*
X181083718Y-84571153D01*
X181071421Y-84591670D01*
X181057171Y-84610883D01*
X181041107Y-84628607D01*
X181023383Y-84644671D01*
X181004170Y-84658921D01*
X180983653Y-84671218D01*
X180962029Y-84681446D01*
X180939507Y-84689504D01*
X180916303Y-84695316D01*
X180892642Y-84698826D01*
X180868750Y-84700000D01*
X180381250Y-84700000D01*
X180357358Y-84698826D01*
X180333697Y-84695316D01*
X180310493Y-84689504D01*
X180287971Y-84681446D01*
X180266347Y-84671218D01*
X180245830Y-84658921D01*
X180226617Y-84644671D01*
X180208893Y-84628607D01*
X180192829Y-84610883D01*
X180178579Y-84591670D01*
X180166282Y-84571153D01*
X180156054Y-84549529D01*
X180147996Y-84527007D01*
X180142184Y-84503803D01*
X180138674Y-84480142D01*
X180137500Y-84456250D01*
X180137500Y-83543750D01*
X180138674Y-83519858D01*
X180142184Y-83496197D01*
X180147996Y-83472993D01*
X180156054Y-83450471D01*
X180166282Y-83428847D01*
X180178579Y-83408330D01*
X180192829Y-83389117D01*
X180208893Y-83371393D01*
X180226617Y-83355329D01*
X180245830Y-83341079D01*
X180266347Y-83328782D01*
X180287971Y-83318554D01*
X180310493Y-83310496D01*
X180333697Y-83304684D01*
X180357358Y-83301174D01*
X180381250Y-83300000D01*
X180868750Y-83300000D01*
X180892642Y-83301174D01*
G37*
G36*
X182767642Y-83301174D02*
G01*
X182791303Y-83304684D01*
X182814507Y-83310496D01*
X182837029Y-83318554D01*
X182858653Y-83328782D01*
X182879170Y-83341079D01*
X182898383Y-83355329D01*
X182916107Y-83371393D01*
X182932171Y-83389117D01*
X182946421Y-83408330D01*
X182958718Y-83428847D01*
X182968946Y-83450471D01*
X182977004Y-83472993D01*
X182982816Y-83496197D01*
X182986326Y-83519858D01*
X182987500Y-83543750D01*
X182987500Y-84456250D01*
X182986326Y-84480142D01*
X182982816Y-84503803D01*
X182977004Y-84527007D01*
X182968946Y-84549529D01*
X182958718Y-84571153D01*
X182946421Y-84591670D01*
X182932171Y-84610883D01*
X182916107Y-84628607D01*
X182898383Y-84644671D01*
X182879170Y-84658921D01*
X182858653Y-84671218D01*
X182837029Y-84681446D01*
X182814507Y-84689504D01*
X182791303Y-84695316D01*
X182767642Y-84698826D01*
X182743750Y-84700000D01*
X182256250Y-84700000D01*
X182232358Y-84698826D01*
X182208697Y-84695316D01*
X182185493Y-84689504D01*
X182162971Y-84681446D01*
X182141347Y-84671218D01*
X182120830Y-84658921D01*
X182101617Y-84644671D01*
X182083893Y-84628607D01*
X182067829Y-84610883D01*
X182053579Y-84591670D01*
X182041282Y-84571153D01*
X182031054Y-84549529D01*
X182022996Y-84527007D01*
X182017184Y-84503803D01*
X182013674Y-84480142D01*
X182012500Y-84456250D01*
X182012500Y-83543750D01*
X182013674Y-83519858D01*
X182017184Y-83496197D01*
X182022996Y-83472993D01*
X182031054Y-83450471D01*
X182041282Y-83428847D01*
X182053579Y-83408330D01*
X182067829Y-83389117D01*
X182083893Y-83371393D01*
X182101617Y-83355329D01*
X182120830Y-83341079D01*
X182141347Y-83328782D01*
X182162971Y-83318554D01*
X182185493Y-83310496D01*
X182208697Y-83304684D01*
X182232358Y-83301174D01*
X182256250Y-83300000D01*
X182743750Y-83300000D01*
X182767642Y-83301174D01*
G37*
G36*
X188980142Y-87076174D02*
G01*
X189003803Y-87079684D01*
X189027007Y-87085496D01*
X189049529Y-87093554D01*
X189071153Y-87103782D01*
X189091670Y-87116079D01*
X189110883Y-87130329D01*
X189128607Y-87146393D01*
X189144671Y-87164117D01*
X189158921Y-87183330D01*
X189171218Y-87203847D01*
X189181446Y-87225471D01*
X189189504Y-87247993D01*
X189195316Y-87271197D01*
X189198826Y-87294858D01*
X189200000Y-87318750D01*
X189200000Y-87806250D01*
X189198826Y-87830142D01*
X189195316Y-87853803D01*
X189189504Y-87877007D01*
X189181446Y-87899529D01*
X189171218Y-87921153D01*
X189158921Y-87941670D01*
X189144671Y-87960883D01*
X189128607Y-87978607D01*
X189110883Y-87994671D01*
X189091670Y-88008921D01*
X189071153Y-88021218D01*
X189049529Y-88031446D01*
X189027007Y-88039504D01*
X189003803Y-88045316D01*
X188980142Y-88048826D01*
X188956250Y-88050000D01*
X188043750Y-88050000D01*
X188019858Y-88048826D01*
X187996197Y-88045316D01*
X187972993Y-88039504D01*
X187950471Y-88031446D01*
X187928847Y-88021218D01*
X187908330Y-88008921D01*
X187889117Y-87994671D01*
X187871393Y-87978607D01*
X187855329Y-87960883D01*
X187841079Y-87941670D01*
X187828782Y-87921153D01*
X187818554Y-87899529D01*
X187810496Y-87877007D01*
X187804684Y-87853803D01*
X187801174Y-87830142D01*
X187800000Y-87806250D01*
X187800000Y-87318750D01*
X187801174Y-87294858D01*
X187804684Y-87271197D01*
X187810496Y-87247993D01*
X187818554Y-87225471D01*
X187828782Y-87203847D01*
X187841079Y-87183330D01*
X187855329Y-87164117D01*
X187871393Y-87146393D01*
X187889117Y-87130329D01*
X187908330Y-87116079D01*
X187928847Y-87103782D01*
X187950471Y-87093554D01*
X187972993Y-87085496D01*
X187996197Y-87079684D01*
X188019858Y-87076174D01*
X188043750Y-87075000D01*
X188956250Y-87075000D01*
X188980142Y-87076174D01*
G37*
G36*
X188980142Y-88951174D02*
G01*
X189003803Y-88954684D01*
X189027007Y-88960496D01*
X189049529Y-88968554D01*
X189071153Y-88978782D01*
X189091670Y-88991079D01*
X189110883Y-89005329D01*
X189128607Y-89021393D01*
X189144671Y-89039117D01*
X189158921Y-89058330D01*
X189171218Y-89078847D01*
X189181446Y-89100471D01*
X189189504Y-89122993D01*
X189195316Y-89146197D01*
X189198826Y-89169858D01*
X189200000Y-89193750D01*
X189200000Y-89681250D01*
X189198826Y-89705142D01*
X189195316Y-89728803D01*
X189189504Y-89752007D01*
X189181446Y-89774529D01*
X189171218Y-89796153D01*
X189158921Y-89816670D01*
X189144671Y-89835883D01*
X189128607Y-89853607D01*
X189110883Y-89869671D01*
X189091670Y-89883921D01*
X189071153Y-89896218D01*
X189049529Y-89906446D01*
X189027007Y-89914504D01*
X189003803Y-89920316D01*
X188980142Y-89923826D01*
X188956250Y-89925000D01*
X188043750Y-89925000D01*
X188019858Y-89923826D01*
X187996197Y-89920316D01*
X187972993Y-89914504D01*
X187950471Y-89906446D01*
X187928847Y-89896218D01*
X187908330Y-89883921D01*
X187889117Y-89869671D01*
X187871393Y-89853607D01*
X187855329Y-89835883D01*
X187841079Y-89816670D01*
X187828782Y-89796153D01*
X187818554Y-89774529D01*
X187810496Y-89752007D01*
X187804684Y-89728803D01*
X187801174Y-89705142D01*
X187800000Y-89681250D01*
X187800000Y-89193750D01*
X187801174Y-89169858D01*
X187804684Y-89146197D01*
X187810496Y-89122993D01*
X187818554Y-89100471D01*
X187828782Y-89078847D01*
X187841079Y-89058330D01*
X187855329Y-89039117D01*
X187871393Y-89021393D01*
X187889117Y-89005329D01*
X187908330Y-88991079D01*
X187928847Y-88978782D01*
X187950471Y-88968554D01*
X187972993Y-88960496D01*
X187996197Y-88954684D01*
X188019858Y-88951174D01*
X188043750Y-88950000D01*
X188956250Y-88950000D01*
X188980142Y-88951174D01*
G37*
G36*
X177980142Y-87076174D02*
G01*
X178003803Y-87079684D01*
X178027007Y-87085496D01*
X178049529Y-87093554D01*
X178071153Y-87103782D01*
X178091670Y-87116079D01*
X178110883Y-87130329D01*
X178128607Y-87146393D01*
X178144671Y-87164117D01*
X178158921Y-87183330D01*
X178171218Y-87203847D01*
X178181446Y-87225471D01*
X178189504Y-87247993D01*
X178195316Y-87271197D01*
X178198826Y-87294858D01*
X178200000Y-87318750D01*
X178200000Y-87806250D01*
X178198826Y-87830142D01*
X178195316Y-87853803D01*
X178189504Y-87877007D01*
X178181446Y-87899529D01*
X178171218Y-87921153D01*
X178158921Y-87941670D01*
X178144671Y-87960883D01*
X178128607Y-87978607D01*
X178110883Y-87994671D01*
X178091670Y-88008921D01*
X178071153Y-88021218D01*
X178049529Y-88031446D01*
X178027007Y-88039504D01*
X178003803Y-88045316D01*
X177980142Y-88048826D01*
X177956250Y-88050000D01*
X177043750Y-88050000D01*
X177019858Y-88048826D01*
X176996197Y-88045316D01*
X176972993Y-88039504D01*
X176950471Y-88031446D01*
X176928847Y-88021218D01*
X176908330Y-88008921D01*
X176889117Y-87994671D01*
X176871393Y-87978607D01*
X176855329Y-87960883D01*
X176841079Y-87941670D01*
X176828782Y-87921153D01*
X176818554Y-87899529D01*
X176810496Y-87877007D01*
X176804684Y-87853803D01*
X176801174Y-87830142D01*
X176800000Y-87806250D01*
X176800000Y-87318750D01*
X176801174Y-87294858D01*
X176804684Y-87271197D01*
X176810496Y-87247993D01*
X176818554Y-87225471D01*
X176828782Y-87203847D01*
X176841079Y-87183330D01*
X176855329Y-87164117D01*
X176871393Y-87146393D01*
X176889117Y-87130329D01*
X176908330Y-87116079D01*
X176928847Y-87103782D01*
X176950471Y-87093554D01*
X176972993Y-87085496D01*
X176996197Y-87079684D01*
X177019858Y-87076174D01*
X177043750Y-87075000D01*
X177956250Y-87075000D01*
X177980142Y-87076174D01*
G37*
G36*
X177980142Y-88951174D02*
G01*
X178003803Y-88954684D01*
X178027007Y-88960496D01*
X178049529Y-88968554D01*
X178071153Y-88978782D01*
X178091670Y-88991079D01*
X178110883Y-89005329D01*
X178128607Y-89021393D01*
X178144671Y-89039117D01*
X178158921Y-89058330D01*
X178171218Y-89078847D01*
X178181446Y-89100471D01*
X178189504Y-89122993D01*
X178195316Y-89146197D01*
X178198826Y-89169858D01*
X178200000Y-89193750D01*
X178200000Y-89681250D01*
X178198826Y-89705142D01*
X178195316Y-89728803D01*
X178189504Y-89752007D01*
X178181446Y-89774529D01*
X178171218Y-89796153D01*
X178158921Y-89816670D01*
X178144671Y-89835883D01*
X178128607Y-89853607D01*
X178110883Y-89869671D01*
X178091670Y-89883921D01*
X178071153Y-89896218D01*
X178049529Y-89906446D01*
X178027007Y-89914504D01*
X178003803Y-89920316D01*
X177980142Y-89923826D01*
X177956250Y-89925000D01*
X177043750Y-89925000D01*
X177019858Y-89923826D01*
X176996197Y-89920316D01*
X176972993Y-89914504D01*
X176950471Y-89906446D01*
X176928847Y-89896218D01*
X176908330Y-89883921D01*
X176889117Y-89869671D01*
X176871393Y-89853607D01*
X176855329Y-89835883D01*
X176841079Y-89816670D01*
X176828782Y-89796153D01*
X176818554Y-89774529D01*
X176810496Y-89752007D01*
X176804684Y-89728803D01*
X176801174Y-89705142D01*
X176800000Y-89681250D01*
X176800000Y-89193750D01*
X176801174Y-89169858D01*
X176804684Y-89146197D01*
X176810496Y-89122993D01*
X176818554Y-89100471D01*
X176828782Y-89078847D01*
X176841079Y-89058330D01*
X176855329Y-89039117D01*
X176871393Y-89021393D01*
X176889117Y-89005329D01*
X176908330Y-88991079D01*
X176928847Y-88978782D01*
X176950471Y-88968554D01*
X176972993Y-88960496D01*
X176996197Y-88954684D01*
X177019858Y-88951174D01*
X177043750Y-88950000D01*
X177956250Y-88950000D01*
X177980142Y-88951174D01*
G37*
G36*
X192080142Y-92011174D02*
G01*
X192103803Y-92014684D01*
X192127007Y-92020496D01*
X192149529Y-92028554D01*
X192171153Y-92038782D01*
X192191670Y-92051079D01*
X192210883Y-92065329D01*
X192228607Y-92081393D01*
X192244671Y-92099117D01*
X192258921Y-92118330D01*
X192271218Y-92138847D01*
X192281446Y-92160471D01*
X192289504Y-92182993D01*
X192295316Y-92206197D01*
X192298826Y-92229858D01*
X192300000Y-92253750D01*
X192300000Y-93166250D01*
X192298826Y-93190142D01*
X192295316Y-93213803D01*
X192289504Y-93237007D01*
X192281446Y-93259529D01*
X192271218Y-93281153D01*
X192258921Y-93301670D01*
X192244671Y-93320883D01*
X192228607Y-93338607D01*
X192210883Y-93354671D01*
X192191670Y-93368921D01*
X192171153Y-93381218D01*
X192149529Y-93391446D01*
X192127007Y-93399504D01*
X192103803Y-93405316D01*
X192080142Y-93408826D01*
X192056250Y-93410000D01*
X191568750Y-93410000D01*
X191544858Y-93408826D01*
X191521197Y-93405316D01*
X191497993Y-93399504D01*
X191475471Y-93391446D01*
X191453847Y-93381218D01*
X191433330Y-93368921D01*
X191414117Y-93354671D01*
X191396393Y-93338607D01*
X191380329Y-93320883D01*
X191366079Y-93301670D01*
X191353782Y-93281153D01*
X191343554Y-93259529D01*
X191335496Y-93237007D01*
X191329684Y-93213803D01*
X191326174Y-93190142D01*
X191325000Y-93166250D01*
X191325000Y-92253750D01*
X191326174Y-92229858D01*
X191329684Y-92206197D01*
X191335496Y-92182993D01*
X191343554Y-92160471D01*
X191353782Y-92138847D01*
X191366079Y-92118330D01*
X191380329Y-92099117D01*
X191396393Y-92081393D01*
X191414117Y-92065329D01*
X191433330Y-92051079D01*
X191453847Y-92038782D01*
X191475471Y-92028554D01*
X191497993Y-92020496D01*
X191521197Y-92014684D01*
X191544858Y-92011174D01*
X191568750Y-92010000D01*
X192056250Y-92010000D01*
X192080142Y-92011174D01*
G37*
G36*
X193955142Y-92011174D02*
G01*
X193978803Y-92014684D01*
X194002007Y-92020496D01*
X194024529Y-92028554D01*
X194046153Y-92038782D01*
X194066670Y-92051079D01*
X194085883Y-92065329D01*
X194103607Y-92081393D01*
X194119671Y-92099117D01*
X194133921Y-92118330D01*
X194146218Y-92138847D01*
X194156446Y-92160471D01*
X194164504Y-92182993D01*
X194170316Y-92206197D01*
X194173826Y-92229858D01*
X194175000Y-92253750D01*
X194175000Y-93166250D01*
X194173826Y-93190142D01*
X194170316Y-93213803D01*
X194164504Y-93237007D01*
X194156446Y-93259529D01*
X194146218Y-93281153D01*
X194133921Y-93301670D01*
X194119671Y-93320883D01*
X194103607Y-93338607D01*
X194085883Y-93354671D01*
X194066670Y-93368921D01*
X194046153Y-93381218D01*
X194024529Y-93391446D01*
X194002007Y-93399504D01*
X193978803Y-93405316D01*
X193955142Y-93408826D01*
X193931250Y-93410000D01*
X193443750Y-93410000D01*
X193419858Y-93408826D01*
X193396197Y-93405316D01*
X193372993Y-93399504D01*
X193350471Y-93391446D01*
X193328847Y-93381218D01*
X193308330Y-93368921D01*
X193289117Y-93354671D01*
X193271393Y-93338607D01*
X193255329Y-93320883D01*
X193241079Y-93301670D01*
X193228782Y-93281153D01*
X193218554Y-93259529D01*
X193210496Y-93237007D01*
X193204684Y-93213803D01*
X193201174Y-93190142D01*
X193200000Y-93166250D01*
X193200000Y-92253750D01*
X193201174Y-92229858D01*
X193204684Y-92206197D01*
X193210496Y-92182993D01*
X193218554Y-92160471D01*
X193228782Y-92138847D01*
X193241079Y-92118330D01*
X193255329Y-92099117D01*
X193271393Y-92081393D01*
X193289117Y-92065329D01*
X193308330Y-92051079D01*
X193328847Y-92038782D01*
X193350471Y-92028554D01*
X193372993Y-92020496D01*
X193396197Y-92014684D01*
X193419858Y-92011174D01*
X193443750Y-92010000D01*
X193931250Y-92010000D01*
X193955142Y-92011174D01*
G37*
G36*
X182955142Y-92011174D02*
G01*
X182978803Y-92014684D01*
X183002007Y-92020496D01*
X183024529Y-92028554D01*
X183046153Y-92038782D01*
X183066670Y-92051079D01*
X183085883Y-92065329D01*
X183103607Y-92081393D01*
X183119671Y-92099117D01*
X183133921Y-92118330D01*
X183146218Y-92138847D01*
X183156446Y-92160471D01*
X183164504Y-92182993D01*
X183170316Y-92206197D01*
X183173826Y-92229858D01*
X183175000Y-92253750D01*
X183175000Y-93166250D01*
X183173826Y-93190142D01*
X183170316Y-93213803D01*
X183164504Y-93237007D01*
X183156446Y-93259529D01*
X183146218Y-93281153D01*
X183133921Y-93301670D01*
X183119671Y-93320883D01*
X183103607Y-93338607D01*
X183085883Y-93354671D01*
X183066670Y-93368921D01*
X183046153Y-93381218D01*
X183024529Y-93391446D01*
X183002007Y-93399504D01*
X182978803Y-93405316D01*
X182955142Y-93408826D01*
X182931250Y-93410000D01*
X182443750Y-93410000D01*
X182419858Y-93408826D01*
X182396197Y-93405316D01*
X182372993Y-93399504D01*
X182350471Y-93391446D01*
X182328847Y-93381218D01*
X182308330Y-93368921D01*
X182289117Y-93354671D01*
X182271393Y-93338607D01*
X182255329Y-93320883D01*
X182241079Y-93301670D01*
X182228782Y-93281153D01*
X182218554Y-93259529D01*
X182210496Y-93237007D01*
X182204684Y-93213803D01*
X182201174Y-93190142D01*
X182200000Y-93166250D01*
X182200000Y-92253750D01*
X182201174Y-92229858D01*
X182204684Y-92206197D01*
X182210496Y-92182993D01*
X182218554Y-92160471D01*
X182228782Y-92138847D01*
X182241079Y-92118330D01*
X182255329Y-92099117D01*
X182271393Y-92081393D01*
X182289117Y-92065329D01*
X182308330Y-92051079D01*
X182328847Y-92038782D01*
X182350471Y-92028554D01*
X182372993Y-92020496D01*
X182396197Y-92014684D01*
X182419858Y-92011174D01*
X182443750Y-92010000D01*
X182931250Y-92010000D01*
X182955142Y-92011174D01*
G37*
G36*
X181080142Y-92011174D02*
G01*
X181103803Y-92014684D01*
X181127007Y-92020496D01*
X181149529Y-92028554D01*
X181171153Y-92038782D01*
X181191670Y-92051079D01*
X181210883Y-92065329D01*
X181228607Y-92081393D01*
X181244671Y-92099117D01*
X181258921Y-92118330D01*
X181271218Y-92138847D01*
X181281446Y-92160471D01*
X181289504Y-92182993D01*
X181295316Y-92206197D01*
X181298826Y-92229858D01*
X181300000Y-92253750D01*
X181300000Y-93166250D01*
X181298826Y-93190142D01*
X181295316Y-93213803D01*
X181289504Y-93237007D01*
X181281446Y-93259529D01*
X181271218Y-93281153D01*
X181258921Y-93301670D01*
X181244671Y-93320883D01*
X181228607Y-93338607D01*
X181210883Y-93354671D01*
X181191670Y-93368921D01*
X181171153Y-93381218D01*
X181149529Y-93391446D01*
X181127007Y-93399504D01*
X181103803Y-93405316D01*
X181080142Y-93408826D01*
X181056250Y-93410000D01*
X180568750Y-93410000D01*
X180544858Y-93408826D01*
X180521197Y-93405316D01*
X180497993Y-93399504D01*
X180475471Y-93391446D01*
X180453847Y-93381218D01*
X180433330Y-93368921D01*
X180414117Y-93354671D01*
X180396393Y-93338607D01*
X180380329Y-93320883D01*
X180366079Y-93301670D01*
X180353782Y-93281153D01*
X180343554Y-93259529D01*
X180335496Y-93237007D01*
X180329684Y-93213803D01*
X180326174Y-93190142D01*
X180325000Y-93166250D01*
X180325000Y-92253750D01*
X180326174Y-92229858D01*
X180329684Y-92206197D01*
X180335496Y-92182993D01*
X180343554Y-92160471D01*
X180353782Y-92138847D01*
X180366079Y-92118330D01*
X180380329Y-92099117D01*
X180396393Y-92081393D01*
X180414117Y-92065329D01*
X180433330Y-92051079D01*
X180453847Y-92038782D01*
X180475471Y-92028554D01*
X180497993Y-92020496D01*
X180521197Y-92014684D01*
X180544858Y-92011174D01*
X180568750Y-92010000D01*
X181056250Y-92010000D01*
X181080142Y-92011174D01*
G37*
D11*
X181750000Y-88500000D03*
D12*
X180450000Y-86160000D03*
X181100000Y-86160000D03*
X181750000Y-86160000D03*
X182400000Y-86160000D03*
X183050000Y-86160000D03*
D13*
X184090000Y-87200000D03*
X184090000Y-87850000D03*
X184090000Y-88500000D03*
X184090000Y-89150000D03*
X184090000Y-89800000D03*
D12*
X183050000Y-90840000D03*
X182400000Y-90840000D03*
X181750000Y-90840000D03*
X181100000Y-90840000D03*
D13*
X179410000Y-89800000D03*
X179410000Y-89150000D03*
X179410000Y-88500000D03*
X179410000Y-87850000D03*
X179410000Y-87200000D03*
D12*
X180450000Y-90840000D03*
D11*
X192750000Y-88500000D03*
D12*
X191450000Y-86160000D03*
X192100000Y-86160000D03*
X192750000Y-86160000D03*
X193400000Y-86160000D03*
X194050000Y-86160000D03*
D13*
X195090000Y-87200000D03*
X195090000Y-87850000D03*
X195090000Y-88500000D03*
X195090000Y-89150000D03*
X195090000Y-89800000D03*
D12*
X194050000Y-90840000D03*
X193400000Y-90840000D03*
X192750000Y-90840000D03*
X192100000Y-90840000D03*
D13*
X190410000Y-89800000D03*
X190410000Y-89150000D03*
X190410000Y-88500000D03*
X190410000Y-87850000D03*
X190410000Y-87200000D03*
D12*
X191450000Y-90840000D03*
D14*
X190459000Y-81339000D03*
X188559000Y-81339000D03*
X188559000Y-79139000D03*
X189509000Y-79139000D03*
X190459000Y-79139000D03*
D15*
X174700000Y-82075000D03*
X174700000Y-82725000D03*
X174700000Y-83375000D03*
X174700000Y-84025000D03*
X174700000Y-84675000D03*
X174700000Y-85325000D03*
X174700000Y-85975000D03*
X174700000Y-86625000D03*
X174700000Y-87275000D03*
X174700000Y-87925000D03*
X168800000Y-87925000D03*
X168800000Y-87275000D03*
X168800000Y-86625000D03*
X168800000Y-85975000D03*
X168800000Y-85325000D03*
X168800000Y-84675000D03*
X168800000Y-84025000D03*
X168800000Y-83375000D03*
X168800000Y-82725000D03*
X168800000Y-82075000D03*
D10*
G36*
X105410142Y-83706174D02*
G01*
X105433803Y-83709684D01*
X105457007Y-83715496D01*
X105479529Y-83723554D01*
X105501153Y-83733782D01*
X105521670Y-83746079D01*
X105540883Y-83760329D01*
X105558607Y-83776393D01*
X105574671Y-83794117D01*
X105588921Y-83813330D01*
X105601218Y-83833847D01*
X105611446Y-83855471D01*
X105619504Y-83877993D01*
X105625316Y-83901197D01*
X105628826Y-83924858D01*
X105630000Y-83948750D01*
X105630000Y-84861250D01*
X105628826Y-84885142D01*
X105625316Y-84908803D01*
X105619504Y-84932007D01*
X105611446Y-84954529D01*
X105601218Y-84976153D01*
X105588921Y-84996670D01*
X105574671Y-85015883D01*
X105558607Y-85033607D01*
X105540883Y-85049671D01*
X105521670Y-85063921D01*
X105501153Y-85076218D01*
X105479529Y-85086446D01*
X105457007Y-85094504D01*
X105433803Y-85100316D01*
X105410142Y-85103826D01*
X105386250Y-85105000D01*
X104898750Y-85105000D01*
X104874858Y-85103826D01*
X104851197Y-85100316D01*
X104827993Y-85094504D01*
X104805471Y-85086446D01*
X104783847Y-85076218D01*
X104763330Y-85063921D01*
X104744117Y-85049671D01*
X104726393Y-85033607D01*
X104710329Y-85015883D01*
X104696079Y-84996670D01*
X104683782Y-84976153D01*
X104673554Y-84954529D01*
X104665496Y-84932007D01*
X104659684Y-84908803D01*
X104656174Y-84885142D01*
X104655000Y-84861250D01*
X104655000Y-83948750D01*
X104656174Y-83924858D01*
X104659684Y-83901197D01*
X104665496Y-83877993D01*
X104673554Y-83855471D01*
X104683782Y-83833847D01*
X104696079Y-83813330D01*
X104710329Y-83794117D01*
X104726393Y-83776393D01*
X104744117Y-83760329D01*
X104763330Y-83746079D01*
X104783847Y-83733782D01*
X104805471Y-83723554D01*
X104827993Y-83715496D01*
X104851197Y-83709684D01*
X104874858Y-83706174D01*
X104898750Y-83705000D01*
X105386250Y-83705000D01*
X105410142Y-83706174D01*
G37*
G36*
X103535142Y-83706174D02*
G01*
X103558803Y-83709684D01*
X103582007Y-83715496D01*
X103604529Y-83723554D01*
X103626153Y-83733782D01*
X103646670Y-83746079D01*
X103665883Y-83760329D01*
X103683607Y-83776393D01*
X103699671Y-83794117D01*
X103713921Y-83813330D01*
X103726218Y-83833847D01*
X103736446Y-83855471D01*
X103744504Y-83877993D01*
X103750316Y-83901197D01*
X103753826Y-83924858D01*
X103755000Y-83948750D01*
X103755000Y-84861250D01*
X103753826Y-84885142D01*
X103750316Y-84908803D01*
X103744504Y-84932007D01*
X103736446Y-84954529D01*
X103726218Y-84976153D01*
X103713921Y-84996670D01*
X103699671Y-85015883D01*
X103683607Y-85033607D01*
X103665883Y-85049671D01*
X103646670Y-85063921D01*
X103626153Y-85076218D01*
X103604529Y-85086446D01*
X103582007Y-85094504D01*
X103558803Y-85100316D01*
X103535142Y-85103826D01*
X103511250Y-85105000D01*
X103023750Y-85105000D01*
X102999858Y-85103826D01*
X102976197Y-85100316D01*
X102952993Y-85094504D01*
X102930471Y-85086446D01*
X102908847Y-85076218D01*
X102888330Y-85063921D01*
X102869117Y-85049671D01*
X102851393Y-85033607D01*
X102835329Y-85015883D01*
X102821079Y-84996670D01*
X102808782Y-84976153D01*
X102798554Y-84954529D01*
X102790496Y-84932007D01*
X102784684Y-84908803D01*
X102781174Y-84885142D01*
X102780000Y-84861250D01*
X102780000Y-83948750D01*
X102781174Y-83924858D01*
X102784684Y-83901197D01*
X102790496Y-83877993D01*
X102798554Y-83855471D01*
X102808782Y-83833847D01*
X102821079Y-83813330D01*
X102835329Y-83794117D01*
X102851393Y-83776393D01*
X102869117Y-83760329D01*
X102888330Y-83746079D01*
X102908847Y-83733782D01*
X102930471Y-83723554D01*
X102952993Y-83715496D01*
X102976197Y-83709684D01*
X102999858Y-83706174D01*
X103023750Y-83705000D01*
X103511250Y-83705000D01*
X103535142Y-83706174D01*
G37*
G36*
X185196142Y-81801174D02*
G01*
X185219803Y-81804684D01*
X185243007Y-81810496D01*
X185265529Y-81818554D01*
X185287153Y-81828782D01*
X185307670Y-81841079D01*
X185326883Y-81855329D01*
X185344607Y-81871393D01*
X185360671Y-81889117D01*
X185374921Y-81908330D01*
X185387218Y-81928847D01*
X185397446Y-81950471D01*
X185405504Y-81972993D01*
X185411316Y-81996197D01*
X185414826Y-82019858D01*
X185416000Y-82043750D01*
X185416000Y-82956250D01*
X185414826Y-82980142D01*
X185411316Y-83003803D01*
X185405504Y-83027007D01*
X185397446Y-83049529D01*
X185387218Y-83071153D01*
X185374921Y-83091670D01*
X185360671Y-83110883D01*
X185344607Y-83128607D01*
X185326883Y-83144671D01*
X185307670Y-83158921D01*
X185287153Y-83171218D01*
X185265529Y-83181446D01*
X185243007Y-83189504D01*
X185219803Y-83195316D01*
X185196142Y-83198826D01*
X185172250Y-83200000D01*
X184684750Y-83200000D01*
X184660858Y-83198826D01*
X184637197Y-83195316D01*
X184613993Y-83189504D01*
X184591471Y-83181446D01*
X184569847Y-83171218D01*
X184549330Y-83158921D01*
X184530117Y-83144671D01*
X184512393Y-83128607D01*
X184496329Y-83110883D01*
X184482079Y-83091670D01*
X184469782Y-83071153D01*
X184459554Y-83049529D01*
X184451496Y-83027007D01*
X184445684Y-83003803D01*
X184442174Y-82980142D01*
X184441000Y-82956250D01*
X184441000Y-82043750D01*
X184442174Y-82019858D01*
X184445684Y-81996197D01*
X184451496Y-81972993D01*
X184459554Y-81950471D01*
X184469782Y-81928847D01*
X184482079Y-81908330D01*
X184496329Y-81889117D01*
X184512393Y-81871393D01*
X184530117Y-81855329D01*
X184549330Y-81841079D01*
X184569847Y-81828782D01*
X184591471Y-81818554D01*
X184613993Y-81810496D01*
X184637197Y-81804684D01*
X184660858Y-81801174D01*
X184684750Y-81800000D01*
X185172250Y-81800000D01*
X185196142Y-81801174D01*
G37*
G36*
X187071142Y-81801174D02*
G01*
X187094803Y-81804684D01*
X187118007Y-81810496D01*
X187140529Y-81818554D01*
X187162153Y-81828782D01*
X187182670Y-81841079D01*
X187201883Y-81855329D01*
X187219607Y-81871393D01*
X187235671Y-81889117D01*
X187249921Y-81908330D01*
X187262218Y-81928847D01*
X187272446Y-81950471D01*
X187280504Y-81972993D01*
X187286316Y-81996197D01*
X187289826Y-82019858D01*
X187291000Y-82043750D01*
X187291000Y-82956250D01*
X187289826Y-82980142D01*
X187286316Y-83003803D01*
X187280504Y-83027007D01*
X187272446Y-83049529D01*
X187262218Y-83071153D01*
X187249921Y-83091670D01*
X187235671Y-83110883D01*
X187219607Y-83128607D01*
X187201883Y-83144671D01*
X187182670Y-83158921D01*
X187162153Y-83171218D01*
X187140529Y-83181446D01*
X187118007Y-83189504D01*
X187094803Y-83195316D01*
X187071142Y-83198826D01*
X187047250Y-83200000D01*
X186559750Y-83200000D01*
X186535858Y-83198826D01*
X186512197Y-83195316D01*
X186488993Y-83189504D01*
X186466471Y-83181446D01*
X186444847Y-83171218D01*
X186424330Y-83158921D01*
X186405117Y-83144671D01*
X186387393Y-83128607D01*
X186371329Y-83110883D01*
X186357079Y-83091670D01*
X186344782Y-83071153D01*
X186334554Y-83049529D01*
X186326496Y-83027007D01*
X186320684Y-83003803D01*
X186317174Y-82980142D01*
X186316000Y-82956250D01*
X186316000Y-82043750D01*
X186317174Y-82019858D01*
X186320684Y-81996197D01*
X186326496Y-81972993D01*
X186334554Y-81950471D01*
X186344782Y-81928847D01*
X186357079Y-81908330D01*
X186371329Y-81889117D01*
X186387393Y-81871393D01*
X186405117Y-81855329D01*
X186424330Y-81841079D01*
X186444847Y-81828782D01*
X186466471Y-81818554D01*
X186488993Y-81810496D01*
X186512197Y-81804684D01*
X186535858Y-81801174D01*
X186559750Y-81800000D01*
X187047250Y-81800000D01*
X187071142Y-81801174D01*
G37*
G36*
X109257142Y-92125174D02*
G01*
X109280803Y-92128684D01*
X109304007Y-92134496D01*
X109326529Y-92142554D01*
X109348153Y-92152782D01*
X109368670Y-92165079D01*
X109387883Y-92179329D01*
X109405607Y-92195393D01*
X109421671Y-92213117D01*
X109435921Y-92232330D01*
X109448218Y-92252847D01*
X109458446Y-92274471D01*
X109466504Y-92296993D01*
X109472316Y-92320197D01*
X109475826Y-92343858D01*
X109477000Y-92367750D01*
X109477000Y-92855250D01*
X109475826Y-92879142D01*
X109472316Y-92902803D01*
X109466504Y-92926007D01*
X109458446Y-92948529D01*
X109448218Y-92970153D01*
X109435921Y-92990670D01*
X109421671Y-93009883D01*
X109405607Y-93027607D01*
X109387883Y-93043671D01*
X109368670Y-93057921D01*
X109348153Y-93070218D01*
X109326529Y-93080446D01*
X109304007Y-93088504D01*
X109280803Y-93094316D01*
X109257142Y-93097826D01*
X109233250Y-93099000D01*
X108320750Y-93099000D01*
X108296858Y-93097826D01*
X108273197Y-93094316D01*
X108249993Y-93088504D01*
X108227471Y-93080446D01*
X108205847Y-93070218D01*
X108185330Y-93057921D01*
X108166117Y-93043671D01*
X108148393Y-93027607D01*
X108132329Y-93009883D01*
X108118079Y-92990670D01*
X108105782Y-92970153D01*
X108095554Y-92948529D01*
X108087496Y-92926007D01*
X108081684Y-92902803D01*
X108078174Y-92879142D01*
X108077000Y-92855250D01*
X108077000Y-92367750D01*
X108078174Y-92343858D01*
X108081684Y-92320197D01*
X108087496Y-92296993D01*
X108095554Y-92274471D01*
X108105782Y-92252847D01*
X108118079Y-92232330D01*
X108132329Y-92213117D01*
X108148393Y-92195393D01*
X108166117Y-92179329D01*
X108185330Y-92165079D01*
X108205847Y-92152782D01*
X108227471Y-92142554D01*
X108249993Y-92134496D01*
X108273197Y-92128684D01*
X108296858Y-92125174D01*
X108320750Y-92124000D01*
X109233250Y-92124000D01*
X109257142Y-92125174D01*
G37*
G36*
X109257142Y-94000174D02*
G01*
X109280803Y-94003684D01*
X109304007Y-94009496D01*
X109326529Y-94017554D01*
X109348153Y-94027782D01*
X109368670Y-94040079D01*
X109387883Y-94054329D01*
X109405607Y-94070393D01*
X109421671Y-94088117D01*
X109435921Y-94107330D01*
X109448218Y-94127847D01*
X109458446Y-94149471D01*
X109466504Y-94171993D01*
X109472316Y-94195197D01*
X109475826Y-94218858D01*
X109477000Y-94242750D01*
X109477000Y-94730250D01*
X109475826Y-94754142D01*
X109472316Y-94777803D01*
X109466504Y-94801007D01*
X109458446Y-94823529D01*
X109448218Y-94845153D01*
X109435921Y-94865670D01*
X109421671Y-94884883D01*
X109405607Y-94902607D01*
X109387883Y-94918671D01*
X109368670Y-94932921D01*
X109348153Y-94945218D01*
X109326529Y-94955446D01*
X109304007Y-94963504D01*
X109280803Y-94969316D01*
X109257142Y-94972826D01*
X109233250Y-94974000D01*
X108320750Y-94974000D01*
X108296858Y-94972826D01*
X108273197Y-94969316D01*
X108249993Y-94963504D01*
X108227471Y-94955446D01*
X108205847Y-94945218D01*
X108185330Y-94932921D01*
X108166117Y-94918671D01*
X108148393Y-94902607D01*
X108132329Y-94884883D01*
X108118079Y-94865670D01*
X108105782Y-94845153D01*
X108095554Y-94823529D01*
X108087496Y-94801007D01*
X108081684Y-94777803D01*
X108078174Y-94754142D01*
X108077000Y-94730250D01*
X108077000Y-94242750D01*
X108078174Y-94218858D01*
X108081684Y-94195197D01*
X108087496Y-94171993D01*
X108095554Y-94149471D01*
X108105782Y-94127847D01*
X108118079Y-94107330D01*
X108132329Y-94088117D01*
X108148393Y-94070393D01*
X108166117Y-94054329D01*
X108185330Y-94040079D01*
X108205847Y-94027782D01*
X108227471Y-94017554D01*
X108249993Y-94009496D01*
X108273197Y-94003684D01*
X108296858Y-94000174D01*
X108320750Y-93999000D01*
X109233250Y-93999000D01*
X109257142Y-94000174D01*
G37*
G36*
X119417142Y-92125174D02*
G01*
X119440803Y-92128684D01*
X119464007Y-92134496D01*
X119486529Y-92142554D01*
X119508153Y-92152782D01*
X119528670Y-92165079D01*
X119547883Y-92179329D01*
X119565607Y-92195393D01*
X119581671Y-92213117D01*
X119595921Y-92232330D01*
X119608218Y-92252847D01*
X119618446Y-92274471D01*
X119626504Y-92296993D01*
X119632316Y-92320197D01*
X119635826Y-92343858D01*
X119637000Y-92367750D01*
X119637000Y-92855250D01*
X119635826Y-92879142D01*
X119632316Y-92902803D01*
X119626504Y-92926007D01*
X119618446Y-92948529D01*
X119608218Y-92970153D01*
X119595921Y-92990670D01*
X119581671Y-93009883D01*
X119565607Y-93027607D01*
X119547883Y-93043671D01*
X119528670Y-93057921D01*
X119508153Y-93070218D01*
X119486529Y-93080446D01*
X119464007Y-93088504D01*
X119440803Y-93094316D01*
X119417142Y-93097826D01*
X119393250Y-93099000D01*
X118480750Y-93099000D01*
X118456858Y-93097826D01*
X118433197Y-93094316D01*
X118409993Y-93088504D01*
X118387471Y-93080446D01*
X118365847Y-93070218D01*
X118345330Y-93057921D01*
X118326117Y-93043671D01*
X118308393Y-93027607D01*
X118292329Y-93009883D01*
X118278079Y-92990670D01*
X118265782Y-92970153D01*
X118255554Y-92948529D01*
X118247496Y-92926007D01*
X118241684Y-92902803D01*
X118238174Y-92879142D01*
X118237000Y-92855250D01*
X118237000Y-92367750D01*
X118238174Y-92343858D01*
X118241684Y-92320197D01*
X118247496Y-92296993D01*
X118255554Y-92274471D01*
X118265782Y-92252847D01*
X118278079Y-92232330D01*
X118292329Y-92213117D01*
X118308393Y-92195393D01*
X118326117Y-92179329D01*
X118345330Y-92165079D01*
X118365847Y-92152782D01*
X118387471Y-92142554D01*
X118409993Y-92134496D01*
X118433197Y-92128684D01*
X118456858Y-92125174D01*
X118480750Y-92124000D01*
X119393250Y-92124000D01*
X119417142Y-92125174D01*
G37*
G36*
X119417142Y-94000174D02*
G01*
X119440803Y-94003684D01*
X119464007Y-94009496D01*
X119486529Y-94017554D01*
X119508153Y-94027782D01*
X119528670Y-94040079D01*
X119547883Y-94054329D01*
X119565607Y-94070393D01*
X119581671Y-94088117D01*
X119595921Y-94107330D01*
X119608218Y-94127847D01*
X119618446Y-94149471D01*
X119626504Y-94171993D01*
X119632316Y-94195197D01*
X119635826Y-94218858D01*
X119637000Y-94242750D01*
X119637000Y-94730250D01*
X119635826Y-94754142D01*
X119632316Y-94777803D01*
X119626504Y-94801007D01*
X119618446Y-94823529D01*
X119608218Y-94845153D01*
X119595921Y-94865670D01*
X119581671Y-94884883D01*
X119565607Y-94902607D01*
X119547883Y-94918671D01*
X119528670Y-94932921D01*
X119508153Y-94945218D01*
X119486529Y-94955446D01*
X119464007Y-94963504D01*
X119440803Y-94969316D01*
X119417142Y-94972826D01*
X119393250Y-94974000D01*
X118480750Y-94974000D01*
X118456858Y-94972826D01*
X118433197Y-94969316D01*
X118409993Y-94963504D01*
X118387471Y-94955446D01*
X118365847Y-94945218D01*
X118345330Y-94932921D01*
X118326117Y-94918671D01*
X118308393Y-94902607D01*
X118292329Y-94884883D01*
X118278079Y-94865670D01*
X118265782Y-94845153D01*
X118255554Y-94823529D01*
X118247496Y-94801007D01*
X118241684Y-94777803D01*
X118238174Y-94754142D01*
X118237000Y-94730250D01*
X118237000Y-94242750D01*
X118238174Y-94218858D01*
X118241684Y-94195197D01*
X118247496Y-94171993D01*
X118255554Y-94149471D01*
X118265782Y-94127847D01*
X118278079Y-94107330D01*
X118292329Y-94088117D01*
X118308393Y-94070393D01*
X118326117Y-94054329D01*
X118345330Y-94040079D01*
X118365847Y-94027782D01*
X118387471Y-94017554D01*
X118409993Y-94009496D01*
X118433197Y-94003684D01*
X118456858Y-94000174D01*
X118480750Y-93999000D01*
X119393250Y-93999000D01*
X119417142Y-94000174D01*
G37*
G36*
X129577142Y-92125174D02*
G01*
X129600803Y-92128684D01*
X129624007Y-92134496D01*
X129646529Y-92142554D01*
X129668153Y-92152782D01*
X129688670Y-92165079D01*
X129707883Y-92179329D01*
X129725607Y-92195393D01*
X129741671Y-92213117D01*
X129755921Y-92232330D01*
X129768218Y-92252847D01*
X129778446Y-92274471D01*
X129786504Y-92296993D01*
X129792316Y-92320197D01*
X129795826Y-92343858D01*
X129797000Y-92367750D01*
X129797000Y-92855250D01*
X129795826Y-92879142D01*
X129792316Y-92902803D01*
X129786504Y-92926007D01*
X129778446Y-92948529D01*
X129768218Y-92970153D01*
X129755921Y-92990670D01*
X129741671Y-93009883D01*
X129725607Y-93027607D01*
X129707883Y-93043671D01*
X129688670Y-93057921D01*
X129668153Y-93070218D01*
X129646529Y-93080446D01*
X129624007Y-93088504D01*
X129600803Y-93094316D01*
X129577142Y-93097826D01*
X129553250Y-93099000D01*
X128640750Y-93099000D01*
X128616858Y-93097826D01*
X128593197Y-93094316D01*
X128569993Y-93088504D01*
X128547471Y-93080446D01*
X128525847Y-93070218D01*
X128505330Y-93057921D01*
X128486117Y-93043671D01*
X128468393Y-93027607D01*
X128452329Y-93009883D01*
X128438079Y-92990670D01*
X128425782Y-92970153D01*
X128415554Y-92948529D01*
X128407496Y-92926007D01*
X128401684Y-92902803D01*
X128398174Y-92879142D01*
X128397000Y-92855250D01*
X128397000Y-92367750D01*
X128398174Y-92343858D01*
X128401684Y-92320197D01*
X128407496Y-92296993D01*
X128415554Y-92274471D01*
X128425782Y-92252847D01*
X128438079Y-92232330D01*
X128452329Y-92213117D01*
X128468393Y-92195393D01*
X128486117Y-92179329D01*
X128505330Y-92165079D01*
X128525847Y-92152782D01*
X128547471Y-92142554D01*
X128569993Y-92134496D01*
X128593197Y-92128684D01*
X128616858Y-92125174D01*
X128640750Y-92124000D01*
X129553250Y-92124000D01*
X129577142Y-92125174D01*
G37*
G36*
X129577142Y-94000174D02*
G01*
X129600803Y-94003684D01*
X129624007Y-94009496D01*
X129646529Y-94017554D01*
X129668153Y-94027782D01*
X129688670Y-94040079D01*
X129707883Y-94054329D01*
X129725607Y-94070393D01*
X129741671Y-94088117D01*
X129755921Y-94107330D01*
X129768218Y-94127847D01*
X129778446Y-94149471D01*
X129786504Y-94171993D01*
X129792316Y-94195197D01*
X129795826Y-94218858D01*
X129797000Y-94242750D01*
X129797000Y-94730250D01*
X129795826Y-94754142D01*
X129792316Y-94777803D01*
X129786504Y-94801007D01*
X129778446Y-94823529D01*
X129768218Y-94845153D01*
X129755921Y-94865670D01*
X129741671Y-94884883D01*
X129725607Y-94902607D01*
X129707883Y-94918671D01*
X129688670Y-94932921D01*
X129668153Y-94945218D01*
X129646529Y-94955446D01*
X129624007Y-94963504D01*
X129600803Y-94969316D01*
X129577142Y-94972826D01*
X129553250Y-94974000D01*
X128640750Y-94974000D01*
X128616858Y-94972826D01*
X128593197Y-94969316D01*
X128569993Y-94963504D01*
X128547471Y-94955446D01*
X128525847Y-94945218D01*
X128505330Y-94932921D01*
X128486117Y-94918671D01*
X128468393Y-94902607D01*
X128452329Y-94884883D01*
X128438079Y-94865670D01*
X128425782Y-94845153D01*
X128415554Y-94823529D01*
X128407496Y-94801007D01*
X128401684Y-94777803D01*
X128398174Y-94754142D01*
X128397000Y-94730250D01*
X128397000Y-94242750D01*
X128398174Y-94218858D01*
X128401684Y-94195197D01*
X128407496Y-94171993D01*
X128415554Y-94149471D01*
X128425782Y-94127847D01*
X128438079Y-94107330D01*
X128452329Y-94088117D01*
X128468393Y-94070393D01*
X128486117Y-94054329D01*
X128505330Y-94040079D01*
X128525847Y-94027782D01*
X128547471Y-94017554D01*
X128569993Y-94009496D01*
X128593197Y-94003684D01*
X128616858Y-94000174D01*
X128640750Y-93999000D01*
X129553250Y-93999000D01*
X129577142Y-94000174D01*
G37*
G36*
X139737142Y-92125174D02*
G01*
X139760803Y-92128684D01*
X139784007Y-92134496D01*
X139806529Y-92142554D01*
X139828153Y-92152782D01*
X139848670Y-92165079D01*
X139867883Y-92179329D01*
X139885607Y-92195393D01*
X139901671Y-92213117D01*
X139915921Y-92232330D01*
X139928218Y-92252847D01*
X139938446Y-92274471D01*
X139946504Y-92296993D01*
X139952316Y-92320197D01*
X139955826Y-92343858D01*
X139957000Y-92367750D01*
X139957000Y-92855250D01*
X139955826Y-92879142D01*
X139952316Y-92902803D01*
X139946504Y-92926007D01*
X139938446Y-92948529D01*
X139928218Y-92970153D01*
X139915921Y-92990670D01*
X139901671Y-93009883D01*
X139885607Y-93027607D01*
X139867883Y-93043671D01*
X139848670Y-93057921D01*
X139828153Y-93070218D01*
X139806529Y-93080446D01*
X139784007Y-93088504D01*
X139760803Y-93094316D01*
X139737142Y-93097826D01*
X139713250Y-93099000D01*
X138800750Y-93099000D01*
X138776858Y-93097826D01*
X138753197Y-93094316D01*
X138729993Y-93088504D01*
X138707471Y-93080446D01*
X138685847Y-93070218D01*
X138665330Y-93057921D01*
X138646117Y-93043671D01*
X138628393Y-93027607D01*
X138612329Y-93009883D01*
X138598079Y-92990670D01*
X138585782Y-92970153D01*
X138575554Y-92948529D01*
X138567496Y-92926007D01*
X138561684Y-92902803D01*
X138558174Y-92879142D01*
X138557000Y-92855250D01*
X138557000Y-92367750D01*
X138558174Y-92343858D01*
X138561684Y-92320197D01*
X138567496Y-92296993D01*
X138575554Y-92274471D01*
X138585782Y-92252847D01*
X138598079Y-92232330D01*
X138612329Y-92213117D01*
X138628393Y-92195393D01*
X138646117Y-92179329D01*
X138665330Y-92165079D01*
X138685847Y-92152782D01*
X138707471Y-92142554D01*
X138729993Y-92134496D01*
X138753197Y-92128684D01*
X138776858Y-92125174D01*
X138800750Y-92124000D01*
X139713250Y-92124000D01*
X139737142Y-92125174D01*
G37*
G36*
X139737142Y-94000174D02*
G01*
X139760803Y-94003684D01*
X139784007Y-94009496D01*
X139806529Y-94017554D01*
X139828153Y-94027782D01*
X139848670Y-94040079D01*
X139867883Y-94054329D01*
X139885607Y-94070393D01*
X139901671Y-94088117D01*
X139915921Y-94107330D01*
X139928218Y-94127847D01*
X139938446Y-94149471D01*
X139946504Y-94171993D01*
X139952316Y-94195197D01*
X139955826Y-94218858D01*
X139957000Y-94242750D01*
X139957000Y-94730250D01*
X139955826Y-94754142D01*
X139952316Y-94777803D01*
X139946504Y-94801007D01*
X139938446Y-94823529D01*
X139928218Y-94845153D01*
X139915921Y-94865670D01*
X139901671Y-94884883D01*
X139885607Y-94902607D01*
X139867883Y-94918671D01*
X139848670Y-94932921D01*
X139828153Y-94945218D01*
X139806529Y-94955446D01*
X139784007Y-94963504D01*
X139760803Y-94969316D01*
X139737142Y-94972826D01*
X139713250Y-94974000D01*
X138800750Y-94974000D01*
X138776858Y-94972826D01*
X138753197Y-94969316D01*
X138729993Y-94963504D01*
X138707471Y-94955446D01*
X138685847Y-94945218D01*
X138665330Y-94932921D01*
X138646117Y-94918671D01*
X138628393Y-94902607D01*
X138612329Y-94884883D01*
X138598079Y-94865670D01*
X138585782Y-94845153D01*
X138575554Y-94823529D01*
X138567496Y-94801007D01*
X138561684Y-94777803D01*
X138558174Y-94754142D01*
X138557000Y-94730250D01*
X138557000Y-94242750D01*
X138558174Y-94218858D01*
X138561684Y-94195197D01*
X138567496Y-94171993D01*
X138575554Y-94149471D01*
X138585782Y-94127847D01*
X138598079Y-94107330D01*
X138612329Y-94088117D01*
X138628393Y-94070393D01*
X138646117Y-94054329D01*
X138665330Y-94040079D01*
X138685847Y-94027782D01*
X138707471Y-94017554D01*
X138729993Y-94009496D01*
X138753197Y-94003684D01*
X138776858Y-94000174D01*
X138800750Y-93999000D01*
X139713250Y-93999000D01*
X139737142Y-94000174D01*
G37*
G36*
X115076142Y-89801174D02*
G01*
X115099803Y-89804684D01*
X115123007Y-89810496D01*
X115145529Y-89818554D01*
X115167153Y-89828782D01*
X115187670Y-89841079D01*
X115206883Y-89855329D01*
X115224607Y-89871393D01*
X115240671Y-89889117D01*
X115254921Y-89908330D01*
X115267218Y-89928847D01*
X115277446Y-89950471D01*
X115285504Y-89972993D01*
X115291316Y-89996197D01*
X115294826Y-90019858D01*
X115296000Y-90043750D01*
X115296000Y-90956250D01*
X115294826Y-90980142D01*
X115291316Y-91003803D01*
X115285504Y-91027007D01*
X115277446Y-91049529D01*
X115267218Y-91071153D01*
X115254921Y-91091670D01*
X115240671Y-91110883D01*
X115224607Y-91128607D01*
X115206883Y-91144671D01*
X115187670Y-91158921D01*
X115167153Y-91171218D01*
X115145529Y-91181446D01*
X115123007Y-91189504D01*
X115099803Y-91195316D01*
X115076142Y-91198826D01*
X115052250Y-91200000D01*
X114564750Y-91200000D01*
X114540858Y-91198826D01*
X114517197Y-91195316D01*
X114493993Y-91189504D01*
X114471471Y-91181446D01*
X114449847Y-91171218D01*
X114429330Y-91158921D01*
X114410117Y-91144671D01*
X114392393Y-91128607D01*
X114376329Y-91110883D01*
X114362079Y-91091670D01*
X114349782Y-91071153D01*
X114339554Y-91049529D01*
X114331496Y-91027007D01*
X114325684Y-91003803D01*
X114322174Y-90980142D01*
X114321000Y-90956250D01*
X114321000Y-90043750D01*
X114322174Y-90019858D01*
X114325684Y-89996197D01*
X114331496Y-89972993D01*
X114339554Y-89950471D01*
X114349782Y-89928847D01*
X114362079Y-89908330D01*
X114376329Y-89889117D01*
X114392393Y-89871393D01*
X114410117Y-89855329D01*
X114429330Y-89841079D01*
X114449847Y-89828782D01*
X114471471Y-89818554D01*
X114493993Y-89810496D01*
X114517197Y-89804684D01*
X114540858Y-89801174D01*
X114564750Y-89800000D01*
X115052250Y-89800000D01*
X115076142Y-89801174D01*
G37*
G36*
X116951142Y-89801174D02*
G01*
X116974803Y-89804684D01*
X116998007Y-89810496D01*
X117020529Y-89818554D01*
X117042153Y-89828782D01*
X117062670Y-89841079D01*
X117081883Y-89855329D01*
X117099607Y-89871393D01*
X117115671Y-89889117D01*
X117129921Y-89908330D01*
X117142218Y-89928847D01*
X117152446Y-89950471D01*
X117160504Y-89972993D01*
X117166316Y-89996197D01*
X117169826Y-90019858D01*
X117171000Y-90043750D01*
X117171000Y-90956250D01*
X117169826Y-90980142D01*
X117166316Y-91003803D01*
X117160504Y-91027007D01*
X117152446Y-91049529D01*
X117142218Y-91071153D01*
X117129921Y-91091670D01*
X117115671Y-91110883D01*
X117099607Y-91128607D01*
X117081883Y-91144671D01*
X117062670Y-91158921D01*
X117042153Y-91171218D01*
X117020529Y-91181446D01*
X116998007Y-91189504D01*
X116974803Y-91195316D01*
X116951142Y-91198826D01*
X116927250Y-91200000D01*
X116439750Y-91200000D01*
X116415858Y-91198826D01*
X116392197Y-91195316D01*
X116368993Y-91189504D01*
X116346471Y-91181446D01*
X116324847Y-91171218D01*
X116304330Y-91158921D01*
X116285117Y-91144671D01*
X116267393Y-91128607D01*
X116251329Y-91110883D01*
X116237079Y-91091670D01*
X116224782Y-91071153D01*
X116214554Y-91049529D01*
X116206496Y-91027007D01*
X116200684Y-91003803D01*
X116197174Y-90980142D01*
X116196000Y-90956250D01*
X116196000Y-90043750D01*
X116197174Y-90019858D01*
X116200684Y-89996197D01*
X116206496Y-89972993D01*
X116214554Y-89950471D01*
X116224782Y-89928847D01*
X116237079Y-89908330D01*
X116251329Y-89889117D01*
X116267393Y-89871393D01*
X116285117Y-89855329D01*
X116304330Y-89841079D01*
X116324847Y-89828782D01*
X116346471Y-89818554D01*
X116368993Y-89810496D01*
X116392197Y-89804684D01*
X116415858Y-89801174D01*
X116439750Y-89800000D01*
X116927250Y-89800000D01*
X116951142Y-89801174D01*
G37*
G36*
X125236142Y-89801174D02*
G01*
X125259803Y-89804684D01*
X125283007Y-89810496D01*
X125305529Y-89818554D01*
X125327153Y-89828782D01*
X125347670Y-89841079D01*
X125366883Y-89855329D01*
X125384607Y-89871393D01*
X125400671Y-89889117D01*
X125414921Y-89908330D01*
X125427218Y-89928847D01*
X125437446Y-89950471D01*
X125445504Y-89972993D01*
X125451316Y-89996197D01*
X125454826Y-90019858D01*
X125456000Y-90043750D01*
X125456000Y-90956250D01*
X125454826Y-90980142D01*
X125451316Y-91003803D01*
X125445504Y-91027007D01*
X125437446Y-91049529D01*
X125427218Y-91071153D01*
X125414921Y-91091670D01*
X125400671Y-91110883D01*
X125384607Y-91128607D01*
X125366883Y-91144671D01*
X125347670Y-91158921D01*
X125327153Y-91171218D01*
X125305529Y-91181446D01*
X125283007Y-91189504D01*
X125259803Y-91195316D01*
X125236142Y-91198826D01*
X125212250Y-91200000D01*
X124724750Y-91200000D01*
X124700858Y-91198826D01*
X124677197Y-91195316D01*
X124653993Y-91189504D01*
X124631471Y-91181446D01*
X124609847Y-91171218D01*
X124589330Y-91158921D01*
X124570117Y-91144671D01*
X124552393Y-91128607D01*
X124536329Y-91110883D01*
X124522079Y-91091670D01*
X124509782Y-91071153D01*
X124499554Y-91049529D01*
X124491496Y-91027007D01*
X124485684Y-91003803D01*
X124482174Y-90980142D01*
X124481000Y-90956250D01*
X124481000Y-90043750D01*
X124482174Y-90019858D01*
X124485684Y-89996197D01*
X124491496Y-89972993D01*
X124499554Y-89950471D01*
X124509782Y-89928847D01*
X124522079Y-89908330D01*
X124536329Y-89889117D01*
X124552393Y-89871393D01*
X124570117Y-89855329D01*
X124589330Y-89841079D01*
X124609847Y-89828782D01*
X124631471Y-89818554D01*
X124653993Y-89810496D01*
X124677197Y-89804684D01*
X124700858Y-89801174D01*
X124724750Y-89800000D01*
X125212250Y-89800000D01*
X125236142Y-89801174D01*
G37*
G36*
X127111142Y-89801174D02*
G01*
X127134803Y-89804684D01*
X127158007Y-89810496D01*
X127180529Y-89818554D01*
X127202153Y-89828782D01*
X127222670Y-89841079D01*
X127241883Y-89855329D01*
X127259607Y-89871393D01*
X127275671Y-89889117D01*
X127289921Y-89908330D01*
X127302218Y-89928847D01*
X127312446Y-89950471D01*
X127320504Y-89972993D01*
X127326316Y-89996197D01*
X127329826Y-90019858D01*
X127331000Y-90043750D01*
X127331000Y-90956250D01*
X127329826Y-90980142D01*
X127326316Y-91003803D01*
X127320504Y-91027007D01*
X127312446Y-91049529D01*
X127302218Y-91071153D01*
X127289921Y-91091670D01*
X127275671Y-91110883D01*
X127259607Y-91128607D01*
X127241883Y-91144671D01*
X127222670Y-91158921D01*
X127202153Y-91171218D01*
X127180529Y-91181446D01*
X127158007Y-91189504D01*
X127134803Y-91195316D01*
X127111142Y-91198826D01*
X127087250Y-91200000D01*
X126599750Y-91200000D01*
X126575858Y-91198826D01*
X126552197Y-91195316D01*
X126528993Y-91189504D01*
X126506471Y-91181446D01*
X126484847Y-91171218D01*
X126464330Y-91158921D01*
X126445117Y-91144671D01*
X126427393Y-91128607D01*
X126411329Y-91110883D01*
X126397079Y-91091670D01*
X126384782Y-91071153D01*
X126374554Y-91049529D01*
X126366496Y-91027007D01*
X126360684Y-91003803D01*
X126357174Y-90980142D01*
X126356000Y-90956250D01*
X126356000Y-90043750D01*
X126357174Y-90019858D01*
X126360684Y-89996197D01*
X126366496Y-89972993D01*
X126374554Y-89950471D01*
X126384782Y-89928847D01*
X126397079Y-89908330D01*
X126411329Y-89889117D01*
X126427393Y-89871393D01*
X126445117Y-89855329D01*
X126464330Y-89841079D01*
X126484847Y-89828782D01*
X126506471Y-89818554D01*
X126528993Y-89810496D01*
X126552197Y-89804684D01*
X126575858Y-89801174D01*
X126599750Y-89800000D01*
X127087250Y-89800000D01*
X127111142Y-89801174D01*
G37*
G36*
X135396142Y-89801174D02*
G01*
X135419803Y-89804684D01*
X135443007Y-89810496D01*
X135465529Y-89818554D01*
X135487153Y-89828782D01*
X135507670Y-89841079D01*
X135526883Y-89855329D01*
X135544607Y-89871393D01*
X135560671Y-89889117D01*
X135574921Y-89908330D01*
X135587218Y-89928847D01*
X135597446Y-89950471D01*
X135605504Y-89972993D01*
X135611316Y-89996197D01*
X135614826Y-90019858D01*
X135616000Y-90043750D01*
X135616000Y-90956250D01*
X135614826Y-90980142D01*
X135611316Y-91003803D01*
X135605504Y-91027007D01*
X135597446Y-91049529D01*
X135587218Y-91071153D01*
X135574921Y-91091670D01*
X135560671Y-91110883D01*
X135544607Y-91128607D01*
X135526883Y-91144671D01*
X135507670Y-91158921D01*
X135487153Y-91171218D01*
X135465529Y-91181446D01*
X135443007Y-91189504D01*
X135419803Y-91195316D01*
X135396142Y-91198826D01*
X135372250Y-91200000D01*
X134884750Y-91200000D01*
X134860858Y-91198826D01*
X134837197Y-91195316D01*
X134813993Y-91189504D01*
X134791471Y-91181446D01*
X134769847Y-91171218D01*
X134749330Y-91158921D01*
X134730117Y-91144671D01*
X134712393Y-91128607D01*
X134696329Y-91110883D01*
X134682079Y-91091670D01*
X134669782Y-91071153D01*
X134659554Y-91049529D01*
X134651496Y-91027007D01*
X134645684Y-91003803D01*
X134642174Y-90980142D01*
X134641000Y-90956250D01*
X134641000Y-90043750D01*
X134642174Y-90019858D01*
X134645684Y-89996197D01*
X134651496Y-89972993D01*
X134659554Y-89950471D01*
X134669782Y-89928847D01*
X134682079Y-89908330D01*
X134696329Y-89889117D01*
X134712393Y-89871393D01*
X134730117Y-89855329D01*
X134749330Y-89841079D01*
X134769847Y-89828782D01*
X134791471Y-89818554D01*
X134813993Y-89810496D01*
X134837197Y-89804684D01*
X134860858Y-89801174D01*
X134884750Y-89800000D01*
X135372250Y-89800000D01*
X135396142Y-89801174D01*
G37*
G36*
X137271142Y-89801174D02*
G01*
X137294803Y-89804684D01*
X137318007Y-89810496D01*
X137340529Y-89818554D01*
X137362153Y-89828782D01*
X137382670Y-89841079D01*
X137401883Y-89855329D01*
X137419607Y-89871393D01*
X137435671Y-89889117D01*
X137449921Y-89908330D01*
X137462218Y-89928847D01*
X137472446Y-89950471D01*
X137480504Y-89972993D01*
X137486316Y-89996197D01*
X137489826Y-90019858D01*
X137491000Y-90043750D01*
X137491000Y-90956250D01*
X137489826Y-90980142D01*
X137486316Y-91003803D01*
X137480504Y-91027007D01*
X137472446Y-91049529D01*
X137462218Y-91071153D01*
X137449921Y-91091670D01*
X137435671Y-91110883D01*
X137419607Y-91128607D01*
X137401883Y-91144671D01*
X137382670Y-91158921D01*
X137362153Y-91171218D01*
X137340529Y-91181446D01*
X137318007Y-91189504D01*
X137294803Y-91195316D01*
X137271142Y-91198826D01*
X137247250Y-91200000D01*
X136759750Y-91200000D01*
X136735858Y-91198826D01*
X136712197Y-91195316D01*
X136688993Y-91189504D01*
X136666471Y-91181446D01*
X136644847Y-91171218D01*
X136624330Y-91158921D01*
X136605117Y-91144671D01*
X136587393Y-91128607D01*
X136571329Y-91110883D01*
X136557079Y-91091670D01*
X136544782Y-91071153D01*
X136534554Y-91049529D01*
X136526496Y-91027007D01*
X136520684Y-91003803D01*
X136517174Y-90980142D01*
X136516000Y-90956250D01*
X136516000Y-90043750D01*
X136517174Y-90019858D01*
X136520684Y-89996197D01*
X136526496Y-89972993D01*
X136534554Y-89950471D01*
X136544782Y-89928847D01*
X136557079Y-89908330D01*
X136571329Y-89889117D01*
X136587393Y-89871393D01*
X136605117Y-89855329D01*
X136624330Y-89841079D01*
X136644847Y-89828782D01*
X136666471Y-89818554D01*
X136688993Y-89810496D01*
X136712197Y-89804684D01*
X136735858Y-89801174D01*
X136759750Y-89800000D01*
X137247250Y-89800000D01*
X137271142Y-89801174D01*
G37*
G36*
X145556142Y-89801174D02*
G01*
X145579803Y-89804684D01*
X145603007Y-89810496D01*
X145625529Y-89818554D01*
X145647153Y-89828782D01*
X145667670Y-89841079D01*
X145686883Y-89855329D01*
X145704607Y-89871393D01*
X145720671Y-89889117D01*
X145734921Y-89908330D01*
X145747218Y-89928847D01*
X145757446Y-89950471D01*
X145765504Y-89972993D01*
X145771316Y-89996197D01*
X145774826Y-90019858D01*
X145776000Y-90043750D01*
X145776000Y-90956250D01*
X145774826Y-90980142D01*
X145771316Y-91003803D01*
X145765504Y-91027007D01*
X145757446Y-91049529D01*
X145747218Y-91071153D01*
X145734921Y-91091670D01*
X145720671Y-91110883D01*
X145704607Y-91128607D01*
X145686883Y-91144671D01*
X145667670Y-91158921D01*
X145647153Y-91171218D01*
X145625529Y-91181446D01*
X145603007Y-91189504D01*
X145579803Y-91195316D01*
X145556142Y-91198826D01*
X145532250Y-91200000D01*
X145044750Y-91200000D01*
X145020858Y-91198826D01*
X144997197Y-91195316D01*
X144973993Y-91189504D01*
X144951471Y-91181446D01*
X144929847Y-91171218D01*
X144909330Y-91158921D01*
X144890117Y-91144671D01*
X144872393Y-91128607D01*
X144856329Y-91110883D01*
X144842079Y-91091670D01*
X144829782Y-91071153D01*
X144819554Y-91049529D01*
X144811496Y-91027007D01*
X144805684Y-91003803D01*
X144802174Y-90980142D01*
X144801000Y-90956250D01*
X144801000Y-90043750D01*
X144802174Y-90019858D01*
X144805684Y-89996197D01*
X144811496Y-89972993D01*
X144819554Y-89950471D01*
X144829782Y-89928847D01*
X144842079Y-89908330D01*
X144856329Y-89889117D01*
X144872393Y-89871393D01*
X144890117Y-89855329D01*
X144909330Y-89841079D01*
X144929847Y-89828782D01*
X144951471Y-89818554D01*
X144973993Y-89810496D01*
X144997197Y-89804684D01*
X145020858Y-89801174D01*
X145044750Y-89800000D01*
X145532250Y-89800000D01*
X145556142Y-89801174D01*
G37*
G36*
X147431142Y-89801174D02*
G01*
X147454803Y-89804684D01*
X147478007Y-89810496D01*
X147500529Y-89818554D01*
X147522153Y-89828782D01*
X147542670Y-89841079D01*
X147561883Y-89855329D01*
X147579607Y-89871393D01*
X147595671Y-89889117D01*
X147609921Y-89908330D01*
X147622218Y-89928847D01*
X147632446Y-89950471D01*
X147640504Y-89972993D01*
X147646316Y-89996197D01*
X147649826Y-90019858D01*
X147651000Y-90043750D01*
X147651000Y-90956250D01*
X147649826Y-90980142D01*
X147646316Y-91003803D01*
X147640504Y-91027007D01*
X147632446Y-91049529D01*
X147622218Y-91071153D01*
X147609921Y-91091670D01*
X147595671Y-91110883D01*
X147579607Y-91128607D01*
X147561883Y-91144671D01*
X147542670Y-91158921D01*
X147522153Y-91171218D01*
X147500529Y-91181446D01*
X147478007Y-91189504D01*
X147454803Y-91195316D01*
X147431142Y-91198826D01*
X147407250Y-91200000D01*
X146919750Y-91200000D01*
X146895858Y-91198826D01*
X146872197Y-91195316D01*
X146848993Y-91189504D01*
X146826471Y-91181446D01*
X146804847Y-91171218D01*
X146784330Y-91158921D01*
X146765117Y-91144671D01*
X146747393Y-91128607D01*
X146731329Y-91110883D01*
X146717079Y-91091670D01*
X146704782Y-91071153D01*
X146694554Y-91049529D01*
X146686496Y-91027007D01*
X146680684Y-91003803D01*
X146677174Y-90980142D01*
X146676000Y-90956250D01*
X146676000Y-90043750D01*
X146677174Y-90019858D01*
X146680684Y-89996197D01*
X146686496Y-89972993D01*
X146694554Y-89950471D01*
X146704782Y-89928847D01*
X146717079Y-89908330D01*
X146731329Y-89889117D01*
X146747393Y-89871393D01*
X146765117Y-89855329D01*
X146784330Y-89841079D01*
X146804847Y-89828782D01*
X146826471Y-89818554D01*
X146848993Y-89810496D01*
X146872197Y-89804684D01*
X146895858Y-89801174D01*
X146919750Y-89800000D01*
X147407250Y-89800000D01*
X147431142Y-89801174D01*
G37*
G36*
X115076142Y-91801174D02*
G01*
X115099803Y-91804684D01*
X115123007Y-91810496D01*
X115145529Y-91818554D01*
X115167153Y-91828782D01*
X115187670Y-91841079D01*
X115206883Y-91855329D01*
X115224607Y-91871393D01*
X115240671Y-91889117D01*
X115254921Y-91908330D01*
X115267218Y-91928847D01*
X115277446Y-91950471D01*
X115285504Y-91972993D01*
X115291316Y-91996197D01*
X115294826Y-92019858D01*
X115296000Y-92043750D01*
X115296000Y-92956250D01*
X115294826Y-92980142D01*
X115291316Y-93003803D01*
X115285504Y-93027007D01*
X115277446Y-93049529D01*
X115267218Y-93071153D01*
X115254921Y-93091670D01*
X115240671Y-93110883D01*
X115224607Y-93128607D01*
X115206883Y-93144671D01*
X115187670Y-93158921D01*
X115167153Y-93171218D01*
X115145529Y-93181446D01*
X115123007Y-93189504D01*
X115099803Y-93195316D01*
X115076142Y-93198826D01*
X115052250Y-93200000D01*
X114564750Y-93200000D01*
X114540858Y-93198826D01*
X114517197Y-93195316D01*
X114493993Y-93189504D01*
X114471471Y-93181446D01*
X114449847Y-93171218D01*
X114429330Y-93158921D01*
X114410117Y-93144671D01*
X114392393Y-93128607D01*
X114376329Y-93110883D01*
X114362079Y-93091670D01*
X114349782Y-93071153D01*
X114339554Y-93049529D01*
X114331496Y-93027007D01*
X114325684Y-93003803D01*
X114322174Y-92980142D01*
X114321000Y-92956250D01*
X114321000Y-92043750D01*
X114322174Y-92019858D01*
X114325684Y-91996197D01*
X114331496Y-91972993D01*
X114339554Y-91950471D01*
X114349782Y-91928847D01*
X114362079Y-91908330D01*
X114376329Y-91889117D01*
X114392393Y-91871393D01*
X114410117Y-91855329D01*
X114429330Y-91841079D01*
X114449847Y-91828782D01*
X114471471Y-91818554D01*
X114493993Y-91810496D01*
X114517197Y-91804684D01*
X114540858Y-91801174D01*
X114564750Y-91800000D01*
X115052250Y-91800000D01*
X115076142Y-91801174D01*
G37*
G36*
X116951142Y-91801174D02*
G01*
X116974803Y-91804684D01*
X116998007Y-91810496D01*
X117020529Y-91818554D01*
X117042153Y-91828782D01*
X117062670Y-91841079D01*
X117081883Y-91855329D01*
X117099607Y-91871393D01*
X117115671Y-91889117D01*
X117129921Y-91908330D01*
X117142218Y-91928847D01*
X117152446Y-91950471D01*
X117160504Y-91972993D01*
X117166316Y-91996197D01*
X117169826Y-92019858D01*
X117171000Y-92043750D01*
X117171000Y-92956250D01*
X117169826Y-92980142D01*
X117166316Y-93003803D01*
X117160504Y-93027007D01*
X117152446Y-93049529D01*
X117142218Y-93071153D01*
X117129921Y-93091670D01*
X117115671Y-93110883D01*
X117099607Y-93128607D01*
X117081883Y-93144671D01*
X117062670Y-93158921D01*
X117042153Y-93171218D01*
X117020529Y-93181446D01*
X116998007Y-93189504D01*
X116974803Y-93195316D01*
X116951142Y-93198826D01*
X116927250Y-93200000D01*
X116439750Y-93200000D01*
X116415858Y-93198826D01*
X116392197Y-93195316D01*
X116368993Y-93189504D01*
X116346471Y-93181446D01*
X116324847Y-93171218D01*
X116304330Y-93158921D01*
X116285117Y-93144671D01*
X116267393Y-93128607D01*
X116251329Y-93110883D01*
X116237079Y-93091670D01*
X116224782Y-93071153D01*
X116214554Y-93049529D01*
X116206496Y-93027007D01*
X116200684Y-93003803D01*
X116197174Y-92980142D01*
X116196000Y-92956250D01*
X116196000Y-92043750D01*
X116197174Y-92019858D01*
X116200684Y-91996197D01*
X116206496Y-91972993D01*
X116214554Y-91950471D01*
X116224782Y-91928847D01*
X116237079Y-91908330D01*
X116251329Y-91889117D01*
X116267393Y-91871393D01*
X116285117Y-91855329D01*
X116304330Y-91841079D01*
X116324847Y-91828782D01*
X116346471Y-91818554D01*
X116368993Y-91810496D01*
X116392197Y-91804684D01*
X116415858Y-91801174D01*
X116439750Y-91800000D01*
X116927250Y-91800000D01*
X116951142Y-91801174D01*
G37*
G36*
X125236142Y-91801174D02*
G01*
X125259803Y-91804684D01*
X125283007Y-91810496D01*
X125305529Y-91818554D01*
X125327153Y-91828782D01*
X125347670Y-91841079D01*
X125366883Y-91855329D01*
X125384607Y-91871393D01*
X125400671Y-91889117D01*
X125414921Y-91908330D01*
X125427218Y-91928847D01*
X125437446Y-91950471D01*
X125445504Y-91972993D01*
X125451316Y-91996197D01*
X125454826Y-92019858D01*
X125456000Y-92043750D01*
X125456000Y-92956250D01*
X125454826Y-92980142D01*
X125451316Y-93003803D01*
X125445504Y-93027007D01*
X125437446Y-93049529D01*
X125427218Y-93071153D01*
X125414921Y-93091670D01*
X125400671Y-93110883D01*
X125384607Y-93128607D01*
X125366883Y-93144671D01*
X125347670Y-93158921D01*
X125327153Y-93171218D01*
X125305529Y-93181446D01*
X125283007Y-93189504D01*
X125259803Y-93195316D01*
X125236142Y-93198826D01*
X125212250Y-93200000D01*
X124724750Y-93200000D01*
X124700858Y-93198826D01*
X124677197Y-93195316D01*
X124653993Y-93189504D01*
X124631471Y-93181446D01*
X124609847Y-93171218D01*
X124589330Y-93158921D01*
X124570117Y-93144671D01*
X124552393Y-93128607D01*
X124536329Y-93110883D01*
X124522079Y-93091670D01*
X124509782Y-93071153D01*
X124499554Y-93049529D01*
X124491496Y-93027007D01*
X124485684Y-93003803D01*
X124482174Y-92980142D01*
X124481000Y-92956250D01*
X124481000Y-92043750D01*
X124482174Y-92019858D01*
X124485684Y-91996197D01*
X124491496Y-91972993D01*
X124499554Y-91950471D01*
X124509782Y-91928847D01*
X124522079Y-91908330D01*
X124536329Y-91889117D01*
X124552393Y-91871393D01*
X124570117Y-91855329D01*
X124589330Y-91841079D01*
X124609847Y-91828782D01*
X124631471Y-91818554D01*
X124653993Y-91810496D01*
X124677197Y-91804684D01*
X124700858Y-91801174D01*
X124724750Y-91800000D01*
X125212250Y-91800000D01*
X125236142Y-91801174D01*
G37*
G36*
X127111142Y-91801174D02*
G01*
X127134803Y-91804684D01*
X127158007Y-91810496D01*
X127180529Y-91818554D01*
X127202153Y-91828782D01*
X127222670Y-91841079D01*
X127241883Y-91855329D01*
X127259607Y-91871393D01*
X127275671Y-91889117D01*
X127289921Y-91908330D01*
X127302218Y-91928847D01*
X127312446Y-91950471D01*
X127320504Y-91972993D01*
X127326316Y-91996197D01*
X127329826Y-92019858D01*
X127331000Y-92043750D01*
X127331000Y-92956250D01*
X127329826Y-92980142D01*
X127326316Y-93003803D01*
X127320504Y-93027007D01*
X127312446Y-93049529D01*
X127302218Y-93071153D01*
X127289921Y-93091670D01*
X127275671Y-93110883D01*
X127259607Y-93128607D01*
X127241883Y-93144671D01*
X127222670Y-93158921D01*
X127202153Y-93171218D01*
X127180529Y-93181446D01*
X127158007Y-93189504D01*
X127134803Y-93195316D01*
X127111142Y-93198826D01*
X127087250Y-93200000D01*
X126599750Y-93200000D01*
X126575858Y-93198826D01*
X126552197Y-93195316D01*
X126528993Y-93189504D01*
X126506471Y-93181446D01*
X126484847Y-93171218D01*
X126464330Y-93158921D01*
X126445117Y-93144671D01*
X126427393Y-93128607D01*
X126411329Y-93110883D01*
X126397079Y-93091670D01*
X126384782Y-93071153D01*
X126374554Y-93049529D01*
X126366496Y-93027007D01*
X126360684Y-93003803D01*
X126357174Y-92980142D01*
X126356000Y-92956250D01*
X126356000Y-92043750D01*
X126357174Y-92019858D01*
X126360684Y-91996197D01*
X126366496Y-91972993D01*
X126374554Y-91950471D01*
X126384782Y-91928847D01*
X126397079Y-91908330D01*
X126411329Y-91889117D01*
X126427393Y-91871393D01*
X126445117Y-91855329D01*
X126464330Y-91841079D01*
X126484847Y-91828782D01*
X126506471Y-91818554D01*
X126528993Y-91810496D01*
X126552197Y-91804684D01*
X126575858Y-91801174D01*
X126599750Y-91800000D01*
X127087250Y-91800000D01*
X127111142Y-91801174D01*
G37*
G36*
X135396142Y-91801174D02*
G01*
X135419803Y-91804684D01*
X135443007Y-91810496D01*
X135465529Y-91818554D01*
X135487153Y-91828782D01*
X135507670Y-91841079D01*
X135526883Y-91855329D01*
X135544607Y-91871393D01*
X135560671Y-91889117D01*
X135574921Y-91908330D01*
X135587218Y-91928847D01*
X135597446Y-91950471D01*
X135605504Y-91972993D01*
X135611316Y-91996197D01*
X135614826Y-92019858D01*
X135616000Y-92043750D01*
X135616000Y-92956250D01*
X135614826Y-92980142D01*
X135611316Y-93003803D01*
X135605504Y-93027007D01*
X135597446Y-93049529D01*
X135587218Y-93071153D01*
X135574921Y-93091670D01*
X135560671Y-93110883D01*
X135544607Y-93128607D01*
X135526883Y-93144671D01*
X135507670Y-93158921D01*
X135487153Y-93171218D01*
X135465529Y-93181446D01*
X135443007Y-93189504D01*
X135419803Y-93195316D01*
X135396142Y-93198826D01*
X135372250Y-93200000D01*
X134884750Y-93200000D01*
X134860858Y-93198826D01*
X134837197Y-93195316D01*
X134813993Y-93189504D01*
X134791471Y-93181446D01*
X134769847Y-93171218D01*
X134749330Y-93158921D01*
X134730117Y-93144671D01*
X134712393Y-93128607D01*
X134696329Y-93110883D01*
X134682079Y-93091670D01*
X134669782Y-93071153D01*
X134659554Y-93049529D01*
X134651496Y-93027007D01*
X134645684Y-93003803D01*
X134642174Y-92980142D01*
X134641000Y-92956250D01*
X134641000Y-92043750D01*
X134642174Y-92019858D01*
X134645684Y-91996197D01*
X134651496Y-91972993D01*
X134659554Y-91950471D01*
X134669782Y-91928847D01*
X134682079Y-91908330D01*
X134696329Y-91889117D01*
X134712393Y-91871393D01*
X134730117Y-91855329D01*
X134749330Y-91841079D01*
X134769847Y-91828782D01*
X134791471Y-91818554D01*
X134813993Y-91810496D01*
X134837197Y-91804684D01*
X134860858Y-91801174D01*
X134884750Y-91800000D01*
X135372250Y-91800000D01*
X135396142Y-91801174D01*
G37*
G36*
X137271142Y-91801174D02*
G01*
X137294803Y-91804684D01*
X137318007Y-91810496D01*
X137340529Y-91818554D01*
X137362153Y-91828782D01*
X137382670Y-91841079D01*
X137401883Y-91855329D01*
X137419607Y-91871393D01*
X137435671Y-91889117D01*
X137449921Y-91908330D01*
X137462218Y-91928847D01*
X137472446Y-91950471D01*
X137480504Y-91972993D01*
X137486316Y-91996197D01*
X137489826Y-92019858D01*
X137491000Y-92043750D01*
X137491000Y-92956250D01*
X137489826Y-92980142D01*
X137486316Y-93003803D01*
X137480504Y-93027007D01*
X137472446Y-93049529D01*
X137462218Y-93071153D01*
X137449921Y-93091670D01*
X137435671Y-93110883D01*
X137419607Y-93128607D01*
X137401883Y-93144671D01*
X137382670Y-93158921D01*
X137362153Y-93171218D01*
X137340529Y-93181446D01*
X137318007Y-93189504D01*
X137294803Y-93195316D01*
X137271142Y-93198826D01*
X137247250Y-93200000D01*
X136759750Y-93200000D01*
X136735858Y-93198826D01*
X136712197Y-93195316D01*
X136688993Y-93189504D01*
X136666471Y-93181446D01*
X136644847Y-93171218D01*
X136624330Y-93158921D01*
X136605117Y-93144671D01*
X136587393Y-93128607D01*
X136571329Y-93110883D01*
X136557079Y-93091670D01*
X136544782Y-93071153D01*
X136534554Y-93049529D01*
X136526496Y-93027007D01*
X136520684Y-93003803D01*
X136517174Y-92980142D01*
X136516000Y-92956250D01*
X136516000Y-92043750D01*
X136517174Y-92019858D01*
X136520684Y-91996197D01*
X136526496Y-91972993D01*
X136534554Y-91950471D01*
X136544782Y-91928847D01*
X136557079Y-91908330D01*
X136571329Y-91889117D01*
X136587393Y-91871393D01*
X136605117Y-91855329D01*
X136624330Y-91841079D01*
X136644847Y-91828782D01*
X136666471Y-91818554D01*
X136688993Y-91810496D01*
X136712197Y-91804684D01*
X136735858Y-91801174D01*
X136759750Y-91800000D01*
X137247250Y-91800000D01*
X137271142Y-91801174D01*
G37*
G36*
X145556142Y-91801174D02*
G01*
X145579803Y-91804684D01*
X145603007Y-91810496D01*
X145625529Y-91818554D01*
X145647153Y-91828782D01*
X145667670Y-91841079D01*
X145686883Y-91855329D01*
X145704607Y-91871393D01*
X145720671Y-91889117D01*
X145734921Y-91908330D01*
X145747218Y-91928847D01*
X145757446Y-91950471D01*
X145765504Y-91972993D01*
X145771316Y-91996197D01*
X145774826Y-92019858D01*
X145776000Y-92043750D01*
X145776000Y-92956250D01*
X145774826Y-92980142D01*
X145771316Y-93003803D01*
X145765504Y-93027007D01*
X145757446Y-93049529D01*
X145747218Y-93071153D01*
X145734921Y-93091670D01*
X145720671Y-93110883D01*
X145704607Y-93128607D01*
X145686883Y-93144671D01*
X145667670Y-93158921D01*
X145647153Y-93171218D01*
X145625529Y-93181446D01*
X145603007Y-93189504D01*
X145579803Y-93195316D01*
X145556142Y-93198826D01*
X145532250Y-93200000D01*
X145044750Y-93200000D01*
X145020858Y-93198826D01*
X144997197Y-93195316D01*
X144973993Y-93189504D01*
X144951471Y-93181446D01*
X144929847Y-93171218D01*
X144909330Y-93158921D01*
X144890117Y-93144671D01*
X144872393Y-93128607D01*
X144856329Y-93110883D01*
X144842079Y-93091670D01*
X144829782Y-93071153D01*
X144819554Y-93049529D01*
X144811496Y-93027007D01*
X144805684Y-93003803D01*
X144802174Y-92980142D01*
X144801000Y-92956250D01*
X144801000Y-92043750D01*
X144802174Y-92019858D01*
X144805684Y-91996197D01*
X144811496Y-91972993D01*
X144819554Y-91950471D01*
X144829782Y-91928847D01*
X144842079Y-91908330D01*
X144856329Y-91889117D01*
X144872393Y-91871393D01*
X144890117Y-91855329D01*
X144909330Y-91841079D01*
X144929847Y-91828782D01*
X144951471Y-91818554D01*
X144973993Y-91810496D01*
X144997197Y-91804684D01*
X145020858Y-91801174D01*
X145044750Y-91800000D01*
X145532250Y-91800000D01*
X145556142Y-91801174D01*
G37*
G36*
X147431142Y-91801174D02*
G01*
X147454803Y-91804684D01*
X147478007Y-91810496D01*
X147500529Y-91818554D01*
X147522153Y-91828782D01*
X147542670Y-91841079D01*
X147561883Y-91855329D01*
X147579607Y-91871393D01*
X147595671Y-91889117D01*
X147609921Y-91908330D01*
X147622218Y-91928847D01*
X147632446Y-91950471D01*
X147640504Y-91972993D01*
X147646316Y-91996197D01*
X147649826Y-92019858D01*
X147651000Y-92043750D01*
X147651000Y-92956250D01*
X147649826Y-92980142D01*
X147646316Y-93003803D01*
X147640504Y-93027007D01*
X147632446Y-93049529D01*
X147622218Y-93071153D01*
X147609921Y-93091670D01*
X147595671Y-93110883D01*
X147579607Y-93128607D01*
X147561883Y-93144671D01*
X147542670Y-93158921D01*
X147522153Y-93171218D01*
X147500529Y-93181446D01*
X147478007Y-93189504D01*
X147454803Y-93195316D01*
X147431142Y-93198826D01*
X147407250Y-93200000D01*
X146919750Y-93200000D01*
X146895858Y-93198826D01*
X146872197Y-93195316D01*
X146848993Y-93189504D01*
X146826471Y-93181446D01*
X146804847Y-93171218D01*
X146784330Y-93158921D01*
X146765117Y-93144671D01*
X146747393Y-93128607D01*
X146731329Y-93110883D01*
X146717079Y-93091670D01*
X146704782Y-93071153D01*
X146694554Y-93049529D01*
X146686496Y-93027007D01*
X146680684Y-93003803D01*
X146677174Y-92980142D01*
X146676000Y-92956250D01*
X146676000Y-92043750D01*
X146677174Y-92019858D01*
X146680684Y-91996197D01*
X146686496Y-91972993D01*
X146694554Y-91950471D01*
X146704782Y-91928847D01*
X146717079Y-91908330D01*
X146731329Y-91889117D01*
X146747393Y-91871393D01*
X146765117Y-91855329D01*
X146784330Y-91841079D01*
X146804847Y-91828782D01*
X146826471Y-91818554D01*
X146848993Y-91810496D01*
X146872197Y-91804684D01*
X146895858Y-91801174D01*
X146919750Y-91800000D01*
X147407250Y-91800000D01*
X147431142Y-91801174D01*
G37*
G36*
X149008142Y-95300174D02*
G01*
X149031803Y-95303684D01*
X149055007Y-95309496D01*
X149077529Y-95317554D01*
X149099153Y-95327782D01*
X149119670Y-95340079D01*
X149138883Y-95354329D01*
X149156607Y-95370393D01*
X149172671Y-95388117D01*
X149186921Y-95407330D01*
X149199218Y-95427847D01*
X149209446Y-95449471D01*
X149217504Y-95471993D01*
X149223316Y-95495197D01*
X149226826Y-95518858D01*
X149228000Y-95542750D01*
X149228000Y-96030250D01*
X149226826Y-96054142D01*
X149223316Y-96077803D01*
X149217504Y-96101007D01*
X149209446Y-96123529D01*
X149199218Y-96145153D01*
X149186921Y-96165670D01*
X149172671Y-96184883D01*
X149156607Y-96202607D01*
X149138883Y-96218671D01*
X149119670Y-96232921D01*
X149099153Y-96245218D01*
X149077529Y-96255446D01*
X149055007Y-96263504D01*
X149031803Y-96269316D01*
X149008142Y-96272826D01*
X148984250Y-96274000D01*
X148071750Y-96274000D01*
X148047858Y-96272826D01*
X148024197Y-96269316D01*
X148000993Y-96263504D01*
X147978471Y-96255446D01*
X147956847Y-96245218D01*
X147936330Y-96232921D01*
X147917117Y-96218671D01*
X147899393Y-96202607D01*
X147883329Y-96184883D01*
X147869079Y-96165670D01*
X147856782Y-96145153D01*
X147846554Y-96123529D01*
X147838496Y-96101007D01*
X147832684Y-96077803D01*
X147829174Y-96054142D01*
X147828000Y-96030250D01*
X147828000Y-95542750D01*
X147829174Y-95518858D01*
X147832684Y-95495197D01*
X147838496Y-95471993D01*
X147846554Y-95449471D01*
X147856782Y-95427847D01*
X147869079Y-95407330D01*
X147883329Y-95388117D01*
X147899393Y-95370393D01*
X147917117Y-95354329D01*
X147936330Y-95340079D01*
X147956847Y-95327782D01*
X147978471Y-95317554D01*
X148000993Y-95309496D01*
X148024197Y-95303684D01*
X148047858Y-95300174D01*
X148071750Y-95299000D01*
X148984250Y-95299000D01*
X149008142Y-95300174D01*
G37*
G36*
X149008142Y-97175174D02*
G01*
X149031803Y-97178684D01*
X149055007Y-97184496D01*
X149077529Y-97192554D01*
X149099153Y-97202782D01*
X149119670Y-97215079D01*
X149138883Y-97229329D01*
X149156607Y-97245393D01*
X149172671Y-97263117D01*
X149186921Y-97282330D01*
X149199218Y-97302847D01*
X149209446Y-97324471D01*
X149217504Y-97346993D01*
X149223316Y-97370197D01*
X149226826Y-97393858D01*
X149228000Y-97417750D01*
X149228000Y-97905250D01*
X149226826Y-97929142D01*
X149223316Y-97952803D01*
X149217504Y-97976007D01*
X149209446Y-97998529D01*
X149199218Y-98020153D01*
X149186921Y-98040670D01*
X149172671Y-98059883D01*
X149156607Y-98077607D01*
X149138883Y-98093671D01*
X149119670Y-98107921D01*
X149099153Y-98120218D01*
X149077529Y-98130446D01*
X149055007Y-98138504D01*
X149031803Y-98144316D01*
X149008142Y-98147826D01*
X148984250Y-98149000D01*
X148071750Y-98149000D01*
X148047858Y-98147826D01*
X148024197Y-98144316D01*
X148000993Y-98138504D01*
X147978471Y-98130446D01*
X147956847Y-98120218D01*
X147936330Y-98107921D01*
X147917117Y-98093671D01*
X147899393Y-98077607D01*
X147883329Y-98059883D01*
X147869079Y-98040670D01*
X147856782Y-98020153D01*
X147846554Y-97998529D01*
X147838496Y-97976007D01*
X147832684Y-97952803D01*
X147829174Y-97929142D01*
X147828000Y-97905250D01*
X147828000Y-97417750D01*
X147829174Y-97393858D01*
X147832684Y-97370197D01*
X147838496Y-97346993D01*
X147846554Y-97324471D01*
X147856782Y-97302847D01*
X147869079Y-97282330D01*
X147883329Y-97263117D01*
X147899393Y-97245393D01*
X147917117Y-97229329D01*
X147936330Y-97215079D01*
X147956847Y-97202782D01*
X147978471Y-97192554D01*
X148000993Y-97184496D01*
X148024197Y-97178684D01*
X148047858Y-97175174D01*
X148071750Y-97174000D01*
X148984250Y-97174000D01*
X149008142Y-97175174D01*
G37*
G36*
X176230142Y-79951174D02*
G01*
X176253803Y-79954684D01*
X176277007Y-79960496D01*
X176299529Y-79968554D01*
X176321153Y-79978782D01*
X176341670Y-79991079D01*
X176360883Y-80005329D01*
X176378607Y-80021393D01*
X176394671Y-80039117D01*
X176408921Y-80058330D01*
X176421218Y-80078847D01*
X176431446Y-80100471D01*
X176439504Y-80122993D01*
X176445316Y-80146197D01*
X176448826Y-80169858D01*
X176450000Y-80193750D01*
X176450000Y-80681250D01*
X176448826Y-80705142D01*
X176445316Y-80728803D01*
X176439504Y-80752007D01*
X176431446Y-80774529D01*
X176421218Y-80796153D01*
X176408921Y-80816670D01*
X176394671Y-80835883D01*
X176378607Y-80853607D01*
X176360883Y-80869671D01*
X176341670Y-80883921D01*
X176321153Y-80896218D01*
X176299529Y-80906446D01*
X176277007Y-80914504D01*
X176253803Y-80920316D01*
X176230142Y-80923826D01*
X176206250Y-80925000D01*
X175293750Y-80925000D01*
X175269858Y-80923826D01*
X175246197Y-80920316D01*
X175222993Y-80914504D01*
X175200471Y-80906446D01*
X175178847Y-80896218D01*
X175158330Y-80883921D01*
X175139117Y-80869671D01*
X175121393Y-80853607D01*
X175105329Y-80835883D01*
X175091079Y-80816670D01*
X175078782Y-80796153D01*
X175068554Y-80774529D01*
X175060496Y-80752007D01*
X175054684Y-80728803D01*
X175051174Y-80705142D01*
X175050000Y-80681250D01*
X175050000Y-80193750D01*
X175051174Y-80169858D01*
X175054684Y-80146197D01*
X175060496Y-80122993D01*
X175068554Y-80100471D01*
X175078782Y-80078847D01*
X175091079Y-80058330D01*
X175105329Y-80039117D01*
X175121393Y-80021393D01*
X175139117Y-80005329D01*
X175158330Y-79991079D01*
X175178847Y-79978782D01*
X175200471Y-79968554D01*
X175222993Y-79960496D01*
X175246197Y-79954684D01*
X175269858Y-79951174D01*
X175293750Y-79950000D01*
X176206250Y-79950000D01*
X176230142Y-79951174D01*
G37*
G36*
X176230142Y-78076174D02*
G01*
X176253803Y-78079684D01*
X176277007Y-78085496D01*
X176299529Y-78093554D01*
X176321153Y-78103782D01*
X176341670Y-78116079D01*
X176360883Y-78130329D01*
X176378607Y-78146393D01*
X176394671Y-78164117D01*
X176408921Y-78183330D01*
X176421218Y-78203847D01*
X176431446Y-78225471D01*
X176439504Y-78247993D01*
X176445316Y-78271197D01*
X176448826Y-78294858D01*
X176450000Y-78318750D01*
X176450000Y-78806250D01*
X176448826Y-78830142D01*
X176445316Y-78853803D01*
X176439504Y-78877007D01*
X176431446Y-78899529D01*
X176421218Y-78921153D01*
X176408921Y-78941670D01*
X176394671Y-78960883D01*
X176378607Y-78978607D01*
X176360883Y-78994671D01*
X176341670Y-79008921D01*
X176321153Y-79021218D01*
X176299529Y-79031446D01*
X176277007Y-79039504D01*
X176253803Y-79045316D01*
X176230142Y-79048826D01*
X176206250Y-79050000D01*
X175293750Y-79050000D01*
X175269858Y-79048826D01*
X175246197Y-79045316D01*
X175222993Y-79039504D01*
X175200471Y-79031446D01*
X175178847Y-79021218D01*
X175158330Y-79008921D01*
X175139117Y-78994671D01*
X175121393Y-78978607D01*
X175105329Y-78960883D01*
X175091079Y-78941670D01*
X175078782Y-78921153D01*
X175068554Y-78899529D01*
X175060496Y-78877007D01*
X175054684Y-78853803D01*
X175051174Y-78830142D01*
X175050000Y-78806250D01*
X175050000Y-78318750D01*
X175051174Y-78294858D01*
X175054684Y-78271197D01*
X175060496Y-78247993D01*
X175068554Y-78225471D01*
X175078782Y-78203847D01*
X175091079Y-78183330D01*
X175105329Y-78164117D01*
X175121393Y-78146393D01*
X175139117Y-78130329D01*
X175158330Y-78116079D01*
X175178847Y-78103782D01*
X175200471Y-78093554D01*
X175222993Y-78085496D01*
X175246197Y-78079684D01*
X175269858Y-78076174D01*
X175293750Y-78075000D01*
X176206250Y-78075000D01*
X176230142Y-78076174D01*
G37*
D16*
X111196000Y-91250000D03*
X113196000Y-90300000D03*
X113196000Y-92200000D03*
X121356000Y-91250000D03*
X123356000Y-90300000D03*
X123356000Y-92200000D03*
X131516000Y-91250000D03*
X133516000Y-90300000D03*
X133516000Y-92200000D03*
X141676000Y-91250000D03*
X143676000Y-90300000D03*
X143676000Y-92200000D03*
D17*
X182742000Y-77421500D03*
D18*
X181742000Y-80121500D03*
X181092000Y-80121500D03*
X180442000Y-80121500D03*
X183042000Y-80121500D03*
X182392000Y-80121500D03*
D17*
X180742000Y-77421500D03*
D10*
G36*
X103535142Y-85738174D02*
G01*
X103558803Y-85741684D01*
X103582007Y-85747496D01*
X103604529Y-85755554D01*
X103626153Y-85765782D01*
X103646670Y-85778079D01*
X103665883Y-85792329D01*
X103683607Y-85808393D01*
X103699671Y-85826117D01*
X103713921Y-85845330D01*
X103726218Y-85865847D01*
X103736446Y-85887471D01*
X103744504Y-85909993D01*
X103750316Y-85933197D01*
X103753826Y-85956858D01*
X103755000Y-85980750D01*
X103755000Y-86893250D01*
X103753826Y-86917142D01*
X103750316Y-86940803D01*
X103744504Y-86964007D01*
X103736446Y-86986529D01*
X103726218Y-87008153D01*
X103713921Y-87028670D01*
X103699671Y-87047883D01*
X103683607Y-87065607D01*
X103665883Y-87081671D01*
X103646670Y-87095921D01*
X103626153Y-87108218D01*
X103604529Y-87118446D01*
X103582007Y-87126504D01*
X103558803Y-87132316D01*
X103535142Y-87135826D01*
X103511250Y-87137000D01*
X103023750Y-87137000D01*
X102999858Y-87135826D01*
X102976197Y-87132316D01*
X102952993Y-87126504D01*
X102930471Y-87118446D01*
X102908847Y-87108218D01*
X102888330Y-87095921D01*
X102869117Y-87081671D01*
X102851393Y-87065607D01*
X102835329Y-87047883D01*
X102821079Y-87028670D01*
X102808782Y-87008153D01*
X102798554Y-86986529D01*
X102790496Y-86964007D01*
X102784684Y-86940803D01*
X102781174Y-86917142D01*
X102780000Y-86893250D01*
X102780000Y-85980750D01*
X102781174Y-85956858D01*
X102784684Y-85933197D01*
X102790496Y-85909993D01*
X102798554Y-85887471D01*
X102808782Y-85865847D01*
X102821079Y-85845330D01*
X102835329Y-85826117D01*
X102851393Y-85808393D01*
X102869117Y-85792329D01*
X102888330Y-85778079D01*
X102908847Y-85765782D01*
X102930471Y-85755554D01*
X102952993Y-85747496D01*
X102976197Y-85741684D01*
X102999858Y-85738174D01*
X103023750Y-85737000D01*
X103511250Y-85737000D01*
X103535142Y-85738174D01*
G37*
G36*
X105410142Y-85738174D02*
G01*
X105433803Y-85741684D01*
X105457007Y-85747496D01*
X105479529Y-85755554D01*
X105501153Y-85765782D01*
X105521670Y-85778079D01*
X105540883Y-85792329D01*
X105558607Y-85808393D01*
X105574671Y-85826117D01*
X105588921Y-85845330D01*
X105601218Y-85865847D01*
X105611446Y-85887471D01*
X105619504Y-85909993D01*
X105625316Y-85933197D01*
X105628826Y-85956858D01*
X105630000Y-85980750D01*
X105630000Y-86893250D01*
X105628826Y-86917142D01*
X105625316Y-86940803D01*
X105619504Y-86964007D01*
X105611446Y-86986529D01*
X105601218Y-87008153D01*
X105588921Y-87028670D01*
X105574671Y-87047883D01*
X105558607Y-87065607D01*
X105540883Y-87081671D01*
X105521670Y-87095921D01*
X105501153Y-87108218D01*
X105479529Y-87118446D01*
X105457007Y-87126504D01*
X105433803Y-87132316D01*
X105410142Y-87135826D01*
X105386250Y-87137000D01*
X104898750Y-87137000D01*
X104874858Y-87135826D01*
X104851197Y-87132316D01*
X104827993Y-87126504D01*
X104805471Y-87118446D01*
X104783847Y-87108218D01*
X104763330Y-87095921D01*
X104744117Y-87081671D01*
X104726393Y-87065607D01*
X104710329Y-87047883D01*
X104696079Y-87028670D01*
X104683782Y-87008153D01*
X104673554Y-86986529D01*
X104665496Y-86964007D01*
X104659684Y-86940803D01*
X104656174Y-86917142D01*
X104655000Y-86893250D01*
X104655000Y-85980750D01*
X104656174Y-85956858D01*
X104659684Y-85933197D01*
X104665496Y-85909993D01*
X104673554Y-85887471D01*
X104683782Y-85865847D01*
X104696079Y-85845330D01*
X104710329Y-85826117D01*
X104726393Y-85808393D01*
X104744117Y-85792329D01*
X104763330Y-85778079D01*
X104783847Y-85765782D01*
X104805471Y-85755554D01*
X104827993Y-85747496D01*
X104851197Y-85741684D01*
X104874858Y-85738174D01*
X104898750Y-85737000D01*
X105386250Y-85737000D01*
X105410142Y-85738174D01*
G37*
G36*
X187071142Y-83960174D02*
G01*
X187094803Y-83963684D01*
X187118007Y-83969496D01*
X187140529Y-83977554D01*
X187162153Y-83987782D01*
X187182670Y-84000079D01*
X187201883Y-84014329D01*
X187219607Y-84030393D01*
X187235671Y-84048117D01*
X187249921Y-84067330D01*
X187262218Y-84087847D01*
X187272446Y-84109471D01*
X187280504Y-84131993D01*
X187286316Y-84155197D01*
X187289826Y-84178858D01*
X187291000Y-84202750D01*
X187291000Y-85115250D01*
X187289826Y-85139142D01*
X187286316Y-85162803D01*
X187280504Y-85186007D01*
X187272446Y-85208529D01*
X187262218Y-85230153D01*
X187249921Y-85250670D01*
X187235671Y-85269883D01*
X187219607Y-85287607D01*
X187201883Y-85303671D01*
X187182670Y-85317921D01*
X187162153Y-85330218D01*
X187140529Y-85340446D01*
X187118007Y-85348504D01*
X187094803Y-85354316D01*
X187071142Y-85357826D01*
X187047250Y-85359000D01*
X186559750Y-85359000D01*
X186535858Y-85357826D01*
X186512197Y-85354316D01*
X186488993Y-85348504D01*
X186466471Y-85340446D01*
X186444847Y-85330218D01*
X186424330Y-85317921D01*
X186405117Y-85303671D01*
X186387393Y-85287607D01*
X186371329Y-85269883D01*
X186357079Y-85250670D01*
X186344782Y-85230153D01*
X186334554Y-85208529D01*
X186326496Y-85186007D01*
X186320684Y-85162803D01*
X186317174Y-85139142D01*
X186316000Y-85115250D01*
X186316000Y-84202750D01*
X186317174Y-84178858D01*
X186320684Y-84155197D01*
X186326496Y-84131993D01*
X186334554Y-84109471D01*
X186344782Y-84087847D01*
X186357079Y-84067330D01*
X186371329Y-84048117D01*
X186387393Y-84030393D01*
X186405117Y-84014329D01*
X186424330Y-84000079D01*
X186444847Y-83987782D01*
X186466471Y-83977554D01*
X186488993Y-83969496D01*
X186512197Y-83963684D01*
X186535858Y-83960174D01*
X186559750Y-83959000D01*
X187047250Y-83959000D01*
X187071142Y-83960174D01*
G37*
G36*
X185196142Y-83960174D02*
G01*
X185219803Y-83963684D01*
X185243007Y-83969496D01*
X185265529Y-83977554D01*
X185287153Y-83987782D01*
X185307670Y-84000079D01*
X185326883Y-84014329D01*
X185344607Y-84030393D01*
X185360671Y-84048117D01*
X185374921Y-84067330D01*
X185387218Y-84087847D01*
X185397446Y-84109471D01*
X185405504Y-84131993D01*
X185411316Y-84155197D01*
X185414826Y-84178858D01*
X185416000Y-84202750D01*
X185416000Y-85115250D01*
X185414826Y-85139142D01*
X185411316Y-85162803D01*
X185405504Y-85186007D01*
X185397446Y-85208529D01*
X185387218Y-85230153D01*
X185374921Y-85250670D01*
X185360671Y-85269883D01*
X185344607Y-85287607D01*
X185326883Y-85303671D01*
X185307670Y-85317921D01*
X185287153Y-85330218D01*
X185265529Y-85340446D01*
X185243007Y-85348504D01*
X185219803Y-85354316D01*
X185196142Y-85357826D01*
X185172250Y-85359000D01*
X184684750Y-85359000D01*
X184660858Y-85357826D01*
X184637197Y-85354316D01*
X184613993Y-85348504D01*
X184591471Y-85340446D01*
X184569847Y-85330218D01*
X184549330Y-85317921D01*
X184530117Y-85303671D01*
X184512393Y-85287607D01*
X184496329Y-85269883D01*
X184482079Y-85250670D01*
X184469782Y-85230153D01*
X184459554Y-85208529D01*
X184451496Y-85186007D01*
X184445684Y-85162803D01*
X184442174Y-85139142D01*
X184441000Y-85115250D01*
X184441000Y-84202750D01*
X184442174Y-84178858D01*
X184445684Y-84155197D01*
X184451496Y-84131993D01*
X184459554Y-84109471D01*
X184469782Y-84087847D01*
X184482079Y-84067330D01*
X184496329Y-84048117D01*
X184512393Y-84030393D01*
X184530117Y-84014329D01*
X184549330Y-84000079D01*
X184569847Y-83987782D01*
X184591471Y-83977554D01*
X184613993Y-83969496D01*
X184637197Y-83963684D01*
X184660858Y-83960174D01*
X184684750Y-83959000D01*
X185172250Y-83959000D01*
X185196142Y-83960174D01*
G37*
G36*
X109257142Y-90444174D02*
G01*
X109280803Y-90447684D01*
X109304007Y-90453496D01*
X109326529Y-90461554D01*
X109348153Y-90471782D01*
X109368670Y-90484079D01*
X109387883Y-90498329D01*
X109405607Y-90514393D01*
X109421671Y-90532117D01*
X109435921Y-90551330D01*
X109448218Y-90571847D01*
X109458446Y-90593471D01*
X109466504Y-90615993D01*
X109472316Y-90639197D01*
X109475826Y-90662858D01*
X109477000Y-90686750D01*
X109477000Y-91174250D01*
X109475826Y-91198142D01*
X109472316Y-91221803D01*
X109466504Y-91245007D01*
X109458446Y-91267529D01*
X109448218Y-91289153D01*
X109435921Y-91309670D01*
X109421671Y-91328883D01*
X109405607Y-91346607D01*
X109387883Y-91362671D01*
X109368670Y-91376921D01*
X109348153Y-91389218D01*
X109326529Y-91399446D01*
X109304007Y-91407504D01*
X109280803Y-91413316D01*
X109257142Y-91416826D01*
X109233250Y-91418000D01*
X108320750Y-91418000D01*
X108296858Y-91416826D01*
X108273197Y-91413316D01*
X108249993Y-91407504D01*
X108227471Y-91399446D01*
X108205847Y-91389218D01*
X108185330Y-91376921D01*
X108166117Y-91362671D01*
X108148393Y-91346607D01*
X108132329Y-91328883D01*
X108118079Y-91309670D01*
X108105782Y-91289153D01*
X108095554Y-91267529D01*
X108087496Y-91245007D01*
X108081684Y-91221803D01*
X108078174Y-91198142D01*
X108077000Y-91174250D01*
X108077000Y-90686750D01*
X108078174Y-90662858D01*
X108081684Y-90639197D01*
X108087496Y-90615993D01*
X108095554Y-90593471D01*
X108105782Y-90571847D01*
X108118079Y-90551330D01*
X108132329Y-90532117D01*
X108148393Y-90514393D01*
X108166117Y-90498329D01*
X108185330Y-90484079D01*
X108205847Y-90471782D01*
X108227471Y-90461554D01*
X108249993Y-90453496D01*
X108273197Y-90447684D01*
X108296858Y-90444174D01*
X108320750Y-90443000D01*
X109233250Y-90443000D01*
X109257142Y-90444174D01*
G37*
G36*
X109257142Y-88569174D02*
G01*
X109280803Y-88572684D01*
X109304007Y-88578496D01*
X109326529Y-88586554D01*
X109348153Y-88596782D01*
X109368670Y-88609079D01*
X109387883Y-88623329D01*
X109405607Y-88639393D01*
X109421671Y-88657117D01*
X109435921Y-88676330D01*
X109448218Y-88696847D01*
X109458446Y-88718471D01*
X109466504Y-88740993D01*
X109472316Y-88764197D01*
X109475826Y-88787858D01*
X109477000Y-88811750D01*
X109477000Y-89299250D01*
X109475826Y-89323142D01*
X109472316Y-89346803D01*
X109466504Y-89370007D01*
X109458446Y-89392529D01*
X109448218Y-89414153D01*
X109435921Y-89434670D01*
X109421671Y-89453883D01*
X109405607Y-89471607D01*
X109387883Y-89487671D01*
X109368670Y-89501921D01*
X109348153Y-89514218D01*
X109326529Y-89524446D01*
X109304007Y-89532504D01*
X109280803Y-89538316D01*
X109257142Y-89541826D01*
X109233250Y-89543000D01*
X108320750Y-89543000D01*
X108296858Y-89541826D01*
X108273197Y-89538316D01*
X108249993Y-89532504D01*
X108227471Y-89524446D01*
X108205847Y-89514218D01*
X108185330Y-89501921D01*
X108166117Y-89487671D01*
X108148393Y-89471607D01*
X108132329Y-89453883D01*
X108118079Y-89434670D01*
X108105782Y-89414153D01*
X108095554Y-89392529D01*
X108087496Y-89370007D01*
X108081684Y-89346803D01*
X108078174Y-89323142D01*
X108077000Y-89299250D01*
X108077000Y-88811750D01*
X108078174Y-88787858D01*
X108081684Y-88764197D01*
X108087496Y-88740993D01*
X108095554Y-88718471D01*
X108105782Y-88696847D01*
X108118079Y-88676330D01*
X108132329Y-88657117D01*
X108148393Y-88639393D01*
X108166117Y-88623329D01*
X108185330Y-88609079D01*
X108205847Y-88596782D01*
X108227471Y-88586554D01*
X108249993Y-88578496D01*
X108273197Y-88572684D01*
X108296858Y-88569174D01*
X108320750Y-88568000D01*
X109233250Y-88568000D01*
X109257142Y-88569174D01*
G37*
G36*
X119417142Y-90444174D02*
G01*
X119440803Y-90447684D01*
X119464007Y-90453496D01*
X119486529Y-90461554D01*
X119508153Y-90471782D01*
X119528670Y-90484079D01*
X119547883Y-90498329D01*
X119565607Y-90514393D01*
X119581671Y-90532117D01*
X119595921Y-90551330D01*
X119608218Y-90571847D01*
X119618446Y-90593471D01*
X119626504Y-90615993D01*
X119632316Y-90639197D01*
X119635826Y-90662858D01*
X119637000Y-90686750D01*
X119637000Y-91174250D01*
X119635826Y-91198142D01*
X119632316Y-91221803D01*
X119626504Y-91245007D01*
X119618446Y-91267529D01*
X119608218Y-91289153D01*
X119595921Y-91309670D01*
X119581671Y-91328883D01*
X119565607Y-91346607D01*
X119547883Y-91362671D01*
X119528670Y-91376921D01*
X119508153Y-91389218D01*
X119486529Y-91399446D01*
X119464007Y-91407504D01*
X119440803Y-91413316D01*
X119417142Y-91416826D01*
X119393250Y-91418000D01*
X118480750Y-91418000D01*
X118456858Y-91416826D01*
X118433197Y-91413316D01*
X118409993Y-91407504D01*
X118387471Y-91399446D01*
X118365847Y-91389218D01*
X118345330Y-91376921D01*
X118326117Y-91362671D01*
X118308393Y-91346607D01*
X118292329Y-91328883D01*
X118278079Y-91309670D01*
X118265782Y-91289153D01*
X118255554Y-91267529D01*
X118247496Y-91245007D01*
X118241684Y-91221803D01*
X118238174Y-91198142D01*
X118237000Y-91174250D01*
X118237000Y-90686750D01*
X118238174Y-90662858D01*
X118241684Y-90639197D01*
X118247496Y-90615993D01*
X118255554Y-90593471D01*
X118265782Y-90571847D01*
X118278079Y-90551330D01*
X118292329Y-90532117D01*
X118308393Y-90514393D01*
X118326117Y-90498329D01*
X118345330Y-90484079D01*
X118365847Y-90471782D01*
X118387471Y-90461554D01*
X118409993Y-90453496D01*
X118433197Y-90447684D01*
X118456858Y-90444174D01*
X118480750Y-90443000D01*
X119393250Y-90443000D01*
X119417142Y-90444174D01*
G37*
G36*
X119417142Y-88569174D02*
G01*
X119440803Y-88572684D01*
X119464007Y-88578496D01*
X119486529Y-88586554D01*
X119508153Y-88596782D01*
X119528670Y-88609079D01*
X119547883Y-88623329D01*
X119565607Y-88639393D01*
X119581671Y-88657117D01*
X119595921Y-88676330D01*
X119608218Y-88696847D01*
X119618446Y-88718471D01*
X119626504Y-88740993D01*
X119632316Y-88764197D01*
X119635826Y-88787858D01*
X119637000Y-88811750D01*
X119637000Y-89299250D01*
X119635826Y-89323142D01*
X119632316Y-89346803D01*
X119626504Y-89370007D01*
X119618446Y-89392529D01*
X119608218Y-89414153D01*
X119595921Y-89434670D01*
X119581671Y-89453883D01*
X119565607Y-89471607D01*
X119547883Y-89487671D01*
X119528670Y-89501921D01*
X119508153Y-89514218D01*
X119486529Y-89524446D01*
X119464007Y-89532504D01*
X119440803Y-89538316D01*
X119417142Y-89541826D01*
X119393250Y-89543000D01*
X118480750Y-89543000D01*
X118456858Y-89541826D01*
X118433197Y-89538316D01*
X118409993Y-89532504D01*
X118387471Y-89524446D01*
X118365847Y-89514218D01*
X118345330Y-89501921D01*
X118326117Y-89487671D01*
X118308393Y-89471607D01*
X118292329Y-89453883D01*
X118278079Y-89434670D01*
X118265782Y-89414153D01*
X118255554Y-89392529D01*
X118247496Y-89370007D01*
X118241684Y-89346803D01*
X118238174Y-89323142D01*
X118237000Y-89299250D01*
X118237000Y-88811750D01*
X118238174Y-88787858D01*
X118241684Y-88764197D01*
X118247496Y-88740993D01*
X118255554Y-88718471D01*
X118265782Y-88696847D01*
X118278079Y-88676330D01*
X118292329Y-88657117D01*
X118308393Y-88639393D01*
X118326117Y-88623329D01*
X118345330Y-88609079D01*
X118365847Y-88596782D01*
X118387471Y-88586554D01*
X118409993Y-88578496D01*
X118433197Y-88572684D01*
X118456858Y-88569174D01*
X118480750Y-88568000D01*
X119393250Y-88568000D01*
X119417142Y-88569174D01*
G37*
G36*
X129577142Y-90444174D02*
G01*
X129600803Y-90447684D01*
X129624007Y-90453496D01*
X129646529Y-90461554D01*
X129668153Y-90471782D01*
X129688670Y-90484079D01*
X129707883Y-90498329D01*
X129725607Y-90514393D01*
X129741671Y-90532117D01*
X129755921Y-90551330D01*
X129768218Y-90571847D01*
X129778446Y-90593471D01*
X129786504Y-90615993D01*
X129792316Y-90639197D01*
X129795826Y-90662858D01*
X129797000Y-90686750D01*
X129797000Y-91174250D01*
X129795826Y-91198142D01*
X129792316Y-91221803D01*
X129786504Y-91245007D01*
X129778446Y-91267529D01*
X129768218Y-91289153D01*
X129755921Y-91309670D01*
X129741671Y-91328883D01*
X129725607Y-91346607D01*
X129707883Y-91362671D01*
X129688670Y-91376921D01*
X129668153Y-91389218D01*
X129646529Y-91399446D01*
X129624007Y-91407504D01*
X129600803Y-91413316D01*
X129577142Y-91416826D01*
X129553250Y-91418000D01*
X128640750Y-91418000D01*
X128616858Y-91416826D01*
X128593197Y-91413316D01*
X128569993Y-91407504D01*
X128547471Y-91399446D01*
X128525847Y-91389218D01*
X128505330Y-91376921D01*
X128486117Y-91362671D01*
X128468393Y-91346607D01*
X128452329Y-91328883D01*
X128438079Y-91309670D01*
X128425782Y-91289153D01*
X128415554Y-91267529D01*
X128407496Y-91245007D01*
X128401684Y-91221803D01*
X128398174Y-91198142D01*
X128397000Y-91174250D01*
X128397000Y-90686750D01*
X128398174Y-90662858D01*
X128401684Y-90639197D01*
X128407496Y-90615993D01*
X128415554Y-90593471D01*
X128425782Y-90571847D01*
X128438079Y-90551330D01*
X128452329Y-90532117D01*
X128468393Y-90514393D01*
X128486117Y-90498329D01*
X128505330Y-90484079D01*
X128525847Y-90471782D01*
X128547471Y-90461554D01*
X128569993Y-90453496D01*
X128593197Y-90447684D01*
X128616858Y-90444174D01*
X128640750Y-90443000D01*
X129553250Y-90443000D01*
X129577142Y-90444174D01*
G37*
G36*
X129577142Y-88569174D02*
G01*
X129600803Y-88572684D01*
X129624007Y-88578496D01*
X129646529Y-88586554D01*
X129668153Y-88596782D01*
X129688670Y-88609079D01*
X129707883Y-88623329D01*
X129725607Y-88639393D01*
X129741671Y-88657117D01*
X129755921Y-88676330D01*
X129768218Y-88696847D01*
X129778446Y-88718471D01*
X129786504Y-88740993D01*
X129792316Y-88764197D01*
X129795826Y-88787858D01*
X129797000Y-88811750D01*
X129797000Y-89299250D01*
X129795826Y-89323142D01*
X129792316Y-89346803D01*
X129786504Y-89370007D01*
X129778446Y-89392529D01*
X129768218Y-89414153D01*
X129755921Y-89434670D01*
X129741671Y-89453883D01*
X129725607Y-89471607D01*
X129707883Y-89487671D01*
X129688670Y-89501921D01*
X129668153Y-89514218D01*
X129646529Y-89524446D01*
X129624007Y-89532504D01*
X129600803Y-89538316D01*
X129577142Y-89541826D01*
X129553250Y-89543000D01*
X128640750Y-89543000D01*
X128616858Y-89541826D01*
X128593197Y-89538316D01*
X128569993Y-89532504D01*
X128547471Y-89524446D01*
X128525847Y-89514218D01*
X128505330Y-89501921D01*
X128486117Y-89487671D01*
X128468393Y-89471607D01*
X128452329Y-89453883D01*
X128438079Y-89434670D01*
X128425782Y-89414153D01*
X128415554Y-89392529D01*
X128407496Y-89370007D01*
X128401684Y-89346803D01*
X128398174Y-89323142D01*
X128397000Y-89299250D01*
X128397000Y-88811750D01*
X128398174Y-88787858D01*
X128401684Y-88764197D01*
X128407496Y-88740993D01*
X128415554Y-88718471D01*
X128425782Y-88696847D01*
X128438079Y-88676330D01*
X128452329Y-88657117D01*
X128468393Y-88639393D01*
X128486117Y-88623329D01*
X128505330Y-88609079D01*
X128525847Y-88596782D01*
X128547471Y-88586554D01*
X128569993Y-88578496D01*
X128593197Y-88572684D01*
X128616858Y-88569174D01*
X128640750Y-88568000D01*
X129553250Y-88568000D01*
X129577142Y-88569174D01*
G37*
G36*
X139737142Y-90444174D02*
G01*
X139760803Y-90447684D01*
X139784007Y-90453496D01*
X139806529Y-90461554D01*
X139828153Y-90471782D01*
X139848670Y-90484079D01*
X139867883Y-90498329D01*
X139885607Y-90514393D01*
X139901671Y-90532117D01*
X139915921Y-90551330D01*
X139928218Y-90571847D01*
X139938446Y-90593471D01*
X139946504Y-90615993D01*
X139952316Y-90639197D01*
X139955826Y-90662858D01*
X139957000Y-90686750D01*
X139957000Y-91174250D01*
X139955826Y-91198142D01*
X139952316Y-91221803D01*
X139946504Y-91245007D01*
X139938446Y-91267529D01*
X139928218Y-91289153D01*
X139915921Y-91309670D01*
X139901671Y-91328883D01*
X139885607Y-91346607D01*
X139867883Y-91362671D01*
X139848670Y-91376921D01*
X139828153Y-91389218D01*
X139806529Y-91399446D01*
X139784007Y-91407504D01*
X139760803Y-91413316D01*
X139737142Y-91416826D01*
X139713250Y-91418000D01*
X138800750Y-91418000D01*
X138776858Y-91416826D01*
X138753197Y-91413316D01*
X138729993Y-91407504D01*
X138707471Y-91399446D01*
X138685847Y-91389218D01*
X138665330Y-91376921D01*
X138646117Y-91362671D01*
X138628393Y-91346607D01*
X138612329Y-91328883D01*
X138598079Y-91309670D01*
X138585782Y-91289153D01*
X138575554Y-91267529D01*
X138567496Y-91245007D01*
X138561684Y-91221803D01*
X138558174Y-91198142D01*
X138557000Y-91174250D01*
X138557000Y-90686750D01*
X138558174Y-90662858D01*
X138561684Y-90639197D01*
X138567496Y-90615993D01*
X138575554Y-90593471D01*
X138585782Y-90571847D01*
X138598079Y-90551330D01*
X138612329Y-90532117D01*
X138628393Y-90514393D01*
X138646117Y-90498329D01*
X138665330Y-90484079D01*
X138685847Y-90471782D01*
X138707471Y-90461554D01*
X138729993Y-90453496D01*
X138753197Y-90447684D01*
X138776858Y-90444174D01*
X138800750Y-90443000D01*
X139713250Y-90443000D01*
X139737142Y-90444174D01*
G37*
G36*
X139737142Y-88569174D02*
G01*
X139760803Y-88572684D01*
X139784007Y-88578496D01*
X139806529Y-88586554D01*
X139828153Y-88596782D01*
X139848670Y-88609079D01*
X139867883Y-88623329D01*
X139885607Y-88639393D01*
X139901671Y-88657117D01*
X139915921Y-88676330D01*
X139928218Y-88696847D01*
X139938446Y-88718471D01*
X139946504Y-88740993D01*
X139952316Y-88764197D01*
X139955826Y-88787858D01*
X139957000Y-88811750D01*
X139957000Y-89299250D01*
X139955826Y-89323142D01*
X139952316Y-89346803D01*
X139946504Y-89370007D01*
X139938446Y-89392529D01*
X139928218Y-89414153D01*
X139915921Y-89434670D01*
X139901671Y-89453883D01*
X139885607Y-89471607D01*
X139867883Y-89487671D01*
X139848670Y-89501921D01*
X139828153Y-89514218D01*
X139806529Y-89524446D01*
X139784007Y-89532504D01*
X139760803Y-89538316D01*
X139737142Y-89541826D01*
X139713250Y-89543000D01*
X138800750Y-89543000D01*
X138776858Y-89541826D01*
X138753197Y-89538316D01*
X138729993Y-89532504D01*
X138707471Y-89524446D01*
X138685847Y-89514218D01*
X138665330Y-89501921D01*
X138646117Y-89487671D01*
X138628393Y-89471607D01*
X138612329Y-89453883D01*
X138598079Y-89434670D01*
X138585782Y-89414153D01*
X138575554Y-89392529D01*
X138567496Y-89370007D01*
X138561684Y-89346803D01*
X138558174Y-89323142D01*
X138557000Y-89299250D01*
X138557000Y-88811750D01*
X138558174Y-88787858D01*
X138561684Y-88764197D01*
X138567496Y-88740993D01*
X138575554Y-88718471D01*
X138585782Y-88696847D01*
X138598079Y-88676330D01*
X138612329Y-88657117D01*
X138628393Y-88639393D01*
X138646117Y-88623329D01*
X138665330Y-88609079D01*
X138685847Y-88596782D01*
X138707471Y-88586554D01*
X138729993Y-88578496D01*
X138753197Y-88572684D01*
X138776858Y-88569174D01*
X138800750Y-88568000D01*
X139713250Y-88568000D01*
X139737142Y-88569174D01*
G37*
G36*
X190714142Y-83301174D02*
G01*
X190737803Y-83304684D01*
X190761007Y-83310496D01*
X190783529Y-83318554D01*
X190805153Y-83328782D01*
X190825670Y-83341079D01*
X190844883Y-83355329D01*
X190862607Y-83371393D01*
X190878671Y-83389117D01*
X190892921Y-83408330D01*
X190905218Y-83428847D01*
X190915446Y-83450471D01*
X190923504Y-83472993D01*
X190929316Y-83496197D01*
X190932826Y-83519858D01*
X190934000Y-83543750D01*
X190934000Y-84456250D01*
X190932826Y-84480142D01*
X190929316Y-84503803D01*
X190923504Y-84527007D01*
X190915446Y-84549529D01*
X190905218Y-84571153D01*
X190892921Y-84591670D01*
X190878671Y-84610883D01*
X190862607Y-84628607D01*
X190844883Y-84644671D01*
X190825670Y-84658921D01*
X190805153Y-84671218D01*
X190783529Y-84681446D01*
X190761007Y-84689504D01*
X190737803Y-84695316D01*
X190714142Y-84698826D01*
X190690250Y-84700000D01*
X190202750Y-84700000D01*
X190178858Y-84698826D01*
X190155197Y-84695316D01*
X190131993Y-84689504D01*
X190109471Y-84681446D01*
X190087847Y-84671218D01*
X190067330Y-84658921D01*
X190048117Y-84644671D01*
X190030393Y-84628607D01*
X190014329Y-84610883D01*
X190000079Y-84591670D01*
X189987782Y-84571153D01*
X189977554Y-84549529D01*
X189969496Y-84527007D01*
X189963684Y-84503803D01*
X189960174Y-84480142D01*
X189959000Y-84456250D01*
X189959000Y-83543750D01*
X189960174Y-83519858D01*
X189963684Y-83496197D01*
X189969496Y-83472993D01*
X189977554Y-83450471D01*
X189987782Y-83428847D01*
X190000079Y-83408330D01*
X190014329Y-83389117D01*
X190030393Y-83371393D01*
X190048117Y-83355329D01*
X190067330Y-83341079D01*
X190087847Y-83328782D01*
X190109471Y-83318554D01*
X190131993Y-83310496D01*
X190155197Y-83304684D01*
X190178858Y-83301174D01*
X190202750Y-83300000D01*
X190690250Y-83300000D01*
X190714142Y-83301174D01*
G37*
G36*
X188839142Y-83301174D02*
G01*
X188862803Y-83304684D01*
X188886007Y-83310496D01*
X188908529Y-83318554D01*
X188930153Y-83328782D01*
X188950670Y-83341079D01*
X188969883Y-83355329D01*
X188987607Y-83371393D01*
X189003671Y-83389117D01*
X189017921Y-83408330D01*
X189030218Y-83428847D01*
X189040446Y-83450471D01*
X189048504Y-83472993D01*
X189054316Y-83496197D01*
X189057826Y-83519858D01*
X189059000Y-83543750D01*
X189059000Y-84456250D01*
X189057826Y-84480142D01*
X189054316Y-84503803D01*
X189048504Y-84527007D01*
X189040446Y-84549529D01*
X189030218Y-84571153D01*
X189017921Y-84591670D01*
X189003671Y-84610883D01*
X188987607Y-84628607D01*
X188969883Y-84644671D01*
X188950670Y-84658921D01*
X188930153Y-84671218D01*
X188908529Y-84681446D01*
X188886007Y-84689504D01*
X188862803Y-84695316D01*
X188839142Y-84698826D01*
X188815250Y-84700000D01*
X188327750Y-84700000D01*
X188303858Y-84698826D01*
X188280197Y-84695316D01*
X188256993Y-84689504D01*
X188234471Y-84681446D01*
X188212847Y-84671218D01*
X188192330Y-84658921D01*
X188173117Y-84644671D01*
X188155393Y-84628607D01*
X188139329Y-84610883D01*
X188125079Y-84591670D01*
X188112782Y-84571153D01*
X188102554Y-84549529D01*
X188094496Y-84527007D01*
X188088684Y-84503803D01*
X188085174Y-84480142D01*
X188084000Y-84456250D01*
X188084000Y-83543750D01*
X188085174Y-83519858D01*
X188088684Y-83496197D01*
X188094496Y-83472993D01*
X188102554Y-83450471D01*
X188112782Y-83428847D01*
X188125079Y-83408330D01*
X188139329Y-83389117D01*
X188155393Y-83371393D01*
X188173117Y-83355329D01*
X188192330Y-83341079D01*
X188212847Y-83328782D01*
X188234471Y-83318554D01*
X188256993Y-83310496D01*
X188280197Y-83304684D01*
X188303858Y-83301174D01*
X188327750Y-83300000D01*
X188815250Y-83300000D01*
X188839142Y-83301174D01*
G37*
G36*
X171205142Y-89051174D02*
G01*
X171228803Y-89054684D01*
X171252007Y-89060496D01*
X171274529Y-89068554D01*
X171296153Y-89078782D01*
X171316670Y-89091079D01*
X171335883Y-89105329D01*
X171353607Y-89121393D01*
X171369671Y-89139117D01*
X171383921Y-89158330D01*
X171396218Y-89178847D01*
X171406446Y-89200471D01*
X171414504Y-89222993D01*
X171420316Y-89246197D01*
X171423826Y-89269858D01*
X171425000Y-89293750D01*
X171425000Y-90206250D01*
X171423826Y-90230142D01*
X171420316Y-90253803D01*
X171414504Y-90277007D01*
X171406446Y-90299529D01*
X171396218Y-90321153D01*
X171383921Y-90341670D01*
X171369671Y-90360883D01*
X171353607Y-90378607D01*
X171335883Y-90394671D01*
X171316670Y-90408921D01*
X171296153Y-90421218D01*
X171274529Y-90431446D01*
X171252007Y-90439504D01*
X171228803Y-90445316D01*
X171205142Y-90448826D01*
X171181250Y-90450000D01*
X170693750Y-90450000D01*
X170669858Y-90448826D01*
X170646197Y-90445316D01*
X170622993Y-90439504D01*
X170600471Y-90431446D01*
X170578847Y-90421218D01*
X170558330Y-90408921D01*
X170539117Y-90394671D01*
X170521393Y-90378607D01*
X170505329Y-90360883D01*
X170491079Y-90341670D01*
X170478782Y-90321153D01*
X170468554Y-90299529D01*
X170460496Y-90277007D01*
X170454684Y-90253803D01*
X170451174Y-90230142D01*
X170450000Y-90206250D01*
X170450000Y-89293750D01*
X170451174Y-89269858D01*
X170454684Y-89246197D01*
X170460496Y-89222993D01*
X170468554Y-89200471D01*
X170478782Y-89178847D01*
X170491079Y-89158330D01*
X170505329Y-89139117D01*
X170521393Y-89121393D01*
X170539117Y-89105329D01*
X170558330Y-89091079D01*
X170578847Y-89078782D01*
X170600471Y-89068554D01*
X170622993Y-89060496D01*
X170646197Y-89054684D01*
X170669858Y-89051174D01*
X170693750Y-89050000D01*
X171181250Y-89050000D01*
X171205142Y-89051174D01*
G37*
G36*
X169330142Y-89051174D02*
G01*
X169353803Y-89054684D01*
X169377007Y-89060496D01*
X169399529Y-89068554D01*
X169421153Y-89078782D01*
X169441670Y-89091079D01*
X169460883Y-89105329D01*
X169478607Y-89121393D01*
X169494671Y-89139117D01*
X169508921Y-89158330D01*
X169521218Y-89178847D01*
X169531446Y-89200471D01*
X169539504Y-89222993D01*
X169545316Y-89246197D01*
X169548826Y-89269858D01*
X169550000Y-89293750D01*
X169550000Y-90206250D01*
X169548826Y-90230142D01*
X169545316Y-90253803D01*
X169539504Y-90277007D01*
X169531446Y-90299529D01*
X169521218Y-90321153D01*
X169508921Y-90341670D01*
X169494671Y-90360883D01*
X169478607Y-90378607D01*
X169460883Y-90394671D01*
X169441670Y-90408921D01*
X169421153Y-90421218D01*
X169399529Y-90431446D01*
X169377007Y-90439504D01*
X169353803Y-90445316D01*
X169330142Y-90448826D01*
X169306250Y-90450000D01*
X168818750Y-90450000D01*
X168794858Y-90448826D01*
X168771197Y-90445316D01*
X168747993Y-90439504D01*
X168725471Y-90431446D01*
X168703847Y-90421218D01*
X168683330Y-90408921D01*
X168664117Y-90394671D01*
X168646393Y-90378607D01*
X168630329Y-90360883D01*
X168616079Y-90341670D01*
X168603782Y-90321153D01*
X168593554Y-90299529D01*
X168585496Y-90277007D01*
X168579684Y-90253803D01*
X168576174Y-90230142D01*
X168575000Y-90206250D01*
X168575000Y-89293750D01*
X168576174Y-89269858D01*
X168579684Y-89246197D01*
X168585496Y-89222993D01*
X168593554Y-89200471D01*
X168603782Y-89178847D01*
X168616079Y-89158330D01*
X168630329Y-89139117D01*
X168646393Y-89121393D01*
X168664117Y-89105329D01*
X168683330Y-89091079D01*
X168703847Y-89078782D01*
X168725471Y-89068554D01*
X168747993Y-89060496D01*
X168771197Y-89054684D01*
X168794858Y-89051174D01*
X168818750Y-89050000D01*
X169306250Y-89050000D01*
X169330142Y-89051174D01*
G37*
G36*
X188831142Y-76541174D02*
G01*
X188854803Y-76544684D01*
X188878007Y-76550496D01*
X188900529Y-76558554D01*
X188922153Y-76568782D01*
X188942670Y-76581079D01*
X188961883Y-76595329D01*
X188979607Y-76611393D01*
X188995671Y-76629117D01*
X189009921Y-76648330D01*
X189022218Y-76668847D01*
X189032446Y-76690471D01*
X189040504Y-76712993D01*
X189046316Y-76736197D01*
X189049826Y-76759858D01*
X189051000Y-76783750D01*
X189051000Y-77696250D01*
X189049826Y-77720142D01*
X189046316Y-77743803D01*
X189040504Y-77767007D01*
X189032446Y-77789529D01*
X189022218Y-77811153D01*
X189009921Y-77831670D01*
X188995671Y-77850883D01*
X188979607Y-77868607D01*
X188961883Y-77884671D01*
X188942670Y-77898921D01*
X188922153Y-77911218D01*
X188900529Y-77921446D01*
X188878007Y-77929504D01*
X188854803Y-77935316D01*
X188831142Y-77938826D01*
X188807250Y-77940000D01*
X188319750Y-77940000D01*
X188295858Y-77938826D01*
X188272197Y-77935316D01*
X188248993Y-77929504D01*
X188226471Y-77921446D01*
X188204847Y-77911218D01*
X188184330Y-77898921D01*
X188165117Y-77884671D01*
X188147393Y-77868607D01*
X188131329Y-77850883D01*
X188117079Y-77831670D01*
X188104782Y-77811153D01*
X188094554Y-77789529D01*
X188086496Y-77767007D01*
X188080684Y-77743803D01*
X188077174Y-77720142D01*
X188076000Y-77696250D01*
X188076000Y-76783750D01*
X188077174Y-76759858D01*
X188080684Y-76736197D01*
X188086496Y-76712993D01*
X188094554Y-76690471D01*
X188104782Y-76668847D01*
X188117079Y-76648330D01*
X188131329Y-76629117D01*
X188147393Y-76611393D01*
X188165117Y-76595329D01*
X188184330Y-76581079D01*
X188204847Y-76568782D01*
X188226471Y-76558554D01*
X188248993Y-76550496D01*
X188272197Y-76544684D01*
X188295858Y-76541174D01*
X188319750Y-76540000D01*
X188807250Y-76540000D01*
X188831142Y-76541174D01*
G37*
G36*
X190706142Y-76541174D02*
G01*
X190729803Y-76544684D01*
X190753007Y-76550496D01*
X190775529Y-76558554D01*
X190797153Y-76568782D01*
X190817670Y-76581079D01*
X190836883Y-76595329D01*
X190854607Y-76611393D01*
X190870671Y-76629117D01*
X190884921Y-76648330D01*
X190897218Y-76668847D01*
X190907446Y-76690471D01*
X190915504Y-76712993D01*
X190921316Y-76736197D01*
X190924826Y-76759858D01*
X190926000Y-76783750D01*
X190926000Y-77696250D01*
X190924826Y-77720142D01*
X190921316Y-77743803D01*
X190915504Y-77767007D01*
X190907446Y-77789529D01*
X190897218Y-77811153D01*
X190884921Y-77831670D01*
X190870671Y-77850883D01*
X190854607Y-77868607D01*
X190836883Y-77884671D01*
X190817670Y-77898921D01*
X190797153Y-77911218D01*
X190775529Y-77921446D01*
X190753007Y-77929504D01*
X190729803Y-77935316D01*
X190706142Y-77938826D01*
X190682250Y-77940000D01*
X190194750Y-77940000D01*
X190170858Y-77938826D01*
X190147197Y-77935316D01*
X190123993Y-77929504D01*
X190101471Y-77921446D01*
X190079847Y-77911218D01*
X190059330Y-77898921D01*
X190040117Y-77884671D01*
X190022393Y-77868607D01*
X190006329Y-77850883D01*
X189992079Y-77831670D01*
X189979782Y-77811153D01*
X189969554Y-77789529D01*
X189961496Y-77767007D01*
X189955684Y-77743803D01*
X189952174Y-77720142D01*
X189951000Y-77696250D01*
X189951000Y-76783750D01*
X189952174Y-76759858D01*
X189955684Y-76736197D01*
X189961496Y-76712993D01*
X189969554Y-76690471D01*
X189979782Y-76668847D01*
X189992079Y-76648330D01*
X190006329Y-76629117D01*
X190022393Y-76611393D01*
X190040117Y-76595329D01*
X190059330Y-76581079D01*
X190079847Y-76568782D01*
X190101471Y-76558554D01*
X190123993Y-76550496D01*
X190147197Y-76544684D01*
X190170858Y-76541174D01*
X190194750Y-76540000D01*
X190682250Y-76540000D01*
X190706142Y-76541174D01*
G37*
G36*
X177330142Y-83301174D02*
G01*
X177353803Y-83304684D01*
X177377007Y-83310496D01*
X177399529Y-83318554D01*
X177421153Y-83328782D01*
X177441670Y-83341079D01*
X177460883Y-83355329D01*
X177478607Y-83371393D01*
X177494671Y-83389117D01*
X177508921Y-83408330D01*
X177521218Y-83428847D01*
X177531446Y-83450471D01*
X177539504Y-83472993D01*
X177545316Y-83496197D01*
X177548826Y-83519858D01*
X177550000Y-83543750D01*
X177550000Y-84456250D01*
X177548826Y-84480142D01*
X177545316Y-84503803D01*
X177539504Y-84527007D01*
X177531446Y-84549529D01*
X177521218Y-84571153D01*
X177508921Y-84591670D01*
X177494671Y-84610883D01*
X177478607Y-84628607D01*
X177460883Y-84644671D01*
X177441670Y-84658921D01*
X177421153Y-84671218D01*
X177399529Y-84681446D01*
X177377007Y-84689504D01*
X177353803Y-84695316D01*
X177330142Y-84698826D01*
X177306250Y-84700000D01*
X176818750Y-84700000D01*
X176794858Y-84698826D01*
X176771197Y-84695316D01*
X176747993Y-84689504D01*
X176725471Y-84681446D01*
X176703847Y-84671218D01*
X176683330Y-84658921D01*
X176664117Y-84644671D01*
X176646393Y-84628607D01*
X176630329Y-84610883D01*
X176616079Y-84591670D01*
X176603782Y-84571153D01*
X176593554Y-84549529D01*
X176585496Y-84527007D01*
X176579684Y-84503803D01*
X176576174Y-84480142D01*
X176575000Y-84456250D01*
X176575000Y-83543750D01*
X176576174Y-83519858D01*
X176579684Y-83496197D01*
X176585496Y-83472993D01*
X176593554Y-83450471D01*
X176603782Y-83428847D01*
X176616079Y-83408330D01*
X176630329Y-83389117D01*
X176646393Y-83371393D01*
X176664117Y-83355329D01*
X176683330Y-83341079D01*
X176703847Y-83328782D01*
X176725471Y-83318554D01*
X176747993Y-83310496D01*
X176771197Y-83304684D01*
X176794858Y-83301174D01*
X176818750Y-83300000D01*
X177306250Y-83300000D01*
X177330142Y-83301174D01*
G37*
G36*
X179205142Y-83301174D02*
G01*
X179228803Y-83304684D01*
X179252007Y-83310496D01*
X179274529Y-83318554D01*
X179296153Y-83328782D01*
X179316670Y-83341079D01*
X179335883Y-83355329D01*
X179353607Y-83371393D01*
X179369671Y-83389117D01*
X179383921Y-83408330D01*
X179396218Y-83428847D01*
X179406446Y-83450471D01*
X179414504Y-83472993D01*
X179420316Y-83496197D01*
X179423826Y-83519858D01*
X179425000Y-83543750D01*
X179425000Y-84456250D01*
X179423826Y-84480142D01*
X179420316Y-84503803D01*
X179414504Y-84527007D01*
X179406446Y-84549529D01*
X179396218Y-84571153D01*
X179383921Y-84591670D01*
X179369671Y-84610883D01*
X179353607Y-84628607D01*
X179335883Y-84644671D01*
X179316670Y-84658921D01*
X179296153Y-84671218D01*
X179274529Y-84681446D01*
X179252007Y-84689504D01*
X179228803Y-84695316D01*
X179205142Y-84698826D01*
X179181250Y-84700000D01*
X178693750Y-84700000D01*
X178669858Y-84698826D01*
X178646197Y-84695316D01*
X178622993Y-84689504D01*
X178600471Y-84681446D01*
X178578847Y-84671218D01*
X178558330Y-84658921D01*
X178539117Y-84644671D01*
X178521393Y-84628607D01*
X178505329Y-84610883D01*
X178491079Y-84591670D01*
X178478782Y-84571153D01*
X178468554Y-84549529D01*
X178460496Y-84527007D01*
X178454684Y-84503803D01*
X178451174Y-84480142D01*
X178450000Y-84456250D01*
X178450000Y-83543750D01*
X178451174Y-83519858D01*
X178454684Y-83496197D01*
X178460496Y-83472993D01*
X178468554Y-83450471D01*
X178478782Y-83428847D01*
X178491079Y-83408330D01*
X178505329Y-83389117D01*
X178521393Y-83371393D01*
X178539117Y-83355329D01*
X178558330Y-83341079D01*
X178578847Y-83328782D01*
X178600471Y-83318554D01*
X178622993Y-83310496D01*
X178646197Y-83304684D01*
X178669858Y-83301174D01*
X178693750Y-83300000D01*
X179181250Y-83300000D01*
X179205142Y-83301174D01*
G37*
M02*
