G04 #@! TF.GenerationSoftware,KiCad,Pcbnew,(5.1.5)-3*
G04 #@! TF.CreationDate,2021-01-18T14:34:05-06:00*
G04 #@! TF.ProjectId,USB-PT100,5553422d-5054-4313-9030-2e6b69636164,B*
G04 #@! TF.SameCoordinates,Original*
G04 #@! TF.FileFunction,Soldermask,Bot*
G04 #@! TF.FilePolarity,Negative*
%FSLAX46Y46*%
G04 Gerber Fmt 4.6, Leading zero omitted, Abs format (unit mm)*
G04 Created by KiCad (PCBNEW (5.1.5)-3) date 2021-01-18 14:34:05*
%MOMM*%
%LPD*%
G04 APERTURE LIST*
%ADD10C,0.100000*%
G04 APERTURE END LIST*
D10*
G36*
X146460104Y-96722585D02*
G01*
X146628626Y-96792389D01*
X146780291Y-96893728D01*
X146909272Y-97022709D01*
X147010611Y-97174374D01*
X147080415Y-97342896D01*
X147116000Y-97521797D01*
X147116000Y-97704203D01*
X147080415Y-97883104D01*
X147010611Y-98051626D01*
X146909272Y-98203291D01*
X146780291Y-98332272D01*
X146628626Y-98433611D01*
X146460104Y-98503415D01*
X146281203Y-98539000D01*
X146098797Y-98539000D01*
X145919896Y-98503415D01*
X145751374Y-98433611D01*
X145599709Y-98332272D01*
X145470728Y-98203291D01*
X145369389Y-98051626D01*
X145299585Y-97883104D01*
X145264000Y-97704203D01*
X145264000Y-97521797D01*
X145299585Y-97342896D01*
X145369389Y-97174374D01*
X145470728Y-97022709D01*
X145599709Y-96893728D01*
X145751374Y-96792389D01*
X145919896Y-96722585D01*
X146098797Y-96687000D01*
X146281203Y-96687000D01*
X146460104Y-96722585D01*
G37*
G36*
X139960104Y-96722585D02*
G01*
X140128626Y-96792389D01*
X140280291Y-96893728D01*
X140409272Y-97022709D01*
X140510611Y-97174374D01*
X140580415Y-97342896D01*
X140616000Y-97521797D01*
X140616000Y-97704203D01*
X140580415Y-97883104D01*
X140510611Y-98051626D01*
X140409272Y-98203291D01*
X140280291Y-98332272D01*
X140128626Y-98433611D01*
X139960104Y-98503415D01*
X139781203Y-98539000D01*
X139598797Y-98539000D01*
X139419896Y-98503415D01*
X139251374Y-98433611D01*
X139099709Y-98332272D01*
X138970728Y-98203291D01*
X138869389Y-98051626D01*
X138799585Y-97883104D01*
X138764000Y-97704203D01*
X138764000Y-97521797D01*
X138799585Y-97342896D01*
X138869389Y-97174374D01*
X138970728Y-97022709D01*
X139099709Y-96893728D01*
X139251374Y-96792389D01*
X139419896Y-96722585D01*
X139598797Y-96687000D01*
X139781203Y-96687000D01*
X139960104Y-96722585D01*
G37*
G36*
X183176626Y-95462037D02*
G01*
X183346465Y-95513557D01*
X183346467Y-95513558D01*
X183502989Y-95597221D01*
X183640186Y-95709814D01*
X183714319Y-95800147D01*
X183752778Y-95847009D01*
X183836443Y-96003534D01*
X183887963Y-96173373D01*
X183901000Y-96305742D01*
X183901000Y-96694257D01*
X183887963Y-96826626D01*
X183836443Y-96996466D01*
X183752778Y-97152991D01*
X183735229Y-97174374D01*
X183640186Y-97290186D01*
X183547348Y-97366375D01*
X183502991Y-97402778D01*
X183346466Y-97486443D01*
X183176627Y-97537963D01*
X183000000Y-97555359D01*
X182823374Y-97537963D01*
X182653535Y-97486443D01*
X182497010Y-97402778D01*
X182359815Y-97290185D01*
X182247222Y-97152991D01*
X182163557Y-96996466D01*
X182112037Y-96826627D01*
X182099000Y-96694258D01*
X182099000Y-96305743D01*
X182112037Y-96173374D01*
X182163557Y-96003535D01*
X182247222Y-95847010D01*
X182247223Y-95847009D01*
X182359814Y-95709814D01*
X182461271Y-95626552D01*
X182497009Y-95597222D01*
X182653534Y-95513557D01*
X182823373Y-95462037D01*
X183000000Y-95444641D01*
X183176626Y-95462037D01*
G37*
G36*
X194176626Y-95462037D02*
G01*
X194346465Y-95513557D01*
X194346467Y-95513558D01*
X194502989Y-95597221D01*
X194640186Y-95709814D01*
X194714319Y-95800147D01*
X194752778Y-95847009D01*
X194836443Y-96003534D01*
X194887963Y-96173373D01*
X194901000Y-96305742D01*
X194901000Y-96694257D01*
X194887963Y-96826626D01*
X194836443Y-96996466D01*
X194752778Y-97152991D01*
X194735229Y-97174374D01*
X194640186Y-97290186D01*
X194547348Y-97366375D01*
X194502991Y-97402778D01*
X194346466Y-97486443D01*
X194176627Y-97537963D01*
X194000000Y-97555359D01*
X193823374Y-97537963D01*
X193653535Y-97486443D01*
X193497010Y-97402778D01*
X193359815Y-97290185D01*
X193247222Y-97152991D01*
X193163557Y-96996466D01*
X193112037Y-96826627D01*
X193099000Y-96694258D01*
X193099000Y-96305743D01*
X193112037Y-96173374D01*
X193163557Y-96003535D01*
X193247222Y-95847010D01*
X193247223Y-95847009D01*
X193359814Y-95709814D01*
X193461271Y-95626552D01*
X193497009Y-95597222D01*
X193653534Y-95513557D01*
X193823373Y-95462037D01*
X194000000Y-95444641D01*
X194176626Y-95462037D01*
G37*
G36*
X192258600Y-95452989D02*
G01*
X192291652Y-95463015D01*
X192322103Y-95479292D01*
X192348799Y-95501201D01*
X192370708Y-95527897D01*
X192386985Y-95558348D01*
X192397011Y-95591400D01*
X192401000Y-95631903D01*
X192401000Y-97368097D01*
X192397011Y-97408600D01*
X192386985Y-97441652D01*
X192370708Y-97472103D01*
X192348799Y-97498799D01*
X192322103Y-97520708D01*
X192291652Y-97536985D01*
X192258600Y-97547011D01*
X192218097Y-97551000D01*
X190781903Y-97551000D01*
X190741400Y-97547011D01*
X190708348Y-97536985D01*
X190677897Y-97520708D01*
X190651201Y-97498799D01*
X190629292Y-97472103D01*
X190613015Y-97441652D01*
X190602989Y-97408600D01*
X190599000Y-97368097D01*
X190599000Y-95631903D01*
X190602989Y-95591400D01*
X190613015Y-95558348D01*
X190629292Y-95527897D01*
X190651201Y-95501201D01*
X190677897Y-95479292D01*
X190708348Y-95463015D01*
X190741400Y-95452989D01*
X190781903Y-95449000D01*
X192218097Y-95449000D01*
X192258600Y-95452989D01*
G37*
G36*
X181258600Y-95452989D02*
G01*
X181291652Y-95463015D01*
X181322103Y-95479292D01*
X181348799Y-95501201D01*
X181370708Y-95527897D01*
X181386985Y-95558348D01*
X181397011Y-95591400D01*
X181401000Y-95631903D01*
X181401000Y-97368097D01*
X181397011Y-97408600D01*
X181386985Y-97441652D01*
X181370708Y-97472103D01*
X181348799Y-97498799D01*
X181322103Y-97520708D01*
X181291652Y-97536985D01*
X181258600Y-97547011D01*
X181218097Y-97551000D01*
X179781903Y-97551000D01*
X179741400Y-97547011D01*
X179708348Y-97536985D01*
X179677897Y-97520708D01*
X179651201Y-97498799D01*
X179629292Y-97472103D01*
X179613015Y-97441652D01*
X179602989Y-97408600D01*
X179599000Y-97368097D01*
X179599000Y-95631903D01*
X179602989Y-95591400D01*
X179613015Y-95558348D01*
X179629292Y-95527897D01*
X179651201Y-95501201D01*
X179677897Y-95479292D01*
X179708348Y-95463015D01*
X179741400Y-95452989D01*
X179781903Y-95449000D01*
X181218097Y-95449000D01*
X181258600Y-95452989D01*
G37*
G36*
X157033512Y-95603927D02*
G01*
X157182812Y-95633624D01*
X157346784Y-95701544D01*
X157494354Y-95800147D01*
X157619853Y-95925646D01*
X157718456Y-96073216D01*
X157786376Y-96237188D01*
X157821000Y-96411259D01*
X157821000Y-96588741D01*
X157786376Y-96762812D01*
X157718456Y-96926784D01*
X157619853Y-97074354D01*
X157494354Y-97199853D01*
X157346784Y-97298456D01*
X157182812Y-97366376D01*
X157033512Y-97396073D01*
X157008742Y-97401000D01*
X156831258Y-97401000D01*
X156806488Y-97396073D01*
X156657188Y-97366376D01*
X156493216Y-97298456D01*
X156345646Y-97199853D01*
X156220147Y-97074354D01*
X156121544Y-96926784D01*
X156053624Y-96762812D01*
X156019000Y-96588741D01*
X156019000Y-96411259D01*
X156053624Y-96237188D01*
X156121544Y-96073216D01*
X156220147Y-95925646D01*
X156345646Y-95800147D01*
X156493216Y-95701544D01*
X156657188Y-95633624D01*
X156806488Y-95603927D01*
X156831258Y-95599000D01*
X157008742Y-95599000D01*
X157033512Y-95603927D01*
G37*
G36*
X162901000Y-97401000D02*
G01*
X161099000Y-97401000D01*
X161099000Y-95599000D01*
X162901000Y-95599000D01*
X162901000Y-97401000D01*
G37*
G36*
X159573512Y-95603927D02*
G01*
X159722812Y-95633624D01*
X159886784Y-95701544D01*
X160034354Y-95800147D01*
X160159853Y-95925646D01*
X160258456Y-96073216D01*
X160326376Y-96237188D01*
X160361000Y-96411259D01*
X160361000Y-96588741D01*
X160326376Y-96762812D01*
X160258456Y-96926784D01*
X160159853Y-97074354D01*
X160034354Y-97199853D01*
X159886784Y-97298456D01*
X159722812Y-97366376D01*
X159573512Y-97396073D01*
X159548742Y-97401000D01*
X159371258Y-97401000D01*
X159346488Y-97396073D01*
X159197188Y-97366376D01*
X159033216Y-97298456D01*
X158885646Y-97199853D01*
X158760147Y-97074354D01*
X158661544Y-96926784D01*
X158593624Y-96762812D01*
X158559000Y-96588741D01*
X158559000Y-96411259D01*
X158593624Y-96237188D01*
X158661544Y-96073216D01*
X158760147Y-95925646D01*
X158885646Y-95800147D01*
X159033216Y-95701544D01*
X159197188Y-95633624D01*
X159346488Y-95603927D01*
X159371258Y-95599000D01*
X159548742Y-95599000D01*
X159573512Y-95603927D01*
G37*
G36*
X153379487Y-89383996D02*
G01*
X153616253Y-89482068D01*
X153616255Y-89482069D01*
X153829339Y-89624447D01*
X154010553Y-89805661D01*
X154152932Y-90018747D01*
X154251004Y-90255513D01*
X154301000Y-90506861D01*
X154301000Y-90763139D01*
X154251004Y-91014487D01*
X154152932Y-91251253D01*
X154152931Y-91251255D01*
X154010553Y-91464339D01*
X153829339Y-91645553D01*
X153616255Y-91787931D01*
X153616254Y-91787932D01*
X153616253Y-91787932D01*
X153379487Y-91886004D01*
X153128139Y-91936000D01*
X152871861Y-91936000D01*
X152620513Y-91886004D01*
X152383747Y-91787932D01*
X152383746Y-91787932D01*
X152383745Y-91787931D01*
X152170661Y-91645553D01*
X151989447Y-91464339D01*
X151847069Y-91251255D01*
X151847068Y-91251253D01*
X151748996Y-91014487D01*
X151699000Y-90763139D01*
X151699000Y-90506861D01*
X151748996Y-90255513D01*
X151847068Y-90018747D01*
X151989447Y-89805661D01*
X152170661Y-89624447D01*
X152383745Y-89482069D01*
X152383747Y-89482068D01*
X152620513Y-89383996D01*
X152871861Y-89334000D01*
X153128139Y-89334000D01*
X153379487Y-89383996D01*
G37*
G36*
X153379487Y-85723996D02*
G01*
X153616253Y-85822068D01*
X153616255Y-85822069D01*
X153829339Y-85964447D01*
X154010553Y-86145661D01*
X154152932Y-86358747D01*
X154251004Y-86595513D01*
X154301000Y-86846861D01*
X154301000Y-87103139D01*
X154251004Y-87354487D01*
X154152932Y-87591253D01*
X154152931Y-87591255D01*
X154010553Y-87804339D01*
X153829339Y-87985553D01*
X153616255Y-88127931D01*
X153616254Y-88127932D01*
X153616253Y-88127932D01*
X153379487Y-88226004D01*
X153128139Y-88276000D01*
X152871861Y-88276000D01*
X152620513Y-88226004D01*
X152383747Y-88127932D01*
X152383746Y-88127932D01*
X152383745Y-88127931D01*
X152170661Y-87985553D01*
X151989447Y-87804339D01*
X151847069Y-87591255D01*
X151847068Y-87591253D01*
X151748996Y-87354487D01*
X151699000Y-87103139D01*
X151699000Y-86846861D01*
X151748996Y-86595513D01*
X151847068Y-86358747D01*
X151989447Y-86145661D01*
X152170661Y-85964447D01*
X152383745Y-85822069D01*
X152383747Y-85822068D01*
X152620513Y-85723996D01*
X152871861Y-85674000D01*
X153128139Y-85674000D01*
X153379487Y-85723996D01*
G37*
G36*
X148101000Y-83851000D02*
G01*
X145399000Y-83851000D01*
X145399000Y-81149000D01*
X148101000Y-81149000D01*
X148101000Y-83851000D01*
G37*
G36*
X142064072Y-81200918D02*
G01*
X142260827Y-81282416D01*
X142309939Y-81302759D01*
X142383736Y-81352069D01*
X142531211Y-81450609D01*
X142719391Y-81638789D01*
X142742501Y-81673376D01*
X142830947Y-81805743D01*
X142867242Y-81860063D01*
X142969082Y-82105928D01*
X143021000Y-82366937D01*
X143021000Y-82633063D01*
X142969082Y-82894072D01*
X142936231Y-82973383D01*
X142867241Y-83139939D01*
X142719390Y-83361212D01*
X142531212Y-83549390D01*
X142309939Y-83697241D01*
X142309938Y-83697242D01*
X142309937Y-83697242D01*
X142064072Y-83799082D01*
X141803063Y-83851000D01*
X141536937Y-83851000D01*
X141275928Y-83799082D01*
X141030063Y-83697242D01*
X141030062Y-83697242D01*
X141030061Y-83697241D01*
X140808788Y-83549390D01*
X140620610Y-83361212D01*
X140472759Y-83139939D01*
X140403770Y-82973383D01*
X140370918Y-82894072D01*
X140319000Y-82633063D01*
X140319000Y-82366937D01*
X140370918Y-82105928D01*
X140472758Y-81860063D01*
X140509054Y-81805743D01*
X140597499Y-81673376D01*
X140620609Y-81638789D01*
X140808789Y-81450609D01*
X140956264Y-81352069D01*
X141030061Y-81302759D01*
X141079174Y-81282416D01*
X141275928Y-81200918D01*
X141536937Y-81149000D01*
X141803063Y-81149000D01*
X142064072Y-81200918D01*
G37*
G36*
X137941000Y-83851000D02*
G01*
X135239000Y-83851000D01*
X135239000Y-81149000D01*
X137941000Y-81149000D01*
X137941000Y-83851000D01*
G37*
G36*
X165701000Y-83851000D02*
G01*
X162999000Y-83851000D01*
X162999000Y-81149000D01*
X165701000Y-81149000D01*
X165701000Y-83851000D01*
G37*
G36*
X159664072Y-81200918D02*
G01*
X159860827Y-81282416D01*
X159909939Y-81302759D01*
X159983736Y-81352069D01*
X160131211Y-81450609D01*
X160319391Y-81638789D01*
X160342501Y-81673376D01*
X160430947Y-81805743D01*
X160467242Y-81860063D01*
X160569082Y-82105928D01*
X160621000Y-82366937D01*
X160621000Y-82633063D01*
X160569082Y-82894072D01*
X160536231Y-82973383D01*
X160467241Y-83139939D01*
X160319390Y-83361212D01*
X160131212Y-83549390D01*
X159909939Y-83697241D01*
X159909938Y-83697242D01*
X159909937Y-83697242D01*
X159664072Y-83799082D01*
X159403063Y-83851000D01*
X159136937Y-83851000D01*
X158875928Y-83799082D01*
X158630063Y-83697242D01*
X158630062Y-83697242D01*
X158630061Y-83697241D01*
X158408788Y-83549390D01*
X158220610Y-83361212D01*
X158072759Y-83139939D01*
X158003770Y-82973383D01*
X157970918Y-82894072D01*
X157919000Y-82633063D01*
X157919000Y-82366937D01*
X157970918Y-82105928D01*
X158072758Y-81860063D01*
X158109054Y-81805743D01*
X158197499Y-81673376D01*
X158220609Y-81638789D01*
X158408789Y-81450609D01*
X158556264Y-81352069D01*
X158630061Y-81302759D01*
X158679174Y-81282416D01*
X158875928Y-81200918D01*
X159136937Y-81149000D01*
X159403063Y-81149000D01*
X159664072Y-81200918D01*
G37*
G36*
X131904072Y-81200918D02*
G01*
X132100827Y-81282416D01*
X132149939Y-81302759D01*
X132223736Y-81352069D01*
X132371211Y-81450609D01*
X132559391Y-81638789D01*
X132582501Y-81673376D01*
X132670947Y-81805743D01*
X132707242Y-81860063D01*
X132809082Y-82105928D01*
X132861000Y-82366937D01*
X132861000Y-82633063D01*
X132809082Y-82894072D01*
X132776231Y-82973383D01*
X132707241Y-83139939D01*
X132559390Y-83361212D01*
X132371212Y-83549390D01*
X132149939Y-83697241D01*
X132149938Y-83697242D01*
X132149937Y-83697242D01*
X131904072Y-83799082D01*
X131643063Y-83851000D01*
X131376937Y-83851000D01*
X131115928Y-83799082D01*
X130870063Y-83697242D01*
X130870062Y-83697242D01*
X130870061Y-83697241D01*
X130648788Y-83549390D01*
X130460610Y-83361212D01*
X130312759Y-83139939D01*
X130243770Y-82973383D01*
X130210918Y-82894072D01*
X130159000Y-82633063D01*
X130159000Y-82366937D01*
X130210918Y-82105928D01*
X130312758Y-81860063D01*
X130349054Y-81805743D01*
X130437499Y-81673376D01*
X130460609Y-81638789D01*
X130648789Y-81450609D01*
X130796264Y-81352069D01*
X130870061Y-81302759D01*
X130919174Y-81282416D01*
X131115928Y-81200918D01*
X131376937Y-81149000D01*
X131643063Y-81149000D01*
X131904072Y-81200918D01*
G37*
G36*
X153379487Y-81253996D02*
G01*
X153604044Y-81347011D01*
X153616255Y-81352069D01*
X153829339Y-81494447D01*
X154010553Y-81675661D01*
X154097470Y-81805741D01*
X154152932Y-81888747D01*
X154251004Y-82125513D01*
X154301000Y-82376861D01*
X154301000Y-82633139D01*
X154251004Y-82884487D01*
X154208772Y-82986443D01*
X154152931Y-83121255D01*
X154010553Y-83334339D01*
X153829339Y-83515553D01*
X153616255Y-83657931D01*
X153616254Y-83657932D01*
X153616253Y-83657932D01*
X153379487Y-83756004D01*
X153128139Y-83806000D01*
X152871861Y-83806000D01*
X152620513Y-83756004D01*
X152383747Y-83657932D01*
X152383746Y-83657932D01*
X152383745Y-83657931D01*
X152170661Y-83515553D01*
X151989447Y-83334339D01*
X151847069Y-83121255D01*
X151791228Y-82986443D01*
X151748996Y-82884487D01*
X151699000Y-82633139D01*
X151699000Y-82376861D01*
X151748996Y-82125513D01*
X151847068Y-81888747D01*
X151902531Y-81805741D01*
X151989447Y-81675661D01*
X152170661Y-81494447D01*
X152383745Y-81352069D01*
X152395956Y-81347011D01*
X152620513Y-81253996D01*
X152871861Y-81204000D01*
X153128139Y-81204000D01*
X153379487Y-81253996D01*
G37*
G36*
X122176627Y-80962037D02*
G01*
X122346466Y-81013557D01*
X122502991Y-81097222D01*
X122538729Y-81126552D01*
X122640186Y-81209814D01*
X122699767Y-81282415D01*
X122752778Y-81347009D01*
X122836443Y-81503534D01*
X122887963Y-81673374D01*
X122901000Y-81805743D01*
X122901000Y-82194258D01*
X122887963Y-82326627D01*
X122836443Y-82496466D01*
X122752778Y-82652991D01*
X122723448Y-82688729D01*
X122640186Y-82790186D01*
X122502989Y-82902779D01*
X122346467Y-82986442D01*
X122346465Y-82986443D01*
X122176626Y-83037963D01*
X122000000Y-83055359D01*
X121823373Y-83037963D01*
X121653534Y-82986443D01*
X121497009Y-82902778D01*
X121454750Y-82868097D01*
X121359814Y-82790186D01*
X121247221Y-82652989D01*
X121163558Y-82496467D01*
X121163557Y-82496465D01*
X121112037Y-82326626D01*
X121099000Y-82194257D01*
X121099000Y-81805742D01*
X121112037Y-81673373D01*
X121163557Y-81503534D01*
X121247222Y-81347009D01*
X121359815Y-81209815D01*
X121497010Y-81097222D01*
X121653535Y-81013557D01*
X121823374Y-80962037D01*
X122000000Y-80944641D01*
X122176627Y-80962037D01*
G37*
G36*
X111926627Y-80962037D02*
G01*
X112096466Y-81013557D01*
X112252991Y-81097222D01*
X112288729Y-81126552D01*
X112390186Y-81209814D01*
X112449767Y-81282415D01*
X112502778Y-81347009D01*
X112586443Y-81503534D01*
X112637963Y-81673374D01*
X112651000Y-81805743D01*
X112651000Y-82194258D01*
X112637963Y-82326627D01*
X112586443Y-82496466D01*
X112502778Y-82652991D01*
X112473448Y-82688729D01*
X112390186Y-82790186D01*
X112252989Y-82902779D01*
X112096467Y-82986442D01*
X112096465Y-82986443D01*
X111926626Y-83037963D01*
X111750000Y-83055359D01*
X111573373Y-83037963D01*
X111403534Y-82986443D01*
X111247009Y-82902778D01*
X111204750Y-82868097D01*
X111109814Y-82790186D01*
X110997221Y-82652989D01*
X110913558Y-82496467D01*
X110913557Y-82496465D01*
X110862037Y-82326626D01*
X110849000Y-82194257D01*
X110849000Y-81805742D01*
X110862037Y-81673373D01*
X110913557Y-81503534D01*
X110997222Y-81347009D01*
X111109815Y-81209815D01*
X111247010Y-81097222D01*
X111403535Y-81013557D01*
X111573374Y-80962037D01*
X111750000Y-80944641D01*
X111926627Y-80962037D01*
G37*
G36*
X125258600Y-80952989D02*
G01*
X125291652Y-80963015D01*
X125322103Y-80979292D01*
X125348799Y-81001201D01*
X125370708Y-81027897D01*
X125386985Y-81058348D01*
X125397011Y-81091400D01*
X125401000Y-81131903D01*
X125401000Y-82868097D01*
X125397011Y-82908600D01*
X125386985Y-82941652D01*
X125370708Y-82972103D01*
X125348799Y-82998799D01*
X125322103Y-83020708D01*
X125291652Y-83036985D01*
X125258600Y-83047011D01*
X125218097Y-83051000D01*
X123781903Y-83051000D01*
X123741400Y-83047011D01*
X123708348Y-83036985D01*
X123677897Y-83020708D01*
X123651201Y-82998799D01*
X123629292Y-82972103D01*
X123613015Y-82941652D01*
X123602989Y-82908600D01*
X123599000Y-82868097D01*
X123599000Y-81131903D01*
X123602989Y-81091400D01*
X123613015Y-81058348D01*
X123629292Y-81027897D01*
X123651201Y-81001201D01*
X123677897Y-80979292D01*
X123708348Y-80963015D01*
X123741400Y-80952989D01*
X123781903Y-80949000D01*
X125218097Y-80949000D01*
X125258600Y-80952989D01*
G37*
G36*
X115008600Y-80952989D02*
G01*
X115041652Y-80963015D01*
X115072103Y-80979292D01*
X115098799Y-81001201D01*
X115120708Y-81027897D01*
X115136985Y-81058348D01*
X115147011Y-81091400D01*
X115151000Y-81131903D01*
X115151000Y-82868097D01*
X115147011Y-82908600D01*
X115136985Y-82941652D01*
X115120708Y-82972103D01*
X115098799Y-82998799D01*
X115072103Y-83020708D01*
X115041652Y-83036985D01*
X115008600Y-83047011D01*
X114968097Y-83051000D01*
X113531903Y-83051000D01*
X113491400Y-83047011D01*
X113458348Y-83036985D01*
X113427897Y-83020708D01*
X113401201Y-82998799D01*
X113379292Y-82972103D01*
X113363015Y-82941652D01*
X113352989Y-82908600D01*
X113349000Y-82868097D01*
X113349000Y-81131903D01*
X113352989Y-81091400D01*
X113363015Y-81058348D01*
X113379292Y-81027897D01*
X113401201Y-81001201D01*
X113427897Y-80979292D01*
X113458348Y-80963015D01*
X113491400Y-80952989D01*
X113531903Y-80949000D01*
X114968097Y-80949000D01*
X115008600Y-80952989D01*
G37*
G36*
X196375256Y-78391298D02*
G01*
X196481579Y-78412447D01*
X196782042Y-78536903D01*
X197052451Y-78717585D01*
X197282415Y-78947549D01*
X197376757Y-79088742D01*
X197463098Y-79217960D01*
X197465802Y-79224488D01*
X197587553Y-79518421D01*
X197598679Y-79574354D01*
X197651000Y-79837389D01*
X197651000Y-80162611D01*
X197643974Y-80197931D01*
X197587553Y-80481579D01*
X197463097Y-80782042D01*
X197282415Y-81052451D01*
X197052451Y-81282415D01*
X196782042Y-81463097D01*
X196782041Y-81463098D01*
X196782040Y-81463098D01*
X196694037Y-81499550D01*
X196481579Y-81587553D01*
X196375256Y-81608702D01*
X196162611Y-81651000D01*
X195837389Y-81651000D01*
X195624744Y-81608702D01*
X195518421Y-81587553D01*
X195305963Y-81499550D01*
X195217960Y-81463098D01*
X195217959Y-81463098D01*
X195217958Y-81463097D01*
X194947549Y-81282415D01*
X194717585Y-81052451D01*
X194536903Y-80782042D01*
X194412447Y-80481579D01*
X194356026Y-80197931D01*
X194349000Y-80162611D01*
X194349000Y-79837389D01*
X194401321Y-79574354D01*
X194412447Y-79518421D01*
X194534198Y-79224488D01*
X194536902Y-79217960D01*
X194623243Y-79088742D01*
X194717585Y-78947549D01*
X194947549Y-78717585D01*
X195217958Y-78536903D01*
X195518421Y-78412447D01*
X195624744Y-78391298D01*
X195837389Y-78349000D01*
X196162611Y-78349000D01*
X196375256Y-78391298D01*
G37*
G36*
X104375256Y-78391298D02*
G01*
X104481579Y-78412447D01*
X104782042Y-78536903D01*
X105052451Y-78717585D01*
X105282415Y-78947549D01*
X105376757Y-79088742D01*
X105463098Y-79217960D01*
X105465802Y-79224488D01*
X105587553Y-79518421D01*
X105598679Y-79574354D01*
X105651000Y-79837389D01*
X105651000Y-80162611D01*
X105643974Y-80197931D01*
X105587553Y-80481579D01*
X105463097Y-80782042D01*
X105282415Y-81052451D01*
X105052451Y-81282415D01*
X104782042Y-81463097D01*
X104782041Y-81463098D01*
X104782040Y-81463098D01*
X104694037Y-81499550D01*
X104481579Y-81587553D01*
X104375256Y-81608702D01*
X104162611Y-81651000D01*
X103837389Y-81651000D01*
X103624744Y-81608702D01*
X103518421Y-81587553D01*
X103305963Y-81499550D01*
X103217960Y-81463098D01*
X103217959Y-81463098D01*
X103217958Y-81463097D01*
X102947549Y-81282415D01*
X102717585Y-81052451D01*
X102536903Y-80782042D01*
X102412447Y-80481579D01*
X102356026Y-80197931D01*
X102349000Y-80162611D01*
X102349000Y-79837389D01*
X102401321Y-79574354D01*
X102412447Y-79518421D01*
X102534198Y-79224488D01*
X102536902Y-79217960D01*
X102623243Y-79088742D01*
X102717585Y-78947549D01*
X102947549Y-78717585D01*
X103217958Y-78536903D01*
X103518421Y-78412447D01*
X103624744Y-78391298D01*
X103837389Y-78349000D01*
X104162611Y-78349000D01*
X104375256Y-78391298D01*
G37*
G36*
X179468348Y-79375320D02*
G01*
X179468350Y-79375321D01*
X179468351Y-79375321D01*
X179609574Y-79433817D01*
X179609577Y-79433819D01*
X179736669Y-79518739D01*
X179844761Y-79626831D01*
X179929681Y-79753923D01*
X179929683Y-79753926D01*
X179976261Y-79866376D01*
X179988180Y-79895152D01*
X180008624Y-79997932D01*
X180018000Y-80045071D01*
X180018000Y-80197929D01*
X179988179Y-80347851D01*
X179929683Y-80489074D01*
X179929681Y-80489077D01*
X179844761Y-80616169D01*
X179736669Y-80724261D01*
X179650196Y-80782040D01*
X179609574Y-80809183D01*
X179468351Y-80867679D01*
X179468350Y-80867679D01*
X179468348Y-80867680D01*
X179318431Y-80897500D01*
X179165569Y-80897500D01*
X179015652Y-80867680D01*
X179015650Y-80867679D01*
X179015649Y-80867679D01*
X178874426Y-80809183D01*
X178833804Y-80782040D01*
X178747331Y-80724261D01*
X178639239Y-80616169D01*
X178554319Y-80489077D01*
X178554317Y-80489074D01*
X178495821Y-80347851D01*
X178466000Y-80197929D01*
X178466000Y-80045071D01*
X178475376Y-79997932D01*
X178495820Y-79895152D01*
X178507739Y-79866376D01*
X178554317Y-79753926D01*
X178554319Y-79753923D01*
X178639239Y-79626831D01*
X178747331Y-79518739D01*
X178874423Y-79433819D01*
X178874426Y-79433817D01*
X179015649Y-79375321D01*
X179015650Y-79375321D01*
X179015652Y-79375320D01*
X179165569Y-79345500D01*
X179318431Y-79345500D01*
X179468348Y-79375320D01*
G37*
G36*
X184468348Y-79375320D02*
G01*
X184468350Y-79375321D01*
X184468351Y-79375321D01*
X184609574Y-79433817D01*
X184609577Y-79433819D01*
X184736669Y-79518739D01*
X184844761Y-79626831D01*
X184929681Y-79753923D01*
X184929683Y-79753926D01*
X184976261Y-79866376D01*
X184988180Y-79895152D01*
X185008624Y-79997932D01*
X185018000Y-80045071D01*
X185018000Y-80197929D01*
X184988179Y-80347851D01*
X184929683Y-80489074D01*
X184929681Y-80489077D01*
X184844761Y-80616169D01*
X184736669Y-80724261D01*
X184650196Y-80782040D01*
X184609574Y-80809183D01*
X184468351Y-80867679D01*
X184468350Y-80867679D01*
X184468348Y-80867680D01*
X184318431Y-80897500D01*
X184165569Y-80897500D01*
X184015652Y-80867680D01*
X184015650Y-80867679D01*
X184015649Y-80867679D01*
X183874426Y-80809183D01*
X183833804Y-80782040D01*
X183747331Y-80724261D01*
X183639239Y-80616169D01*
X183554319Y-80489077D01*
X183554317Y-80489074D01*
X183495821Y-80347851D01*
X183466000Y-80197929D01*
X183466000Y-80045071D01*
X183475376Y-79997932D01*
X183495820Y-79895152D01*
X183507739Y-79866376D01*
X183554317Y-79753926D01*
X183554319Y-79753923D01*
X183639239Y-79626831D01*
X183747331Y-79518739D01*
X183874423Y-79433819D01*
X183874426Y-79433817D01*
X184015649Y-79375321D01*
X184015650Y-79375321D01*
X184015652Y-79375320D01*
X184165569Y-79345500D01*
X184318431Y-79345500D01*
X184468348Y-79375320D01*
G37*
G36*
X153379487Y-77593996D02*
G01*
X153616253Y-77692068D01*
X153616255Y-77692069D01*
X153829339Y-77834447D01*
X154010553Y-78015661D01*
X154090243Y-78134925D01*
X154152932Y-78228747D01*
X154251004Y-78465513D01*
X154301000Y-78716861D01*
X154301000Y-78973139D01*
X154251004Y-79224487D01*
X154152932Y-79461253D01*
X154152931Y-79461255D01*
X154010553Y-79674339D01*
X153829339Y-79855553D01*
X153616255Y-79997931D01*
X153616254Y-79997932D01*
X153616253Y-79997932D01*
X153379487Y-80096004D01*
X153128139Y-80146000D01*
X152871861Y-80146000D01*
X152620513Y-80096004D01*
X152383747Y-79997932D01*
X152383746Y-79997932D01*
X152383745Y-79997931D01*
X152170661Y-79855553D01*
X151989447Y-79674339D01*
X151847069Y-79461255D01*
X151847068Y-79461253D01*
X151748996Y-79224487D01*
X151699000Y-78973139D01*
X151699000Y-78716861D01*
X151748996Y-78465513D01*
X151847068Y-78228747D01*
X151909758Y-78134925D01*
X151989447Y-78015661D01*
X152170661Y-77834447D01*
X152383745Y-77692069D01*
X152383747Y-77692068D01*
X152620513Y-77593996D01*
X152871861Y-77544000D01*
X153128139Y-77544000D01*
X153379487Y-77593996D01*
G37*
G36*
X170901000Y-79901000D02*
G01*
X169099000Y-79901000D01*
X169099000Y-78099000D01*
X170901000Y-78099000D01*
X170901000Y-79901000D01*
G37*
G36*
X172653512Y-78103927D02*
G01*
X172802812Y-78133624D01*
X172966784Y-78201544D01*
X173114354Y-78300147D01*
X173239853Y-78425646D01*
X173338456Y-78573216D01*
X173406376Y-78737188D01*
X173441000Y-78911259D01*
X173441000Y-79088741D01*
X173406376Y-79262812D01*
X173338456Y-79426784D01*
X173239853Y-79574354D01*
X173114354Y-79699853D01*
X172966784Y-79798456D01*
X172802812Y-79866376D01*
X172653512Y-79896073D01*
X172628742Y-79901000D01*
X172451258Y-79901000D01*
X172426488Y-79896073D01*
X172277188Y-79866376D01*
X172113216Y-79798456D01*
X171965646Y-79699853D01*
X171840147Y-79574354D01*
X171741544Y-79426784D01*
X171673624Y-79262812D01*
X171639000Y-79088741D01*
X171639000Y-78911259D01*
X171673624Y-78737188D01*
X171741544Y-78573216D01*
X171840147Y-78425646D01*
X171965646Y-78300147D01*
X172113216Y-78201544D01*
X172277188Y-78133624D01*
X172426488Y-78103927D01*
X172451258Y-78099000D01*
X172628742Y-78099000D01*
X172653512Y-78103927D01*
G37*
G36*
X185369617Y-76429920D02*
G01*
X185460403Y-76457460D01*
X185492335Y-76467146D01*
X185605424Y-76527594D01*
X185704554Y-76608947D01*
X185785906Y-76708075D01*
X185846354Y-76821164D01*
X185856040Y-76853096D01*
X185883580Y-76943882D01*
X185893000Y-77039527D01*
X185893000Y-77803473D01*
X185883580Y-77899118D01*
X185856040Y-77989904D01*
X185846354Y-78021836D01*
X185785906Y-78134925D01*
X185704554Y-78234054D01*
X185605425Y-78315406D01*
X185492336Y-78375854D01*
X185460404Y-78385540D01*
X185369618Y-78413080D01*
X185242000Y-78425649D01*
X185114383Y-78413080D01*
X185023597Y-78385540D01*
X184991665Y-78375854D01*
X184878576Y-78315406D01*
X184779447Y-78234054D01*
X184698095Y-78134925D01*
X184637648Y-78021837D01*
X184637645Y-78021832D01*
X184600420Y-77899118D01*
X184591000Y-77803473D01*
X184591000Y-77039528D01*
X184600420Y-76943883D01*
X184637645Y-76821169D01*
X184637646Y-76821165D01*
X184698094Y-76708076D01*
X184779447Y-76608946D01*
X184878575Y-76527594D01*
X184991664Y-76467146D01*
X185023596Y-76457460D01*
X185114382Y-76429920D01*
X185242000Y-76417351D01*
X185369617Y-76429920D01*
G37*
G36*
X178369618Y-76429920D02*
G01*
X178460404Y-76457460D01*
X178492336Y-76467146D01*
X178605425Y-76527594D01*
X178704554Y-76608946D01*
X178785906Y-76708075D01*
X178846354Y-76821164D01*
X178856040Y-76853096D01*
X178883580Y-76943882D01*
X178893000Y-77039527D01*
X178893000Y-77803473D01*
X178883580Y-77899118D01*
X178856040Y-77989904D01*
X178846354Y-78021836D01*
X178785906Y-78134925D01*
X178704554Y-78234053D01*
X178605424Y-78315406D01*
X178492335Y-78375854D01*
X178460403Y-78385540D01*
X178369617Y-78413080D01*
X178242000Y-78425649D01*
X178114382Y-78413080D01*
X178023596Y-78385540D01*
X177991664Y-78375854D01*
X177878575Y-78315406D01*
X177779447Y-78234054D01*
X177698094Y-78134924D01*
X177637646Y-78021835D01*
X177627960Y-77989903D01*
X177600420Y-77899117D01*
X177591000Y-77803472D01*
X177591000Y-77039527D01*
X177600420Y-76943882D01*
X177637645Y-76821168D01*
X177662608Y-76774466D01*
X177698095Y-76708075D01*
X177779447Y-76608946D01*
X177878576Y-76527594D01*
X177991665Y-76467146D01*
X178023597Y-76457460D01*
X178114383Y-76429920D01*
X178242000Y-76417351D01*
X178369618Y-76429920D01*
G37*
M02*
